%TF.GenerationSoftware,Altium Limited,Altium Designer,21.2.0 (30)*%
G04 Layer_Color=32896*
%FSLAX45Y45*%
%MOMM*%
%TF.SameCoordinates,6E67B6D2-48A1-4C3A-8D5B-8FB38F647B41*%
%TF.FilePolarity,Positive*%
%TF.FileFunction,Other,Bottom_Assembly*%
%TF.Part,Single*%
G01*
G75*
%TA.AperFunction,NonConductor*%
%ADD34C,0.20000*%
G36*
X3303668Y3396541D02*
X3345088D01*
Y3390162D01*
X3303668Y3360853D01*
X3296456D01*
Y3388682D01*
X3281108D01*
Y3396541D01*
X3296456D01*
Y3405232D01*
X3303668D01*
Y3396541D01*
D02*
G37*
G36*
X3288690Y3323593D02*
X3290261Y3324703D01*
X3290909Y3325258D01*
X3291556Y3325720D01*
X3292111Y3326182D01*
X3292480Y3326552D01*
X3292758Y3326829D01*
X3292850Y3326922D01*
X3293312Y3327384D01*
X3293775Y3327939D01*
X3294977Y3329233D01*
X3296363Y3330712D01*
X3297750Y3332284D01*
X3298952Y3333763D01*
X3299507Y3334411D01*
X3300062Y3334965D01*
X3300432Y3335428D01*
X3300709Y3335797D01*
X3300894Y3335982D01*
X3300986Y3336075D01*
X3302281Y3337554D01*
X3303483Y3339033D01*
X3304685Y3340328D01*
X3305702Y3341530D01*
X3306719Y3342639D01*
X3307643Y3343564D01*
X3308475Y3344488D01*
X3309215Y3345228D01*
X3309955Y3345968D01*
X3310509Y3346522D01*
X3310972Y3346985D01*
X3311434Y3347447D01*
X3311989Y3347909D01*
X3312173Y3348094D01*
X3313745Y3349389D01*
X3315132Y3350498D01*
X3316519Y3351423D01*
X3317628Y3352162D01*
X3318645Y3352717D01*
X3319385Y3353087D01*
X3319847Y3353272D01*
X3320032Y3353364D01*
X3321419Y3353919D01*
X3322806Y3354289D01*
X3324100Y3354659D01*
X3325210Y3354843D01*
X3326227Y3354936D01*
X3326966Y3355028D01*
X3327429D01*
X3327614D01*
X3329000Y3354936D01*
X3330295Y3354751D01*
X3331589Y3354566D01*
X3332699Y3354196D01*
X3334918Y3353272D01*
X3336674Y3352347D01*
X3337506Y3351792D01*
X3338154Y3351330D01*
X3338801Y3350868D01*
X3339263Y3350406D01*
X3339633Y3350036D01*
X3340003Y3349851D01*
X3340095Y3349666D01*
X3340188Y3349573D01*
X3341112Y3348556D01*
X3341944Y3347447D01*
X3342591Y3346245D01*
X3343146Y3345043D01*
X3344071Y3342639D01*
X3344718Y3340235D01*
X3344903Y3339218D01*
X3345088Y3338201D01*
X3345180Y3337277D01*
X3345273Y3336537D01*
X3345365Y3335890D01*
Y3334965D01*
X3345273Y3333301D01*
X3345180Y3331729D01*
X3344903Y3330250D01*
X3344626Y3328863D01*
X3344256Y3327569D01*
X3343886Y3326367D01*
X3343424Y3325258D01*
X3342961Y3324240D01*
X3342499Y3323316D01*
X3342037Y3322576D01*
X3341667Y3321929D01*
X3341297Y3321374D01*
X3341020Y3320912D01*
X3340742Y3320635D01*
X3340650Y3320450D01*
X3340557Y3320357D01*
X3339633Y3319433D01*
X3338616Y3318601D01*
X3337506Y3317769D01*
X3336397Y3317121D01*
X3334178Y3316012D01*
X3331959Y3315272D01*
X3330942Y3314995D01*
X3329925Y3314718D01*
X3329093Y3314533D01*
X3328353Y3314348D01*
X3327706Y3314255D01*
X3327244D01*
X3326966Y3314163D01*
X3326874D01*
X3326042Y3322206D01*
X3328168Y3322391D01*
X3330017Y3322761D01*
X3331682Y3323316D01*
X3332976Y3323963D01*
X3334086Y3324518D01*
X3334825Y3325073D01*
X3335287Y3325442D01*
X3335472Y3325627D01*
X3336582Y3327014D01*
X3337414Y3328493D01*
X3338061Y3330065D01*
X3338431Y3331452D01*
X3338708Y3332746D01*
X3338801Y3333856D01*
X3338893Y3334226D01*
Y3334780D01*
X3338801Y3336722D01*
X3338431Y3338479D01*
X3337876Y3339958D01*
X3337321Y3341252D01*
X3336674Y3342269D01*
X3336212Y3342917D01*
X3335842Y3343379D01*
X3335657Y3343564D01*
X3334363Y3344673D01*
X3333069Y3345505D01*
X3331774Y3346153D01*
X3330480Y3346522D01*
X3329463Y3346800D01*
X3328538Y3346892D01*
X3327983Y3346985D01*
X3327891D01*
X3327799D01*
X3326134Y3346800D01*
X3324378Y3346430D01*
X3322806Y3345783D01*
X3321327Y3345136D01*
X3320125Y3344396D01*
X3319108Y3343749D01*
X3318738Y3343564D01*
X3318460Y3343379D01*
X3318368Y3343194D01*
X3318276D01*
X3317259Y3342454D01*
X3316242Y3341530D01*
X3315132Y3340513D01*
X3314023Y3339403D01*
X3311804Y3337092D01*
X3309585Y3334780D01*
X3308568Y3333579D01*
X3307643Y3332562D01*
X3306811Y3331545D01*
X3306071Y3330712D01*
X3305517Y3330065D01*
X3305054Y3329510D01*
X3304777Y3329141D01*
X3304685Y3329048D01*
X3302743Y3326737D01*
X3300894Y3324610D01*
X3299230Y3322854D01*
X3297843Y3321467D01*
X3296641Y3320265D01*
X3295809Y3319433D01*
X3295254Y3318971D01*
X3295162Y3318786D01*
X3295069D01*
X3293497Y3317491D01*
X3292018Y3316474D01*
X3290539Y3315550D01*
X3289244Y3314810D01*
X3288135Y3314255D01*
X3287303Y3313885D01*
X3286748Y3313701D01*
X3286656Y3313608D01*
X3286563D01*
X3285546Y3313238D01*
X3284622Y3313053D01*
X3283697Y3312868D01*
X3282865Y3312776D01*
X3282125Y3312683D01*
X3281571D01*
X3281201D01*
X3281108D01*
Y3355121D01*
X3288690D01*
Y3323593D01*
D02*
G37*
G36*
X3303483Y3298075D02*
X3302003Y3297706D01*
X3300616Y3297243D01*
X3299322Y3296781D01*
X3298120Y3296319D01*
X3297011Y3295764D01*
X3296086Y3295209D01*
X3295162Y3294562D01*
X3294329Y3294007D01*
X3293590Y3293545D01*
X3293035Y3292990D01*
X3292480Y3292528D01*
X3292018Y3292158D01*
X3291741Y3291788D01*
X3291463Y3291511D01*
X3291371Y3291419D01*
X3291278Y3291326D01*
X3290539Y3290402D01*
X3289984Y3289385D01*
X3288967Y3287351D01*
X3288227Y3285409D01*
X3287765Y3283467D01*
X3287395Y3281803D01*
X3287303Y3281156D01*
Y3280509D01*
X3287210Y3279954D01*
Y3279307D01*
X3287303Y3277180D01*
X3287673Y3275146D01*
X3288135Y3273297D01*
X3288690Y3271633D01*
X3289244Y3270339D01*
X3289522Y3269784D01*
X3289707Y3269322D01*
X3289892Y3268952D01*
X3290076Y3268674D01*
X3290169Y3268490D01*
Y3268397D01*
X3291463Y3266640D01*
X3292850Y3265161D01*
X3294422Y3263867D01*
X3295901Y3262850D01*
X3297196Y3262018D01*
X3298305Y3261463D01*
X3298767Y3261278D01*
X3299045Y3261093D01*
X3299230Y3261001D01*
X3299322D01*
X3301726Y3260261D01*
X3304130Y3259706D01*
X3306534Y3259244D01*
X3308753Y3258967D01*
X3309770Y3258874D01*
X3310694Y3258782D01*
X3311526D01*
X3312173Y3258689D01*
X3312728D01*
X3313190D01*
X3313468D01*
X3313560D01*
X3315964Y3258782D01*
X3318183Y3258967D01*
X3320217Y3259336D01*
X3322066Y3259706D01*
X3323638Y3259984D01*
X3324285Y3260168D01*
X3324840Y3260353D01*
X3325302Y3260446D01*
X3325580Y3260538D01*
X3325764Y3260631D01*
X3325857D01*
X3327983Y3261555D01*
X3329925Y3262572D01*
X3331497Y3263682D01*
X3332884Y3264884D01*
X3333993Y3265901D01*
X3334733Y3266733D01*
X3335195Y3267380D01*
X3335380Y3267473D01*
Y3267565D01*
X3336582Y3269507D01*
X3337506Y3271633D01*
X3338154Y3273667D01*
X3338523Y3275609D01*
X3338801Y3277365D01*
X3338893Y3278105D01*
Y3278752D01*
X3338986Y3279214D01*
Y3279954D01*
X3338893Y3282265D01*
X3338523Y3284392D01*
X3337969Y3286149D01*
X3337414Y3287720D01*
X3336767Y3288922D01*
X3336304Y3289847D01*
X3335935Y3290402D01*
X3335750Y3290587D01*
X3334363Y3292066D01*
X3332791Y3293453D01*
X3331127Y3294562D01*
X3329463Y3295487D01*
X3327983Y3296226D01*
X3327244Y3296504D01*
X3326689Y3296689D01*
X3326227Y3296874D01*
X3325857Y3297058D01*
X3325672Y3297151D01*
X3325580D01*
X3327521Y3305472D01*
X3329185Y3304917D01*
X3330665Y3304362D01*
X3332052Y3303623D01*
X3333438Y3302976D01*
X3334640Y3302236D01*
X3335750Y3301404D01*
X3336859Y3300664D01*
X3337784Y3299925D01*
X3338523Y3299185D01*
X3339263Y3298538D01*
X3339910Y3297891D01*
X3340373Y3297428D01*
X3340835Y3296966D01*
X3341112Y3296596D01*
X3341205Y3296411D01*
X3341297Y3296319D01*
X3342129Y3295024D01*
X3342961Y3293730D01*
X3343609Y3292436D01*
X3344163Y3291049D01*
X3344995Y3288275D01*
X3345550Y3285779D01*
X3345827Y3284577D01*
X3345920Y3283560D01*
X3346012Y3282543D01*
X3346105Y3281711D01*
X3346197Y3281064D01*
Y3280139D01*
X3346012Y3277088D01*
X3345550Y3274129D01*
X3344995Y3271541D01*
X3344626Y3270339D01*
X3344256Y3269229D01*
X3343886Y3268212D01*
X3343516Y3267288D01*
X3343239Y3266548D01*
X3342961Y3265808D01*
X3342684Y3265346D01*
X3342499Y3264976D01*
X3342407Y3264699D01*
X3342314Y3264606D01*
X3340742Y3262110D01*
X3338893Y3259984D01*
X3337044Y3258134D01*
X3335195Y3256563D01*
X3333531Y3255361D01*
X3332791Y3254898D01*
X3332144Y3254529D01*
X3331682Y3254159D01*
X3331312Y3253974D01*
X3331034Y3253881D01*
X3330942Y3253789D01*
X3328076Y3252495D01*
X3325117Y3251570D01*
X3322159Y3250923D01*
X3319477Y3250461D01*
X3318276Y3250276D01*
X3317074Y3250183D01*
X3316149Y3250091D01*
X3315225D01*
X3314577Y3249998D01*
X3314023D01*
X3313653D01*
X3313560D01*
X3310232Y3250183D01*
X3306996Y3250553D01*
X3304130Y3251015D01*
X3302743Y3251385D01*
X3301541Y3251663D01*
X3300432Y3251940D01*
X3299415Y3252310D01*
X3298490Y3252587D01*
X3297750Y3252772D01*
X3297196Y3253049D01*
X3296733Y3253142D01*
X3296456Y3253327D01*
X3296363D01*
X3293590Y3254714D01*
X3291093Y3256285D01*
X3288967Y3257950D01*
X3288135Y3258782D01*
X3287303Y3259521D01*
X3286563Y3260261D01*
X3285916Y3261001D01*
X3285361Y3261648D01*
X3284991Y3262203D01*
X3284622Y3262572D01*
X3284344Y3262942D01*
X3284252Y3263127D01*
X3284159Y3263220D01*
X3283420Y3264514D01*
X3282772Y3265808D01*
X3281755Y3268582D01*
X3281016Y3271356D01*
X3280554Y3274037D01*
X3280369Y3275331D01*
X3280184Y3276441D01*
X3280091Y3277458D01*
Y3278290D01*
X3279999Y3279030D01*
Y3280047D01*
X3280091Y3281896D01*
X3280276Y3283652D01*
X3280461Y3285317D01*
X3280831Y3286888D01*
X3281293Y3288368D01*
X3281755Y3289754D01*
X3282218Y3291049D01*
X3282772Y3292251D01*
X3283235Y3293268D01*
X3283697Y3294285D01*
X3284159Y3295024D01*
X3284622Y3295764D01*
X3284991Y3296226D01*
X3285176Y3296689D01*
X3285361Y3296874D01*
X3285454Y3296966D01*
X3286563Y3298260D01*
X3287673Y3299370D01*
X3288967Y3300387D01*
X3290261Y3301404D01*
X3292850Y3303068D01*
X3295439Y3304362D01*
X3296641Y3304917D01*
X3297750Y3305379D01*
X3298767Y3305749D01*
X3299599Y3306027D01*
X3300339Y3306304D01*
X3300894Y3306489D01*
X3301264Y3306581D01*
X3301356D01*
X3303483Y3298075D01*
D02*
G37*
G36*
X2295806Y3931091D02*
X2297378Y3930906D01*
X2298950Y3930629D01*
X2300337Y3930352D01*
X2301631Y3929889D01*
X2302925Y3929427D01*
X2304035Y3928965D01*
X2305052Y3928410D01*
X2305976Y3927855D01*
X2306808Y3927393D01*
X2307456Y3926931D01*
X2308103Y3926468D01*
X2308565Y3926191D01*
X2308842Y3925914D01*
X2309027Y3925729D01*
X2309120Y3925636D01*
X2310137Y3924619D01*
X2311061Y3923510D01*
X2311801Y3922308D01*
X2312448Y3921198D01*
X2313095Y3920089D01*
X2313558Y3918979D01*
X2314205Y3916853D01*
X2314482Y3915928D01*
X2314667Y3915004D01*
X2314760Y3914264D01*
X2314852Y3913525D01*
X2314945Y3912970D01*
Y3912230D01*
X2314852Y3910566D01*
X2314575Y3908994D01*
X2314297Y3907515D01*
X2313928Y3906221D01*
X2313465Y3905111D01*
X2313188Y3904279D01*
X2312911Y3903724D01*
X2312818Y3903632D01*
Y3903539D01*
X2311894Y3902060D01*
X2310877Y3900766D01*
X2309859Y3899564D01*
X2308750Y3898639D01*
X2307825Y3897807D01*
X2307086Y3897160D01*
X2306531Y3896790D01*
X2306439Y3896698D01*
X2308103D01*
X2309767Y3896790D01*
X2311246Y3896882D01*
X2312726Y3897067D01*
X2314020Y3897160D01*
X2315222Y3897345D01*
X2316331Y3897530D01*
X2317348Y3897807D01*
X2318273Y3897992D01*
X2319013Y3898177D01*
X2319660Y3898362D01*
X2320215Y3898454D01*
X2320584Y3898639D01*
X2320862Y3898732D01*
X2321047Y3898824D01*
X2321139D01*
X2322988Y3899749D01*
X2324652Y3900673D01*
X2325947Y3901690D01*
X2327056Y3902615D01*
X2327981Y3903447D01*
X2328628Y3904094D01*
X2328998Y3904556D01*
X2329090Y3904741D01*
X2329830Y3905851D01*
X2330292Y3906960D01*
X2330662Y3908070D01*
X2330939Y3909179D01*
X2331124Y3910011D01*
X2331217Y3910751D01*
Y3911398D01*
X2331032Y3913062D01*
X2330662Y3914634D01*
X2330107Y3915928D01*
X2329553Y3917130D01*
X2328905Y3918055D01*
X2328351Y3918702D01*
X2327981Y3919072D01*
X2327796Y3919257D01*
X2326964Y3919904D01*
X2325947Y3920551D01*
X2324837Y3921106D01*
X2323728Y3921476D01*
X2322711Y3921846D01*
X2321879Y3922123D01*
X2321324Y3922215D01*
X2321232Y3922308D01*
X2321139D01*
X2321786Y3930167D01*
X2324375Y3929612D01*
X2326686Y3928780D01*
X2328721Y3927855D01*
X2330385Y3926838D01*
X2331679Y3925821D01*
X2332234Y3925451D01*
X2332696Y3924989D01*
X2332973Y3924712D01*
X2333251Y3924434D01*
X2333343Y3924342D01*
X2333436Y3924249D01*
X2334175Y3923325D01*
X2334823Y3922308D01*
X2335932Y3920274D01*
X2336672Y3918240D01*
X2337134Y3916298D01*
X2337504Y3914542D01*
X2337596Y3913802D01*
Y3913155D01*
X2337689Y3912600D01*
Y3911860D01*
X2337596Y3910011D01*
X2337411Y3908255D01*
X2337042Y3906590D01*
X2336579Y3905019D01*
X2335932Y3903632D01*
X2335377Y3902245D01*
X2334638Y3901043D01*
X2333991Y3899934D01*
X2333343Y3899009D01*
X2332604Y3898084D01*
X2332049Y3897345D01*
X2331494Y3896790D01*
X2330939Y3896328D01*
X2330570Y3895958D01*
X2330385Y3895773D01*
X2330292Y3895681D01*
X2328628Y3894479D01*
X2326686Y3893462D01*
X2324652Y3892537D01*
X2322526Y3891705D01*
X2320307Y3891058D01*
X2318088Y3890503D01*
X2315777Y3890041D01*
X2313650Y3889671D01*
X2311524Y3889394D01*
X2309582Y3889209D01*
X2307825Y3889024D01*
X2306346Y3888931D01*
X2305052D01*
X2304127Y3888839D01*
X2303757D01*
X2303480D01*
X2303388D01*
X2303295D01*
X2300337Y3888931D01*
X2297563Y3889116D01*
X2294974Y3889394D01*
X2292570Y3889856D01*
X2290444Y3890318D01*
X2288502Y3890780D01*
X2286745Y3891335D01*
X2285174Y3891982D01*
X2283879Y3892537D01*
X2282677Y3893092D01*
X2281753Y3893554D01*
X2280921Y3894109D01*
X2280274Y3894479D01*
X2279904Y3894756D01*
X2279626Y3894941D01*
X2279534Y3895033D01*
X2278240Y3896235D01*
X2277130Y3897530D01*
X2276206Y3898824D01*
X2275373Y3900118D01*
X2274634Y3901505D01*
X2274079Y3902800D01*
X2273617Y3904094D01*
X2273247Y3905388D01*
X2272970Y3906498D01*
X2272692Y3907607D01*
X2272507Y3908532D01*
X2272415Y3909364D01*
Y3910104D01*
X2272322Y3910566D01*
Y3911028D01*
X2272415Y3913155D01*
X2272785Y3915096D01*
X2273154Y3916853D01*
X2273709Y3918425D01*
X2274171Y3919627D01*
X2274634Y3920551D01*
X2274726Y3920921D01*
X2274911Y3921198D01*
X2275004Y3921291D01*
Y3921383D01*
X2276113Y3922955D01*
X2277407Y3924434D01*
X2278702Y3925636D01*
X2279996Y3926653D01*
X2281198Y3927485D01*
X2282123Y3928040D01*
X2282493Y3928225D01*
X2282770Y3928410D01*
X2282862Y3928502D01*
X2282955D01*
X2284896Y3929427D01*
X2286930Y3930074D01*
X2288780Y3930536D01*
X2290536Y3930814D01*
X2292015Y3931091D01*
X2292570D01*
X2293125Y3931184D01*
X2293587D01*
X2293865D01*
X2294050D01*
X2294142D01*
X2295806Y3931091D01*
D02*
G37*
G36*
X2281013Y3849268D02*
X2282585Y3850377D01*
X2283232Y3850932D01*
X2283879Y3851394D01*
X2284434Y3851856D01*
X2284804Y3852226D01*
X2285081Y3852504D01*
X2285174Y3852596D01*
X2285636Y3853058D01*
X2286098Y3853613D01*
X2287300Y3854907D01*
X2288687Y3856387D01*
X2290074Y3857959D01*
X2291276Y3859438D01*
X2291831Y3860085D01*
X2292385Y3860640D01*
X2292755Y3861102D01*
X2293032Y3861472D01*
X2293217Y3861657D01*
X2293310Y3861749D01*
X2294604Y3863228D01*
X2295806Y3864708D01*
X2297008Y3866002D01*
X2298025Y3867204D01*
X2299042Y3868314D01*
X2299967Y3869238D01*
X2300799Y3870163D01*
X2301538Y3870902D01*
X2302278Y3871642D01*
X2302833Y3872197D01*
X2303295Y3872659D01*
X2303757Y3873121D01*
X2304312Y3873584D01*
X2304497Y3873768D01*
X2306069Y3875063D01*
X2307456Y3876172D01*
X2308842Y3877097D01*
X2309952Y3877837D01*
X2310969Y3878391D01*
X2311709Y3878761D01*
X2312171Y3878946D01*
X2312356Y3879038D01*
X2313743Y3879593D01*
X2315129Y3879963D01*
X2316424Y3880333D01*
X2317533Y3880518D01*
X2318550Y3880610D01*
X2319290Y3880703D01*
X2319752D01*
X2319937D01*
X2321324Y3880610D01*
X2322618Y3880425D01*
X2323913Y3880240D01*
X2325022Y3879871D01*
X2327241Y3878946D01*
X2328998Y3878021D01*
X2329830Y3877467D01*
X2330477Y3877004D01*
X2331124Y3876542D01*
X2331587Y3876080D01*
X2331956Y3875710D01*
X2332326Y3875525D01*
X2332419Y3875340D01*
X2332511Y3875248D01*
X2333436Y3874231D01*
X2334268Y3873121D01*
X2334915Y3871919D01*
X2335470Y3870717D01*
X2336394Y3868314D01*
X2337042Y3865910D01*
X2337226Y3864893D01*
X2337411Y3863876D01*
X2337504Y3862951D01*
X2337596Y3862211D01*
X2337689Y3861564D01*
Y3860640D01*
X2337596Y3858976D01*
X2337504Y3857404D01*
X2337226Y3855924D01*
X2336949Y3854538D01*
X2336579Y3853243D01*
X2336209Y3852041D01*
X2335747Y3850932D01*
X2335285Y3849915D01*
X2334823Y3848990D01*
X2334360Y3848251D01*
X2333991Y3847603D01*
X2333621Y3847049D01*
X2333343Y3846586D01*
X2333066Y3846309D01*
X2332973Y3846124D01*
X2332881Y3846032D01*
X2331956Y3845107D01*
X2330939Y3844275D01*
X2329830Y3843443D01*
X2328721Y3842796D01*
X2326502Y3841686D01*
X2324283Y3840947D01*
X2323266Y3840669D01*
X2322249Y3840392D01*
X2321416Y3840207D01*
X2320677Y3840022D01*
X2320030Y3839930D01*
X2319567D01*
X2319290Y3839837D01*
X2319198D01*
X2318365Y3847881D01*
X2320492Y3848066D01*
X2322341Y3848436D01*
X2324005Y3848990D01*
X2325300Y3849637D01*
X2326409Y3850192D01*
X2327149Y3850747D01*
X2327611Y3851117D01*
X2327796Y3851302D01*
X2328905Y3852689D01*
X2329738Y3854168D01*
X2330385Y3855740D01*
X2330755Y3857126D01*
X2331032Y3858421D01*
X2331124Y3859530D01*
X2331217Y3859900D01*
Y3860455D01*
X2331124Y3862396D01*
X2330755Y3864153D01*
X2330200Y3865632D01*
X2329645Y3866927D01*
X2328998Y3867944D01*
X2328536Y3868591D01*
X2328166Y3869053D01*
X2327981Y3869238D01*
X2326686Y3870348D01*
X2325392Y3871180D01*
X2324098Y3871827D01*
X2322803Y3872197D01*
X2321786Y3872474D01*
X2320862Y3872567D01*
X2320307Y3872659D01*
X2320215D01*
X2320122D01*
X2318458Y3872474D01*
X2316701Y3872104D01*
X2315129Y3871457D01*
X2313650Y3870810D01*
X2312448Y3870070D01*
X2311431Y3869423D01*
X2311061Y3869238D01*
X2310784Y3869053D01*
X2310692Y3868868D01*
X2310599D01*
X2309582Y3868129D01*
X2308565Y3867204D01*
X2307456Y3866187D01*
X2306346Y3865078D01*
X2304127Y3862766D01*
X2301908Y3860455D01*
X2300891Y3859253D01*
X2299967Y3858236D01*
X2299135Y3857219D01*
X2298395Y3856387D01*
X2297840Y3855740D01*
X2297378Y3855185D01*
X2297101Y3854815D01*
X2297008Y3854723D01*
X2295067Y3852411D01*
X2293217Y3850285D01*
X2291553Y3848528D01*
X2290166Y3847141D01*
X2288964Y3845939D01*
X2288132Y3845107D01*
X2287578Y3844645D01*
X2287485Y3844460D01*
X2287393D01*
X2285821Y3843166D01*
X2284342Y3842149D01*
X2282862Y3841224D01*
X2281568Y3840484D01*
X2280458Y3839930D01*
X2279626Y3839560D01*
X2279072Y3839375D01*
X2278979Y3839282D01*
X2278887D01*
X2277870Y3838913D01*
X2276945Y3838728D01*
X2276021Y3838543D01*
X2275188Y3838450D01*
X2274449Y3838358D01*
X2273894D01*
X2273524D01*
X2273432D01*
Y3880795D01*
X2281013D01*
Y3849268D01*
D02*
G37*
G36*
X2295806Y3823750D02*
X2294327Y3823380D01*
X2292940Y3822918D01*
X2291646Y3822455D01*
X2290444Y3821993D01*
X2289334Y3821438D01*
X2288410Y3820884D01*
X2287485Y3820236D01*
X2286653Y3819682D01*
X2285913Y3819219D01*
X2285359Y3818665D01*
X2284804Y3818202D01*
X2284342Y3817833D01*
X2284064Y3817463D01*
X2283787Y3817185D01*
X2283694Y3817093D01*
X2283602Y3817000D01*
X2282862Y3816076D01*
X2282308Y3815059D01*
X2281291Y3813025D01*
X2280551Y3811083D01*
X2280089Y3809142D01*
X2279719Y3807478D01*
X2279626Y3806830D01*
Y3806183D01*
X2279534Y3805628D01*
Y3804981D01*
X2279626Y3802855D01*
X2279996Y3800821D01*
X2280458Y3798972D01*
X2281013Y3797307D01*
X2281568Y3796013D01*
X2281845Y3795458D01*
X2282030Y3794996D01*
X2282215Y3794626D01*
X2282400Y3794349D01*
X2282493Y3794164D01*
Y3794071D01*
X2283787Y3792315D01*
X2285174Y3790835D01*
X2286745Y3789541D01*
X2288225Y3788524D01*
X2289519Y3787692D01*
X2290629Y3787137D01*
X2291091Y3786952D01*
X2291368Y3786767D01*
X2291553Y3786675D01*
X2291646D01*
X2294050Y3785935D01*
X2296453Y3785381D01*
X2298857Y3784918D01*
X2301076Y3784641D01*
X2302093Y3784548D01*
X2303018Y3784456D01*
X2303850D01*
X2304497Y3784364D01*
X2305052D01*
X2305514D01*
X2305791D01*
X2305884D01*
X2308288Y3784456D01*
X2310507Y3784641D01*
X2312541Y3785011D01*
X2314390Y3785381D01*
X2315962Y3785658D01*
X2316609Y3785843D01*
X2317164Y3786028D01*
X2317626Y3786120D01*
X2317903Y3786213D01*
X2318088Y3786305D01*
X2318181D01*
X2320307Y3787230D01*
X2322249Y3788247D01*
X2323820Y3789356D01*
X2325207Y3790558D01*
X2326317Y3791575D01*
X2327056Y3792407D01*
X2327519Y3793054D01*
X2327703Y3793147D01*
Y3793239D01*
X2328905Y3795181D01*
X2329830Y3797307D01*
X2330477Y3799341D01*
X2330847Y3801283D01*
X2331124Y3803040D01*
X2331217Y3803779D01*
Y3804426D01*
X2331309Y3804889D01*
Y3805628D01*
X2331217Y3807940D01*
X2330847Y3810066D01*
X2330292Y3811823D01*
X2329738Y3813395D01*
X2329090Y3814597D01*
X2328628Y3815521D01*
X2328258Y3816076D01*
X2328073Y3816261D01*
X2326686Y3817740D01*
X2325115Y3819127D01*
X2323451Y3820236D01*
X2321786Y3821161D01*
X2320307Y3821901D01*
X2319567Y3822178D01*
X2319013Y3822363D01*
X2318550Y3822548D01*
X2318181Y3822733D01*
X2317996Y3822825D01*
X2317903D01*
X2319845Y3831146D01*
X2321509Y3830592D01*
X2322988Y3830037D01*
X2324375Y3829297D01*
X2325762Y3828650D01*
X2326964Y3827910D01*
X2328073Y3827078D01*
X2329183Y3826339D01*
X2330107Y3825599D01*
X2330847Y3824859D01*
X2331587Y3824212D01*
X2332234Y3823565D01*
X2332696Y3823103D01*
X2333158Y3822640D01*
X2333436Y3822270D01*
X2333528Y3822086D01*
X2333621Y3821993D01*
X2334453Y3820699D01*
X2335285Y3819404D01*
X2335932Y3818110D01*
X2336487Y3816723D01*
X2337319Y3813949D01*
X2337874Y3811453D01*
X2338151Y3810251D01*
X2338243Y3809234D01*
X2338336Y3808217D01*
X2338428Y3807385D01*
X2338521Y3806738D01*
Y3805813D01*
X2338336Y3802762D01*
X2337874Y3799804D01*
X2337319Y3797215D01*
X2336949Y3796013D01*
X2336579Y3794904D01*
X2336209Y3793886D01*
X2335840Y3792962D01*
X2335562Y3792222D01*
X2335285Y3791483D01*
X2335008Y3791020D01*
X2334823Y3790651D01*
X2334730Y3790373D01*
X2334638Y3790281D01*
X2333066Y3787784D01*
X2331217Y3785658D01*
X2329368Y3783809D01*
X2327519Y3782237D01*
X2325854Y3781035D01*
X2325115Y3780573D01*
X2324468Y3780203D01*
X2324005Y3779833D01*
X2323635Y3779648D01*
X2323358Y3779556D01*
X2323266Y3779463D01*
X2320399Y3778169D01*
X2317441Y3777244D01*
X2314482Y3776597D01*
X2311801Y3776135D01*
X2310599Y3775950D01*
X2309397Y3775858D01*
X2308473Y3775765D01*
X2307548D01*
X2306901Y3775673D01*
X2306346D01*
X2305976D01*
X2305884D01*
X2302555Y3775858D01*
X2299320Y3776227D01*
X2296453Y3776690D01*
X2295067Y3777060D01*
X2293865Y3777337D01*
X2292755Y3777614D01*
X2291738Y3777984D01*
X2290814Y3778261D01*
X2290074Y3778446D01*
X2289519Y3778724D01*
X2289057Y3778816D01*
X2288780Y3779001D01*
X2288687D01*
X2285913Y3780388D01*
X2283417Y3781960D01*
X2281291Y3783624D01*
X2280458Y3784456D01*
X2279626Y3785196D01*
X2278887Y3785935D01*
X2278240Y3786675D01*
X2277685Y3787322D01*
X2277315Y3787877D01*
X2276945Y3788247D01*
X2276668Y3788617D01*
X2276575Y3788801D01*
X2276483Y3788894D01*
X2275743Y3790188D01*
X2275096Y3791483D01*
X2274079Y3794256D01*
X2273339Y3797030D01*
X2272877Y3799711D01*
X2272692Y3801006D01*
X2272507Y3802115D01*
X2272415Y3803132D01*
Y3803964D01*
X2272322Y3804704D01*
Y3805721D01*
X2272415Y3807570D01*
X2272600Y3809327D01*
X2272785Y3810991D01*
X2273154Y3812563D01*
X2273617Y3814042D01*
X2274079Y3815429D01*
X2274541Y3816723D01*
X2275096Y3817925D01*
X2275558Y3818942D01*
X2276021Y3819959D01*
X2276483Y3820699D01*
X2276945Y3821438D01*
X2277315Y3821901D01*
X2277500Y3822363D01*
X2277685Y3822548D01*
X2277777Y3822640D01*
X2278887Y3823935D01*
X2279996Y3825044D01*
X2281291Y3826061D01*
X2282585Y3827078D01*
X2285174Y3828742D01*
X2287763Y3830037D01*
X2288964Y3830592D01*
X2290074Y3831054D01*
X2291091Y3831424D01*
X2291923Y3831701D01*
X2292663Y3831978D01*
X2293217Y3832163D01*
X2293587Y3832256D01*
X2293680D01*
X2295806Y3823750D01*
D02*
G37*
G36*
X1070001Y3669968D02*
X1062420D01*
Y3701495D01*
X1006021D01*
Y3710001D01*
X1070001D01*
Y3669968D01*
D02*
G37*
G36*
X1014435Y3631228D02*
X1017116Y3633447D01*
X1019982Y3635574D01*
X1022756Y3637423D01*
X1025437Y3639180D01*
X1026639Y3639919D01*
X1027749Y3640567D01*
X1028766Y3641214D01*
X1029598Y3641676D01*
X1030337Y3642046D01*
X1030800Y3642323D01*
X1031169Y3642508D01*
X1031262Y3642601D01*
X1034960Y3644450D01*
X1038658Y3646114D01*
X1042172Y3647501D01*
X1043743Y3648055D01*
X1045315Y3648610D01*
X1046702Y3649165D01*
X1047996Y3649535D01*
X1049106Y3649905D01*
X1050030Y3650182D01*
X1050863Y3650459D01*
X1051417Y3650644D01*
X1051787Y3650737D01*
X1051880D01*
X1055670Y3651661D01*
X1057519Y3652031D01*
X1059184Y3652308D01*
X1060755Y3652586D01*
X1062327Y3652863D01*
X1063621Y3653048D01*
X1064916Y3653233D01*
X1066025Y3653325D01*
X1067042Y3653418D01*
X1067967Y3653510D01*
X1068707D01*
X1069261Y3653603D01*
X1069631D01*
X1069908D01*
X1070001D01*
Y3645559D01*
X1066488Y3645282D01*
X1063252Y3644819D01*
X1060293Y3644357D01*
X1058906Y3644080D01*
X1057612Y3643802D01*
X1056502Y3643618D01*
X1055485Y3643340D01*
X1054561Y3643155D01*
X1053821Y3642970D01*
X1053266Y3642785D01*
X1052804Y3642693D01*
X1052527Y3642601D01*
X1052434D01*
X1048181Y3641214D01*
X1044206Y3639734D01*
X1042264Y3638995D01*
X1040415Y3638255D01*
X1038751Y3637423D01*
X1037087Y3636683D01*
X1035607Y3636036D01*
X1034313Y3635389D01*
X1033203Y3634834D01*
X1032186Y3634372D01*
X1031354Y3633910D01*
X1030800Y3633632D01*
X1030430Y3633447D01*
X1030337Y3633355D01*
X1028396Y3632245D01*
X1026454Y3631136D01*
X1024697Y3630027D01*
X1023033Y3628917D01*
X1021554Y3627900D01*
X1020075Y3626883D01*
X1018780Y3625866D01*
X1017671Y3625034D01*
X1016561Y3624202D01*
X1015637Y3623462D01*
X1014897Y3622722D01*
X1014250Y3622168D01*
X1013695Y3621798D01*
X1013325Y3621428D01*
X1013140Y3621243D01*
X1013048Y3621151D01*
X1006853D01*
Y3662571D01*
X1014435D01*
Y3631228D01*
D02*
G37*
G36*
X3318083Y1616368D02*
X3319655Y1617478D01*
X3320302Y1618033D01*
X3320949Y1618495D01*
X3321504Y1618957D01*
X3321874Y1619327D01*
X3322151Y1619604D01*
X3322244Y1619697D01*
X3322706Y1620159D01*
X3323168Y1620714D01*
X3324370Y1622008D01*
X3325757Y1623487D01*
X3327144Y1625059D01*
X3328346Y1626539D01*
X3328901Y1627186D01*
X3329455Y1627740D01*
X3329825Y1628203D01*
X3330103Y1628573D01*
X3330287Y1628757D01*
X3330380Y1628850D01*
X3331674Y1630329D01*
X3332876Y1631809D01*
X3334078Y1633103D01*
X3335095Y1634305D01*
X3336112Y1635414D01*
X3337037Y1636339D01*
X3337869Y1637263D01*
X3338609Y1638003D01*
X3339348Y1638743D01*
X3339903Y1639297D01*
X3340365Y1639760D01*
X3340827Y1640222D01*
X3341382Y1640684D01*
X3341567Y1640869D01*
X3343139Y1642164D01*
X3344526Y1643273D01*
X3345913Y1644198D01*
X3347022Y1644937D01*
X3348039Y1645492D01*
X3348779Y1645862D01*
X3349241Y1646047D01*
X3349426Y1646139D01*
X3350813Y1646694D01*
X3352200Y1647064D01*
X3353494Y1647434D01*
X3354603Y1647618D01*
X3355620Y1647711D01*
X3356360Y1647803D01*
X3356822D01*
X3357007D01*
X3358394Y1647711D01*
X3359688Y1647526D01*
X3360983Y1647341D01*
X3362092Y1646971D01*
X3364311Y1646047D01*
X3366068Y1645122D01*
X3366900Y1644567D01*
X3367547Y1644105D01*
X3368194Y1643643D01*
X3368657Y1643181D01*
X3369027Y1642811D01*
X3369396Y1642626D01*
X3369489Y1642441D01*
X3369581Y1642349D01*
X3370506Y1641331D01*
X3371338Y1640222D01*
X3371985Y1639020D01*
X3372540Y1637818D01*
X3373464Y1635414D01*
X3374112Y1633010D01*
X3374297Y1631993D01*
X3374481Y1630976D01*
X3374574Y1630052D01*
X3374666Y1629312D01*
X3374759Y1628665D01*
Y1627740D01*
X3374666Y1626076D01*
X3374574Y1624504D01*
X3374297Y1623025D01*
X3374019Y1621638D01*
X3373649Y1620344D01*
X3373280Y1619142D01*
X3372817Y1618033D01*
X3372355Y1617016D01*
X3371893Y1616091D01*
X3371430Y1615351D01*
X3371061Y1614704D01*
X3370691Y1614149D01*
X3370413Y1613687D01*
X3370136Y1613410D01*
X3370044Y1613225D01*
X3369951Y1613132D01*
X3369027Y1612208D01*
X3368010Y1611376D01*
X3366900Y1610544D01*
X3365791Y1609896D01*
X3363572Y1608787D01*
X3361353Y1608047D01*
X3360336Y1607770D01*
X3359319Y1607493D01*
X3358487Y1607308D01*
X3357747Y1607123D01*
X3357100Y1607030D01*
X3356637D01*
X3356360Y1606938D01*
X3356268D01*
X3355436Y1614982D01*
X3357562Y1615166D01*
X3359411Y1615536D01*
X3361075Y1616091D01*
X3362370Y1616738D01*
X3363479Y1617293D01*
X3364219Y1617848D01*
X3364681Y1618217D01*
X3364866Y1618402D01*
X3365975Y1619789D01*
X3366808Y1621269D01*
X3367455Y1622840D01*
X3367825Y1624227D01*
X3368102Y1625522D01*
X3368194Y1626631D01*
X3368287Y1627001D01*
Y1627556D01*
X3368194Y1629497D01*
X3367825Y1631254D01*
X3367270Y1632733D01*
X3366715Y1634027D01*
X3366068Y1635044D01*
X3365606Y1635692D01*
X3365236Y1636154D01*
X3365051Y1636339D01*
X3363757Y1637448D01*
X3362462Y1638280D01*
X3361168Y1638928D01*
X3359873Y1639297D01*
X3358856Y1639575D01*
X3357932Y1639667D01*
X3357377Y1639760D01*
X3357285D01*
X3357192D01*
X3355528Y1639575D01*
X3353771Y1639205D01*
X3352200Y1638558D01*
X3350720Y1637911D01*
X3349518Y1637171D01*
X3348501Y1636524D01*
X3348131Y1636339D01*
X3347854Y1636154D01*
X3347762Y1635969D01*
X3347669D01*
X3346652Y1635229D01*
X3345635Y1634305D01*
X3344526Y1633288D01*
X3343416Y1632178D01*
X3341197Y1629867D01*
X3338978Y1627556D01*
X3337961Y1626354D01*
X3337037Y1625337D01*
X3336205Y1624320D01*
X3335465Y1623487D01*
X3334910Y1622840D01*
X3334448Y1622286D01*
X3334171Y1621916D01*
X3334078Y1621823D01*
X3332137Y1619512D01*
X3330287Y1617385D01*
X3328623Y1615629D01*
X3327236Y1614242D01*
X3326034Y1613040D01*
X3325202Y1612208D01*
X3324648Y1611746D01*
X3324555Y1611561D01*
X3324463D01*
X3322891Y1610266D01*
X3321412Y1609249D01*
X3319932Y1608325D01*
X3318638Y1607585D01*
X3317529Y1607030D01*
X3316696Y1606660D01*
X3316142Y1606476D01*
X3316049Y1606383D01*
X3315957D01*
X3314940Y1606013D01*
X3314015Y1605828D01*
X3313091Y1605643D01*
X3312259Y1605551D01*
X3311519Y1605459D01*
X3310964D01*
X3310594D01*
X3310502D01*
Y1647896D01*
X3318083D01*
Y1616368D01*
D02*
G37*
G36*
Y1566627D02*
X3319655Y1567737D01*
X3320302Y1568291D01*
X3320949Y1568754D01*
X3321504Y1569216D01*
X3321874Y1569586D01*
X3322151Y1569863D01*
X3322244Y1569955D01*
X3322706Y1570418D01*
X3323168Y1570972D01*
X3324370Y1572267D01*
X3325757Y1573746D01*
X3327144Y1575318D01*
X3328346Y1576797D01*
X3328901Y1577444D01*
X3329455Y1577999D01*
X3329825Y1578461D01*
X3330103Y1578831D01*
X3330287Y1579016D01*
X3330380Y1579109D01*
X3331674Y1580588D01*
X3332876Y1582067D01*
X3334078Y1583362D01*
X3335095Y1584564D01*
X3336112Y1585673D01*
X3337037Y1586598D01*
X3337869Y1587522D01*
X3338609Y1588262D01*
X3339348Y1589001D01*
X3339903Y1589556D01*
X3340365Y1590018D01*
X3340827Y1590481D01*
X3341382Y1590943D01*
X3341567Y1591128D01*
X3343139Y1592422D01*
X3344526Y1593532D01*
X3345913Y1594456D01*
X3347022Y1595196D01*
X3348039Y1595751D01*
X3348779Y1596121D01*
X3349241Y1596305D01*
X3349426Y1596398D01*
X3350813Y1596953D01*
X3352200Y1597322D01*
X3353494Y1597692D01*
X3354603Y1597877D01*
X3355620Y1597970D01*
X3356360Y1598062D01*
X3356822D01*
X3357007D01*
X3358394Y1597970D01*
X3359688Y1597785D01*
X3360983Y1597600D01*
X3362092Y1597230D01*
X3364311Y1596305D01*
X3366068Y1595381D01*
X3366900Y1594826D01*
X3367547Y1594364D01*
X3368194Y1593902D01*
X3368657Y1593439D01*
X3369027Y1593069D01*
X3369396Y1592885D01*
X3369489Y1592700D01*
X3369581Y1592607D01*
X3370506Y1591590D01*
X3371338Y1590481D01*
X3371985Y1589279D01*
X3372540Y1588077D01*
X3373464Y1585673D01*
X3374112Y1583269D01*
X3374297Y1582252D01*
X3374481Y1581235D01*
X3374574Y1580311D01*
X3374666Y1579571D01*
X3374759Y1578924D01*
Y1577999D01*
X3374666Y1576335D01*
X3374574Y1574763D01*
X3374297Y1573284D01*
X3374019Y1571897D01*
X3373649Y1570603D01*
X3373280Y1569401D01*
X3372817Y1568291D01*
X3372355Y1567274D01*
X3371893Y1566350D01*
X3371430Y1565610D01*
X3371061Y1564963D01*
X3370691Y1564408D01*
X3370413Y1563946D01*
X3370136Y1563668D01*
X3370044Y1563484D01*
X3369951Y1563391D01*
X3369027Y1562467D01*
X3368010Y1561634D01*
X3366900Y1560802D01*
X3365791Y1560155D01*
X3363572Y1559046D01*
X3361353Y1558306D01*
X3360336Y1558029D01*
X3359319Y1557751D01*
X3358487Y1557566D01*
X3357747Y1557381D01*
X3357100Y1557289D01*
X3356637D01*
X3356360Y1557197D01*
X3356268D01*
X3355436Y1565240D01*
X3357562Y1565425D01*
X3359411Y1565795D01*
X3361075Y1566350D01*
X3362370Y1566997D01*
X3363479Y1567552D01*
X3364219Y1568106D01*
X3364681Y1568476D01*
X3364866Y1568661D01*
X3365975Y1570048D01*
X3366808Y1571527D01*
X3367455Y1573099D01*
X3367825Y1574486D01*
X3368102Y1575780D01*
X3368194Y1576890D01*
X3368287Y1577259D01*
Y1577814D01*
X3368194Y1579756D01*
X3367825Y1581512D01*
X3367270Y1582992D01*
X3366715Y1584286D01*
X3366068Y1585303D01*
X3365606Y1585950D01*
X3365236Y1586413D01*
X3365051Y1586598D01*
X3363757Y1587707D01*
X3362462Y1588539D01*
X3361168Y1589186D01*
X3359873Y1589556D01*
X3358856Y1589833D01*
X3357932Y1589926D01*
X3357377Y1590018D01*
X3357285D01*
X3357192D01*
X3355528Y1589833D01*
X3353771Y1589464D01*
X3352200Y1588816D01*
X3350720Y1588169D01*
X3349518Y1587430D01*
X3348501Y1586782D01*
X3348131Y1586598D01*
X3347854Y1586413D01*
X3347762Y1586228D01*
X3347669D01*
X3346652Y1585488D01*
X3345635Y1584564D01*
X3344526Y1583546D01*
X3343416Y1582437D01*
X3341197Y1580126D01*
X3338978Y1577814D01*
X3337961Y1576612D01*
X3337037Y1575595D01*
X3336205Y1574578D01*
X3335465Y1573746D01*
X3334910Y1573099D01*
X3334448Y1572544D01*
X3334171Y1572174D01*
X3334078Y1572082D01*
X3332137Y1569771D01*
X3330287Y1567644D01*
X3328623Y1565887D01*
X3327236Y1564501D01*
X3326034Y1563299D01*
X3325202Y1562467D01*
X3324648Y1562004D01*
X3324555Y1561819D01*
X3324463D01*
X3322891Y1560525D01*
X3321412Y1559508D01*
X3319932Y1558583D01*
X3318638Y1557844D01*
X3317529Y1557289D01*
X3316696Y1556919D01*
X3316142Y1556734D01*
X3316049Y1556642D01*
X3315957D01*
X3314940Y1556272D01*
X3314015Y1556087D01*
X3313091Y1555902D01*
X3312259Y1555810D01*
X3311519Y1555717D01*
X3310964D01*
X3310594D01*
X3310502D01*
Y1598155D01*
X3318083D01*
Y1566627D01*
D02*
G37*
G36*
X3332876Y1541109D02*
X3331397Y1540739D01*
X3330010Y1540277D01*
X3328716Y1539815D01*
X3327514Y1539353D01*
X3326404Y1538798D01*
X3325480Y1538243D01*
X3324555Y1537596D01*
X3323723Y1537041D01*
X3322983Y1536579D01*
X3322429Y1536024D01*
X3321874Y1535562D01*
X3321412Y1535192D01*
X3321134Y1534822D01*
X3320857Y1534545D01*
X3320765Y1534452D01*
X3320672Y1534360D01*
X3319932Y1533435D01*
X3319378Y1532418D01*
X3318361Y1530384D01*
X3317621Y1528443D01*
X3317159Y1526501D01*
X3316789Y1524837D01*
X3316696Y1524190D01*
Y1523543D01*
X3316604Y1522988D01*
Y1522341D01*
X3316696Y1520214D01*
X3317066Y1518180D01*
X3317529Y1516331D01*
X3318083Y1514667D01*
X3318638Y1513372D01*
X3318915Y1512818D01*
X3319100Y1512355D01*
X3319285Y1511986D01*
X3319470Y1511708D01*
X3319563Y1511523D01*
Y1511431D01*
X3320857Y1509674D01*
X3322244Y1508195D01*
X3323816Y1506900D01*
X3325295Y1505883D01*
X3326589Y1505051D01*
X3327699Y1504497D01*
X3328161Y1504312D01*
X3328438Y1504127D01*
X3328623Y1504034D01*
X3328716D01*
X3331120Y1503295D01*
X3333523Y1502740D01*
X3335927Y1502278D01*
X3338146Y1502000D01*
X3339163Y1501908D01*
X3340088Y1501815D01*
X3340920D01*
X3341567Y1501723D01*
X3342122D01*
X3342584D01*
X3342861D01*
X3342954D01*
X3345358Y1501815D01*
X3347577Y1502000D01*
X3349611Y1502370D01*
X3351460Y1502740D01*
X3353032Y1503017D01*
X3353679Y1503202D01*
X3354234Y1503387D01*
X3354696Y1503480D01*
X3354973Y1503572D01*
X3355158Y1503665D01*
X3355251D01*
X3357377Y1504589D01*
X3359319Y1505606D01*
X3360890Y1506716D01*
X3362277Y1507917D01*
X3363387Y1508934D01*
X3364126Y1509767D01*
X3364589Y1510414D01*
X3364774Y1510506D01*
Y1510599D01*
X3365975Y1512540D01*
X3366900Y1514667D01*
X3367547Y1516701D01*
X3367917Y1518642D01*
X3368194Y1520399D01*
X3368287Y1521139D01*
Y1521786D01*
X3368379Y1522248D01*
Y1522988D01*
X3368287Y1525299D01*
X3367917Y1527426D01*
X3367362Y1529182D01*
X3366808Y1530754D01*
X3366160Y1531956D01*
X3365698Y1532881D01*
X3365328Y1533435D01*
X3365143Y1533620D01*
X3363757Y1535100D01*
X3362185Y1536486D01*
X3360521Y1537596D01*
X3358856Y1538520D01*
X3357377Y1539260D01*
X3356637Y1539537D01*
X3356083Y1539722D01*
X3355620Y1539907D01*
X3355251Y1540092D01*
X3355066Y1540185D01*
X3354973D01*
X3356915Y1548506D01*
X3358579Y1547951D01*
X3360058Y1547396D01*
X3361445Y1546657D01*
X3362832Y1546009D01*
X3364034Y1545270D01*
X3365143Y1544438D01*
X3366253Y1543698D01*
X3367177Y1542958D01*
X3367917Y1542219D01*
X3368657Y1541571D01*
X3369304Y1540924D01*
X3369766Y1540462D01*
X3370228Y1540000D01*
X3370506Y1539630D01*
X3370598Y1539445D01*
X3370691Y1539353D01*
X3371523Y1538058D01*
X3372355Y1536764D01*
X3373002Y1535469D01*
X3373557Y1534083D01*
X3374389Y1531309D01*
X3374944Y1528813D01*
X3375221Y1527611D01*
X3375314Y1526594D01*
X3375406Y1525577D01*
X3375498Y1524744D01*
X3375591Y1524097D01*
Y1523173D01*
X3375406Y1520122D01*
X3374944Y1517163D01*
X3374389Y1514574D01*
X3374019Y1513372D01*
X3373649Y1512263D01*
X3373280Y1511246D01*
X3372910Y1510321D01*
X3372632Y1509582D01*
X3372355Y1508842D01*
X3372078Y1508380D01*
X3371893Y1508010D01*
X3371800Y1507733D01*
X3371708Y1507640D01*
X3370136Y1505144D01*
X3368287Y1503017D01*
X3366438Y1501168D01*
X3364589Y1499596D01*
X3362924Y1498395D01*
X3362185Y1497932D01*
X3361538Y1497562D01*
X3361075Y1497193D01*
X3360705Y1497008D01*
X3360428Y1496915D01*
X3360336Y1496823D01*
X3357470Y1495528D01*
X3354511Y1494604D01*
X3351552Y1493957D01*
X3348871Y1493494D01*
X3347669Y1493309D01*
X3346467Y1493217D01*
X3345543Y1493125D01*
X3344618D01*
X3343971Y1493032D01*
X3343416D01*
X3343046D01*
X3342954D01*
X3339626Y1493217D01*
X3336390Y1493587D01*
X3333523Y1494049D01*
X3332137Y1494419D01*
X3330935Y1494696D01*
X3329825Y1494974D01*
X3328808Y1495343D01*
X3327884Y1495621D01*
X3327144Y1495806D01*
X3326589Y1496083D01*
X3326127Y1496176D01*
X3325850Y1496360D01*
X3325757D01*
X3322983Y1497747D01*
X3320487Y1499319D01*
X3318361Y1500983D01*
X3317529Y1501815D01*
X3316696Y1502555D01*
X3315957Y1503295D01*
X3315310Y1504034D01*
X3314755Y1504682D01*
X3314385Y1505236D01*
X3314015Y1505606D01*
X3313738Y1505976D01*
X3313645Y1506161D01*
X3313553Y1506253D01*
X3312813Y1507548D01*
X3312166Y1508842D01*
X3311149Y1511616D01*
X3310409Y1514389D01*
X3309947Y1517071D01*
X3309762Y1518365D01*
X3309577Y1519474D01*
X3309485Y1520491D01*
Y1521324D01*
X3309392Y1522063D01*
Y1523080D01*
X3309485Y1524929D01*
X3309670Y1526686D01*
X3309855Y1528350D01*
X3310225Y1529922D01*
X3310687Y1531401D01*
X3311149Y1532788D01*
X3311611Y1534083D01*
X3312166Y1535284D01*
X3312628Y1536301D01*
X3313091Y1537318D01*
X3313553Y1538058D01*
X3314015Y1538798D01*
X3314385Y1539260D01*
X3314570Y1539722D01*
X3314755Y1539907D01*
X3314847Y1540000D01*
X3315957Y1541294D01*
X3317066Y1542404D01*
X3318361Y1543421D01*
X3319655Y1544438D01*
X3322244Y1546102D01*
X3324833Y1547396D01*
X3326034Y1547951D01*
X3327144Y1548413D01*
X3328161Y1548783D01*
X3328993Y1549060D01*
X3329733Y1549338D01*
X3330287Y1549523D01*
X3330657Y1549615D01*
X3330750D01*
X3332876Y1541109D01*
D02*
G37*
G36*
X2189768Y309816D02*
X2193004Y309447D01*
X2195870Y308984D01*
X2197257Y308615D01*
X2198459Y308337D01*
X2199568Y308060D01*
X2200585Y307690D01*
X2201510Y307413D01*
X2202249Y307228D01*
X2202804Y306950D01*
X2203266Y306858D01*
X2203544Y306673D01*
X2203636D01*
X2206410Y305286D01*
X2208906Y303714D01*
X2211033Y302050D01*
X2211865Y301218D01*
X2212697Y300478D01*
X2213437Y299739D01*
X2214084Y298999D01*
X2214638Y298352D01*
X2215008Y297797D01*
X2215378Y297427D01*
X2215655Y297058D01*
X2215748Y296873D01*
X2215840Y296780D01*
X2216580Y295486D01*
X2217227Y294191D01*
X2218244Y291418D01*
X2218984Y288644D01*
X2219446Y285963D01*
X2219631Y284668D01*
X2219816Y283559D01*
X2219908Y282542D01*
Y281710D01*
X2220001Y280970D01*
Y279953D01*
X2219908Y278104D01*
X2219724Y276347D01*
X2219539Y274683D01*
X2219169Y273111D01*
X2218707Y271632D01*
X2218244Y270245D01*
X2217782Y268951D01*
X2217227Y267749D01*
X2216765Y266732D01*
X2216303Y265715D01*
X2215840Y264975D01*
X2215378Y264236D01*
X2215008Y263773D01*
X2214823Y263311D01*
X2214638Y263126D01*
X2214546Y263034D01*
X2213437Y261739D01*
X2212327Y260630D01*
X2211033Y259613D01*
X2209738Y258596D01*
X2207150Y256932D01*
X2204561Y255637D01*
X2203359Y255083D01*
X2202249Y254620D01*
X2201232Y254250D01*
X2200400Y253973D01*
X2199661Y253696D01*
X2199106Y253511D01*
X2198736Y253418D01*
X2198644D01*
X2196517Y261924D01*
X2197996Y262294D01*
X2199383Y262756D01*
X2200678Y263219D01*
X2201880Y263681D01*
X2202989Y264236D01*
X2203914Y264790D01*
X2204838Y265438D01*
X2205670Y265992D01*
X2206410Y266455D01*
X2206965Y267009D01*
X2207519Y267472D01*
X2207982Y267841D01*
X2208259Y268211D01*
X2208536Y268489D01*
X2208629Y268581D01*
X2208721Y268674D01*
X2209461Y269598D01*
X2210016Y270615D01*
X2211033Y272649D01*
X2211772Y274591D01*
X2212235Y276532D01*
X2212604Y278197D01*
X2212697Y278844D01*
Y279491D01*
X2212789Y280046D01*
Y280693D01*
X2212697Y282819D01*
X2212327Y284853D01*
X2211865Y286702D01*
X2211310Y288367D01*
X2210755Y289661D01*
X2210478Y290216D01*
X2210293Y290678D01*
X2210108Y291048D01*
X2209923Y291325D01*
X2209831Y291510D01*
Y291603D01*
X2208536Y293359D01*
X2207150Y294839D01*
X2205578Y296133D01*
X2204098Y297150D01*
X2202804Y297982D01*
X2201695Y298537D01*
X2201232Y298722D01*
X2200955Y298907D01*
X2200770Y298999D01*
X2200678D01*
X2198274Y299739D01*
X2195870Y300294D01*
X2193466Y300756D01*
X2191247Y301033D01*
X2190230Y301126D01*
X2189306Y301218D01*
X2188473D01*
X2187826Y301311D01*
X2187271D01*
X2186809D01*
X2186532D01*
X2186439D01*
X2184036Y301218D01*
X2181817Y301033D01*
X2179783Y300663D01*
X2177933Y300294D01*
X2176362Y300016D01*
X2175714Y299831D01*
X2175160Y299646D01*
X2174697Y299554D01*
X2174420Y299461D01*
X2174235Y299369D01*
X2174143D01*
X2172016Y298444D01*
X2170075Y297427D01*
X2168503Y296318D01*
X2167116Y295116D01*
X2166007Y294099D01*
X2165267Y293267D01*
X2164805Y292620D01*
X2164620Y292527D01*
Y292435D01*
X2163418Y290493D01*
X2162493Y288367D01*
X2161846Y286333D01*
X2161476Y284391D01*
X2161199Y282634D01*
X2161106Y281895D01*
Y281248D01*
X2161014Y280785D01*
Y280046D01*
X2161106Y277734D01*
X2161476Y275608D01*
X2162031Y273851D01*
X2162586Y272279D01*
X2163233Y271077D01*
X2163695Y270153D01*
X2164065Y269598D01*
X2164250Y269413D01*
X2165637Y267934D01*
X2167209Y266547D01*
X2168873Y265438D01*
X2170537Y264513D01*
X2172016Y263773D01*
X2172756Y263496D01*
X2173311Y263311D01*
X2173773Y263126D01*
X2174143Y262941D01*
X2174328Y262849D01*
X2174420D01*
X2172479Y254528D01*
X2170814Y255083D01*
X2169335Y255637D01*
X2167948Y256377D01*
X2166561Y257024D01*
X2165359Y257764D01*
X2164250Y258596D01*
X2163140Y259336D01*
X2162216Y260075D01*
X2161476Y260815D01*
X2160737Y261462D01*
X2160089Y262109D01*
X2159627Y262571D01*
X2159165Y263034D01*
X2158887Y263404D01*
X2158795Y263588D01*
X2158703Y263681D01*
X2157870Y264975D01*
X2157038Y266270D01*
X2156391Y267564D01*
X2155836Y268951D01*
X2155004Y271725D01*
X2154450Y274221D01*
X2154172Y275423D01*
X2154080Y276440D01*
X2153987Y277457D01*
X2153895Y278289D01*
X2153802Y278936D01*
Y279861D01*
X2153987Y282912D01*
X2154450Y285870D01*
X2155004Y288459D01*
X2155374Y289661D01*
X2155744Y290771D01*
X2156114Y291788D01*
X2156484Y292712D01*
X2156761Y293452D01*
X2157038Y294191D01*
X2157316Y294654D01*
X2157501Y295024D01*
X2157593Y295301D01*
X2157686Y295393D01*
X2159257Y297890D01*
X2161106Y300016D01*
X2162956Y301865D01*
X2164805Y303437D01*
X2166469Y304639D01*
X2167209Y305101D01*
X2167856Y305471D01*
X2168318Y305841D01*
X2168688Y306026D01*
X2168965Y306118D01*
X2169058Y306211D01*
X2171924Y307505D01*
X2174882Y308430D01*
X2177841Y309077D01*
X2180522Y309539D01*
X2181724Y309724D01*
X2182926Y309816D01*
X2183851Y309909D01*
X2184775D01*
X2185422Y310001D01*
X2185977D01*
X2186347D01*
X2186439D01*
X2189768Y309816D01*
D02*
G37*
G36*
X2203451Y245929D02*
X2204838Y245652D01*
X2207427Y244820D01*
X2209646Y243803D01*
X2210570Y243248D01*
X2211495Y242693D01*
X2212327Y242139D01*
X2212974Y241584D01*
X2213621Y241122D01*
X2214084Y240659D01*
X2214454Y240382D01*
X2214731Y240105D01*
X2214916Y239920D01*
X2215008Y239827D01*
X2215840Y238718D01*
X2216672Y237608D01*
X2217320Y236499D01*
X2217874Y235297D01*
X2218799Y232986D01*
X2219354Y230767D01*
X2219539Y229750D01*
X2219724Y228825D01*
X2219816Y227993D01*
X2219908Y227253D01*
X2220001Y226699D01*
Y225866D01*
X2219908Y224110D01*
X2219724Y222538D01*
X2219446Y220966D01*
X2219076Y219487D01*
X2218614Y218100D01*
X2218152Y216898D01*
X2217597Y215696D01*
X2217042Y214679D01*
X2216580Y213662D01*
X2216025Y212830D01*
X2215563Y212091D01*
X2215101Y211536D01*
X2214731Y211073D01*
X2214454Y210704D01*
X2214269Y210519D01*
X2214176Y210426D01*
X2213067Y209317D01*
X2211865Y208392D01*
X2210663Y207560D01*
X2209461Y206821D01*
X2208351Y206266D01*
X2207150Y205711D01*
X2204931Y204971D01*
X2203914Y204786D01*
X2202989Y204602D01*
X2202157Y204417D01*
X2201417Y204324D01*
X2200863Y204232D01*
X2200400D01*
X2200123D01*
X2200030D01*
X2197811Y204324D01*
X2195777Y204694D01*
X2194021Y205249D01*
X2192541Y205803D01*
X2191340Y206358D01*
X2190415Y206913D01*
X2189860Y207283D01*
X2189675Y207375D01*
X2188288Y208670D01*
X2187087Y210056D01*
X2186162Y211536D01*
X2185422Y213015D01*
X2184868Y214309D01*
X2184498Y215326D01*
X2184405Y215696D01*
X2184313Y215974D01*
X2184220Y216159D01*
Y216251D01*
X2183388Y214679D01*
X2182556Y213385D01*
X2181632Y212275D01*
X2180800Y211351D01*
X2180060Y210611D01*
X2179413Y210056D01*
X2179043Y209779D01*
X2178858Y209687D01*
X2177564Y208947D01*
X2176269Y208392D01*
X2174975Y207930D01*
X2173773Y207653D01*
X2172756Y207468D01*
X2172016Y207375D01*
X2171461D01*
X2171277D01*
X2169705Y207468D01*
X2168133Y207745D01*
X2166746Y208115D01*
X2165544Y208577D01*
X2164527Y209039D01*
X2163695Y209409D01*
X2163233Y209687D01*
X2163048Y209779D01*
X2161661Y210704D01*
X2160459Y211813D01*
X2159442Y212923D01*
X2158518Y214032D01*
X2157870Y214957D01*
X2157316Y215789D01*
X2157038Y216343D01*
X2156946Y216436D01*
Y216528D01*
X2156206Y218193D01*
X2155652Y219857D01*
X2155189Y221521D01*
X2154912Y223000D01*
X2154727Y224202D01*
X2154635Y225219D01*
Y227531D01*
X2154819Y228825D01*
X2155282Y231321D01*
X2156021Y233448D01*
X2156761Y235297D01*
X2157223Y236129D01*
X2157593Y236776D01*
X2157963Y237423D01*
X2158333Y237886D01*
X2158610Y238256D01*
X2158795Y238533D01*
X2158887Y238718D01*
X2158980Y238810D01*
X2160737Y240567D01*
X2162678Y241954D01*
X2164712Y243063D01*
X2166746Y243988D01*
X2168503Y244543D01*
X2169243Y244820D01*
X2169890Y245005D01*
X2170444Y245097D01*
X2170814Y245190D01*
X2171092Y245282D01*
X2171184D01*
X2172571Y237423D01*
X2170537Y237054D01*
X2168780Y236499D01*
X2167301Y235852D01*
X2166099Y235205D01*
X2165174Y234557D01*
X2164527Y234003D01*
X2164065Y233633D01*
X2163973Y233540D01*
X2163048Y232338D01*
X2162308Y231044D01*
X2161846Y229842D01*
X2161476Y228640D01*
X2161291Y227531D01*
X2161106Y226699D01*
Y225959D01*
X2161199Y224295D01*
X2161569Y222815D01*
X2162031Y221521D01*
X2162493Y220412D01*
X2163048Y219579D01*
X2163510Y218932D01*
X2163880Y218470D01*
X2163973Y218378D01*
X2165082Y217360D01*
X2166284Y216621D01*
X2167486Y216159D01*
X2168595Y215789D01*
X2169612Y215604D01*
X2170352Y215419D01*
X2170907D01*
X2170999D01*
X2171092D01*
X2172109D01*
X2173033Y215604D01*
X2174605Y216066D01*
X2175992Y216713D01*
X2177194Y217453D01*
X2178026Y218193D01*
X2178673Y218840D01*
X2179043Y219302D01*
X2179135Y219395D01*
Y219487D01*
X2179967Y221059D01*
X2180615Y222538D01*
X2181077Y224110D01*
X2181354Y225497D01*
X2181539Y226699D01*
X2181724Y227716D01*
Y228918D01*
X2181632Y229287D01*
Y229750D01*
X2188566Y230674D01*
X2188288Y229472D01*
X2188104Y228363D01*
X2187919Y227438D01*
X2187826Y226606D01*
X2187734Y225959D01*
Y225127D01*
X2187919Y223185D01*
X2188288Y221429D01*
X2188843Y219857D01*
X2189490Y218562D01*
X2190138Y217545D01*
X2190692Y216806D01*
X2191062Y216343D01*
X2191247Y216159D01*
X2192634Y214957D01*
X2194113Y214032D01*
X2195593Y213385D01*
X2197072Y213015D01*
X2198274Y212738D01*
X2199291Y212645D01*
X2199661Y212553D01*
X2199938D01*
X2200123D01*
X2200215D01*
X2202249Y212738D01*
X2204098Y213200D01*
X2205670Y213755D01*
X2207057Y214494D01*
X2208167Y215234D01*
X2208999Y215789D01*
X2209553Y216251D01*
X2209738Y216436D01*
X2211033Y217915D01*
X2211957Y219487D01*
X2212604Y221059D01*
X2213067Y222538D01*
X2213344Y223832D01*
X2213437Y224849D01*
X2213529Y225219D01*
Y225774D01*
X2213437Y227438D01*
X2213067Y229010D01*
X2212604Y230397D01*
X2212050Y231506D01*
X2211587Y232431D01*
X2211125Y233170D01*
X2210755Y233540D01*
X2210663Y233725D01*
X2209368Y234835D01*
X2207889Y235759D01*
X2206317Y236591D01*
X2204653Y237239D01*
X2203266Y237701D01*
X2202619Y237886D01*
X2202064Y237978D01*
X2201602Y238071D01*
X2201232Y238163D01*
X2201047Y238256D01*
X2200955D01*
X2201972Y246114D01*
X2203451Y245929D01*
D02*
G37*
G36*
X2177749Y189069D02*
X2177101Y187682D01*
X2176454Y186295D01*
X2175807Y185001D01*
X2175252Y183891D01*
X2174790Y182967D01*
X2174420Y182412D01*
X2174328Y182320D01*
Y182227D01*
X2173311Y180563D01*
X2172294Y179084D01*
X2171369Y177789D01*
X2170537Y176772D01*
X2169890Y175848D01*
X2169335Y175293D01*
X2168965Y174831D01*
X2168873Y174738D01*
X2218891D01*
Y166880D01*
X2154635D01*
Y171965D01*
X2156206Y172889D01*
X2157686Y173906D01*
X2159165Y175108D01*
X2160459Y176218D01*
X2161569Y177327D01*
X2162493Y178159D01*
X2162771Y178529D01*
X2163048Y178806D01*
X2163140Y178899D01*
X2163233Y178991D01*
X2164805Y180933D01*
X2166284Y182874D01*
X2167578Y184724D01*
X2168595Y186573D01*
X2169520Y188144D01*
X2169890Y188792D01*
X2170167Y189346D01*
X2170444Y189809D01*
X2170537Y190178D01*
X2170722Y190363D01*
Y190456D01*
X2178303D01*
X2177749Y189069D01*
D02*
G37*
G36*
X729768Y279816D02*
X733004Y279446D01*
X735870Y278984D01*
X737257Y278614D01*
X738459Y278337D01*
X739568Y278060D01*
X740585Y277690D01*
X741510Y277412D01*
X742249Y277228D01*
X742804Y276950D01*
X743266Y276858D01*
X743544Y276673D01*
X743636D01*
X746410Y275286D01*
X748906Y273714D01*
X751033Y272050D01*
X751865Y271218D01*
X752697Y270478D01*
X753436Y269739D01*
X754084Y268999D01*
X754638Y268352D01*
X755008Y267797D01*
X755378Y267427D01*
X755655Y267057D01*
X755748Y266872D01*
X755840Y266780D01*
X756580Y265486D01*
X757227Y264191D01*
X758244Y261418D01*
X758984Y258644D01*
X759446Y255963D01*
X759631Y254668D01*
X759816Y253559D01*
X759908Y252542D01*
Y251710D01*
X760001Y250970D01*
Y249953D01*
X759908Y248104D01*
X759723Y246347D01*
X759538Y244683D01*
X759169Y243111D01*
X758706Y241632D01*
X758244Y240245D01*
X757782Y238951D01*
X757227Y237749D01*
X756765Y236732D01*
X756303Y235715D01*
X755840Y234975D01*
X755378Y234235D01*
X755008Y233773D01*
X754823Y233311D01*
X754638Y233126D01*
X754546Y233034D01*
X753436Y231739D01*
X752327Y230630D01*
X751033Y229613D01*
X749738Y228596D01*
X747149Y226931D01*
X744561Y225637D01*
X743359Y225082D01*
X742249Y224620D01*
X741232Y224250D01*
X740400Y223973D01*
X739660Y223696D01*
X739106Y223511D01*
X738736Y223418D01*
X738643D01*
X736517Y231924D01*
X737996Y232294D01*
X739383Y232756D01*
X740677Y233218D01*
X741879Y233681D01*
X742989Y234235D01*
X743913Y234790D01*
X744838Y235437D01*
X745670Y235992D01*
X746410Y236454D01*
X746964Y237009D01*
X747519Y237471D01*
X747981Y237841D01*
X748259Y238211D01*
X748536Y238488D01*
X748629Y238581D01*
X748721Y238673D01*
X749461Y239598D01*
X750016Y240615D01*
X751033Y242649D01*
X751772Y244591D01*
X752234Y246532D01*
X752604Y248196D01*
X752697Y248844D01*
Y249491D01*
X752789Y250045D01*
Y250693D01*
X752697Y252819D01*
X752327Y254853D01*
X751865Y256702D01*
X751310Y258367D01*
X750755Y259661D01*
X750478Y260216D01*
X750293Y260678D01*
X750108Y261048D01*
X749923Y261325D01*
X749831Y261510D01*
Y261602D01*
X748536Y263359D01*
X747149Y264838D01*
X745578Y266133D01*
X744098Y267150D01*
X742804Y267982D01*
X741694Y268537D01*
X741232Y268722D01*
X740955Y268906D01*
X740770Y268999D01*
X740677D01*
X738274Y269739D01*
X735870Y270293D01*
X733466Y270756D01*
X731247Y271033D01*
X730230Y271125D01*
X729305Y271218D01*
X728473D01*
X727826Y271310D01*
X727271D01*
X726809D01*
X726532D01*
X726439D01*
X724035Y271218D01*
X721816Y271033D01*
X719782Y270663D01*
X717933Y270293D01*
X716362Y270016D01*
X715714Y269831D01*
X715160Y269646D01*
X714697Y269554D01*
X714420Y269461D01*
X714235Y269369D01*
X714143D01*
X712016Y268444D01*
X710075Y267427D01*
X708503Y266318D01*
X707116Y265116D01*
X706006Y264099D01*
X705267Y263267D01*
X704805Y262619D01*
X704620Y262527D01*
Y262435D01*
X703418Y260493D01*
X702493Y258367D01*
X701846Y256332D01*
X701476Y254391D01*
X701199Y252634D01*
X701106Y251895D01*
Y251247D01*
X701014Y250785D01*
Y250045D01*
X701106Y247734D01*
X701476Y245608D01*
X702031Y243851D01*
X702586Y242279D01*
X703233Y241077D01*
X703695Y240153D01*
X704065Y239598D01*
X704250Y239413D01*
X705637Y237934D01*
X707208Y236547D01*
X708873Y235437D01*
X710537Y234513D01*
X712016Y233773D01*
X712756Y233496D01*
X713310Y233311D01*
X713773Y233126D01*
X714143Y232941D01*
X714328Y232849D01*
X714420D01*
X712478Y224528D01*
X710814Y225082D01*
X709335Y225637D01*
X707948Y226377D01*
X706561Y227024D01*
X705359Y227764D01*
X704250Y228596D01*
X703140Y229335D01*
X702216Y230075D01*
X701476Y230815D01*
X700736Y231462D01*
X700089Y232109D01*
X699627Y232571D01*
X699165Y233034D01*
X698887Y233403D01*
X698795Y233588D01*
X698702Y233681D01*
X697870Y234975D01*
X697038Y236270D01*
X696391Y237564D01*
X695836Y238951D01*
X695004Y241724D01*
X694449Y244221D01*
X694172Y245423D01*
X694080Y246440D01*
X693987Y247457D01*
X693895Y248289D01*
X693802Y248936D01*
Y249861D01*
X693987Y252912D01*
X694449Y255870D01*
X695004Y258459D01*
X695374Y259661D01*
X695744Y260770D01*
X696114Y261787D01*
X696483Y262712D01*
X696761Y263452D01*
X697038Y264191D01*
X697316Y264654D01*
X697501Y265023D01*
X697593Y265301D01*
X697685Y265393D01*
X699257Y267889D01*
X701106Y270016D01*
X702955Y271865D01*
X704805Y273437D01*
X706469Y274639D01*
X707208Y275101D01*
X707856Y275471D01*
X708318Y275841D01*
X708688Y276026D01*
X708965Y276118D01*
X709058Y276211D01*
X711924Y277505D01*
X714882Y278429D01*
X717841Y279077D01*
X720522Y279539D01*
X721724Y279724D01*
X722926Y279816D01*
X723850Y279909D01*
X724775D01*
X725422Y280001D01*
X725977D01*
X726347D01*
X726439D01*
X729768Y279816D01*
D02*
G37*
G36*
X758891Y174879D02*
X751310D01*
Y206406D01*
X749738Y205297D01*
X749091Y204742D01*
X748444Y204280D01*
X747889Y203817D01*
X747519Y203448D01*
X747242Y203170D01*
X747149Y203078D01*
X746687Y202616D01*
X746225Y202061D01*
X745023Y200766D01*
X743636Y199287D01*
X742249Y197715D01*
X741047Y196236D01*
X740493Y195589D01*
X739938Y195034D01*
X739568Y194572D01*
X739291Y194202D01*
X739106Y194017D01*
X739013Y193925D01*
X737719Y192445D01*
X736517Y190966D01*
X735315Y189672D01*
X734298Y188470D01*
X733281Y187360D01*
X732356Y186436D01*
X731524Y185511D01*
X730785Y184772D01*
X730045Y184032D01*
X729490Y183477D01*
X729028Y183015D01*
X728566Y182553D01*
X728011Y182090D01*
X727826Y181905D01*
X726254Y180611D01*
X724867Y179502D01*
X723481Y178577D01*
X722371Y177837D01*
X721354Y177283D01*
X720615Y176913D01*
X720152Y176728D01*
X719967Y176635D01*
X718580Y176081D01*
X717194Y175711D01*
X715899Y175341D01*
X714790Y175156D01*
X713773Y175064D01*
X713033Y174971D01*
X712571D01*
X712386D01*
X710999Y175064D01*
X709705Y175249D01*
X708410Y175433D01*
X707301Y175803D01*
X705082Y176728D01*
X703325Y177652D01*
X702493Y178207D01*
X701846Y178669D01*
X701199Y179132D01*
X700736Y179594D01*
X700367Y179964D01*
X699997Y180149D01*
X699904Y180334D01*
X699812Y180426D01*
X698887Y181443D01*
X698055Y182553D01*
X697408Y183755D01*
X696853Y184956D01*
X695929Y187360D01*
X695282Y189764D01*
X695097Y190781D01*
X694912Y191798D01*
X694819Y192723D01*
X694727Y193462D01*
X694634Y194110D01*
Y195034D01*
X694727Y196698D01*
X694819Y198270D01*
X695097Y199749D01*
X695374Y201136D01*
X695744Y202431D01*
X696114Y203633D01*
X696576Y204742D01*
X697038Y205759D01*
X697501Y206684D01*
X697963Y207423D01*
X698333Y208070D01*
X698702Y208625D01*
X698980Y209087D01*
X699257Y209365D01*
X699350Y209550D01*
X699442Y209642D01*
X700367Y210567D01*
X701384Y211399D01*
X702493Y212231D01*
X703603Y212878D01*
X705822Y213988D01*
X708040Y214727D01*
X709058Y215005D01*
X710075Y215282D01*
X710907Y215467D01*
X711646Y215652D01*
X712293Y215744D01*
X712756D01*
X713033Y215837D01*
X713126D01*
X713958Y207793D01*
X711831Y207608D01*
X709982Y207238D01*
X708318Y206684D01*
X707023Y206036D01*
X705914Y205482D01*
X705174Y204927D01*
X704712Y204557D01*
X704527Y204372D01*
X703418Y202985D01*
X702586Y201506D01*
X701938Y199934D01*
X701569Y198547D01*
X701291Y197253D01*
X701199Y196144D01*
X701106Y195774D01*
Y195219D01*
X701199Y193277D01*
X701569Y191521D01*
X702123Y190042D01*
X702678Y188747D01*
X703325Y187730D01*
X703788Y187083D01*
X704157Y186621D01*
X704342Y186436D01*
X705637Y185326D01*
X706931Y184494D01*
X708225Y183847D01*
X709520Y183477D01*
X710537Y183200D01*
X711461Y183107D01*
X712016Y183015D01*
X712109D01*
X712201D01*
X713865Y183200D01*
X715622Y183570D01*
X717194Y184217D01*
X718673Y184864D01*
X719875Y185604D01*
X720892Y186251D01*
X721262Y186436D01*
X721539Y186621D01*
X721632Y186806D01*
X721724D01*
X722741Y187545D01*
X723758Y188470D01*
X724867Y189487D01*
X725977Y190596D01*
X728196Y192908D01*
X730415Y195219D01*
X731432Y196421D01*
X732356Y197438D01*
X733189Y198455D01*
X733928Y199287D01*
X734483Y199934D01*
X734945Y200489D01*
X735223Y200859D01*
X735315Y200951D01*
X737257Y203263D01*
X739106Y205389D01*
X740770Y207146D01*
X742157Y208533D01*
X743359Y209735D01*
X744191Y210567D01*
X744746Y211029D01*
X744838Y211214D01*
X744930D01*
X746502Y212508D01*
X747981Y213525D01*
X749461Y214450D01*
X750755Y215190D01*
X751865Y215744D01*
X752697Y216114D01*
X753251Y216299D01*
X753344Y216391D01*
X753436D01*
X754453Y216761D01*
X755378Y216946D01*
X756303Y217131D01*
X757135Y217224D01*
X757874Y217316D01*
X758429D01*
X758799D01*
X758891D01*
Y174879D01*
D02*
G37*
G36*
X717748Y159069D02*
X717101Y157682D01*
X716454Y156295D01*
X715807Y155001D01*
X715252Y153891D01*
X714790Y152967D01*
X714420Y152412D01*
X714328Y152319D01*
Y152227D01*
X713310Y150563D01*
X712293Y149084D01*
X711369Y147789D01*
X710537Y146772D01*
X709890Y145848D01*
X709335Y145293D01*
X708965Y144831D01*
X708873Y144738D01*
X758891D01*
Y136879D01*
X694634D01*
Y141964D01*
X696206Y142889D01*
X697685Y143906D01*
X699165Y145108D01*
X700459Y146217D01*
X701569Y147327D01*
X702493Y148159D01*
X702771Y148529D01*
X703048Y148806D01*
X703140Y148899D01*
X703233Y148991D01*
X704805Y150933D01*
X706284Y152874D01*
X707578Y154723D01*
X708595Y156572D01*
X709520Y158144D01*
X709890Y158791D01*
X710167Y159346D01*
X710444Y159808D01*
X710537Y160178D01*
X710722Y160363D01*
Y160456D01*
X718303D01*
X717748Y159069D01*
D02*
G37*
G36*
X249768Y3299816D02*
X253004Y3299447D01*
X255870Y3298984D01*
X257257Y3298614D01*
X258458Y3298337D01*
X259568Y3298060D01*
X260585Y3297690D01*
X261510Y3297413D01*
X262249Y3297228D01*
X262804Y3296950D01*
X263266Y3296858D01*
X263544Y3296673D01*
X263636D01*
X266410Y3295286D01*
X268906Y3293714D01*
X271032Y3292050D01*
X271865Y3291218D01*
X272697Y3290478D01*
X273436Y3289739D01*
X274084Y3288999D01*
X274638Y3288352D01*
X275008Y3287797D01*
X275378Y3287427D01*
X275655Y3287057D01*
X275748Y3286873D01*
X275840Y3286780D01*
X276580Y3285486D01*
X277227Y3284191D01*
X278244Y3281418D01*
X278984Y3278644D01*
X279446Y3275963D01*
X279631Y3274668D01*
X279816Y3273559D01*
X279908Y3272542D01*
Y3271710D01*
X280001Y3270970D01*
Y3269953D01*
X279908Y3268104D01*
X279723Y3266347D01*
X279538Y3264683D01*
X279169Y3263111D01*
X278706Y3261632D01*
X278244Y3260245D01*
X277782Y3258951D01*
X277227Y3257749D01*
X276765Y3256732D01*
X276302Y3255715D01*
X275840Y3254975D01*
X275378Y3254236D01*
X275008Y3253773D01*
X274823Y3253311D01*
X274638Y3253126D01*
X274546Y3253034D01*
X273436Y3251739D01*
X272327Y3250630D01*
X271032Y3249613D01*
X269738Y3248596D01*
X267149Y3246932D01*
X264561Y3245637D01*
X263359Y3245082D01*
X262249Y3244620D01*
X261232Y3244250D01*
X260400Y3243973D01*
X259660Y3243696D01*
X259106Y3243511D01*
X258736Y3243418D01*
X258643D01*
X256517Y3251924D01*
X257996Y3252294D01*
X259383Y3252756D01*
X260677Y3253219D01*
X261879Y3253681D01*
X262989Y3254236D01*
X263913Y3254790D01*
X264838Y3255437D01*
X265670Y3255992D01*
X266410Y3256454D01*
X266964Y3257009D01*
X267519Y3257472D01*
X267981Y3257841D01*
X268259Y3258211D01*
X268536Y3258489D01*
X268629Y3258581D01*
X268721Y3258673D01*
X269461Y3259598D01*
X270015Y3260615D01*
X271032Y3262649D01*
X271772Y3264591D01*
X272234Y3266532D01*
X272604Y3268196D01*
X272697Y3268844D01*
Y3269491D01*
X272789Y3270046D01*
Y3270693D01*
X272697Y3272819D01*
X272327Y3274853D01*
X271865Y3276702D01*
X271310Y3278367D01*
X270755Y3279661D01*
X270478Y3280216D01*
X270293Y3280678D01*
X270108Y3281048D01*
X269923Y3281325D01*
X269831Y3281510D01*
Y3281603D01*
X268536Y3283359D01*
X267149Y3284838D01*
X265578Y3286133D01*
X264098Y3287150D01*
X262804Y3287982D01*
X261694Y3288537D01*
X261232Y3288722D01*
X260955Y3288907D01*
X260770Y3288999D01*
X260677D01*
X258274Y3289739D01*
X255870Y3290293D01*
X253466Y3290756D01*
X251247Y3291033D01*
X250230Y3291125D01*
X249305Y3291218D01*
X248473D01*
X247826Y3291310D01*
X247271D01*
X246809D01*
X246532D01*
X246439D01*
X244035Y3291218D01*
X241816Y3291033D01*
X239782Y3290663D01*
X237933Y3290293D01*
X236361Y3290016D01*
X235714Y3289831D01*
X235160Y3289646D01*
X234697Y3289554D01*
X234420Y3289461D01*
X234235Y3289369D01*
X234143D01*
X232016Y3288444D01*
X230074Y3287427D01*
X228503Y3286318D01*
X227116Y3285116D01*
X226006Y3284099D01*
X225267Y3283267D01*
X224804Y3282620D01*
X224620Y3282527D01*
Y3282435D01*
X223418Y3280493D01*
X222493Y3278367D01*
X221846Y3276333D01*
X221476Y3274391D01*
X221199Y3272634D01*
X221106Y3271895D01*
Y3271247D01*
X221014Y3270785D01*
Y3270046D01*
X221106Y3267734D01*
X221476Y3265608D01*
X222031Y3263851D01*
X222586Y3262279D01*
X223233Y3261077D01*
X223695Y3260153D01*
X224065Y3259598D01*
X224250Y3259413D01*
X225637Y3257934D01*
X227208Y3256547D01*
X228873Y3255437D01*
X230537Y3254513D01*
X232016Y3253773D01*
X232756Y3253496D01*
X233310Y3253311D01*
X233773Y3253126D01*
X234143Y3252941D01*
X234327Y3252849D01*
X234420D01*
X232478Y3244528D01*
X230814Y3245082D01*
X229335Y3245637D01*
X227948Y3246377D01*
X226561Y3247024D01*
X225359Y3247764D01*
X224250Y3248596D01*
X223140Y3249335D01*
X222216Y3250075D01*
X221476Y3250815D01*
X220736Y3251462D01*
X220089Y3252109D01*
X219627Y3252571D01*
X219165Y3253034D01*
X218887Y3253403D01*
X218795Y3253588D01*
X218702Y3253681D01*
X217870Y3254975D01*
X217038Y3256270D01*
X216391Y3257564D01*
X215836Y3258951D01*
X215004Y3261724D01*
X214449Y3264221D01*
X214172Y3265423D01*
X214080Y3266440D01*
X213987Y3267457D01*
X213895Y3268289D01*
X213802Y3268936D01*
Y3269861D01*
X213987Y3272912D01*
X214449Y3275870D01*
X215004Y3278459D01*
X215374Y3279661D01*
X215744Y3280770D01*
X216114Y3281787D01*
X216483Y3282712D01*
X216761Y3283452D01*
X217038Y3284191D01*
X217316Y3284654D01*
X217500Y3285023D01*
X217593Y3285301D01*
X217685Y3285393D01*
X219257Y3287890D01*
X221106Y3290016D01*
X222955Y3291865D01*
X224804Y3293437D01*
X226469Y3294639D01*
X227208Y3295101D01*
X227856Y3295471D01*
X228318Y3295841D01*
X228688Y3296026D01*
X228965Y3296118D01*
X229057Y3296211D01*
X231924Y3297505D01*
X234882Y3298430D01*
X237841Y3299077D01*
X240522Y3299539D01*
X241724Y3299724D01*
X242926Y3299816D01*
X243850Y3299909D01*
X244775D01*
X245422Y3300001D01*
X245977D01*
X246347D01*
X246439D01*
X249768Y3299816D01*
D02*
G37*
G36*
X278891Y3194879D02*
X271310D01*
Y3226406D01*
X269738Y3225297D01*
X269091Y3224742D01*
X268444Y3224280D01*
X267889Y3223818D01*
X267519Y3223448D01*
X267242Y3223170D01*
X267149Y3223078D01*
X266687Y3222616D01*
X266225Y3222061D01*
X265023Y3220766D01*
X263636Y3219287D01*
X262249Y3217715D01*
X261047Y3216236D01*
X260492Y3215589D01*
X259938Y3215034D01*
X259568Y3214572D01*
X259291Y3214202D01*
X259106Y3214017D01*
X259013Y3213925D01*
X257719Y3212445D01*
X256517Y3210966D01*
X255315Y3209672D01*
X254298Y3208470D01*
X253281Y3207360D01*
X252356Y3206436D01*
X251524Y3205511D01*
X250785Y3204772D01*
X250045Y3204032D01*
X249490Y3203477D01*
X249028Y3203015D01*
X248566Y3202553D01*
X248011Y3202090D01*
X247826Y3201905D01*
X246254Y3200611D01*
X244867Y3199502D01*
X243481Y3198577D01*
X242371Y3197837D01*
X241354Y3197283D01*
X240614Y3196913D01*
X240152Y3196728D01*
X239967Y3196635D01*
X238580Y3196081D01*
X237194Y3195711D01*
X235899Y3195341D01*
X234790Y3195156D01*
X233773Y3195064D01*
X233033Y3194971D01*
X232571D01*
X232386D01*
X230999Y3195064D01*
X229705Y3195249D01*
X228410Y3195434D01*
X227301Y3195803D01*
X225082Y3196728D01*
X223325Y3197652D01*
X222493Y3198207D01*
X221846Y3198669D01*
X221199Y3199132D01*
X220736Y3199594D01*
X220367Y3199964D01*
X219997Y3200149D01*
X219904Y3200334D01*
X219812Y3200426D01*
X218887Y3201443D01*
X218055Y3202553D01*
X217408Y3203755D01*
X216853Y3204957D01*
X215929Y3207360D01*
X215282Y3209764D01*
X215097Y3210781D01*
X214912Y3211798D01*
X214819Y3212723D01*
X214727Y3213462D01*
X214634Y3214110D01*
Y3215034D01*
X214727Y3216698D01*
X214819Y3218270D01*
X215097Y3219749D01*
X215374Y3221136D01*
X215744Y3222431D01*
X216114Y3223633D01*
X216576Y3224742D01*
X217038Y3225759D01*
X217500Y3226684D01*
X217963Y3227423D01*
X218333Y3228071D01*
X218702Y3228625D01*
X218980Y3229088D01*
X219257Y3229365D01*
X219350Y3229550D01*
X219442Y3229642D01*
X220367Y3230567D01*
X221384Y3231399D01*
X222493Y3232231D01*
X223603Y3232878D01*
X225821Y3233988D01*
X228040Y3234727D01*
X229057Y3235005D01*
X230074Y3235282D01*
X230907Y3235467D01*
X231646Y3235652D01*
X232293Y3235744D01*
X232756D01*
X233033Y3235837D01*
X233126D01*
X233958Y3227793D01*
X231831Y3227608D01*
X229982Y3227238D01*
X228318Y3226684D01*
X227023Y3226036D01*
X225914Y3225482D01*
X225174Y3224927D01*
X224712Y3224557D01*
X224527Y3224372D01*
X223418Y3222985D01*
X222586Y3221506D01*
X221938Y3219934D01*
X221569Y3218548D01*
X221291Y3217253D01*
X221199Y3216144D01*
X221106Y3215774D01*
Y3215219D01*
X221199Y3213278D01*
X221569Y3211521D01*
X222123Y3210042D01*
X222678Y3208747D01*
X223325Y3207730D01*
X223787Y3207083D01*
X224157Y3206621D01*
X224342Y3206436D01*
X225637Y3205326D01*
X226931Y3204494D01*
X228225Y3203847D01*
X229520Y3203477D01*
X230537Y3203200D01*
X231461Y3203107D01*
X232016Y3203015D01*
X232109D01*
X232201D01*
X233865Y3203200D01*
X235622Y3203570D01*
X237194Y3204217D01*
X238673Y3204864D01*
X239875Y3205604D01*
X240892Y3206251D01*
X241262Y3206436D01*
X241539Y3206621D01*
X241631Y3206806D01*
X241724D01*
X242741Y3207545D01*
X243758Y3208470D01*
X244867Y3209487D01*
X245977Y3210596D01*
X248196Y3212908D01*
X250415Y3215219D01*
X251432Y3216421D01*
X252356Y3217438D01*
X253188Y3218455D01*
X253928Y3219287D01*
X254483Y3219934D01*
X254945Y3220489D01*
X255223Y3220859D01*
X255315Y3220951D01*
X257257Y3223263D01*
X259106Y3225389D01*
X260770Y3227146D01*
X262157Y3228533D01*
X263359Y3229735D01*
X264191Y3230567D01*
X264745Y3231029D01*
X264838Y3231214D01*
X264930D01*
X266502Y3232508D01*
X267981Y3233525D01*
X269461Y3234450D01*
X270755Y3235190D01*
X271865Y3235744D01*
X272697Y3236114D01*
X273251Y3236299D01*
X273344Y3236392D01*
X273436D01*
X274453Y3236761D01*
X275378Y3236946D01*
X276302Y3237131D01*
X277135Y3237224D01*
X277874Y3237316D01*
X278429D01*
X278799D01*
X278891D01*
Y3194879D01*
D02*
G37*
G36*
X263451Y3186188D02*
X264838Y3185911D01*
X267427Y3185078D01*
X269646Y3184061D01*
X270570Y3183507D01*
X271495Y3182952D01*
X272327Y3182397D01*
X272974Y3181843D01*
X273621Y3181380D01*
X274084Y3180918D01*
X274453Y3180641D01*
X274731Y3180363D01*
X274916Y3180178D01*
X275008Y3180086D01*
X275840Y3178976D01*
X276672Y3177867D01*
X277319Y3176757D01*
X277874Y3175555D01*
X278799Y3173244D01*
X279354Y3171025D01*
X279538Y3170008D01*
X279723Y3169084D01*
X279816Y3168251D01*
X279908Y3167512D01*
X280001Y3166957D01*
Y3166125D01*
X279908Y3164368D01*
X279723Y3162797D01*
X279446Y3161225D01*
X279076Y3159746D01*
X278614Y3158359D01*
X278152Y3157157D01*
X277597Y3155955D01*
X277042Y3154938D01*
X276580Y3153921D01*
X276025Y3153089D01*
X275563Y3152349D01*
X275101Y3151794D01*
X274731Y3151332D01*
X274453Y3150962D01*
X274268Y3150777D01*
X274176Y3150685D01*
X273067Y3149575D01*
X271865Y3148651D01*
X270663Y3147819D01*
X269461Y3147079D01*
X268351Y3146524D01*
X267149Y3145970D01*
X264930Y3145230D01*
X263913Y3145045D01*
X262989Y3144860D01*
X262157Y3144675D01*
X261417Y3144583D01*
X260862Y3144490D01*
X260400D01*
X260123D01*
X260030D01*
X257811Y3144583D01*
X255777Y3144953D01*
X254021Y3145507D01*
X252541Y3146062D01*
X251339Y3146617D01*
X250415Y3147172D01*
X249860Y3147541D01*
X249675Y3147634D01*
X248288Y3148928D01*
X247086Y3150315D01*
X246162Y3151794D01*
X245422Y3153274D01*
X244867Y3154568D01*
X244498Y3155585D01*
X244405Y3155955D01*
X244313Y3156232D01*
X244220Y3156417D01*
Y3156510D01*
X243388Y3154938D01*
X242556Y3153643D01*
X241631Y3152534D01*
X240799Y3151609D01*
X240060Y3150870D01*
X239413Y3150315D01*
X239043Y3150038D01*
X238858Y3149945D01*
X237563Y3149206D01*
X236269Y3148651D01*
X234975Y3148189D01*
X233773Y3147911D01*
X232756Y3147726D01*
X232016Y3147634D01*
X231461D01*
X231276D01*
X229705Y3147726D01*
X228133Y3148004D01*
X226746Y3148373D01*
X225544Y3148836D01*
X224527Y3149298D01*
X223695Y3149668D01*
X223233Y3149945D01*
X223048Y3150038D01*
X221661Y3150962D01*
X220459Y3152072D01*
X219442Y3153181D01*
X218517Y3154291D01*
X217870Y3155215D01*
X217316Y3156047D01*
X217038Y3156602D01*
X216946Y3156694D01*
Y3156787D01*
X216206Y3158451D01*
X215651Y3160115D01*
X215189Y3161780D01*
X214912Y3163259D01*
X214727Y3164461D01*
X214634Y3165478D01*
Y3167789D01*
X214819Y3169084D01*
X215282Y3171580D01*
X216021Y3173706D01*
X216761Y3175555D01*
X217223Y3176388D01*
X217593Y3177035D01*
X217963Y3177682D01*
X218333Y3178144D01*
X218610Y3178514D01*
X218795Y3178791D01*
X218887Y3178976D01*
X218980Y3179069D01*
X220736Y3180825D01*
X222678Y3182212D01*
X224712Y3183322D01*
X226746Y3184246D01*
X228503Y3184801D01*
X229242Y3185078D01*
X229890Y3185263D01*
X230444Y3185356D01*
X230814Y3185448D01*
X231091Y3185541D01*
X231184D01*
X232571Y3177682D01*
X230537Y3177312D01*
X228780Y3176757D01*
X227301Y3176110D01*
X226099Y3175463D01*
X225174Y3174816D01*
X224527Y3174261D01*
X224065Y3173891D01*
X223972Y3173799D01*
X223048Y3172597D01*
X222308Y3171303D01*
X221846Y3170101D01*
X221476Y3168899D01*
X221291Y3167789D01*
X221106Y3166957D01*
Y3166217D01*
X221199Y3164553D01*
X221569Y3163074D01*
X222031Y3161780D01*
X222493Y3160670D01*
X223048Y3159838D01*
X223510Y3159191D01*
X223880Y3158729D01*
X223972Y3158636D01*
X225082Y3157619D01*
X226284Y3156879D01*
X227486Y3156417D01*
X228595Y3156047D01*
X229612Y3155862D01*
X230352Y3155677D01*
X230907D01*
X230999D01*
X231091D01*
X232109D01*
X233033Y3155862D01*
X234605Y3156325D01*
X235992Y3156972D01*
X237194Y3157711D01*
X238026Y3158451D01*
X238673Y3159098D01*
X239043Y3159561D01*
X239135Y3159653D01*
Y3159746D01*
X239967Y3161317D01*
X240614Y3162797D01*
X241077Y3164368D01*
X241354Y3165755D01*
X241539Y3166957D01*
X241724Y3167974D01*
Y3169176D01*
X241631Y3169546D01*
Y3170008D01*
X248566Y3170933D01*
X248288Y3169731D01*
X248103Y3168621D01*
X247918Y3167697D01*
X247826Y3166865D01*
X247734Y3166217D01*
Y3165385D01*
X247918Y3163444D01*
X248288Y3161687D01*
X248843Y3160115D01*
X249490Y3158821D01*
X250137Y3157804D01*
X250692Y3157064D01*
X251062Y3156602D01*
X251247Y3156417D01*
X252634Y3155215D01*
X254113Y3154291D01*
X255592Y3153643D01*
X257072Y3153274D01*
X258274Y3152996D01*
X259291Y3152904D01*
X259660Y3152811D01*
X259938D01*
X260123D01*
X260215D01*
X262249Y3152996D01*
X264098Y3153459D01*
X265670Y3154013D01*
X267057Y3154753D01*
X268166Y3155493D01*
X268998Y3156047D01*
X269553Y3156510D01*
X269738Y3156694D01*
X271032Y3158174D01*
X271957Y3159746D01*
X272604Y3161317D01*
X273067Y3162797D01*
X273344Y3164091D01*
X273436Y3165108D01*
X273529Y3165478D01*
Y3166033D01*
X273436Y3167697D01*
X273067Y3169268D01*
X272604Y3170655D01*
X272049Y3171765D01*
X271587Y3172689D01*
X271125Y3173429D01*
X270755Y3173799D01*
X270663Y3173984D01*
X269368Y3175093D01*
X267889Y3176018D01*
X266317Y3176850D01*
X264653Y3177497D01*
X263266Y3177959D01*
X262619Y3178144D01*
X262064Y3178237D01*
X261602Y3178329D01*
X261232Y3178422D01*
X261047Y3178514D01*
X260955D01*
X261972Y3186373D01*
X263451Y3186188D01*
D02*
G37*
G36*
X1928229Y309816D02*
X1931465Y309446D01*
X1934331Y308984D01*
X1935718Y308614D01*
X1936920Y308337D01*
X1938029Y308060D01*
X1939046Y307690D01*
X1939971Y307412D01*
X1940711Y307227D01*
X1941265Y306950D01*
X1941728Y306858D01*
X1942005Y306673D01*
X1942097D01*
X1944871Y305286D01*
X1947367Y303714D01*
X1949494Y302050D01*
X1950326Y301218D01*
X1951158Y300478D01*
X1951898Y299739D01*
X1952545Y298999D01*
X1953100Y298352D01*
X1953470Y297797D01*
X1953839Y297427D01*
X1954117Y297057D01*
X1954209Y296872D01*
X1954302Y296780D01*
X1955041Y295486D01*
X1955688Y294191D01*
X1956706Y291418D01*
X1957445Y288644D01*
X1957907Y285963D01*
X1958092Y284668D01*
X1958277Y283559D01*
X1958370Y282542D01*
Y281710D01*
X1958462Y280970D01*
Y279953D01*
X1958370Y278104D01*
X1958185Y276347D01*
X1958000Y274683D01*
X1957630Y273111D01*
X1957168Y271632D01*
X1956706Y270245D01*
X1956243Y268951D01*
X1955688Y267749D01*
X1955226Y266732D01*
X1954764Y265715D01*
X1954302Y264975D01*
X1953839Y264235D01*
X1953470Y263773D01*
X1953285Y263311D01*
X1953100Y263126D01*
X1953007Y263034D01*
X1951898Y261739D01*
X1950788Y260630D01*
X1949494Y259613D01*
X1948200Y258596D01*
X1945611Y256931D01*
X1943022Y255637D01*
X1941820Y255082D01*
X1940711Y254620D01*
X1939694Y254250D01*
X1938862Y253973D01*
X1938122Y253695D01*
X1937567Y253511D01*
X1937197Y253418D01*
X1937105D01*
X1934978Y261924D01*
X1936458Y262294D01*
X1937844Y262756D01*
X1939139Y263218D01*
X1940341Y263681D01*
X1941450Y264235D01*
X1942375Y264790D01*
X1943299Y265437D01*
X1944131Y265992D01*
X1944871Y266454D01*
X1945426Y267009D01*
X1945981Y267471D01*
X1946443Y267841D01*
X1946720Y268211D01*
X1946998Y268488D01*
X1947090Y268581D01*
X1947183Y268673D01*
X1947922Y269598D01*
X1948477Y270615D01*
X1949494Y272649D01*
X1950234Y274591D01*
X1950696Y276532D01*
X1951066Y278196D01*
X1951158Y278843D01*
Y279491D01*
X1951251Y280045D01*
Y280693D01*
X1951158Y282819D01*
X1950788Y284853D01*
X1950326Y286702D01*
X1949771Y288366D01*
X1949217Y289661D01*
X1948939Y290216D01*
X1948754Y290678D01*
X1948569Y291048D01*
X1948384Y291325D01*
X1948292Y291510D01*
Y291602D01*
X1946998Y293359D01*
X1945611Y294838D01*
X1944039Y296133D01*
X1942560Y297150D01*
X1941265Y297982D01*
X1940156Y298537D01*
X1939694Y298722D01*
X1939416Y298906D01*
X1939231Y298999D01*
X1939139D01*
X1936735Y299739D01*
X1934331Y300293D01*
X1931927Y300756D01*
X1929708Y301033D01*
X1928691Y301125D01*
X1927767Y301218D01*
X1926935D01*
X1926287Y301310D01*
X1925733D01*
X1925270D01*
X1924993D01*
X1924901D01*
X1922497Y301218D01*
X1920278Y301033D01*
X1918244Y300663D01*
X1916395Y300293D01*
X1914823Y300016D01*
X1914176Y299831D01*
X1913621Y299646D01*
X1913159Y299554D01*
X1912881Y299461D01*
X1912696Y299369D01*
X1912604D01*
X1910478Y298444D01*
X1908536Y297427D01*
X1906964Y296318D01*
X1905577Y295116D01*
X1904468Y294099D01*
X1903728Y293267D01*
X1903266Y292619D01*
X1903081Y292527D01*
Y292435D01*
X1901879Y290493D01*
X1900955Y288366D01*
X1900307Y286332D01*
X1899938Y284391D01*
X1899660Y282634D01*
X1899568Y281895D01*
Y281247D01*
X1899475Y280785D01*
Y280045D01*
X1899568Y277734D01*
X1899938Y275608D01*
X1900492Y273851D01*
X1901047Y272279D01*
X1901694Y271077D01*
X1902156Y270153D01*
X1902526Y269598D01*
X1902711Y269413D01*
X1904098Y267934D01*
X1905670Y266547D01*
X1907334Y265437D01*
X1908998Y264513D01*
X1910478Y263773D01*
X1911217Y263496D01*
X1911772Y263311D01*
X1912234Y263126D01*
X1912604Y262941D01*
X1912789Y262849D01*
X1912881D01*
X1910940Y254528D01*
X1909276Y255082D01*
X1907796Y255637D01*
X1906409Y256377D01*
X1905023Y257024D01*
X1903821Y257764D01*
X1902711Y258596D01*
X1901602Y259335D01*
X1900677Y260075D01*
X1899938Y260815D01*
X1899198Y261462D01*
X1898551Y262109D01*
X1898088Y262571D01*
X1897626Y263034D01*
X1897349Y263403D01*
X1897256Y263588D01*
X1897164Y263681D01*
X1896332Y264975D01*
X1895500Y266269D01*
X1894852Y267564D01*
X1894298Y268951D01*
X1893466Y271724D01*
X1892911Y274221D01*
X1892634Y275423D01*
X1892541Y276440D01*
X1892449Y277457D01*
X1892356Y278289D01*
X1892264Y278936D01*
Y279861D01*
X1892449Y282912D01*
X1892911Y285870D01*
X1893466Y288459D01*
X1893835Y289661D01*
X1894205Y290770D01*
X1894575Y291787D01*
X1894945Y292712D01*
X1895222Y293452D01*
X1895500Y294191D01*
X1895777Y294653D01*
X1895962Y295023D01*
X1896054Y295301D01*
X1896147Y295393D01*
X1897719Y297889D01*
X1899568Y300016D01*
X1901417Y301865D01*
X1903266Y303437D01*
X1904930Y304639D01*
X1905670Y305101D01*
X1906317Y305471D01*
X1906779Y305841D01*
X1907149Y306026D01*
X1907426Y306118D01*
X1907519Y306210D01*
X1910385Y307505D01*
X1913344Y308429D01*
X1916302Y309077D01*
X1918983Y309539D01*
X1920185Y309724D01*
X1921387Y309816D01*
X1922312Y309909D01*
X1923236D01*
X1923884Y310001D01*
X1924438D01*
X1924808D01*
X1924901D01*
X1928229Y309816D01*
D02*
G37*
G36*
X1941913Y245929D02*
X1943299Y245652D01*
X1945888Y244820D01*
X1948107Y243803D01*
X1949032Y243248D01*
X1949956Y242693D01*
X1950788Y242138D01*
X1951436Y241584D01*
X1952083Y241121D01*
X1952545Y240659D01*
X1952915Y240382D01*
X1953192Y240104D01*
X1953377Y239920D01*
X1953470Y239827D01*
X1954302Y238718D01*
X1955134Y237608D01*
X1955781Y236499D01*
X1956336Y235297D01*
X1957260Y232985D01*
X1957815Y230766D01*
X1958000Y229749D01*
X1958185Y228825D01*
X1958277Y227993D01*
X1958370Y227253D01*
X1958462Y226698D01*
Y225866D01*
X1958370Y224110D01*
X1958185Y222538D01*
X1957907Y220966D01*
X1957538Y219487D01*
X1957075Y218100D01*
X1956613Y216898D01*
X1956058Y215696D01*
X1955504Y214679D01*
X1955041Y213662D01*
X1954487Y212830D01*
X1954024Y212090D01*
X1953562Y211536D01*
X1953192Y211073D01*
X1952915Y210703D01*
X1952730Y210519D01*
X1952637Y210426D01*
X1951528Y209317D01*
X1950326Y208392D01*
X1949124Y207560D01*
X1947922Y206820D01*
X1946813Y206266D01*
X1945611Y205711D01*
X1943392Y204971D01*
X1942375Y204786D01*
X1941450Y204601D01*
X1940618Y204416D01*
X1939879Y204324D01*
X1939324Y204231D01*
X1938862D01*
X1938584D01*
X1938492D01*
X1936273Y204324D01*
X1934239Y204694D01*
X1932482Y205249D01*
X1931003Y205803D01*
X1929801Y206358D01*
X1928876Y206913D01*
X1928322Y207283D01*
X1928137Y207375D01*
X1926750Y208669D01*
X1925548Y210056D01*
X1924623Y211536D01*
X1923884Y213015D01*
X1923329Y214309D01*
X1922959Y215326D01*
X1922867Y215696D01*
X1922774Y215973D01*
X1922682Y216158D01*
Y216251D01*
X1921850Y214679D01*
X1921017Y213385D01*
X1920093Y212275D01*
X1919261Y211351D01*
X1918521Y210611D01*
X1917874Y210056D01*
X1917504Y209779D01*
X1917319Y209686D01*
X1916025Y208947D01*
X1914730Y208392D01*
X1913436Y207930D01*
X1912234Y207652D01*
X1911217Y207467D01*
X1910478Y207375D01*
X1909923D01*
X1909738D01*
X1908166Y207467D01*
X1906594Y207745D01*
X1905208Y208115D01*
X1904006Y208577D01*
X1902989Y209039D01*
X1902156Y209409D01*
X1901694Y209686D01*
X1901509Y209779D01*
X1900122Y210703D01*
X1898921Y211813D01*
X1897903Y212922D01*
X1896979Y214032D01*
X1896332Y214956D01*
X1895777Y215788D01*
X1895500Y216343D01*
X1895407Y216436D01*
Y216528D01*
X1894668Y218192D01*
X1894113Y219857D01*
X1893651Y221521D01*
X1893373Y223000D01*
X1893188Y224202D01*
X1893096Y225219D01*
Y227530D01*
X1893281Y228825D01*
X1893743Y231321D01*
X1894483Y233448D01*
X1895222Y235297D01*
X1895685Y236129D01*
X1896054Y236776D01*
X1896424Y237423D01*
X1896794Y237885D01*
X1897071Y238255D01*
X1897256Y238533D01*
X1897349Y238718D01*
X1897441Y238810D01*
X1899198Y240567D01*
X1901139Y241954D01*
X1903173Y243063D01*
X1905208Y243988D01*
X1906964Y244542D01*
X1907704Y244820D01*
X1908351Y245005D01*
X1908906Y245097D01*
X1909276Y245190D01*
X1909553Y245282D01*
X1909645D01*
X1911032Y237423D01*
X1908998Y237053D01*
X1907242Y236499D01*
X1905762Y235851D01*
X1904560Y235204D01*
X1903636Y234557D01*
X1902989Y234002D01*
X1902526Y233633D01*
X1902434Y233540D01*
X1901509Y232338D01*
X1900770Y231044D01*
X1900307Y229842D01*
X1899938Y228640D01*
X1899753Y227530D01*
X1899568Y226698D01*
Y225959D01*
X1899660Y224294D01*
X1900030Y222815D01*
X1900492Y221521D01*
X1900955Y220411D01*
X1901509Y219579D01*
X1901972Y218932D01*
X1902341Y218470D01*
X1902434Y218377D01*
X1903543Y217360D01*
X1904745Y216621D01*
X1905947Y216158D01*
X1907057Y215788D01*
X1908074Y215604D01*
X1908813Y215419D01*
X1909368D01*
X1909460D01*
X1909553D01*
X1910570D01*
X1911495Y215604D01*
X1913066Y216066D01*
X1914453Y216713D01*
X1915655Y217453D01*
X1916487Y218192D01*
X1917134Y218840D01*
X1917504Y219302D01*
X1917597Y219394D01*
Y219487D01*
X1918429Y221058D01*
X1919076Y222538D01*
X1919538Y224110D01*
X1919816Y225496D01*
X1920000Y226698D01*
X1920185Y227715D01*
Y228917D01*
X1920093Y229287D01*
Y229749D01*
X1927027Y230674D01*
X1926750Y229472D01*
X1926565Y228363D01*
X1926380Y227438D01*
X1926287Y226606D01*
X1926195Y225959D01*
Y225127D01*
X1926380Y223185D01*
X1926750Y221428D01*
X1927305Y219857D01*
X1927952Y218562D01*
X1928599Y217545D01*
X1929154Y216806D01*
X1929523Y216343D01*
X1929708Y216158D01*
X1931095Y214956D01*
X1932574Y214032D01*
X1934054Y213385D01*
X1935533Y213015D01*
X1936735Y212737D01*
X1937752Y212645D01*
X1938122Y212553D01*
X1938399D01*
X1938584D01*
X1938677D01*
X1940711Y212737D01*
X1942560Y213200D01*
X1944131Y213754D01*
X1945518Y214494D01*
X1946628Y215234D01*
X1947460Y215788D01*
X1948015Y216251D01*
X1948200Y216436D01*
X1949494Y217915D01*
X1950419Y219487D01*
X1951066Y221058D01*
X1951528Y222538D01*
X1951805Y223832D01*
X1951898Y224849D01*
X1951990Y225219D01*
Y225774D01*
X1951898Y227438D01*
X1951528Y229010D01*
X1951066Y230397D01*
X1950511Y231506D01*
X1950049Y232431D01*
X1949586Y233170D01*
X1949217Y233540D01*
X1949124Y233725D01*
X1947830Y234834D01*
X1946350Y235759D01*
X1944779Y236591D01*
X1943114Y237238D01*
X1941728Y237701D01*
X1941080Y237885D01*
X1940526Y237978D01*
X1940063Y238070D01*
X1939694Y238163D01*
X1939509Y238255D01*
X1939416D01*
X1940433Y246114D01*
X1941913Y245929D01*
D02*
G37*
G36*
X1929061Y196373D02*
X1932112Y196188D01*
X1934886Y195910D01*
X1937475Y195448D01*
X1939879Y194986D01*
X1942005Y194431D01*
X1943947Y193876D01*
X1945611Y193322D01*
X1947090Y192767D01*
X1948384Y192120D01*
X1949494Y191657D01*
X1950326Y191195D01*
X1951066Y190733D01*
X1951528Y190456D01*
X1951805Y190271D01*
X1951898Y190178D01*
X1953007Y189161D01*
X1954024Y188052D01*
X1954949Y186850D01*
X1955688Y185648D01*
X1956336Y184446D01*
X1956890Y183244D01*
X1957260Y182042D01*
X1957630Y180933D01*
X1957907Y179823D01*
X1958092Y178806D01*
X1958277Y177882D01*
X1958370Y177142D01*
X1958462Y176495D01*
Y175570D01*
X1958277Y173074D01*
X1957907Y170762D01*
X1957260Y168821D01*
X1956613Y167157D01*
X1955966Y165770D01*
X1955596Y165308D01*
X1955319Y164845D01*
X1955134Y164475D01*
X1954949Y164198D01*
X1954764Y164106D01*
Y164013D01*
X1953192Y162349D01*
X1951528Y160962D01*
X1949679Y159760D01*
X1948015Y158836D01*
X1946443Y158096D01*
X1945796Y157726D01*
X1945149Y157541D01*
X1944686Y157356D01*
X1944316Y157171D01*
X1944131Y157079D01*
X1944039D01*
X1942652Y156617D01*
X1941265Y156247D01*
X1938307Y155692D01*
X1935256Y155230D01*
X1932297Y154952D01*
X1931003Y154860D01*
X1929801Y154768D01*
X1928691D01*
X1927674Y154675D01*
X1926935D01*
X1926287D01*
X1925918D01*
X1925825D01*
X1924069D01*
X1922404Y154768D01*
X1920925D01*
X1919446Y154860D01*
X1918151Y155045D01*
X1916857Y155137D01*
X1915748Y155230D01*
X1914730Y155415D01*
X1913806Y155507D01*
X1912974Y155692D01*
X1912327Y155785D01*
X1911772Y155877D01*
X1911310Y155969D01*
X1911032Y156062D01*
X1910847Y156154D01*
X1910755D01*
X1908721Y156709D01*
X1906872Y157356D01*
X1905300Y158096D01*
X1903913Y158651D01*
X1902711Y159298D01*
X1901879Y159668D01*
X1901417Y160038D01*
X1901232Y160130D01*
X1899845Y161147D01*
X1898643Y162164D01*
X1897626Y163273D01*
X1896702Y164291D01*
X1896054Y165215D01*
X1895592Y165955D01*
X1895315Y166417D01*
X1895222Y166509D01*
Y166602D01*
X1894483Y168081D01*
X1894020Y169653D01*
X1893651Y171132D01*
X1893373Y172519D01*
X1893188Y173721D01*
X1893096Y174738D01*
Y175570D01*
X1893281Y178066D01*
X1893651Y180378D01*
X1894298Y182319D01*
X1894945Y183984D01*
X1895685Y185370D01*
X1895962Y185925D01*
X1896332Y186387D01*
X1896517Y186757D01*
X1896702Y187035D01*
X1896886Y187127D01*
Y187220D01*
X1898366Y188884D01*
X1900122Y190271D01*
X1901879Y191473D01*
X1903543Y192397D01*
X1905115Y193137D01*
X1905762Y193507D01*
X1906409Y193692D01*
X1906872Y193876D01*
X1907242Y194061D01*
X1907426Y194154D01*
X1907519D01*
X1908906Y194524D01*
X1910293Y194893D01*
X1913344Y195448D01*
X1916395Y195910D01*
X1919261Y196188D01*
X1920648Y196280D01*
X1921850Y196373D01*
X1922959D01*
X1923976Y196465D01*
X1924716D01*
X1925363D01*
X1925733D01*
X1925825D01*
X1929061Y196373D01*
D02*
G37*
G36*
X2594712Y3882220D02*
X2587131D01*
Y3913562D01*
X2584450Y3911343D01*
X2581584Y3909217D01*
X2578810Y3907368D01*
X2576129Y3905611D01*
X2574927Y3904871D01*
X2573817Y3904224D01*
X2572800Y3903577D01*
X2571968Y3903115D01*
X2571229Y3902745D01*
X2570766Y3902467D01*
X2570396Y3902283D01*
X2570304Y3902190D01*
X2566606Y3900341D01*
X2562907Y3898677D01*
X2559394Y3897290D01*
X2557822Y3896735D01*
X2556251Y3896180D01*
X2554864Y3895626D01*
X2553569Y3895256D01*
X2552460Y3894886D01*
X2551535Y3894609D01*
X2550703Y3894331D01*
X2550149Y3894146D01*
X2549779Y3894054D01*
X2549686D01*
X2545896Y3893129D01*
X2544046Y3892760D01*
X2542382Y3892482D01*
X2540811Y3892205D01*
X2539239Y3891927D01*
X2537944Y3891743D01*
X2536650Y3891558D01*
X2535541Y3891465D01*
X2534524Y3891373D01*
X2533599Y3891280D01*
X2532859D01*
X2532305Y3891188D01*
X2531935D01*
X2531657D01*
X2531565D01*
Y3899231D01*
X2535078Y3899509D01*
X2538314Y3899971D01*
X2541273Y3900433D01*
X2542660Y3900711D01*
X2543954Y3900988D01*
X2545063Y3901173D01*
X2546081Y3901450D01*
X2547005Y3901635D01*
X2547745Y3901820D01*
X2548299Y3902005D01*
X2548762Y3902098D01*
X2549039Y3902190D01*
X2549132D01*
X2553385Y3903577D01*
X2557360Y3905056D01*
X2559302Y3905796D01*
X2561151Y3906535D01*
X2562815Y3907368D01*
X2564479Y3908107D01*
X2565959Y3908754D01*
X2567253Y3909402D01*
X2568362Y3909956D01*
X2569379Y3910419D01*
X2570212Y3910881D01*
X2570766Y3911158D01*
X2571136Y3911343D01*
X2571229Y3911436D01*
X2573170Y3912545D01*
X2575112Y3913655D01*
X2576868Y3914764D01*
X2578533Y3915874D01*
X2580012Y3916891D01*
X2581491Y3917908D01*
X2582786Y3918925D01*
X2583895Y3919757D01*
X2585004Y3920589D01*
X2585929Y3921328D01*
X2586669Y3922068D01*
X2587316Y3922623D01*
X2587871Y3922993D01*
X2588240Y3923362D01*
X2588425Y3923547D01*
X2588518Y3923640D01*
X2594712D01*
Y3882220D01*
D02*
G37*
G36*
X2539146Y3841724D02*
X2540718Y3842833D01*
X2541365Y3843388D01*
X2542012Y3843850D01*
X2542567Y3844313D01*
X2542937Y3844682D01*
X2543214Y3844960D01*
X2543307Y3845052D01*
X2543769Y3845515D01*
X2544231Y3846069D01*
X2545433Y3847364D01*
X2546820Y3848843D01*
X2548207Y3850415D01*
X2549409Y3851894D01*
X2549964Y3852541D01*
X2550518Y3853096D01*
X2550888Y3853558D01*
X2551166Y3853928D01*
X2551350Y3854113D01*
X2551443Y3854205D01*
X2552737Y3855685D01*
X2553939Y3857164D01*
X2555141Y3858458D01*
X2556158Y3859660D01*
X2557175Y3860770D01*
X2558100Y3861694D01*
X2558932Y3862619D01*
X2559672Y3863359D01*
X2560411Y3864098D01*
X2560966Y3864653D01*
X2561428Y3865115D01*
X2561890Y3865577D01*
X2562445Y3866040D01*
X2562630Y3866225D01*
X2564202Y3867519D01*
X2565589Y3868629D01*
X2566976Y3869553D01*
X2568085Y3870293D01*
X2569102Y3870847D01*
X2569842Y3871217D01*
X2570304Y3871402D01*
X2570489Y3871495D01*
X2571876Y3872049D01*
X2573263Y3872419D01*
X2574557Y3872789D01*
X2575666Y3872974D01*
X2576683Y3873066D01*
X2577423Y3873159D01*
X2577885D01*
X2578070D01*
X2579457Y3873066D01*
X2580752Y3872882D01*
X2582046Y3872697D01*
X2583155Y3872327D01*
X2585374Y3871402D01*
X2587131Y3870478D01*
X2587963Y3869923D01*
X2588610Y3869461D01*
X2589257Y3868998D01*
X2589720Y3868536D01*
X2590090Y3868166D01*
X2590459Y3867981D01*
X2590552Y3867796D01*
X2590644Y3867704D01*
X2591569Y3866687D01*
X2592401Y3865577D01*
X2593048Y3864376D01*
X2593603Y3863174D01*
X2594527Y3860770D01*
X2595175Y3858366D01*
X2595360Y3857349D01*
X2595544Y3856332D01*
X2595637Y3855407D01*
X2595729Y3854668D01*
X2595822Y3854020D01*
Y3853096D01*
X2595729Y3851432D01*
X2595637Y3849860D01*
X2595360Y3848381D01*
X2595082Y3846994D01*
X2594712Y3845699D01*
X2594343Y3844498D01*
X2593880Y3843388D01*
X2593418Y3842371D01*
X2592956Y3841446D01*
X2592493Y3840707D01*
X2592124Y3840060D01*
X2591754Y3839505D01*
X2591476Y3839043D01*
X2591199Y3838765D01*
X2591107Y3838580D01*
X2591014Y3838488D01*
X2590090Y3837563D01*
X2589073Y3836731D01*
X2587963Y3835899D01*
X2586854Y3835252D01*
X2584635Y3834142D01*
X2582416Y3833403D01*
X2581399Y3833125D01*
X2580382Y3832848D01*
X2579550Y3832663D01*
X2578810Y3832478D01*
X2578163Y3832386D01*
X2577700D01*
X2577423Y3832293D01*
X2577331D01*
X2576499Y3840337D01*
X2578625Y3840522D01*
X2580474Y3840892D01*
X2582138Y3841446D01*
X2583433Y3842094D01*
X2584542Y3842648D01*
X2585282Y3843203D01*
X2585744Y3843573D01*
X2585929Y3843758D01*
X2587039Y3845145D01*
X2587871Y3846624D01*
X2588518Y3848196D01*
X2588888Y3849583D01*
X2589165Y3850877D01*
X2589257Y3851986D01*
X2589350Y3852356D01*
Y3852911D01*
X2589257Y3854853D01*
X2588888Y3856609D01*
X2588333Y3858089D01*
X2587778Y3859383D01*
X2587131Y3860400D01*
X2586669Y3861047D01*
X2586299Y3861509D01*
X2586114Y3861694D01*
X2584820Y3862804D01*
X2583525Y3863636D01*
X2582231Y3864283D01*
X2580936Y3864653D01*
X2579919Y3864930D01*
X2578995Y3865023D01*
X2578440Y3865115D01*
X2578348D01*
X2578255D01*
X2576591Y3864930D01*
X2574834Y3864560D01*
X2573263Y3863913D01*
X2571783Y3863266D01*
X2570581Y3862526D01*
X2569564Y3861879D01*
X2569195Y3861694D01*
X2568917Y3861509D01*
X2568825Y3861325D01*
X2568732D01*
X2567715Y3860585D01*
X2566698Y3859660D01*
X2565589Y3858643D01*
X2564479Y3857534D01*
X2562260Y3855222D01*
X2560041Y3852911D01*
X2559024Y3851709D01*
X2558100Y3850692D01*
X2557268Y3849675D01*
X2556528Y3848843D01*
X2555973Y3848196D01*
X2555511Y3847641D01*
X2555234Y3847271D01*
X2555141Y3847179D01*
X2553200Y3844867D01*
X2551350Y3842741D01*
X2549686Y3840984D01*
X2548299Y3839597D01*
X2547098Y3838395D01*
X2546265Y3837563D01*
X2545711Y3837101D01*
X2545618Y3836916D01*
X2545526D01*
X2543954Y3835622D01*
X2542475Y3834605D01*
X2540995Y3833680D01*
X2539701Y3832941D01*
X2538592Y3832386D01*
X2537759Y3832016D01*
X2537205Y3831831D01*
X2537112Y3831739D01*
X2537020D01*
X2536003Y3831369D01*
X2535078Y3831184D01*
X2534154Y3830999D01*
X2533322Y3830906D01*
X2532582Y3830814D01*
X2532027D01*
X2531657D01*
X2531565D01*
Y3873251D01*
X2539146D01*
Y3841724D01*
D02*
G37*
G36*
X2553939Y3816206D02*
X2552460Y3815836D01*
X2551073Y3815374D01*
X2549779Y3814912D01*
X2548577Y3814449D01*
X2547467Y3813895D01*
X2546543Y3813340D01*
X2545618Y3812693D01*
X2544786Y3812138D01*
X2544046Y3811676D01*
X2543492Y3811121D01*
X2542937Y3810659D01*
X2542475Y3810289D01*
X2542197Y3809919D01*
X2541920Y3809642D01*
X2541828Y3809549D01*
X2541735Y3809457D01*
X2540995Y3808532D01*
X2540441Y3807515D01*
X2539424Y3805481D01*
X2538684Y3803540D01*
X2538222Y3801598D01*
X2537852Y3799934D01*
X2537759Y3799287D01*
Y3798639D01*
X2537667Y3798085D01*
Y3797437D01*
X2537759Y3795311D01*
X2538129Y3793277D01*
X2538592Y3791428D01*
X2539146Y3789764D01*
X2539701Y3788469D01*
X2539978Y3787914D01*
X2540163Y3787452D01*
X2540348Y3787082D01*
X2540533Y3786805D01*
X2540626Y3786620D01*
Y3786528D01*
X2541920Y3784771D01*
X2543307Y3783292D01*
X2544879Y3781997D01*
X2546358Y3780980D01*
X2547652Y3780148D01*
X2548762Y3779593D01*
X2549224Y3779408D01*
X2549501Y3779224D01*
X2549686Y3779131D01*
X2549779D01*
X2552183Y3778391D01*
X2554586Y3777837D01*
X2556990Y3777374D01*
X2559209Y3777097D01*
X2560226Y3777005D01*
X2561151Y3776912D01*
X2561983D01*
X2562630Y3776820D01*
X2563185D01*
X2563647D01*
X2563925D01*
X2564017D01*
X2566421Y3776912D01*
X2568640Y3777097D01*
X2570674Y3777467D01*
X2572523Y3777837D01*
X2574095Y3778114D01*
X2574742Y3778299D01*
X2575297Y3778484D01*
X2575759Y3778576D01*
X2576036Y3778669D01*
X2576221Y3778761D01*
X2576314D01*
X2578440Y3779686D01*
X2580382Y3780703D01*
X2581953Y3781812D01*
X2583340Y3783014D01*
X2584450Y3784031D01*
X2585189Y3784863D01*
X2585652Y3785511D01*
X2585837Y3785603D01*
Y3785696D01*
X2587039Y3787637D01*
X2587963Y3789764D01*
X2588610Y3791798D01*
X2588980Y3793739D01*
X2589257Y3795496D01*
X2589350Y3796235D01*
Y3796883D01*
X2589442Y3797345D01*
Y3798085D01*
X2589350Y3800396D01*
X2588980Y3802522D01*
X2588425Y3804279D01*
X2587871Y3805851D01*
X2587223Y3807053D01*
X2586761Y3807977D01*
X2586391Y3808532D01*
X2586206Y3808717D01*
X2584820Y3810196D01*
X2583248Y3811583D01*
X2581584Y3812693D01*
X2579919Y3813617D01*
X2578440Y3814357D01*
X2577700Y3814634D01*
X2577146Y3814819D01*
X2576683Y3815004D01*
X2576314Y3815189D01*
X2576129Y3815281D01*
X2576036D01*
X2577978Y3823602D01*
X2579642Y3823048D01*
X2581121Y3822493D01*
X2582508Y3821753D01*
X2583895Y3821106D01*
X2585097Y3820367D01*
X2586206Y3819534D01*
X2587316Y3818795D01*
X2588240Y3818055D01*
X2588980Y3817315D01*
X2589720Y3816668D01*
X2590367Y3816021D01*
X2590829Y3815559D01*
X2591291Y3815097D01*
X2591569Y3814727D01*
X2591661Y3814542D01*
X2591754Y3814449D01*
X2592586Y3813155D01*
X2593418Y3811861D01*
X2594065Y3810566D01*
X2594620Y3809179D01*
X2595452Y3806406D01*
X2596007Y3803909D01*
X2596284Y3802707D01*
X2596377Y3801690D01*
X2596469Y3800673D01*
X2596561Y3799841D01*
X2596654Y3799194D01*
Y3798270D01*
X2596469Y3795218D01*
X2596007Y3792260D01*
X2595452Y3789671D01*
X2595082Y3788469D01*
X2594712Y3787360D01*
X2594343Y3786343D01*
X2593973Y3785418D01*
X2593695Y3784678D01*
X2593418Y3783939D01*
X2593141Y3783477D01*
X2592956Y3783107D01*
X2592863Y3782829D01*
X2592771Y3782737D01*
X2591199Y3780241D01*
X2589350Y3778114D01*
X2587501Y3776265D01*
X2585652Y3774693D01*
X2583987Y3773491D01*
X2583248Y3773029D01*
X2582601Y3772659D01*
X2582138Y3772289D01*
X2581769Y3772104D01*
X2581491Y3772012D01*
X2581399Y3771920D01*
X2578533Y3770625D01*
X2575574Y3769701D01*
X2572615Y3769053D01*
X2569934Y3768591D01*
X2568732Y3768406D01*
X2567530Y3768314D01*
X2566606Y3768221D01*
X2565681D01*
X2565034Y3768129D01*
X2564479D01*
X2564109D01*
X2564017D01*
X2560689Y3768314D01*
X2557453Y3768684D01*
X2554586Y3769146D01*
X2553200Y3769516D01*
X2551998Y3769793D01*
X2550888Y3770070D01*
X2549871Y3770440D01*
X2548947Y3770718D01*
X2548207Y3770903D01*
X2547652Y3771180D01*
X2547190Y3771272D01*
X2546913Y3771457D01*
X2546820D01*
X2544046Y3772844D01*
X2541550Y3774416D01*
X2539424Y3776080D01*
X2538592Y3776912D01*
X2537759Y3777652D01*
X2537020Y3778391D01*
X2536373Y3779131D01*
X2535818Y3779778D01*
X2535448Y3780333D01*
X2535078Y3780703D01*
X2534801Y3781073D01*
X2534708Y3781258D01*
X2534616Y3781350D01*
X2533876Y3782644D01*
X2533229Y3783939D01*
X2532212Y3786713D01*
X2531472Y3789486D01*
X2531010Y3792167D01*
X2530825Y3793462D01*
X2530640Y3794571D01*
X2530548Y3795588D01*
Y3796420D01*
X2530455Y3797160D01*
Y3798177D01*
X2530548Y3800026D01*
X2530733Y3801783D01*
X2530918Y3803447D01*
X2531288Y3805019D01*
X2531750Y3806498D01*
X2532212Y3807885D01*
X2532674Y3809179D01*
X2533229Y3810381D01*
X2533691Y3811398D01*
X2534154Y3812415D01*
X2534616Y3813155D01*
X2535078Y3813895D01*
X2535448Y3814357D01*
X2535633Y3814819D01*
X2535818Y3815004D01*
X2535910Y3815097D01*
X2537020Y3816391D01*
X2538129Y3817500D01*
X2539424Y3818517D01*
X2540718Y3819534D01*
X2543307Y3821199D01*
X2545896Y3822493D01*
X2547098Y3823048D01*
X2548207Y3823510D01*
X2549224Y3823880D01*
X2550056Y3824157D01*
X2550796Y3824435D01*
X2551350Y3824619D01*
X2551720Y3824712D01*
X2551813D01*
X2553939Y3816206D01*
D02*
G37*
G36*
X2846584Y3924010D02*
X2848156Y3923825D01*
X2849728Y3923547D01*
X2851115Y3923178D01*
X2852409Y3922715D01*
X2853703Y3922253D01*
X2854813Y3921698D01*
X2855830Y3921236D01*
X2856755Y3920681D01*
X2857587Y3920127D01*
X2858234Y3919664D01*
X2858881Y3919202D01*
X2859343Y3918832D01*
X2859621Y3918555D01*
X2859806Y3918370D01*
X2859898Y3918277D01*
X2860915Y3917168D01*
X2861840Y3916058D01*
X2862579Y3914857D01*
X2863226Y3913655D01*
X2863874Y3912453D01*
X2864336Y3911251D01*
X2864983Y3909032D01*
X2865260Y3908015D01*
X2865445Y3907090D01*
X2865538Y3906258D01*
X2865630Y3905518D01*
X2865723Y3904964D01*
Y3902930D01*
X2865538Y3901820D01*
X2865076Y3899601D01*
X2864428Y3897567D01*
X2863689Y3895718D01*
X2862949Y3894239D01*
X2862579Y3893592D01*
X2862302Y3893037D01*
X2862025Y3892575D01*
X2861840Y3892297D01*
X2861747Y3892112D01*
X2861655Y3892020D01*
X2878944Y3895441D01*
Y3921051D01*
X2886433D01*
Y3889246D01*
X2853519Y3883052D01*
X2852502Y3890448D01*
X2853519Y3891095D01*
X2854351Y3891927D01*
X2855183Y3892667D01*
X2855830Y3893407D01*
X2856292Y3894146D01*
X2856755Y3894701D01*
X2856939Y3895071D01*
X2857032Y3895163D01*
X2857587Y3896365D01*
X2858049Y3897567D01*
X2858326Y3898677D01*
X2858604Y3899786D01*
X2858696Y3900711D01*
X2858789Y3901450D01*
Y3903207D01*
X2858604Y3904317D01*
X2858141Y3906258D01*
X2857494Y3907922D01*
X2856847Y3909402D01*
X2856107Y3910511D01*
X2855460Y3911343D01*
X2854998Y3911805D01*
X2854905Y3911990D01*
X2854813D01*
X2853241Y3913285D01*
X2851577Y3914209D01*
X2849820Y3914857D01*
X2848064Y3915319D01*
X2846584Y3915596D01*
X2845937Y3915689D01*
X2845382D01*
X2844920Y3915781D01*
X2844550D01*
X2844365D01*
X2844273D01*
X2842979D01*
X2841777Y3915596D01*
X2839465Y3915134D01*
X2837524Y3914487D01*
X2835952Y3913840D01*
X2834658Y3913100D01*
X2833641Y3912453D01*
X2833363Y3912175D01*
X2833086Y3911990D01*
X2832993Y3911898D01*
X2832901Y3911805D01*
X2832161Y3911066D01*
X2831514Y3910326D01*
X2830405Y3908662D01*
X2829665Y3907090D01*
X2829203Y3905518D01*
X2828833Y3904224D01*
X2828740Y3903115D01*
X2828648Y3902745D01*
Y3902190D01*
X2828740Y3900433D01*
X2829110Y3898862D01*
X2829572Y3897475D01*
X2830127Y3896365D01*
X2830682Y3895348D01*
X2831144Y3894609D01*
X2831514Y3894239D01*
X2831606Y3894054D01*
X2832901Y3892944D01*
X2834288Y3892020D01*
X2835859Y3891280D01*
X2837246Y3890726D01*
X2838633Y3890356D01*
X2839650Y3890078D01*
X2840112Y3889986D01*
X2840390Y3889893D01*
X2840575D01*
X2840667D01*
X2840020Y3881665D01*
X2838541Y3881850D01*
X2837154Y3882127D01*
X2834565Y3882959D01*
X2832346Y3883976D01*
X2831329Y3884531D01*
X2830497Y3885086D01*
X2829665Y3885548D01*
X2828925Y3886103D01*
X2828371Y3886565D01*
X2827908Y3887027D01*
X2827538Y3887397D01*
X2827169Y3887582D01*
X2827076Y3887767D01*
X2826984Y3887859D01*
X2826152Y3888969D01*
X2825412Y3890078D01*
X2824765Y3891280D01*
X2824210Y3892482D01*
X2823378Y3894794D01*
X2822823Y3897105D01*
X2822546Y3898122D01*
X2822453Y3899139D01*
X2822361Y3899971D01*
X2822268Y3900711D01*
X2822176Y3901358D01*
Y3902190D01*
X2822268Y3904132D01*
X2822546Y3905981D01*
X2822916Y3907737D01*
X2823378Y3909309D01*
X2824025Y3910788D01*
X2824672Y3912175D01*
X2825319Y3913470D01*
X2826059Y3914579D01*
X2826799Y3915596D01*
X2827446Y3916521D01*
X2828186Y3917260D01*
X2828740Y3917908D01*
X2829203Y3918370D01*
X2829572Y3918740D01*
X2829850Y3918925D01*
X2829942Y3919017D01*
X2831144Y3919942D01*
X2832439Y3920681D01*
X2833641Y3921421D01*
X2834935Y3921976D01*
X2837431Y3922900D01*
X2839835Y3923455D01*
X2840852Y3923640D01*
X2841869Y3923825D01*
X2842701Y3923917D01*
X2843441Y3924010D01*
X2844088Y3924102D01*
X2844550D01*
X2844828D01*
X2844920D01*
X2846584Y3924010D01*
D02*
G37*
G36*
X2830867Y3841724D02*
X2832439Y3842833D01*
X2833086Y3843388D01*
X2833733Y3843850D01*
X2834288Y3844313D01*
X2834658Y3844682D01*
X2834935Y3844960D01*
X2835027Y3845052D01*
X2835490Y3845515D01*
X2835952Y3846069D01*
X2837154Y3847364D01*
X2838541Y3848843D01*
X2839928Y3850415D01*
X2841129Y3851894D01*
X2841684Y3852541D01*
X2842239Y3853096D01*
X2842609Y3853558D01*
X2842886Y3853928D01*
X2843071Y3854113D01*
X2843163Y3854205D01*
X2844458Y3855685D01*
X2845660Y3857164D01*
X2846862Y3858458D01*
X2847879Y3859660D01*
X2848896Y3860770D01*
X2849820Y3861694D01*
X2850652Y3862619D01*
X2851392Y3863359D01*
X2852132Y3864098D01*
X2852686Y3864653D01*
X2853149Y3865115D01*
X2853611Y3865577D01*
X2854166Y3866040D01*
X2854351Y3866225D01*
X2855922Y3867519D01*
X2857309Y3868629D01*
X2858696Y3869553D01*
X2859806Y3870293D01*
X2860823Y3870847D01*
X2861562Y3871217D01*
X2862025Y3871402D01*
X2862209Y3871495D01*
X2863596Y3872049D01*
X2864983Y3872419D01*
X2866277Y3872789D01*
X2867387Y3872974D01*
X2868404Y3873066D01*
X2869144Y3873159D01*
X2869606D01*
X2869791D01*
X2871178Y3873066D01*
X2872472Y3872882D01*
X2873766Y3872697D01*
X2874876Y3872327D01*
X2877095Y3871402D01*
X2878851Y3870478D01*
X2879684Y3869923D01*
X2880331Y3869461D01*
X2880978Y3868998D01*
X2881440Y3868536D01*
X2881810Y3868166D01*
X2882180Y3867981D01*
X2882272Y3867796D01*
X2882365Y3867704D01*
X2883289Y3866687D01*
X2884121Y3865577D01*
X2884769Y3864376D01*
X2885323Y3863174D01*
X2886248Y3860770D01*
X2886895Y3858366D01*
X2887080Y3857349D01*
X2887265Y3856332D01*
X2887357Y3855407D01*
X2887450Y3854668D01*
X2887542Y3854020D01*
Y3853096D01*
X2887450Y3851432D01*
X2887357Y3849860D01*
X2887080Y3848381D01*
X2886803Y3846994D01*
X2886433Y3845699D01*
X2886063Y3844498D01*
X2885601Y3843388D01*
X2885139Y3842371D01*
X2884676Y3841446D01*
X2884214Y3840707D01*
X2883844Y3840060D01*
X2883474Y3839505D01*
X2883197Y3839043D01*
X2882920Y3838765D01*
X2882827Y3838580D01*
X2882735Y3838488D01*
X2881810Y3837563D01*
X2880793Y3836731D01*
X2879684Y3835899D01*
X2878574Y3835252D01*
X2876355Y3834142D01*
X2874136Y3833403D01*
X2873119Y3833125D01*
X2872102Y3832848D01*
X2871270Y3832663D01*
X2870530Y3832478D01*
X2869883Y3832386D01*
X2869421D01*
X2869144Y3832293D01*
X2869051D01*
X2868219Y3840337D01*
X2870346Y3840522D01*
X2872195Y3840892D01*
X2873859Y3841446D01*
X2875153Y3842094D01*
X2876263Y3842648D01*
X2877002Y3843203D01*
X2877465Y3843573D01*
X2877650Y3843758D01*
X2878759Y3845145D01*
X2879591Y3846624D01*
X2880238Y3848196D01*
X2880608Y3849583D01*
X2880886Y3850877D01*
X2880978Y3851986D01*
X2881070Y3852356D01*
Y3852911D01*
X2880978Y3854853D01*
X2880608Y3856609D01*
X2880053Y3858089D01*
X2879499Y3859383D01*
X2878851Y3860400D01*
X2878389Y3861047D01*
X2878019Y3861509D01*
X2877834Y3861694D01*
X2876540Y3862804D01*
X2875246Y3863636D01*
X2873951Y3864283D01*
X2872657Y3864653D01*
X2871640Y3864930D01*
X2870715Y3865023D01*
X2870161Y3865115D01*
X2870068D01*
X2869976D01*
X2868312Y3864930D01*
X2866555Y3864560D01*
X2864983Y3863913D01*
X2863504Y3863266D01*
X2862302Y3862526D01*
X2861285Y3861879D01*
X2860915Y3861694D01*
X2860638Y3861509D01*
X2860545Y3861325D01*
X2860453D01*
X2859436Y3860585D01*
X2858419Y3859660D01*
X2857309Y3858643D01*
X2856200Y3857534D01*
X2853981Y3855222D01*
X2851762Y3852911D01*
X2850745Y3851709D01*
X2849820Y3850692D01*
X2848988Y3849675D01*
X2848249Y3848843D01*
X2847694Y3848196D01*
X2847232Y3847641D01*
X2846954Y3847271D01*
X2846862Y3847179D01*
X2844920Y3844867D01*
X2843071Y3842741D01*
X2841407Y3840984D01*
X2840020Y3839597D01*
X2838818Y3838395D01*
X2837986Y3837563D01*
X2837431Y3837101D01*
X2837339Y3836916D01*
X2837246D01*
X2835675Y3835622D01*
X2834195Y3834605D01*
X2832716Y3833680D01*
X2831422Y3832941D01*
X2830312Y3832386D01*
X2829480Y3832016D01*
X2828925Y3831831D01*
X2828833Y3831739D01*
X2828740D01*
X2827723Y3831369D01*
X2826799Y3831184D01*
X2825874Y3830999D01*
X2825042Y3830906D01*
X2824302Y3830814D01*
X2823748D01*
X2823378D01*
X2823285D01*
Y3873251D01*
X2830867D01*
Y3841724D01*
D02*
G37*
G36*
X2845660Y3816206D02*
X2844180Y3815836D01*
X2842794Y3815374D01*
X2841499Y3814912D01*
X2840297Y3814449D01*
X2839188Y3813895D01*
X2838263Y3813340D01*
X2837339Y3812693D01*
X2836507Y3812138D01*
X2835767Y3811676D01*
X2835212Y3811121D01*
X2834658Y3810659D01*
X2834195Y3810289D01*
X2833918Y3809919D01*
X2833641Y3809642D01*
X2833548Y3809549D01*
X2833456Y3809457D01*
X2832716Y3808532D01*
X2832161Y3807515D01*
X2831144Y3805481D01*
X2830405Y3803540D01*
X2829942Y3801598D01*
X2829572Y3799934D01*
X2829480Y3799287D01*
Y3798639D01*
X2829388Y3798085D01*
Y3797437D01*
X2829480Y3795311D01*
X2829850Y3793277D01*
X2830312Y3791428D01*
X2830867Y3789764D01*
X2831422Y3788469D01*
X2831699Y3787914D01*
X2831884Y3787452D01*
X2832069Y3787082D01*
X2832254Y3786805D01*
X2832346Y3786620D01*
Y3786528D01*
X2833641Y3784771D01*
X2835027Y3783292D01*
X2836599Y3781997D01*
X2838078Y3780980D01*
X2839373Y3780148D01*
X2840482Y3779593D01*
X2840945Y3779408D01*
X2841222Y3779224D01*
X2841407Y3779131D01*
X2841499D01*
X2843903Y3778391D01*
X2846307Y3777837D01*
X2848711Y3777374D01*
X2850930Y3777097D01*
X2851947Y3777005D01*
X2852871Y3776912D01*
X2853703D01*
X2854351Y3776820D01*
X2854905D01*
X2855368D01*
X2855645D01*
X2855737D01*
X2858141Y3776912D01*
X2860360Y3777097D01*
X2862394Y3777467D01*
X2864243Y3777837D01*
X2865815Y3778114D01*
X2866462Y3778299D01*
X2867017Y3778484D01*
X2867479Y3778576D01*
X2867757Y3778669D01*
X2867942Y3778761D01*
X2868034D01*
X2870161Y3779686D01*
X2872102Y3780703D01*
X2873674Y3781812D01*
X2875061Y3783014D01*
X2876170Y3784031D01*
X2876910Y3784863D01*
X2877372Y3785511D01*
X2877557Y3785603D01*
Y3785696D01*
X2878759Y3787637D01*
X2879684Y3789764D01*
X2880331Y3791798D01*
X2880701Y3793739D01*
X2880978Y3795496D01*
X2881070Y3796235D01*
Y3796883D01*
X2881163Y3797345D01*
Y3798085D01*
X2881070Y3800396D01*
X2880701Y3802522D01*
X2880146Y3804279D01*
X2879591Y3805851D01*
X2878944Y3807053D01*
X2878482Y3807977D01*
X2878112Y3808532D01*
X2877927Y3808717D01*
X2876540Y3810196D01*
X2874968Y3811583D01*
X2873304Y3812693D01*
X2871640Y3813617D01*
X2870161Y3814357D01*
X2869421Y3814634D01*
X2868866Y3814819D01*
X2868404Y3815004D01*
X2868034Y3815189D01*
X2867849Y3815281D01*
X2867757D01*
X2869698Y3823602D01*
X2871363Y3823048D01*
X2872842Y3822493D01*
X2874229Y3821753D01*
X2875616Y3821106D01*
X2876817Y3820367D01*
X2877927Y3819534D01*
X2879036Y3818795D01*
X2879961Y3818055D01*
X2880701Y3817315D01*
X2881440Y3816668D01*
X2882087Y3816021D01*
X2882550Y3815559D01*
X2883012Y3815097D01*
X2883289Y3814727D01*
X2883382Y3814542D01*
X2883474Y3814449D01*
X2884306Y3813155D01*
X2885139Y3811861D01*
X2885786Y3810566D01*
X2886340Y3809179D01*
X2887173Y3806406D01*
X2887727Y3803909D01*
X2888005Y3802707D01*
X2888097Y3801690D01*
X2888190Y3800673D01*
X2888282Y3799841D01*
X2888374Y3799194D01*
Y3798270D01*
X2888190Y3795218D01*
X2887727Y3792260D01*
X2887173Y3789671D01*
X2886803Y3788469D01*
X2886433Y3787360D01*
X2886063Y3786343D01*
X2885693Y3785418D01*
X2885416Y3784678D01*
X2885139Y3783939D01*
X2884861Y3783477D01*
X2884676Y3783107D01*
X2884584Y3782829D01*
X2884491Y3782737D01*
X2882920Y3780241D01*
X2881070Y3778114D01*
X2879221Y3776265D01*
X2877372Y3774693D01*
X2875708Y3773491D01*
X2874968Y3773029D01*
X2874321Y3772659D01*
X2873859Y3772289D01*
X2873489Y3772104D01*
X2873212Y3772012D01*
X2873119Y3771920D01*
X2870253Y3770625D01*
X2867294Y3769701D01*
X2864336Y3769053D01*
X2861655Y3768591D01*
X2860453Y3768406D01*
X2859251Y3768314D01*
X2858326Y3768221D01*
X2857402D01*
X2856755Y3768129D01*
X2856200D01*
X2855830D01*
X2855737D01*
X2852409Y3768314D01*
X2849173Y3768684D01*
X2846307Y3769146D01*
X2844920Y3769516D01*
X2843718Y3769793D01*
X2842609Y3770070D01*
X2841592Y3770440D01*
X2840667Y3770718D01*
X2839928Y3770903D01*
X2839373Y3771180D01*
X2838911Y3771272D01*
X2838633Y3771457D01*
X2838541D01*
X2835767Y3772844D01*
X2833271Y3774416D01*
X2831144Y3776080D01*
X2830312Y3776912D01*
X2829480Y3777652D01*
X2828740Y3778391D01*
X2828093Y3779131D01*
X2827538Y3779778D01*
X2827169Y3780333D01*
X2826799Y3780703D01*
X2826521Y3781073D01*
X2826429Y3781258D01*
X2826336Y3781350D01*
X2825597Y3782644D01*
X2824950Y3783939D01*
X2823933Y3786713D01*
X2823193Y3789486D01*
X2822731Y3792167D01*
X2822546Y3793462D01*
X2822361Y3794571D01*
X2822268Y3795588D01*
Y3796420D01*
X2822176Y3797160D01*
Y3798177D01*
X2822268Y3800026D01*
X2822453Y3801783D01*
X2822638Y3803447D01*
X2823008Y3805019D01*
X2823470Y3806498D01*
X2823933Y3807885D01*
X2824395Y3809179D01*
X2824950Y3810381D01*
X2825412Y3811398D01*
X2825874Y3812415D01*
X2826336Y3813155D01*
X2826799Y3813895D01*
X2827169Y3814357D01*
X2827354Y3814819D01*
X2827538Y3815004D01*
X2827631Y3815097D01*
X2828740Y3816391D01*
X2829850Y3817500D01*
X2831144Y3818517D01*
X2832439Y3819534D01*
X2835027Y3821199D01*
X2837616Y3822493D01*
X2838818Y3823048D01*
X2839928Y3823510D01*
X2840945Y3823880D01*
X2841777Y3824157D01*
X2842516Y3824435D01*
X2843071Y3824619D01*
X2843441Y3824712D01*
X2843533D01*
X2845660Y3816206D01*
D02*
G37*
%LPC*%
G36*
X3332329Y3388682D02*
X3303668D01*
Y3368527D01*
X3332329Y3388682D01*
D02*
G37*
G36*
X2294327Y3923140D02*
X2293957D01*
X2293772D01*
X2293680D01*
X2291183Y3922955D01*
X2289057Y3922585D01*
X2287208Y3922031D01*
X2285636Y3921383D01*
X2284434Y3920644D01*
X2283510Y3920089D01*
X2282955Y3919719D01*
X2282862Y3919534D01*
X2282770D01*
X2282030Y3918887D01*
X2281475Y3918147D01*
X2280458Y3916668D01*
X2279811Y3915189D01*
X2279257Y3913894D01*
X2278979Y3912692D01*
X2278887Y3911768D01*
X2278794Y3911398D01*
Y3910936D01*
X2278887Y3909641D01*
X2279072Y3908439D01*
X2279441Y3907330D01*
X2279811Y3906405D01*
X2280089Y3905573D01*
X2280458Y3904926D01*
X2280643Y3904556D01*
X2280736Y3904371D01*
X2281568Y3903262D01*
X2282400Y3902337D01*
X2283417Y3901505D01*
X2284249Y3900858D01*
X2285081Y3900303D01*
X2285728Y3899934D01*
X2286191Y3899656D01*
X2286376Y3899564D01*
X2287763Y3899009D01*
X2289149Y3898639D01*
X2290444Y3898269D01*
X2291646Y3898084D01*
X2292663Y3897992D01*
X2293495Y3897899D01*
X2293957D01*
X2294142D01*
X2296361Y3898084D01*
X2298302Y3898454D01*
X2300059Y3899101D01*
X2301446Y3899749D01*
X2302648Y3900396D01*
X2303480Y3901043D01*
X2303942Y3901413D01*
X2304127Y3901598D01*
X2305422Y3903077D01*
X2306346Y3904556D01*
X2307086Y3906128D01*
X2307548Y3907515D01*
X2307825Y3908809D01*
X2307918Y3909734D01*
X2308010Y3910104D01*
Y3910658D01*
X2307825Y3912600D01*
X2307363Y3914357D01*
X2306808Y3915836D01*
X2306069Y3917130D01*
X2305329Y3918147D01*
X2304774Y3918887D01*
X2304312Y3919349D01*
X2304127Y3919534D01*
X2302555Y3920736D01*
X2300891Y3921661D01*
X2299135Y3922308D01*
X2297470Y3922678D01*
X2295991Y3922955D01*
X2295344Y3923048D01*
X2294789D01*
X2294327Y3923140D01*
D02*
G37*
G36*
X1927305Y188422D02*
X1926472D01*
X1926010D01*
X1925825D01*
X1922959Y188329D01*
X1920370Y188237D01*
X1917966Y188052D01*
X1915748Y187774D01*
X1913806Y187497D01*
X1912049Y187127D01*
X1910478Y186757D01*
X1909091Y186387D01*
X1907889Y186018D01*
X1906872Y185740D01*
X1906040Y185370D01*
X1905300Y185093D01*
X1904838Y184816D01*
X1904468Y184631D01*
X1904283Y184446D01*
X1904191D01*
X1903358Y183799D01*
X1902619Y183152D01*
X1902064Y182412D01*
X1901509Y181672D01*
X1900677Y180193D01*
X1900122Y178806D01*
X1899845Y177604D01*
X1899660Y176587D01*
X1899568Y176217D01*
Y175663D01*
X1899660Y174646D01*
X1899753Y173629D01*
X1900030Y172704D01*
X1900400Y171872D01*
X1901232Y170300D01*
X1902156Y168913D01*
X1903173Y167896D01*
X1904006Y167064D01*
X1904375Y166787D01*
X1904653Y166602D01*
X1904745Y166417D01*
X1904838D01*
X1905947Y165770D01*
X1907242Y165215D01*
X1908721Y164660D01*
X1910293Y164291D01*
X1911957Y163921D01*
X1913713Y163643D01*
X1917227Y163181D01*
X1918983Y162996D01*
X1920555Y162904D01*
X1922035Y162811D01*
X1923236D01*
X1924346Y162719D01*
X1925178D01*
X1925640D01*
X1925733D01*
X1925825D01*
X1928691D01*
X1931280Y162904D01*
X1933592Y163089D01*
X1935810Y163273D01*
X1937660Y163551D01*
X1939416Y163921D01*
X1940896Y164291D01*
X1942282Y164568D01*
X1943392Y164938D01*
X1944316Y165308D01*
X1945149Y165585D01*
X1945796Y165955D01*
X1946258Y166140D01*
X1946535Y166325D01*
X1946720Y166509D01*
X1946813D01*
X1947737Y167249D01*
X1948477Y167989D01*
X1949217Y168728D01*
X1949771Y169468D01*
X1950696Y171040D01*
X1951343Y172427D01*
X1951713Y173721D01*
X1951898Y174646D01*
X1951990Y175015D01*
Y175570D01*
X1951898Y176587D01*
X1951805Y177512D01*
X1951158Y179268D01*
X1950326Y180840D01*
X1949401Y182227D01*
X1948477Y183244D01*
X1947645Y184076D01*
X1946998Y184538D01*
X1946905Y184723D01*
X1946813D01*
X1945703Y185370D01*
X1944409Y185925D01*
X1942930Y186480D01*
X1941358Y186850D01*
X1939694Y187220D01*
X1937937Y187497D01*
X1934331Y187959D01*
X1932667Y188144D01*
X1931095Y188237D01*
X1929616Y188329D01*
X1928414D01*
X1927305Y188422D01*
D02*
G37*
%LPD*%
D34*
X3209393Y3104394D02*
X3350607D01*
X3209393D02*
Y3395607D01*
X3350607D01*
Y3104394D02*
Y3395607D01*
X2201717Y3630068D02*
X2342930D01*
X2201717D02*
Y3921281D01*
X2342930D01*
Y3630068D02*
Y3921281D01*
X1012500Y3600000D02*
Y3820000D01*
Y3600000D02*
X1127500D01*
Y3820000D01*
X1012500D02*
X1127500D01*
X3254394Y1382427D02*
X3364393D01*
X3254394D02*
Y1603640D01*
X3364393D01*
Y1382427D02*
Y1603640D01*
X2149393Y164393D02*
Y455606D01*
Y164393D02*
X2290607D01*
Y455606D01*
X2149393D02*
X2290607D01*
X689393Y134393D02*
Y425606D01*
Y134393D02*
X830607D01*
Y425606D01*
X689393D02*
X830607D01*
X209393Y3445607D02*
X350607D01*
Y3154393D02*
Y3445607D01*
X209393Y3154393D02*
X350607D01*
X209393D02*
Y3445607D01*
X1887855Y455606D02*
X2029068D01*
Y164393D02*
Y455606D01*
X1887855Y164393D02*
X2029068D01*
X1887855D02*
Y455606D01*
X2601063Y3622524D02*
Y3913737D01*
X2459850D02*
X2601063D01*
X2459850Y3622524D02*
Y3913737D01*
Y3622524D02*
X2601063D01*
X2892784D02*
Y3913737D01*
X2751571D02*
X2892784D01*
X2751571Y3622524D02*
Y3913737D01*
Y3622524D02*
X2892784D01*
%TF.MD5,aaf4db0b5767e001be01d38110921df3*%
M02*
