%TF.GenerationSoftware,Altium Limited,Altium Designer,21.2.0 (30)*%
G04 Layer_Color=32896*
%FSLAX45Y45*%
%MOMM*%
%TF.SameCoordinates,6E67B6D2-48A1-4C3A-8D5B-8FB38F647B41*%
%TF.FilePolarity,Positive*%
%TF.FileFunction,Other,Bottom_Component_Center*%
%TF.Part,Single*%
G01*
G75*
%TA.AperFunction,NonConductor*%
%ADD65C,0.10000*%
D65*
X3230000Y3250000D02*
X3330000D01*
X3280000Y3200000D02*
Y3300000D01*
X2222324Y3775674D02*
X2322324D01*
X2272324Y3725675D02*
Y3825674D01*
X1070000Y3660000D02*
Y3760000D01*
X1020000Y3710000D02*
X1120000D01*
X3259394Y1493034D02*
X3359393D01*
X3309393Y1443034D02*
Y1543033D01*
X2220000Y260000D02*
Y360000D01*
X2170000Y310000D02*
X2270000D01*
X760000Y230000D02*
Y330000D01*
X710000Y280000D02*
X810000D01*
X230000Y3300000D02*
X330000D01*
X280000Y3250000D02*
Y3350000D01*
X1908462Y310000D02*
X2008461D01*
X1958461Y260000D02*
Y360000D01*
X2530457Y3718131D02*
Y3818131D01*
X2480457Y3768131D02*
X2580457D01*
X2822177Y3718131D02*
Y3818131D01*
X2772177Y3768131D02*
X2872177D01*
%TF.MD5,079889215ebc3b88f1750047957085e1*%
M02*
