%TF.GenerationSoftware,Altium Limited,Altium Designer,21.2.0 (30)*%
G04 Layer_Color=16711935*
%FSLAX45Y45*%
%MOMM*%
%TF.SameCoordinates,6E67B6D2-48A1-4C3A-8D5B-8FB38F647B41*%
%TF.FilePolarity,Positive*%
%TF.FileFunction,Other,Bottom_Courtyard*%
%TF.Part,Single*%
G01*
G75*
%TA.AperFunction,NonConductor*%
%ADD34C,0.20000*%
%ADD64C,0.05000*%
%ADD65C,0.10000*%
D34*
X3209393Y3104394D02*
X3350607D01*
X3209393D02*
Y3395607D01*
X3350607D01*
Y3104394D02*
Y3395607D01*
X2201717Y3630068D02*
X2342930D01*
X2201717D02*
Y3921281D01*
X2342930D01*
Y3630068D02*
Y3921281D01*
X1012500Y3600000D02*
Y3820000D01*
Y3600000D02*
X1127500D01*
Y3820000D01*
X1012500D02*
X1127500D01*
X3254394Y1382427D02*
X3364393D01*
X3254394D02*
Y1603640D01*
X3364393D01*
Y1382427D02*
Y1603640D01*
X2149393Y164393D02*
Y455606D01*
Y164393D02*
X2290607D01*
Y455606D01*
X2149393D02*
X2290607D01*
X689393Y134393D02*
Y425606D01*
Y134393D02*
X830607D01*
Y425606D01*
X689393D02*
X830607D01*
X209393Y3445607D02*
X350607D01*
Y3154393D02*
Y3445607D01*
X209393Y3154393D02*
X350607D01*
X209393D02*
Y3445607D01*
X1887855Y455606D02*
X2029068D01*
Y164393D02*
Y455606D01*
X1887855Y164393D02*
X2029068D01*
X1887855D02*
Y455606D01*
X2601063Y3622524D02*
Y3913737D01*
X2459850D02*
X2601063D01*
X2459850Y3622524D02*
Y3913737D01*
Y3622524D02*
X2601063D01*
X2892784D02*
Y3913737D01*
X2751571D02*
X2892784D01*
X2751571Y3622524D02*
Y3913737D01*
Y3622524D02*
X2892784D01*
D64*
X1934175Y3743040D02*
Y3923040D01*
X1844175Y3743040D02*
Y3923040D01*
Y3743040D02*
X1934175D01*
X1844175Y3923040D02*
X1934175D01*
X2083096Y3592672D02*
Y3772672D01*
X1993096Y3592672D02*
Y3772672D01*
Y3592672D02*
X2083096D01*
X1993096Y3772672D02*
X2083096D01*
X630000Y3572500D02*
X790000D01*
X630000Y3807500D02*
X790000D01*
X630000Y3572500D02*
Y3807500D01*
X790000Y3572500D02*
Y3807500D01*
X2977051Y2878157D02*
Y3058157D01*
X2887051Y2878157D02*
Y3058157D01*
Y2878157D02*
X2977051D01*
X2887051Y3058157D02*
X2977051D01*
X3102118Y2879021D02*
Y3059021D01*
X3192118Y2879021D02*
Y3059021D01*
X3102118D02*
X3192118D01*
X3102118Y2879021D02*
X3192118D01*
X2744115Y180983D02*
Y480983D01*
X2444115Y180983D02*
Y480983D01*
Y180983D02*
X2744115D01*
X2444115Y480983D02*
X2744115D01*
D65*
X2936651Y3362980D02*
X3036651D01*
X2986651Y3312979D02*
Y3412979D01*
X3126651Y3157979D02*
Y3567979D01*
X2846651Y3157979D02*
Y3567979D01*
Y3157979D02*
X3126651D01*
X2846651Y3567979D02*
X3126651D01*
X1861675Y3833040D02*
X1916675D01*
X1889175Y3805540D02*
Y3860540D01*
X2010596Y3682672D02*
X2065596D01*
X2038097Y3655172D02*
Y3710172D01*
X710000Y3640000D02*
Y3740000D01*
X660000Y3690000D02*
X760000D01*
X2904551Y2968157D02*
X2959551D01*
X2932051Y2940657D02*
Y2995657D01*
X3119618Y2969021D02*
X3174618D01*
X3147118Y2941521D02*
Y2996521D01*
X2544115Y330983D02*
X2644115D01*
X2594115Y280983D02*
Y380983D01*
%TF.MD5,7418ec8aef246debc6dd1d7ed1c4f452*%
M02*
