%TF.GenerationSoftware,Altium Limited,Altium Designer,21.2.0 (30)*%
G04 Layer_Color=16711935*
%FSLAX45Y45*%
%MOMM*%
%TF.SameCoordinates,6E67B6D2-48A1-4C3A-8D5B-8FB38F647B41*%
%TF.FilePolarity,Positive*%
%TF.FileFunction,Other,Top_Assembly*%
%TF.Part,Single*%
G01*
G75*
%TA.AperFunction,NonConductor*%
%ADD34C,0.20000*%
G36*
X2872675Y3880895D02*
X2873322Y3880802D01*
X2874154Y3880710D01*
X2875079Y3880525D01*
X2876096Y3880248D01*
X2878222Y3879600D01*
X2879424Y3879138D01*
X2880533Y3878491D01*
X2881735Y3877844D01*
X2882845Y3877104D01*
X2883954Y3876179D01*
X2885064Y3875162D01*
X2885156Y3875070D01*
X2885341Y3874885D01*
X2885619Y3874608D01*
X2885896Y3874145D01*
X2886358Y3873498D01*
X2886820Y3872851D01*
X2887283Y3872019D01*
X2887838Y3871094D01*
X2888392Y3870077D01*
X2888855Y3868875D01*
X2889317Y3867581D01*
X2889779Y3866287D01*
X2890056Y3864807D01*
X2890334Y3863236D01*
X2890519Y3861664D01*
X2890611Y3859907D01*
Y3858983D01*
X2890519Y3858335D01*
X2890426Y3857503D01*
X2890334Y3856579D01*
X2890149Y3855562D01*
X2889872Y3854452D01*
X2889224Y3851956D01*
X2888762Y3850662D01*
X2888300Y3849460D01*
X2887653Y3848165D01*
X2886913Y3846871D01*
X2886081Y3845669D01*
X2885064Y3844559D01*
X2884971Y3844467D01*
X2884786Y3844282D01*
X2884509Y3844005D01*
X2884047Y3843635D01*
X2883492Y3843265D01*
X2882845Y3842710D01*
X2882105Y3842248D01*
X2881181Y3841693D01*
X2880256Y3841139D01*
X2879147Y3840676D01*
X2876835Y3839752D01*
X2875448Y3839382D01*
X2874062Y3839105D01*
X2872582Y3838920D01*
X2871103Y3838827D01*
X2871011D01*
X2870826D01*
X2870456D01*
X2870086Y3838920D01*
X2869531D01*
X2868884Y3839012D01*
X2867405Y3839197D01*
X2865741Y3839567D01*
X2864076Y3840122D01*
X2862320Y3840954D01*
X2860655Y3841971D01*
X2860563D01*
X2860471Y3842156D01*
X2860008Y3842525D01*
X2859269Y3843265D01*
X2858344Y3844282D01*
X2857419Y3845577D01*
X2856402Y3847148D01*
X2855570Y3848905D01*
X2854923Y3851031D01*
Y3850939D01*
X2854831Y3850847D01*
X2854738Y3850569D01*
X2854553Y3850199D01*
X2854184Y3849367D01*
X2853629Y3848258D01*
X2852889Y3847056D01*
X2851965Y3845854D01*
X2850948Y3844744D01*
X2849838Y3843727D01*
X2849653Y3843635D01*
X2849283Y3843358D01*
X2848544Y3842988D01*
X2847619Y3842618D01*
X2846417Y3842156D01*
X2845030Y3841786D01*
X2843459Y3841508D01*
X2841794Y3841416D01*
X2841702D01*
X2841517D01*
X2841147D01*
X2840592Y3841508D01*
X2840038Y3841601D01*
X2839298Y3841693D01*
X2837726Y3842063D01*
X2835877Y3842618D01*
X2833936Y3843542D01*
X2832919Y3844097D01*
X2831902Y3844744D01*
X2830977Y3845577D01*
X2830053Y3846409D01*
X2829960Y3846501D01*
X2829868Y3846686D01*
X2829590Y3846963D01*
X2829313Y3847333D01*
X2828943Y3847795D01*
X2828573Y3848443D01*
X2828111Y3849182D01*
X2827649Y3849922D01*
X2827186Y3850847D01*
X2826724Y3851864D01*
X2826354Y3852973D01*
X2825984Y3854175D01*
X2825430Y3856764D01*
X2825337Y3858243D01*
X2825245Y3859722D01*
Y3860554D01*
X2825337Y3861109D01*
X2825430Y3861849D01*
X2825522Y3862681D01*
X2825615Y3863605D01*
X2825892Y3864530D01*
X2826447Y3866749D01*
X2827279Y3868968D01*
X2827834Y3870077D01*
X2828481Y3871187D01*
X2829313Y3872204D01*
X2830145Y3873221D01*
X2830237Y3873313D01*
X2830330Y3873406D01*
X2830607Y3873683D01*
X2830977Y3874053D01*
X2831532Y3874423D01*
X2832087Y3874885D01*
X2833473Y3875810D01*
X2835230Y3876734D01*
X2837264Y3877566D01*
X2839575Y3878213D01*
X2840777Y3878306D01*
X2842072Y3878398D01*
X2842164D01*
X2842257D01*
X2842811D01*
X2843644Y3878306D01*
X2844661Y3878121D01*
X2845955Y3877844D01*
X2847249Y3877381D01*
X2848544Y3876827D01*
X2849838Y3875995D01*
X2850023Y3875902D01*
X2850393Y3875532D01*
X2850948Y3874978D01*
X2851687Y3874238D01*
X2852519Y3873221D01*
X2853351Y3872019D01*
X2854184Y3870632D01*
X2854923Y3868968D01*
Y3869060D01*
X2855016Y3869245D01*
X2855108Y3869523D01*
X2855293Y3869892D01*
X2855755Y3871002D01*
X2856402Y3872296D01*
X2857327Y3873683D01*
X2858344Y3875162D01*
X2859638Y3876549D01*
X2861118Y3877844D01*
X2861210D01*
X2861303Y3877936D01*
X2861857Y3878306D01*
X2862782Y3878861D01*
X2863984Y3879415D01*
X2865463Y3879970D01*
X2867220Y3880525D01*
X2869161Y3880895D01*
X2871288Y3880987D01*
X2871380D01*
X2871658D01*
X2872120D01*
X2872675Y3880895D01*
D02*
G37*
G36*
X2889502Y3810906D02*
X2839483D01*
X2839575Y3810813D01*
X2839945Y3810351D01*
X2840500Y3809796D01*
X2841147Y3808871D01*
X2841979Y3807854D01*
X2842904Y3806560D01*
X2843921Y3805081D01*
X2844938Y3803417D01*
Y3803324D01*
X2845030Y3803232D01*
X2845400Y3802677D01*
X2845862Y3801752D01*
X2846417Y3800643D01*
X2847064Y3799349D01*
X2847712Y3797962D01*
X2848359Y3796575D01*
X2848914Y3795188D01*
X2841332D01*
Y3795280D01*
X2841147Y3795465D01*
X2841055Y3795835D01*
X2840777Y3796297D01*
X2840500Y3796852D01*
X2840130Y3797499D01*
X2839206Y3799071D01*
X2838189Y3800920D01*
X2836894Y3802769D01*
X2835415Y3804711D01*
X2833843Y3806653D01*
X2833751Y3806745D01*
X2833658Y3806837D01*
X2833381Y3807115D01*
X2833104Y3807485D01*
X2832179Y3808317D01*
X2831070Y3809426D01*
X2829775Y3810536D01*
X2828296Y3811738D01*
X2826817Y3812755D01*
X2825245Y3813679D01*
Y3818764D01*
X2889502D01*
Y3810906D01*
D02*
G37*
G36*
X2869716Y3781874D02*
X2870271Y3781689D01*
X2871011Y3781412D01*
X2871843Y3781135D01*
X2872860Y3780765D01*
X2873969Y3780303D01*
X2875171Y3779748D01*
X2877760Y3778453D01*
X2880349Y3776789D01*
X2881643Y3775772D01*
X2882937Y3774755D01*
X2884047Y3773646D01*
X2885156Y3772351D01*
X2885249Y3772259D01*
X2885434Y3772074D01*
X2885619Y3771612D01*
X2885988Y3771149D01*
X2886451Y3770410D01*
X2886913Y3769670D01*
X2887375Y3768653D01*
X2887838Y3767636D01*
X2888392Y3766434D01*
X2888855Y3765140D01*
X2889317Y3763753D01*
X2889779Y3762274D01*
X2890149Y3760702D01*
X2890334Y3759038D01*
X2890519Y3757281D01*
X2890611Y3755432D01*
Y3754415D01*
X2890519Y3753675D01*
Y3752843D01*
X2890426Y3751826D01*
X2890241Y3750717D01*
X2890056Y3749422D01*
X2889594Y3746741D01*
X2888855Y3743967D01*
X2887838Y3741194D01*
X2887190Y3739899D01*
X2886451Y3738605D01*
X2886358Y3738512D01*
X2886266Y3738328D01*
X2885988Y3737958D01*
X2885619Y3737588D01*
X2885249Y3737033D01*
X2884694Y3736386D01*
X2884047Y3735646D01*
X2883307Y3734907D01*
X2882475Y3734167D01*
X2881643Y3733335D01*
X2879516Y3731671D01*
X2877020Y3730099D01*
X2874246Y3728712D01*
X2874154D01*
X2873877Y3728527D01*
X2873414Y3728435D01*
X2872860Y3728157D01*
X2872120Y3727972D01*
X2871195Y3727695D01*
X2870178Y3727325D01*
X2869069Y3727048D01*
X2867867Y3726771D01*
X2866480Y3726401D01*
X2863614Y3725938D01*
X2860378Y3725569D01*
X2857050Y3725384D01*
X2856957D01*
X2856587D01*
X2856033D01*
X2855385Y3725476D01*
X2854461D01*
X2853536Y3725569D01*
X2852334Y3725661D01*
X2851132Y3725846D01*
X2848451Y3726308D01*
X2845493Y3726955D01*
X2842534Y3727880D01*
X2839668Y3729174D01*
X2839575Y3729267D01*
X2839298Y3729359D01*
X2838928Y3729544D01*
X2838466Y3729914D01*
X2837819Y3730284D01*
X2837079Y3730746D01*
X2835415Y3731948D01*
X2833566Y3733520D01*
X2831717Y3735369D01*
X2829868Y3737495D01*
X2828296Y3739992D01*
X2828203Y3740084D01*
X2828111Y3740362D01*
X2827926Y3740731D01*
X2827649Y3741194D01*
X2827371Y3741933D01*
X2827094Y3742673D01*
X2826724Y3743598D01*
X2826354Y3744615D01*
X2825984Y3745724D01*
X2825615Y3746926D01*
X2825060Y3749515D01*
X2824598Y3752473D01*
X2824413Y3755524D01*
Y3756449D01*
X2824505Y3757096D01*
X2824598Y3757928D01*
X2824690Y3758945D01*
X2824783Y3759962D01*
X2825060Y3761164D01*
X2825615Y3763660D01*
X2826447Y3766434D01*
X2827001Y3767821D01*
X2827649Y3769115D01*
X2828481Y3770410D01*
X2829313Y3771704D01*
X2829405Y3771797D01*
X2829498Y3771982D01*
X2829775Y3772351D01*
X2830237Y3772814D01*
X2830700Y3773276D01*
X2831347Y3773923D01*
X2832087Y3774570D01*
X2832826Y3775310D01*
X2833751Y3776050D01*
X2834860Y3776789D01*
X2835970Y3777621D01*
X2837172Y3778361D01*
X2838558Y3779008D01*
X2839945Y3779748D01*
X2841425Y3780303D01*
X2843089Y3780857D01*
X2845030Y3772536D01*
X2844938D01*
X2844753Y3772444D01*
X2844383Y3772259D01*
X2843921Y3772074D01*
X2843366Y3771889D01*
X2842627Y3771612D01*
X2841147Y3770872D01*
X2839483Y3769948D01*
X2837819Y3768838D01*
X2836247Y3767451D01*
X2834860Y3765972D01*
X2834675Y3765787D01*
X2834305Y3765232D01*
X2833843Y3764308D01*
X2833196Y3763106D01*
X2832641Y3761534D01*
X2832087Y3759777D01*
X2831717Y3757651D01*
X2831624Y3755339D01*
Y3754600D01*
X2831717Y3754138D01*
Y3753490D01*
X2831809Y3752751D01*
X2832087Y3750994D01*
X2832456Y3749052D01*
X2833104Y3747018D01*
X2834028Y3744892D01*
X2835230Y3742950D01*
Y3742858D01*
X2835415Y3742765D01*
X2835877Y3742118D01*
X2836617Y3741286D01*
X2837726Y3740269D01*
X2839113Y3739067D01*
X2840685Y3737958D01*
X2842627Y3736941D01*
X2844753Y3736016D01*
X2844845D01*
X2845030Y3735924D01*
X2845308Y3735831D01*
X2845770Y3735739D01*
X2846325Y3735554D01*
X2846972Y3735369D01*
X2848544Y3735092D01*
X2850393Y3734722D01*
X2852427Y3734352D01*
X2854646Y3734167D01*
X2857050Y3734075D01*
X2857142D01*
X2857419D01*
X2857882D01*
X2858436D01*
X2859084Y3734167D01*
X2859916D01*
X2860840Y3734259D01*
X2861857Y3734352D01*
X2864076Y3734629D01*
X2866480Y3735092D01*
X2868884Y3735646D01*
X2871288Y3736386D01*
X2871380D01*
X2871565Y3736478D01*
X2871843Y3736663D01*
X2872305Y3736848D01*
X2873414Y3737403D01*
X2874709Y3738235D01*
X2876188Y3739252D01*
X2877760Y3740546D01*
X2879147Y3742026D01*
X2880441Y3743782D01*
Y3743875D01*
X2880533Y3744060D01*
X2880718Y3744337D01*
X2880903Y3744707D01*
X2881088Y3745169D01*
X2881366Y3745724D01*
X2881920Y3747018D01*
X2882475Y3748683D01*
X2882937Y3750532D01*
X2883307Y3752566D01*
X2883400Y3754692D01*
Y3755339D01*
X2883307Y3755894D01*
Y3756541D01*
X2883215Y3757189D01*
X2882845Y3758853D01*
X2882383Y3760794D01*
X2881643Y3762736D01*
X2880626Y3764770D01*
X2880071Y3765787D01*
X2879332Y3766712D01*
X2879239Y3766804D01*
X2879147Y3766896D01*
X2878869Y3767174D01*
X2878592Y3767544D01*
X2878130Y3767913D01*
X2877575Y3768376D01*
X2877020Y3768930D01*
X2876281Y3769393D01*
X2875448Y3769948D01*
X2874524Y3770595D01*
X2873599Y3771149D01*
X2872490Y3771704D01*
X2871288Y3772166D01*
X2869993Y3772629D01*
X2868607Y3773091D01*
X2867127Y3773461D01*
X2869254Y3781967D01*
X2869346D01*
X2869716Y3781874D01*
D02*
G37*
G36*
X2241696Y3663965D02*
X2242435Y3663873D01*
X2243268Y3663781D01*
X2244285Y3663596D01*
X2245302Y3663411D01*
X2247705Y3662856D01*
X2250202Y3661931D01*
X2251496Y3661377D01*
X2252698Y3660637D01*
X2253992Y3659897D01*
X2255194Y3658973D01*
X2255287Y3658880D01*
X2255564Y3658696D01*
X2255934Y3658326D01*
X2256396Y3657863D01*
X2256951Y3657216D01*
X2257691Y3656477D01*
X2258338Y3655552D01*
X2259078Y3654535D01*
X2259817Y3653426D01*
X2260464Y3652131D01*
X2261112Y3650744D01*
X2261759Y3649265D01*
X2262221Y3647693D01*
X2262591Y3645937D01*
X2262868Y3644087D01*
X2262961Y3642146D01*
Y3641314D01*
X2262868Y3640667D01*
X2262776Y3639927D01*
X2262683Y3639095D01*
X2262591Y3638078D01*
X2262313Y3637061D01*
X2261759Y3634749D01*
X2260927Y3632438D01*
X2260372Y3631236D01*
X2259725Y3630034D01*
X2258985Y3628925D01*
X2258153Y3627815D01*
X2258061Y3627723D01*
X2257968Y3627538D01*
X2257598Y3627353D01*
X2257228Y3626983D01*
X2256766Y3626521D01*
X2256211Y3626059D01*
X2255472Y3625504D01*
X2254640Y3625042D01*
X2253808Y3624487D01*
X2252791Y3623932D01*
X2250572Y3622915D01*
X2247983Y3622083D01*
X2246596Y3621806D01*
X2245117Y3621621D01*
X2244469Y3629849D01*
X2244562D01*
X2244747D01*
X2245024Y3629942D01*
X2245486Y3630034D01*
X2246504Y3630312D01*
X2247890Y3630681D01*
X2249277Y3631236D01*
X2250849Y3631976D01*
X2252236Y3632900D01*
X2253530Y3634010D01*
X2253623Y3634195D01*
X2253992Y3634564D01*
X2254455Y3635304D01*
X2255009Y3636321D01*
X2255564Y3637431D01*
X2256026Y3638817D01*
X2256396Y3640389D01*
X2256489Y3642146D01*
Y3642701D01*
X2256396Y3643070D01*
X2256304Y3644180D01*
X2255934Y3645474D01*
X2255472Y3647046D01*
X2254732Y3648618D01*
X2253623Y3650282D01*
X2252975Y3651022D01*
X2252236Y3651761D01*
X2252143Y3651854D01*
X2252051Y3651946D01*
X2251773Y3652131D01*
X2251496Y3652408D01*
X2250479Y3653056D01*
X2249185Y3653795D01*
X2247613Y3654443D01*
X2245671Y3655090D01*
X2243360Y3655552D01*
X2242158Y3655737D01*
X2240864D01*
X2240771D01*
X2240586D01*
X2240217D01*
X2239754Y3655644D01*
X2239199D01*
X2238552Y3655552D01*
X2237073Y3655275D01*
X2235316Y3654812D01*
X2233560Y3654165D01*
X2231895Y3653241D01*
X2230324Y3651946D01*
X2230231D01*
X2230139Y3651761D01*
X2229677Y3651299D01*
X2229029Y3650467D01*
X2228290Y3649357D01*
X2227642Y3647878D01*
X2226995Y3646214D01*
X2226533Y3644272D01*
X2226348Y3643163D01*
Y3641406D01*
X2226441Y3640667D01*
X2226533Y3639742D01*
X2226810Y3638633D01*
X2227088Y3637523D01*
X2227550Y3636321D01*
X2228105Y3635119D01*
X2228197Y3635027D01*
X2228382Y3634657D01*
X2228844Y3634102D01*
X2229307Y3633363D01*
X2229954Y3632623D01*
X2230786Y3631883D01*
X2231618Y3631051D01*
X2232635Y3630404D01*
X2231618Y3623007D01*
X2198704Y3629202D01*
Y3661007D01*
X2206193D01*
Y3635397D01*
X2223482Y3631976D01*
X2223390Y3632068D01*
X2223297Y3632253D01*
X2223112Y3632530D01*
X2222835Y3632993D01*
X2222557Y3633547D01*
X2222188Y3634195D01*
X2221448Y3635674D01*
X2220708Y3637523D01*
X2220061Y3639557D01*
X2219599Y3641776D01*
X2219414Y3642886D01*
Y3644920D01*
X2219506Y3645474D01*
X2219599Y3646214D01*
X2219691Y3647046D01*
X2219876Y3647971D01*
X2220154Y3648988D01*
X2220801Y3651207D01*
X2221263Y3652408D01*
X2221910Y3653610D01*
X2222557Y3654812D01*
X2223297Y3656014D01*
X2224222Y3657124D01*
X2225239Y3658233D01*
X2225331Y3658326D01*
X2225516Y3658511D01*
X2225793Y3658788D01*
X2226256Y3659158D01*
X2226903Y3659620D01*
X2227550Y3660082D01*
X2228382Y3660637D01*
X2229307Y3661192D01*
X2230324Y3661654D01*
X2231433Y3662209D01*
X2232728Y3662671D01*
X2234022Y3663133D01*
X2235409Y3663503D01*
X2236981Y3663781D01*
X2238552Y3663965D01*
X2240217Y3664058D01*
X2240309D01*
X2240586D01*
X2241049D01*
X2241696Y3663965D01*
D02*
G37*
G36*
X2261851Y3574745D02*
X2197872D01*
Y3583251D01*
X2254270D01*
Y3614779D01*
X2261851D01*
Y3574745D01*
D02*
G37*
G36*
X2525989Y3668137D02*
X2526544D01*
X2528023Y3667859D01*
X2529780Y3667582D01*
X2531629Y3667120D01*
X2533663Y3666472D01*
X2535604Y3665548D01*
X2535697D01*
X2535789Y3665455D01*
X2536067Y3665271D01*
X2536436Y3665086D01*
X2537361Y3664531D01*
X2538563Y3663699D01*
X2539857Y3662682D01*
X2541152Y3661480D01*
X2542446Y3660001D01*
X2543555Y3658429D01*
Y3658336D01*
X2543648Y3658244D01*
X2543833Y3657967D01*
X2543925Y3657597D01*
X2544388Y3656672D01*
X2544850Y3655470D01*
X2545405Y3653898D01*
X2545774Y3652142D01*
X2546144Y3650200D01*
X2546237Y3648074D01*
Y3647611D01*
X2546144Y3647149D01*
Y3646410D01*
X2546052Y3645577D01*
X2545867Y3644653D01*
X2545590Y3643543D01*
X2545312Y3642434D01*
X2544942Y3641140D01*
X2544480Y3639845D01*
X2543925Y3638551D01*
X2543186Y3637164D01*
X2542354Y3635870D01*
X2541429Y3634575D01*
X2540320Y3633281D01*
X2539025Y3632079D01*
X2538933Y3631986D01*
X2538655Y3631801D01*
X2538285Y3631524D01*
X2537638Y3631154D01*
X2536806Y3630600D01*
X2535882Y3630137D01*
X2534680Y3629583D01*
X2533385Y3629028D01*
X2531814Y3628381D01*
X2530057Y3627826D01*
X2528115Y3627364D01*
X2525989Y3626901D01*
X2523585Y3626439D01*
X2520996Y3626162D01*
X2518223Y3625977D01*
X2515264Y3625884D01*
X2515171D01*
X2515079D01*
X2514802D01*
X2514432D01*
X2513507Y3625977D01*
X2512213D01*
X2510734Y3626069D01*
X2508977Y3626254D01*
X2507035Y3626439D01*
X2504909Y3626716D01*
X2502782Y3627086D01*
X2500471Y3627548D01*
X2498252Y3628103D01*
X2496033Y3628750D01*
X2493907Y3629583D01*
X2491873Y3630507D01*
X2489931Y3631524D01*
X2488267Y3632726D01*
X2488174Y3632818D01*
X2487989Y3633003D01*
X2487620Y3633373D01*
X2487065Y3633836D01*
X2486510Y3634390D01*
X2485955Y3635130D01*
X2485216Y3636054D01*
X2484569Y3636979D01*
X2483921Y3638088D01*
X2483182Y3639290D01*
X2482627Y3640677D01*
X2481980Y3642064D01*
X2481518Y3643636D01*
X2481148Y3645300D01*
X2480963Y3647057D01*
X2480870Y3648906D01*
Y3649645D01*
X2480963Y3650200D01*
Y3650847D01*
X2481055Y3651587D01*
X2481425Y3653344D01*
X2481887Y3655285D01*
X2482627Y3657319D01*
X2483736Y3659353D01*
X2484384Y3660370D01*
X2485123Y3661295D01*
X2485216Y3661387D01*
X2485308Y3661480D01*
X2485586Y3661757D01*
X2485863Y3662035D01*
X2486325Y3662497D01*
X2486880Y3662867D01*
X2488174Y3663884D01*
X2489839Y3664901D01*
X2491873Y3665825D01*
X2494184Y3666657D01*
X2496773Y3667212D01*
X2497420Y3659353D01*
X2497327D01*
X2497235Y3659261D01*
X2496680Y3659168D01*
X2495848Y3658891D01*
X2494831Y3658521D01*
X2493722Y3658151D01*
X2492612Y3657597D01*
X2491595Y3656950D01*
X2490763Y3656302D01*
X2490578Y3656117D01*
X2490208Y3655748D01*
X2489654Y3655100D01*
X2489006Y3654176D01*
X2488452Y3652974D01*
X2487897Y3651680D01*
X2487527Y3650108D01*
X2487342Y3648444D01*
Y3647796D01*
X2487435Y3647057D01*
X2487620Y3646225D01*
X2487897Y3645115D01*
X2488267Y3644006D01*
X2488729Y3642896D01*
X2489469Y3641787D01*
X2489561Y3641602D01*
X2489931Y3641140D01*
X2490578Y3640492D01*
X2491503Y3639660D01*
X2492612Y3638736D01*
X2493907Y3637719D01*
X2495571Y3636794D01*
X2497420Y3635870D01*
X2497512D01*
X2497697Y3635777D01*
X2497975Y3635685D01*
X2498345Y3635500D01*
X2498899Y3635407D01*
X2499546Y3635222D01*
X2500286Y3635037D01*
X2501211Y3634853D01*
X2502228Y3634575D01*
X2503337Y3634390D01*
X2504539Y3634205D01*
X2505833Y3634113D01*
X2507313Y3633928D01*
X2508792Y3633836D01*
X2510456Y3633743D01*
X2512120D01*
X2512028Y3633836D01*
X2511473Y3634205D01*
X2510734Y3634853D01*
X2509809Y3635685D01*
X2508700Y3636609D01*
X2507683Y3637811D01*
X2506666Y3639105D01*
X2505741Y3640585D01*
Y3640677D01*
X2505649Y3640770D01*
X2505371Y3641324D01*
X2505094Y3642157D01*
X2504632Y3643266D01*
X2504262Y3644560D01*
X2503984Y3646040D01*
X2503707Y3647611D01*
X2503614Y3649276D01*
Y3650015D01*
X2503707Y3650570D01*
X2503799Y3651310D01*
X2503892Y3652049D01*
X2504077Y3652974D01*
X2504354Y3653898D01*
X2505001Y3656025D01*
X2505464Y3657134D01*
X2506111Y3658244D01*
X2506758Y3659353D01*
X2507498Y3660555D01*
X2508422Y3661665D01*
X2509439Y3662682D01*
X2509532Y3662774D01*
X2509717Y3662959D01*
X2509994Y3663237D01*
X2510456Y3663514D01*
X2511103Y3663976D01*
X2511751Y3664438D01*
X2512583Y3664901D01*
X2513507Y3665455D01*
X2514524Y3666010D01*
X2515634Y3666472D01*
X2516928Y3666935D01*
X2518223Y3667397D01*
X2519609Y3667674D01*
X2521181Y3667952D01*
X2522753Y3668137D01*
X2524417Y3668229D01*
X2524510D01*
X2524694D01*
X2524972D01*
X2525434D01*
X2525989Y3668137D01*
D02*
G37*
G36*
X2545127Y3579379D02*
X2481148D01*
Y3587885D01*
X2537546D01*
Y3619412D01*
X2545127D01*
Y3579379D01*
D02*
G37*
G36*
X1746236Y3215880D02*
X1746976Y3215787D01*
X1747808Y3215695D01*
X1748825Y3215510D01*
X1749842Y3215325D01*
X1752246Y3214770D01*
X1754742Y3213846D01*
X1756036Y3213291D01*
X1757238Y3212551D01*
X1758533Y3211812D01*
X1759735Y3210887D01*
X1759827Y3210795D01*
X1760104Y3210610D01*
X1760474Y3210240D01*
X1760937Y3209778D01*
X1761491Y3209130D01*
X1762231Y3208391D01*
X1762878Y3207466D01*
X1763618Y3206449D01*
X1764357Y3205340D01*
X1765005Y3204045D01*
X1765652Y3202659D01*
X1766299Y3201179D01*
X1766761Y3199608D01*
X1767131Y3197851D01*
X1767408Y3196002D01*
X1767501Y3194060D01*
Y3193228D01*
X1767408Y3192581D01*
X1767316Y3191841D01*
X1767224Y3191009D01*
X1767131Y3189992D01*
X1766854Y3188975D01*
X1766299Y3186664D01*
X1765467Y3184352D01*
X1764912Y3183150D01*
X1764265Y3181948D01*
X1763525Y3180839D01*
X1762693Y3179729D01*
X1762601Y3179637D01*
X1762508Y3179452D01*
X1762138Y3179267D01*
X1761769Y3178897D01*
X1761306Y3178435D01*
X1760752Y3177973D01*
X1760012Y3177418D01*
X1759180Y3176956D01*
X1758348Y3176401D01*
X1757331Y3175846D01*
X1755112Y3174829D01*
X1752523Y3173997D01*
X1751136Y3173720D01*
X1749657Y3173535D01*
X1749010Y3181764D01*
X1749102D01*
X1749287D01*
X1749564Y3181856D01*
X1750027Y3181948D01*
X1751044Y3182226D01*
X1752431Y3182596D01*
X1753817Y3183150D01*
X1755389Y3183890D01*
X1756776Y3184815D01*
X1758070Y3185924D01*
X1758163Y3186109D01*
X1758533Y3186479D01*
X1758995Y3187218D01*
X1759550Y3188235D01*
X1760104Y3189345D01*
X1760567Y3190732D01*
X1760937Y3192303D01*
X1761029Y3194060D01*
Y3194615D01*
X1760937Y3194985D01*
X1760844Y3196094D01*
X1760474Y3197389D01*
X1760012Y3198960D01*
X1759272Y3200532D01*
X1758163Y3202196D01*
X1757516Y3202936D01*
X1756776Y3203676D01*
X1756684Y3203768D01*
X1756591Y3203860D01*
X1756314Y3204045D01*
X1756036Y3204323D01*
X1755019Y3204970D01*
X1753725Y3205710D01*
X1752153Y3206357D01*
X1750212Y3207004D01*
X1747900Y3207466D01*
X1746698Y3207651D01*
X1745404D01*
X1745311D01*
X1745127D01*
X1744757D01*
X1744294Y3207559D01*
X1743740D01*
X1743093Y3207466D01*
X1741613Y3207189D01*
X1739857Y3206727D01*
X1738100Y3206079D01*
X1736436Y3205155D01*
X1734864Y3203860D01*
X1734771D01*
X1734679Y3203676D01*
X1734217Y3203213D01*
X1733570Y3202381D01*
X1732830Y3201272D01*
X1732183Y3199792D01*
X1731536Y3198128D01*
X1731073Y3196187D01*
X1730888Y3195077D01*
Y3193321D01*
X1730981Y3192581D01*
X1731073Y3191656D01*
X1731351Y3190547D01*
X1731628Y3189437D01*
X1732090Y3188235D01*
X1732645Y3187034D01*
X1732737Y3186941D01*
X1732922Y3186571D01*
X1733385Y3186016D01*
X1733847Y3185277D01*
X1734494Y3184537D01*
X1735326Y3183798D01*
X1736158Y3182965D01*
X1737175Y3182318D01*
X1736158Y3174922D01*
X1703244Y3181116D01*
Y3212921D01*
X1710733D01*
Y3187311D01*
X1728022Y3183890D01*
X1727930Y3183982D01*
X1727837Y3184167D01*
X1727652Y3184445D01*
X1727375Y3184907D01*
X1727098Y3185462D01*
X1726728Y3186109D01*
X1725988Y3187588D01*
X1725249Y3189437D01*
X1724601Y3191471D01*
X1724139Y3193690D01*
X1723954Y3194800D01*
Y3196834D01*
X1724047Y3197389D01*
X1724139Y3198128D01*
X1724232Y3198960D01*
X1724416Y3199885D01*
X1724694Y3200902D01*
X1725341Y3203121D01*
X1725803Y3204323D01*
X1726450Y3205525D01*
X1727098Y3206727D01*
X1727837Y3207929D01*
X1728762Y3209038D01*
X1729779Y3210148D01*
X1729871Y3210240D01*
X1730056Y3210425D01*
X1730334Y3210702D01*
X1730796Y3211072D01*
X1731443Y3211534D01*
X1732090Y3211997D01*
X1732922Y3212551D01*
X1733847Y3213106D01*
X1734864Y3213568D01*
X1735973Y3214123D01*
X1737268Y3214585D01*
X1738562Y3215048D01*
X1739949Y3215417D01*
X1741521Y3215695D01*
X1743093Y3215880D01*
X1744757Y3215972D01*
X1744849D01*
X1745127D01*
X1745589D01*
X1746236Y3215880D01*
D02*
G37*
G36*
X1766391Y3145521D02*
X1716373D01*
X1716465Y3145428D01*
X1716835Y3144966D01*
X1717390Y3144411D01*
X1718037Y3143487D01*
X1718869Y3142470D01*
X1719794Y3141175D01*
X1720811Y3139696D01*
X1721828Y3138032D01*
Y3137939D01*
X1721920Y3137847D01*
X1722290Y3137292D01*
X1722752Y3136368D01*
X1723307Y3135258D01*
X1723954Y3133964D01*
X1724601Y3132577D01*
X1725249Y3131190D01*
X1725803Y3129803D01*
X1718222D01*
Y3129896D01*
X1718037Y3130081D01*
X1717944Y3130450D01*
X1717667Y3130913D01*
X1717390Y3131467D01*
X1717020Y3132115D01*
X1716095Y3133686D01*
X1715078Y3135536D01*
X1713784Y3137385D01*
X1712305Y3139326D01*
X1710733Y3141268D01*
X1710640Y3141360D01*
X1710548Y3141453D01*
X1710271Y3141730D01*
X1709993Y3142100D01*
X1709069Y3142932D01*
X1707959Y3144041D01*
X1706665Y3145151D01*
X1705186Y3146353D01*
X1703706Y3147370D01*
X1702135Y3148294D01*
Y3153380D01*
X1766391D01*
Y3145521D01*
D02*
G37*
G36*
X1746606Y3116490D02*
X1747161Y3116305D01*
X1747900Y3116027D01*
X1748732Y3115750D01*
X1749749Y3115380D01*
X1750859Y3114918D01*
X1752061Y3114363D01*
X1754650Y3113069D01*
X1757238Y3111404D01*
X1758533Y3110387D01*
X1759827Y3109370D01*
X1760937Y3108261D01*
X1762046Y3106967D01*
X1762138Y3106874D01*
X1762323Y3106689D01*
X1762508Y3106227D01*
X1762878Y3105765D01*
X1763340Y3105025D01*
X1763803Y3104285D01*
X1764265Y3103268D01*
X1764727Y3102251D01*
X1765282Y3101049D01*
X1765744Y3099755D01*
X1766207Y3098368D01*
X1766669Y3096889D01*
X1767039Y3095317D01*
X1767224Y3093653D01*
X1767408Y3091896D01*
X1767501Y3090047D01*
Y3089030D01*
X1767408Y3088290D01*
Y3087458D01*
X1767316Y3086441D01*
X1767131Y3085332D01*
X1766946Y3084038D01*
X1766484Y3081356D01*
X1765744Y3078583D01*
X1764727Y3075809D01*
X1764080Y3074515D01*
X1763340Y3073220D01*
X1763248Y3073128D01*
X1763155Y3072943D01*
X1762878Y3072573D01*
X1762508Y3072203D01*
X1762138Y3071648D01*
X1761584Y3071001D01*
X1760937Y3070262D01*
X1760197Y3069522D01*
X1759365Y3068782D01*
X1758533Y3067950D01*
X1756406Y3066286D01*
X1753910Y3064714D01*
X1751136Y3063327D01*
X1751044D01*
X1750766Y3063142D01*
X1750304Y3063050D01*
X1749749Y3062773D01*
X1749010Y3062588D01*
X1748085Y3062310D01*
X1747068Y3061941D01*
X1745959Y3061663D01*
X1744757Y3061386D01*
X1743370Y3061016D01*
X1740504Y3060554D01*
X1737268Y3060184D01*
X1733939Y3059999D01*
X1733847D01*
X1733477D01*
X1732922D01*
X1732275Y3060091D01*
X1731351D01*
X1730426Y3060184D01*
X1729224Y3060276D01*
X1728022Y3060461D01*
X1725341Y3060924D01*
X1722382Y3061571D01*
X1719424Y3062495D01*
X1716558Y3063790D01*
X1716465Y3063882D01*
X1716188Y3063975D01*
X1715818Y3064159D01*
X1715356Y3064529D01*
X1714709Y3064899D01*
X1713969Y3065361D01*
X1712305Y3066563D01*
X1710456Y3068135D01*
X1708606Y3069984D01*
X1706757Y3072111D01*
X1705186Y3074607D01*
X1705093Y3074699D01*
X1705001Y3074977D01*
X1704816Y3075347D01*
X1704538Y3075809D01*
X1704261Y3076549D01*
X1703984Y3077288D01*
X1703614Y3078213D01*
X1703244Y3079230D01*
X1702874Y3080339D01*
X1702504Y3081541D01*
X1701950Y3084130D01*
X1701487Y3087089D01*
X1701302Y3090140D01*
Y3091064D01*
X1701395Y3091711D01*
X1701487Y3092543D01*
X1701580Y3093560D01*
X1701672Y3094578D01*
X1701950Y3095779D01*
X1702504Y3098276D01*
X1703336Y3101049D01*
X1703891Y3102436D01*
X1704538Y3103731D01*
X1705370Y3105025D01*
X1706203Y3106319D01*
X1706295Y3106412D01*
X1706387Y3106597D01*
X1706665Y3106967D01*
X1707127Y3107429D01*
X1707589Y3107891D01*
X1708237Y3108538D01*
X1708976Y3109186D01*
X1709716Y3109925D01*
X1710640Y3110665D01*
X1711750Y3111404D01*
X1712859Y3112237D01*
X1714061Y3112976D01*
X1715448Y3113623D01*
X1716835Y3114363D01*
X1718314Y3114918D01*
X1719979Y3115473D01*
X1721920Y3107152D01*
X1721828D01*
X1721643Y3107059D01*
X1721273Y3106874D01*
X1720811Y3106689D01*
X1720256Y3106504D01*
X1719516Y3106227D01*
X1718037Y3105487D01*
X1716373Y3104563D01*
X1714709Y3103453D01*
X1713137Y3102066D01*
X1711750Y3100587D01*
X1711565Y3100402D01*
X1711195Y3099847D01*
X1710733Y3098923D01*
X1710086Y3097721D01*
X1709531Y3096149D01*
X1708976Y3094393D01*
X1708606Y3092266D01*
X1708514Y3089955D01*
Y3089215D01*
X1708606Y3088753D01*
Y3088106D01*
X1708699Y3087366D01*
X1708976Y3085609D01*
X1709346Y3083668D01*
X1709993Y3081634D01*
X1710918Y3079507D01*
X1712120Y3077566D01*
Y3077473D01*
X1712305Y3077381D01*
X1712767Y3076733D01*
X1713507Y3075901D01*
X1714616Y3074884D01*
X1716003Y3073682D01*
X1717575Y3072573D01*
X1719516Y3071556D01*
X1721643Y3070631D01*
X1721735D01*
X1721920Y3070539D01*
X1722197Y3070446D01*
X1722660Y3070354D01*
X1723214Y3070169D01*
X1723862Y3069984D01*
X1725433Y3069707D01*
X1727283Y3069337D01*
X1729317Y3068967D01*
X1731536Y3068782D01*
X1733939Y3068690D01*
X1734032D01*
X1734309D01*
X1734771D01*
X1735326D01*
X1735973Y3068782D01*
X1736806D01*
X1737730Y3068875D01*
X1738747Y3068967D01*
X1740966Y3069245D01*
X1743370Y3069707D01*
X1745774Y3070262D01*
X1748178Y3071001D01*
X1748270D01*
X1748455Y3071094D01*
X1748732Y3071279D01*
X1749195Y3071464D01*
X1750304Y3072018D01*
X1751598Y3072850D01*
X1753078Y3073867D01*
X1754650Y3075162D01*
X1756036Y3076641D01*
X1757331Y3078398D01*
Y3078490D01*
X1757423Y3078675D01*
X1757608Y3078952D01*
X1757793Y3079322D01*
X1757978Y3079785D01*
X1758255Y3080339D01*
X1758810Y3081634D01*
X1759365Y3083298D01*
X1759827Y3085147D01*
X1760197Y3087181D01*
X1760289Y3089308D01*
Y3089955D01*
X1760197Y3090509D01*
Y3091157D01*
X1760104Y3091804D01*
X1759735Y3093468D01*
X1759272Y3095410D01*
X1758533Y3097351D01*
X1757516Y3099385D01*
X1756961Y3100402D01*
X1756221Y3101327D01*
X1756129Y3101419D01*
X1756036Y3101512D01*
X1755759Y3101789D01*
X1755482Y3102159D01*
X1755019Y3102529D01*
X1754465Y3102991D01*
X1753910Y3103546D01*
X1753170Y3104008D01*
X1752338Y3104563D01*
X1751414Y3105210D01*
X1750489Y3105765D01*
X1749380Y3106319D01*
X1748178Y3106782D01*
X1746883Y3107244D01*
X1745496Y3107706D01*
X1744017Y3108076D01*
X1746144Y3116582D01*
X1746236D01*
X1746606Y3116490D01*
D02*
G37*
G36*
X1380225Y2804709D02*
X1381149D01*
X1382074Y2804616D01*
X1383276Y2804524D01*
X1384478Y2804339D01*
X1387159Y2803877D01*
X1390117Y2803230D01*
X1393076Y2802305D01*
X1395942Y2801011D01*
X1396035Y2800918D01*
X1396312Y2800826D01*
X1396682Y2800641D01*
X1397144Y2800271D01*
X1397791Y2799901D01*
X1398531Y2799439D01*
X1400195Y2798237D01*
X1402044Y2796665D01*
X1403893Y2794816D01*
X1405742Y2792690D01*
X1407314Y2790193D01*
X1407407Y2790101D01*
X1407499Y2789823D01*
X1407684Y2789454D01*
X1407961Y2788991D01*
X1408239Y2788252D01*
X1408516Y2787512D01*
X1408886Y2786588D01*
X1409256Y2785571D01*
X1409626Y2784461D01*
X1409995Y2783259D01*
X1410550Y2780670D01*
X1411012Y2777712D01*
X1411197Y2774661D01*
Y2773736D01*
X1411105Y2773089D01*
X1411012Y2772257D01*
X1410920Y2771240D01*
X1410828Y2770223D01*
X1410550Y2769021D01*
X1409995Y2766525D01*
X1409163Y2763751D01*
X1408609Y2762364D01*
X1407961Y2761070D01*
X1407129Y2759775D01*
X1406297Y2758481D01*
X1406205Y2758388D01*
X1406112Y2758204D01*
X1405835Y2757834D01*
X1405373Y2757371D01*
X1404910Y2756909D01*
X1404263Y2756262D01*
X1403523Y2755615D01*
X1402784Y2754875D01*
X1401859Y2754135D01*
X1400750Y2753396D01*
X1399640Y2752564D01*
X1398438Y2751824D01*
X1397052Y2751177D01*
X1395665Y2750437D01*
X1394185Y2749882D01*
X1392521Y2749328D01*
X1390580Y2757649D01*
X1390672D01*
X1390857Y2757741D01*
X1391227Y2757926D01*
X1391689Y2758111D01*
X1392244Y2758296D01*
X1392983Y2758573D01*
X1394463Y2759313D01*
X1396127Y2760238D01*
X1397791Y2761347D01*
X1399363Y2762734D01*
X1400750Y2764213D01*
X1400935Y2764398D01*
X1401305Y2764953D01*
X1401767Y2765877D01*
X1402414Y2767079D01*
X1402969Y2768651D01*
X1403523Y2770408D01*
X1403893Y2772534D01*
X1403986Y2774846D01*
Y2775585D01*
X1403893Y2776048D01*
Y2776695D01*
X1403801Y2777434D01*
X1403523Y2779191D01*
X1403154Y2781133D01*
X1402506Y2783167D01*
X1401582Y2785293D01*
X1400380Y2787235D01*
Y2787327D01*
X1400195Y2787420D01*
X1399733Y2788067D01*
X1398993Y2788899D01*
X1397884Y2789916D01*
X1396497Y2791118D01*
X1394925Y2792227D01*
X1392983Y2793244D01*
X1390857Y2794169D01*
X1390765D01*
X1390580Y2794261D01*
X1390302Y2794354D01*
X1389840Y2794446D01*
X1389285Y2794631D01*
X1388638Y2794816D01*
X1387066Y2795093D01*
X1385217Y2795463D01*
X1383183Y2795833D01*
X1380964Y2796018D01*
X1378560Y2796110D01*
X1378468D01*
X1378191D01*
X1377728D01*
X1377174D01*
X1376526Y2796018D01*
X1375694D01*
X1374770Y2795926D01*
X1373753Y2795833D01*
X1371534Y2795556D01*
X1369130Y2795093D01*
X1366726Y2794539D01*
X1364322Y2793799D01*
X1364230D01*
X1364045Y2793707D01*
X1363767Y2793522D01*
X1363305Y2793337D01*
X1362196Y2792782D01*
X1360901Y2791950D01*
X1359422Y2790933D01*
X1357850Y2789639D01*
X1356463Y2788159D01*
X1355169Y2786403D01*
Y2786310D01*
X1355077Y2786125D01*
X1354892Y2785848D01*
X1354707Y2785478D01*
X1354522Y2785016D01*
X1354244Y2784461D01*
X1353690Y2783167D01*
X1353135Y2781502D01*
X1352673Y2779653D01*
X1352303Y2777619D01*
X1352210Y2775493D01*
Y2774846D01*
X1352303Y2774291D01*
Y2773644D01*
X1352395Y2772996D01*
X1352765Y2771332D01*
X1353227Y2769391D01*
X1353967Y2767449D01*
X1354984Y2765415D01*
X1355539Y2764398D01*
X1356278Y2763474D01*
X1356371Y2763381D01*
X1356463Y2763289D01*
X1356741Y2763011D01*
X1357018Y2762641D01*
X1357480Y2762272D01*
X1358035Y2761809D01*
X1358590Y2761255D01*
X1359330Y2760792D01*
X1360162Y2760238D01*
X1361086Y2759590D01*
X1362011Y2759036D01*
X1363120Y2758481D01*
X1364322Y2758019D01*
X1365617Y2757556D01*
X1367003Y2757094D01*
X1368483Y2756724D01*
X1366356Y2748218D01*
X1366264D01*
X1365894Y2748311D01*
X1365339Y2748496D01*
X1364600Y2748773D01*
X1363767Y2749050D01*
X1362750Y2749420D01*
X1361641Y2749882D01*
X1360439Y2750437D01*
X1357850Y2751732D01*
X1355261Y2753396D01*
X1353967Y2754413D01*
X1352673Y2755430D01*
X1351563Y2756539D01*
X1350454Y2757834D01*
X1350361Y2757926D01*
X1350176Y2758111D01*
X1349991Y2758573D01*
X1349622Y2759036D01*
X1349159Y2759775D01*
X1348697Y2760515D01*
X1348235Y2761532D01*
X1347773Y2762549D01*
X1347218Y2763751D01*
X1346755Y2765045D01*
X1346293Y2766432D01*
X1345831Y2767911D01*
X1345461Y2769483D01*
X1345276Y2771147D01*
X1345091Y2772904D01*
X1344999Y2774753D01*
Y2775770D01*
X1345091Y2776510D01*
Y2777342D01*
X1345184Y2778359D01*
X1345369Y2779468D01*
X1345554Y2780763D01*
X1346016Y2783444D01*
X1346755Y2786218D01*
X1347773Y2788991D01*
X1348420Y2790286D01*
X1349159Y2791580D01*
X1349252Y2791673D01*
X1349344Y2791858D01*
X1349622Y2792227D01*
X1349991Y2792597D01*
X1350361Y2793152D01*
X1350916Y2793799D01*
X1351563Y2794539D01*
X1352303Y2795278D01*
X1353135Y2796018D01*
X1353967Y2796850D01*
X1356094Y2798514D01*
X1358590Y2800086D01*
X1361364Y2801473D01*
X1361456D01*
X1361733Y2801658D01*
X1362196Y2801750D01*
X1362750Y2802028D01*
X1363490Y2802213D01*
X1364415Y2802490D01*
X1365432Y2802860D01*
X1366541Y2803137D01*
X1367743Y2803415D01*
X1369130Y2803784D01*
X1371996Y2804247D01*
X1375232Y2804616D01*
X1378560Y2804801D01*
X1378653D01*
X1379023D01*
X1379577D01*
X1380225Y2804709D01*
D02*
G37*
G36*
X1394278Y2734905D02*
X1394463Y2734720D01*
X1394555Y2734350D01*
X1394833Y2733888D01*
X1395110Y2733333D01*
X1395480Y2732686D01*
X1396404Y2731114D01*
X1397421Y2729265D01*
X1398716Y2727416D01*
X1400195Y2725474D01*
X1401767Y2723533D01*
X1401859Y2723440D01*
X1401952Y2723348D01*
X1402229Y2723070D01*
X1402506Y2722700D01*
X1403431Y2721868D01*
X1404540Y2720759D01*
X1405835Y2719649D01*
X1407314Y2718447D01*
X1408793Y2717430D01*
X1410365Y2716506D01*
Y2711421D01*
X1346108D01*
Y2719280D01*
X1396127D01*
X1396035Y2719372D01*
X1395665Y2719834D01*
X1395110Y2720389D01*
X1394463Y2721314D01*
X1393631Y2722331D01*
X1392706Y2723625D01*
X1391689Y2725104D01*
X1390672Y2726768D01*
Y2726861D01*
X1390580Y2726953D01*
X1390210Y2727508D01*
X1389748Y2728433D01*
X1389193Y2729542D01*
X1388546Y2730837D01*
X1387898Y2732223D01*
X1387251Y2733610D01*
X1386696Y2734997D01*
X1394278D01*
Y2734905D01*
D02*
G37*
G36*
X1377728Y2691543D02*
X1379023D01*
X1380502Y2691450D01*
X1382259Y2691265D01*
X1384200Y2691080D01*
X1386327Y2690803D01*
X1388453Y2690433D01*
X1390765Y2689971D01*
X1392983Y2689416D01*
X1395202Y2688769D01*
X1397329Y2687937D01*
X1399363Y2687012D01*
X1401305Y2685995D01*
X1402969Y2684793D01*
X1403061Y2684701D01*
X1403246Y2684516D01*
X1403616Y2684146D01*
X1404171Y2683684D01*
X1404725Y2683129D01*
X1405280Y2682390D01*
X1406020Y2681465D01*
X1406667Y2680540D01*
X1407314Y2679431D01*
X1408054Y2678229D01*
X1408609Y2676842D01*
X1409256Y2675455D01*
X1409718Y2673884D01*
X1410088Y2672219D01*
X1410273Y2670463D01*
X1410365Y2668614D01*
Y2667874D01*
X1410273Y2667319D01*
Y2666672D01*
X1410180Y2665932D01*
X1409810Y2664176D01*
X1409348Y2662234D01*
X1408609Y2660200D01*
X1407499Y2658166D01*
X1406852Y2657149D01*
X1406112Y2656225D01*
X1406020Y2656132D01*
X1405927Y2656040D01*
X1405650Y2655762D01*
X1405373Y2655485D01*
X1404910Y2655023D01*
X1404356Y2654653D01*
X1403061Y2653636D01*
X1401397Y2652619D01*
X1399363Y2651694D01*
X1397052Y2650862D01*
X1394463Y2650307D01*
X1393816Y2658166D01*
X1393908D01*
X1394001Y2658259D01*
X1394555Y2658351D01*
X1395387Y2658628D01*
X1396404Y2658998D01*
X1397514Y2659368D01*
X1398623Y2659923D01*
X1399640Y2660570D01*
X1400472Y2661217D01*
X1400657Y2661402D01*
X1401027Y2661772D01*
X1401582Y2662419D01*
X1402229Y2663344D01*
X1402784Y2664546D01*
X1403339Y2665840D01*
X1403708Y2667412D01*
X1403893Y2669076D01*
Y2669723D01*
X1403801Y2670463D01*
X1403616Y2671295D01*
X1403339Y2672404D01*
X1402969Y2673514D01*
X1402506Y2674623D01*
X1401767Y2675733D01*
X1401674Y2675918D01*
X1401305Y2676380D01*
X1400657Y2677027D01*
X1399733Y2677859D01*
X1398623Y2678784D01*
X1397329Y2679801D01*
X1395665Y2680725D01*
X1393816Y2681650D01*
X1393723D01*
X1393538Y2681742D01*
X1393261Y2681835D01*
X1392891Y2682020D01*
X1392336Y2682112D01*
X1391689Y2682297D01*
X1390949Y2682482D01*
X1390025Y2682667D01*
X1389008Y2682944D01*
X1387898Y2683129D01*
X1386696Y2683314D01*
X1385402Y2683407D01*
X1383923Y2683592D01*
X1382444Y2683684D01*
X1380779Y2683776D01*
X1379115D01*
X1379208Y2683684D01*
X1379762Y2683314D01*
X1380502Y2682667D01*
X1381426Y2681835D01*
X1382536Y2680910D01*
X1383553Y2679708D01*
X1384570Y2678414D01*
X1385495Y2676935D01*
Y2676842D01*
X1385587Y2676750D01*
X1385864Y2676195D01*
X1386142Y2675363D01*
X1386604Y2674253D01*
X1386974Y2672959D01*
X1387251Y2671480D01*
X1387529Y2669908D01*
X1387621Y2668244D01*
Y2667504D01*
X1387529Y2666949D01*
X1387436Y2666210D01*
X1387344Y2665470D01*
X1387159Y2664546D01*
X1386881Y2663621D01*
X1386234Y2661495D01*
X1385772Y2660385D01*
X1385125Y2659276D01*
X1384478Y2658166D01*
X1383738Y2656964D01*
X1382813Y2655855D01*
X1381796Y2654838D01*
X1381704Y2654745D01*
X1381519Y2654560D01*
X1381242Y2654283D01*
X1380779Y2654006D01*
X1380132Y2653543D01*
X1379485Y2653081D01*
X1378653Y2652619D01*
X1377728Y2652064D01*
X1376711Y2651509D01*
X1375602Y2651047D01*
X1374307Y2650585D01*
X1373013Y2650122D01*
X1371626Y2649845D01*
X1370054Y2649568D01*
X1368483Y2649383D01*
X1366818Y2649290D01*
X1366726D01*
X1366541D01*
X1366264D01*
X1365801D01*
X1365247Y2649383D01*
X1364692D01*
X1363213Y2649660D01*
X1361456Y2649938D01*
X1359607Y2650400D01*
X1357573Y2651047D01*
X1355631Y2651972D01*
X1355539D01*
X1355446Y2652064D01*
X1355169Y2652249D01*
X1354799Y2652434D01*
X1353875Y2652989D01*
X1352673Y2653821D01*
X1351378Y2654838D01*
X1350084Y2656040D01*
X1348790Y2657519D01*
X1347680Y2659091D01*
Y2659183D01*
X1347588Y2659276D01*
X1347403Y2659553D01*
X1347310Y2659923D01*
X1346848Y2660847D01*
X1346386Y2662049D01*
X1345831Y2663621D01*
X1345461Y2665378D01*
X1345091Y2667319D01*
X1344999Y2669446D01*
Y2669908D01*
X1345091Y2670370D01*
Y2671110D01*
X1345184Y2671942D01*
X1345369Y2672867D01*
X1345646Y2673976D01*
X1345923Y2675086D01*
X1346293Y2676380D01*
X1346755Y2677674D01*
X1347310Y2678969D01*
X1348050Y2680356D01*
X1348882Y2681650D01*
X1349807Y2682944D01*
X1350916Y2684239D01*
X1352210Y2685441D01*
X1352303Y2685533D01*
X1352580Y2685718D01*
X1352950Y2685995D01*
X1353597Y2686365D01*
X1354429Y2686920D01*
X1355354Y2687382D01*
X1356556Y2687937D01*
X1357850Y2688492D01*
X1359422Y2689139D01*
X1361179Y2689694D01*
X1363120Y2690156D01*
X1365247Y2690618D01*
X1367651Y2691080D01*
X1370239Y2691358D01*
X1373013Y2691543D01*
X1375972Y2691635D01*
X1376064D01*
X1376157D01*
X1376434D01*
X1376804D01*
X1377728Y2691543D01*
D02*
G37*
G36*
X1029640Y2913994D02*
X1029547D01*
X1029177D01*
X1028623D01*
X1027883Y2914086D01*
X1027051Y2914179D01*
X1026126Y2914364D01*
X1025202Y2914549D01*
X1024185Y2914918D01*
X1024092D01*
X1024000Y2915011D01*
X1023445Y2915196D01*
X1022613Y2915566D01*
X1021503Y2916120D01*
X1020209Y2916860D01*
X1018730Y2917785D01*
X1017250Y2918802D01*
X1015679Y2920096D01*
X1015586D01*
X1015494Y2920281D01*
X1014939Y2920743D01*
X1014107Y2921575D01*
X1012905Y2922777D01*
X1011518Y2924164D01*
X1009854Y2925921D01*
X1008005Y2928047D01*
X1006063Y2930359D01*
X1005971Y2930451D01*
X1005693Y2930821D01*
X1005231Y2931376D01*
X1004676Y2932023D01*
X1003937Y2932855D01*
X1003105Y2933872D01*
X1002180Y2934889D01*
X1001163Y2936091D01*
X998944Y2938402D01*
X996725Y2940714D01*
X995616Y2941823D01*
X994506Y2942840D01*
X993489Y2943765D01*
X992472Y2944504D01*
X992380D01*
X992287Y2944689D01*
X992010Y2944874D01*
X991640Y2945059D01*
X990623Y2945706D01*
X989421Y2946446D01*
X987942Y2947093D01*
X986370Y2947740D01*
X984613Y2948110D01*
X982949Y2948295D01*
X982857D01*
X982764D01*
X982210Y2948203D01*
X981285Y2948110D01*
X980268Y2947833D01*
X978974Y2947463D01*
X977679Y2946816D01*
X976385Y2945984D01*
X975091Y2944874D01*
X974906Y2944689D01*
X974536Y2944227D01*
X974073Y2943580D01*
X973426Y2942563D01*
X972872Y2941268D01*
X972317Y2939789D01*
X971947Y2938032D01*
X971855Y2936091D01*
Y2935536D01*
X971947Y2935166D01*
X972039Y2934057D01*
X972317Y2932762D01*
X972687Y2931376D01*
X973334Y2929804D01*
X974166Y2928325D01*
X975275Y2926938D01*
X975460Y2926753D01*
X975923Y2926383D01*
X976662Y2925828D01*
X977772Y2925274D01*
X979066Y2924626D01*
X980730Y2924072D01*
X982579Y2923702D01*
X984706Y2923517D01*
X983874Y2915473D01*
X983781D01*
X983504Y2915566D01*
X983042D01*
X982395Y2915658D01*
X981655Y2915843D01*
X980823Y2916028D01*
X979806Y2916305D01*
X978789Y2916583D01*
X976570Y2917322D01*
X974351Y2918432D01*
X973241Y2919079D01*
X972132Y2919911D01*
X971115Y2920743D01*
X970190Y2921668D01*
X970098Y2921760D01*
X970005Y2921945D01*
X969728Y2922223D01*
X969451Y2922685D01*
X969081Y2923240D01*
X968711Y2923887D01*
X968249Y2924626D01*
X967786Y2925551D01*
X967324Y2926568D01*
X966862Y2927677D01*
X966492Y2928879D01*
X966122Y2930174D01*
X965845Y2931561D01*
X965568Y2933040D01*
X965475Y2934612D01*
X965383Y2936276D01*
Y2937200D01*
X965475Y2937848D01*
X965568Y2938587D01*
X965660Y2939512D01*
X965845Y2940529D01*
X966030Y2941546D01*
X966677Y2943950D01*
X967602Y2946354D01*
X968156Y2947555D01*
X968803Y2948757D01*
X969636Y2949867D01*
X970560Y2950884D01*
X970653Y2950976D01*
X970745Y2951161D01*
X971115Y2951346D01*
X971485Y2951716D01*
X971947Y2952178D01*
X972594Y2952641D01*
X973241Y2953103D01*
X974073Y2953658D01*
X975830Y2954582D01*
X978049Y2955507D01*
X979159Y2955876D01*
X980453Y2956061D01*
X981747Y2956246D01*
X983134Y2956339D01*
X983319D01*
X983781D01*
X984521Y2956246D01*
X985538Y2956154D01*
X986648Y2955969D01*
X987942Y2955599D01*
X989329Y2955229D01*
X990716Y2954675D01*
X990900Y2954582D01*
X991363Y2954397D01*
X992102Y2954027D01*
X993119Y2953473D01*
X994229Y2952733D01*
X995616Y2951808D01*
X997003Y2950699D01*
X998574Y2949405D01*
X998759Y2949220D01*
X999314Y2948757D01*
X999776Y2948295D01*
X1000239Y2947833D01*
X1000793Y2947278D01*
X1001533Y2946538D01*
X1002273Y2945799D01*
X1003105Y2944874D01*
X1004029Y2943950D01*
X1005046Y2942840D01*
X1006063Y2941638D01*
X1007265Y2940344D01*
X1008467Y2938865D01*
X1009762Y2937385D01*
X1009854Y2937293D01*
X1010039Y2937108D01*
X1010316Y2936738D01*
X1010686Y2936276D01*
X1011241Y2935721D01*
X1011796Y2935074D01*
X1012997Y2933595D01*
X1014384Y2932023D01*
X1015771Y2930544D01*
X1016973Y2929249D01*
X1017435Y2928694D01*
X1017898Y2928232D01*
X1017990Y2928140D01*
X1018267Y2927862D01*
X1018637Y2927492D01*
X1019192Y2927030D01*
X1019839Y2926568D01*
X1020486Y2926013D01*
X1022058Y2924904D01*
Y2956431D01*
X1029640D01*
Y2913994D01*
D02*
G37*
G36*
Y2887089D02*
X979621D01*
X979713Y2886997D01*
X980083Y2886534D01*
X980638Y2885980D01*
X981285Y2885055D01*
X982117Y2884038D01*
X983042Y2882744D01*
X984059Y2881264D01*
X985076Y2879600D01*
Y2879508D01*
X985168Y2879415D01*
X985538Y2878861D01*
X986000Y2877936D01*
X986555Y2876827D01*
X987202Y2875532D01*
X987849Y2874145D01*
X988497Y2872759D01*
X989051Y2871372D01*
X981470D01*
Y2871464D01*
X981285Y2871649D01*
X981193Y2872019D01*
X980915Y2872481D01*
X980638Y2873036D01*
X980268Y2873683D01*
X979343Y2875255D01*
X978326Y2877104D01*
X977032Y2878953D01*
X975553Y2880895D01*
X973981Y2882836D01*
X973889Y2882929D01*
X973796Y2883021D01*
X973519Y2883299D01*
X973241Y2883668D01*
X972317Y2884500D01*
X971207Y2885610D01*
X969913Y2886719D01*
X968434Y2887921D01*
X966954Y2888938D01*
X965383Y2889863D01*
Y2894948D01*
X1029640D01*
Y2887089D01*
D02*
G37*
G36*
X1009854Y2858058D02*
X1010409Y2857873D01*
X1011148Y2857596D01*
X1011980Y2857318D01*
X1012997Y2856949D01*
X1014107Y2856486D01*
X1015309Y2855932D01*
X1017898Y2854637D01*
X1020486Y2852973D01*
X1021781Y2851956D01*
X1023075Y2850939D01*
X1024185Y2849829D01*
X1025294Y2848535D01*
X1025387Y2848443D01*
X1025571Y2848258D01*
X1025756Y2847795D01*
X1026126Y2847333D01*
X1026588Y2846593D01*
X1027051Y2845854D01*
X1027513Y2844837D01*
X1027975Y2843820D01*
X1028530Y2842618D01*
X1028992Y2841324D01*
X1029455Y2839937D01*
X1029917Y2838457D01*
X1030287Y2836886D01*
X1030472Y2835221D01*
X1030657Y2833465D01*
X1030749Y2831616D01*
Y2830599D01*
X1030657Y2829859D01*
Y2829027D01*
X1030564Y2828010D01*
X1030379Y2826900D01*
X1030194Y2825606D01*
X1029732Y2822925D01*
X1028992Y2820151D01*
X1027975Y2817377D01*
X1027328Y2816083D01*
X1026588Y2814789D01*
X1026496Y2814696D01*
X1026404Y2814511D01*
X1026126Y2814141D01*
X1025756Y2813772D01*
X1025387Y2813217D01*
X1024832Y2812570D01*
X1024185Y2811830D01*
X1023445Y2811090D01*
X1022613Y2810351D01*
X1021781Y2809519D01*
X1019654Y2807854D01*
X1017158Y2806283D01*
X1014384Y2804896D01*
X1014292D01*
X1014014Y2804711D01*
X1013552Y2804618D01*
X1012997Y2804341D01*
X1012258Y2804156D01*
X1011333Y2803879D01*
X1010316Y2803509D01*
X1009207Y2803232D01*
X1008005Y2802954D01*
X1006618Y2802584D01*
X1003752Y2802122D01*
X1000516Y2801752D01*
X997187Y2801567D01*
X997095D01*
X996725D01*
X996170D01*
X995523Y2801660D01*
X994599D01*
X993674Y2801752D01*
X992472Y2801845D01*
X991270Y2802030D01*
X988589Y2802492D01*
X985630Y2803139D01*
X982672Y2804064D01*
X979806Y2805358D01*
X979713Y2805451D01*
X979436Y2805543D01*
X979066Y2805728D01*
X978604Y2806098D01*
X977957Y2806468D01*
X977217Y2806930D01*
X975553Y2808132D01*
X973704Y2809704D01*
X971855Y2811553D01*
X970005Y2813679D01*
X968434Y2816175D01*
X968341Y2816268D01*
X968249Y2816545D01*
X968064Y2816915D01*
X967786Y2817377D01*
X967509Y2818117D01*
X967232Y2818857D01*
X966862Y2819781D01*
X966492Y2820798D01*
X966122Y2821908D01*
X965752Y2823110D01*
X965198Y2825698D01*
X964735Y2828657D01*
X964551Y2831708D01*
Y2832633D01*
X964643Y2833280D01*
X964735Y2834112D01*
X964828Y2835129D01*
X964920Y2836146D01*
X965198Y2837348D01*
X965752Y2839844D01*
X966585Y2842618D01*
X967139Y2844005D01*
X967786Y2845299D01*
X968619Y2846593D01*
X969451Y2847888D01*
X969543Y2847980D01*
X969636Y2848165D01*
X969913Y2848535D01*
X970375Y2848997D01*
X970838Y2849460D01*
X971485Y2850107D01*
X972224Y2850754D01*
X972964Y2851494D01*
X973889Y2852233D01*
X974998Y2852973D01*
X976108Y2853805D01*
X977309Y2854545D01*
X978696Y2855192D01*
X980083Y2855932D01*
X981562Y2856486D01*
X983227Y2857041D01*
X985168Y2848720D01*
X985076D01*
X984891Y2848628D01*
X984521Y2848443D01*
X984059Y2848258D01*
X983504Y2848073D01*
X982764Y2847795D01*
X981285Y2847056D01*
X979621Y2846131D01*
X977957Y2845022D01*
X976385Y2843635D01*
X974998Y2842156D01*
X974813Y2841971D01*
X974443Y2841416D01*
X973981Y2840491D01*
X973334Y2839289D01*
X972779Y2837718D01*
X972224Y2835961D01*
X971855Y2833835D01*
X971762Y2831523D01*
Y2830784D01*
X971855Y2830321D01*
Y2829674D01*
X971947Y2828934D01*
X972224Y2827178D01*
X972594Y2825236D01*
X973241Y2823202D01*
X974166Y2821076D01*
X975368Y2819134D01*
Y2819042D01*
X975553Y2818949D01*
X976015Y2818302D01*
X976755Y2817470D01*
X977864Y2816453D01*
X979251Y2815251D01*
X980823Y2814141D01*
X982764Y2813124D01*
X984891Y2812200D01*
X984983D01*
X985168Y2812107D01*
X985446Y2812015D01*
X985908Y2811922D01*
X986463Y2811738D01*
X987110Y2811553D01*
X988682Y2811275D01*
X990531Y2810905D01*
X992565Y2810536D01*
X994784Y2810351D01*
X997187Y2810258D01*
X997280D01*
X997557D01*
X998020D01*
X998574D01*
X999222Y2810351D01*
X1000054D01*
X1000978Y2810443D01*
X1001995Y2810536D01*
X1004214Y2810813D01*
X1006618Y2811275D01*
X1009022Y2811830D01*
X1011426Y2812570D01*
X1011518D01*
X1011703Y2812662D01*
X1011980Y2812847D01*
X1012443Y2813032D01*
X1013552Y2813587D01*
X1014847Y2814419D01*
X1016326Y2815436D01*
X1017898Y2816730D01*
X1019284Y2818210D01*
X1020579Y2819966D01*
Y2820059D01*
X1020671Y2820244D01*
X1020856Y2820521D01*
X1021041Y2820891D01*
X1021226Y2821353D01*
X1021503Y2821908D01*
X1022058Y2823202D01*
X1022613Y2824866D01*
X1023075Y2826715D01*
X1023445Y2828749D01*
X1023537Y2830876D01*
Y2831523D01*
X1023445Y2832078D01*
Y2832725D01*
X1023353Y2833372D01*
X1022983Y2835036D01*
X1022520Y2836978D01*
X1021781Y2838920D01*
X1020764Y2840954D01*
X1020209Y2841971D01*
X1019469Y2842895D01*
X1019377Y2842988D01*
X1019284Y2843080D01*
X1019007Y2843358D01*
X1018730Y2843727D01*
X1018267Y2844097D01*
X1017713Y2844559D01*
X1017158Y2845114D01*
X1016418Y2845576D01*
X1015586Y2846131D01*
X1014662Y2846778D01*
X1013737Y2847333D01*
X1012628Y2847888D01*
X1011426Y2848350D01*
X1010131Y2848812D01*
X1008744Y2849275D01*
X1007265Y2849645D01*
X1009392Y2858150D01*
X1009484D01*
X1009854Y2858058D01*
D02*
G37*
G36*
X1383739Y2277962D02*
X1384664D01*
X1385589Y2277870D01*
X1386790Y2277778D01*
X1387992Y2277593D01*
X1390674Y2277130D01*
X1393632Y2276483D01*
X1396591Y2275559D01*
X1399457Y2274264D01*
X1399549Y2274172D01*
X1399827Y2274079D01*
X1400197Y2273894D01*
X1400659Y2273525D01*
X1401306Y2273155D01*
X1402046Y2272692D01*
X1403710Y2271491D01*
X1405559Y2269919D01*
X1407408Y2268070D01*
X1409257Y2265943D01*
X1410829Y2263447D01*
X1410921Y2263354D01*
X1411014Y2263077D01*
X1411199Y2262707D01*
X1411476Y2262245D01*
X1411754Y2261505D01*
X1412031Y2260766D01*
X1412401Y2259841D01*
X1412771Y2258824D01*
X1413140Y2257715D01*
X1413510Y2256513D01*
X1414065Y2253924D01*
X1414527Y2250965D01*
X1414712Y2247914D01*
Y2246990D01*
X1414620Y2246342D01*
X1414527Y2245510D01*
X1414435Y2244493D01*
X1414342Y2243476D01*
X1414065Y2242274D01*
X1413510Y2239778D01*
X1412678Y2237004D01*
X1412123Y2235618D01*
X1411476Y2234323D01*
X1410644Y2233029D01*
X1409812Y2231734D01*
X1409720Y2231642D01*
X1409627Y2231457D01*
X1409350Y2231087D01*
X1408887Y2230625D01*
X1408425Y2230163D01*
X1407778Y2229515D01*
X1407038Y2228868D01*
X1406299Y2228129D01*
X1405374Y2227389D01*
X1404265Y2226649D01*
X1403155Y2225817D01*
X1401953Y2225078D01*
X1400566Y2224430D01*
X1399180Y2223691D01*
X1397700Y2223136D01*
X1396036Y2222581D01*
X1394094Y2230902D01*
X1394187D01*
X1394372Y2230995D01*
X1394742Y2231180D01*
X1395204Y2231365D01*
X1395759Y2231550D01*
X1396498Y2231827D01*
X1397978Y2232567D01*
X1399642Y2233491D01*
X1401306Y2234601D01*
X1402878Y2235987D01*
X1404265Y2237467D01*
X1404450Y2237652D01*
X1404819Y2238206D01*
X1405282Y2239131D01*
X1405929Y2240333D01*
X1406484Y2241905D01*
X1407038Y2243661D01*
X1407408Y2245788D01*
X1407501Y2248099D01*
Y2248839D01*
X1407408Y2249301D01*
Y2249948D01*
X1407316Y2250688D01*
X1407038Y2252445D01*
X1406669Y2254386D01*
X1406021Y2256420D01*
X1405097Y2258547D01*
X1403895Y2260488D01*
Y2260581D01*
X1403710Y2260673D01*
X1403248Y2261320D01*
X1402508Y2262152D01*
X1401399Y2263169D01*
X1400012Y2264371D01*
X1398440Y2265481D01*
X1396498Y2266498D01*
X1394372Y2267422D01*
X1394279D01*
X1394094Y2267515D01*
X1393817Y2267607D01*
X1393355Y2267700D01*
X1392800Y2267885D01*
X1392153Y2268070D01*
X1390581Y2268347D01*
X1388732Y2268717D01*
X1386698Y2269087D01*
X1384479Y2269272D01*
X1382075Y2269364D01*
X1381983D01*
X1381705D01*
X1381243D01*
X1380688D01*
X1380041Y2269272D01*
X1379209D01*
X1378285Y2269179D01*
X1377268Y2269087D01*
X1375049Y2268809D01*
X1372645Y2268347D01*
X1370241Y2267792D01*
X1367837Y2267053D01*
X1367745D01*
X1367560Y2266960D01*
X1367282Y2266775D01*
X1366820Y2266590D01*
X1365711Y2266036D01*
X1364416Y2265203D01*
X1362937Y2264186D01*
X1361365Y2262892D01*
X1359978Y2261413D01*
X1358684Y2259656D01*
Y2259564D01*
X1358591Y2259379D01*
X1358406Y2259101D01*
X1358222Y2258732D01*
X1358037Y2258269D01*
X1357759Y2257715D01*
X1357205Y2256420D01*
X1356650Y2254756D01*
X1356188Y2252907D01*
X1355818Y2250873D01*
X1355725Y2248746D01*
Y2248099D01*
X1355818Y2247544D01*
Y2246897D01*
X1355910Y2246250D01*
X1356280Y2244586D01*
X1356742Y2242644D01*
X1357482Y2240703D01*
X1358499Y2238669D01*
X1359054Y2237652D01*
X1359793Y2236727D01*
X1359886Y2236635D01*
X1359978Y2236542D01*
X1360256Y2236265D01*
X1360533Y2235895D01*
X1360995Y2235525D01*
X1361550Y2235063D01*
X1362105Y2234508D01*
X1362844Y2234046D01*
X1363676Y2233491D01*
X1364601Y2232844D01*
X1365526Y2232289D01*
X1366635Y2231734D01*
X1367837Y2231272D01*
X1369131Y2230810D01*
X1370518Y2230348D01*
X1371998Y2229978D01*
X1369871Y2221472D01*
X1369779D01*
X1369409Y2221564D01*
X1368854Y2221749D01*
X1368114Y2222027D01*
X1367282Y2222304D01*
X1366265Y2222674D01*
X1365156Y2223136D01*
X1363954Y2223691D01*
X1361365Y2224985D01*
X1358776Y2226649D01*
X1357482Y2227666D01*
X1356188Y2228683D01*
X1355078Y2229793D01*
X1353969Y2231087D01*
X1353876Y2231180D01*
X1353691Y2231365D01*
X1353506Y2231827D01*
X1353136Y2232289D01*
X1352674Y2233029D01*
X1352212Y2233768D01*
X1351750Y2234785D01*
X1351287Y2235802D01*
X1350733Y2237004D01*
X1350270Y2238299D01*
X1349808Y2239686D01*
X1349346Y2241165D01*
X1348976Y2242737D01*
X1348791Y2244401D01*
X1348606Y2246158D01*
X1348514Y2248007D01*
Y2249024D01*
X1348606Y2249763D01*
Y2250595D01*
X1348699Y2251612D01*
X1348884Y2252722D01*
X1349068Y2254016D01*
X1349531Y2256698D01*
X1350270Y2259471D01*
X1351287Y2262245D01*
X1351935Y2263539D01*
X1352674Y2264834D01*
X1352767Y2264926D01*
X1352859Y2265111D01*
X1353136Y2265481D01*
X1353506Y2265851D01*
X1353876Y2266405D01*
X1354431Y2267053D01*
X1355078Y2267792D01*
X1355818Y2268532D01*
X1356650Y2269272D01*
X1357482Y2270104D01*
X1359608Y2271768D01*
X1362105Y2273340D01*
X1364878Y2274726D01*
X1364971D01*
X1365248Y2274911D01*
X1365711Y2275004D01*
X1366265Y2275281D01*
X1367005Y2275466D01*
X1367929Y2275743D01*
X1368946Y2276113D01*
X1370056Y2276391D01*
X1371258Y2276668D01*
X1372645Y2277038D01*
X1375511Y2277500D01*
X1378747Y2277870D01*
X1382075Y2278055D01*
X1382168D01*
X1382537D01*
X1383092D01*
X1383739Y2277962D01*
D02*
G37*
G36*
X1397793Y2208158D02*
X1397978Y2207973D01*
X1398070Y2207603D01*
X1398347Y2207141D01*
X1398625Y2206586D01*
X1398995Y2205939D01*
X1399919Y2204367D01*
X1400936Y2202518D01*
X1402231Y2200669D01*
X1403710Y2198728D01*
X1405282Y2196786D01*
X1405374Y2196694D01*
X1405467Y2196601D01*
X1405744Y2196324D01*
X1406021Y2195954D01*
X1406946Y2195122D01*
X1408055Y2194012D01*
X1409350Y2192903D01*
X1410829Y2191701D01*
X1412308Y2190684D01*
X1413880Y2189759D01*
Y2184674D01*
X1349623D01*
Y2192533D01*
X1399642D01*
X1399549Y2192626D01*
X1399180Y2193088D01*
X1398625Y2193643D01*
X1397978Y2194567D01*
X1397146Y2195584D01*
X1396221Y2196879D01*
X1395204Y2198358D01*
X1394187Y2200022D01*
Y2200114D01*
X1394094Y2200207D01*
X1393725Y2200762D01*
X1393262Y2201686D01*
X1392708Y2202796D01*
X1392060Y2204090D01*
X1391413Y2205477D01*
X1390766Y2206864D01*
X1390211Y2208251D01*
X1397793D01*
Y2208158D01*
D02*
G37*
G36*
X1413603Y2137892D02*
Y2131512D01*
X1372182D01*
Y2122821D01*
X1364971D01*
Y2131512D01*
X1349623D01*
Y2139371D01*
X1364971D01*
Y2167200D01*
X1372182D01*
X1413603Y2137892D01*
D02*
G37*
G36*
X1056456Y2278624D02*
X1057381D01*
X1058305Y2278532D01*
X1059507Y2278439D01*
X1060709Y2278254D01*
X1063391Y2277792D01*
X1066349Y2277145D01*
X1069308Y2276220D01*
X1072174Y2274926D01*
X1072266Y2274833D01*
X1072544Y2274741D01*
X1072914Y2274556D01*
X1073376Y2274186D01*
X1074023Y2273816D01*
X1074763Y2273354D01*
X1076427Y2272152D01*
X1078276Y2270580D01*
X1080125Y2268731D01*
X1081974Y2266605D01*
X1083546Y2264109D01*
X1083638Y2264016D01*
X1083731Y2263739D01*
X1083916Y2263369D01*
X1084193Y2262907D01*
X1084471Y2262167D01*
X1084748Y2261427D01*
X1085118Y2260503D01*
X1085488Y2259486D01*
X1085857Y2258376D01*
X1086227Y2257174D01*
X1086782Y2254586D01*
X1087244Y2251627D01*
X1087429Y2248576D01*
Y2247651D01*
X1087337Y2247004D01*
X1087244Y2246172D01*
X1087152Y2245155D01*
X1087059Y2244138D01*
X1086782Y2242936D01*
X1086227Y2240440D01*
X1085395Y2237666D01*
X1084840Y2236279D01*
X1084193Y2234985D01*
X1083361Y2233690D01*
X1082529Y2232396D01*
X1082436Y2232304D01*
X1082344Y2232119D01*
X1082067Y2231749D01*
X1081604Y2231287D01*
X1081142Y2230824D01*
X1080495Y2230177D01*
X1079755Y2229530D01*
X1079016Y2228790D01*
X1078091Y2228051D01*
X1076982Y2227311D01*
X1075872Y2226479D01*
X1074670Y2225739D01*
X1073283Y2225092D01*
X1071897Y2224352D01*
X1070417Y2223798D01*
X1068753Y2223243D01*
X1066811Y2231564D01*
X1066904D01*
X1067089Y2231656D01*
X1067459Y2231841D01*
X1067921Y2232026D01*
X1068476Y2232211D01*
X1069215Y2232489D01*
X1070695Y2233228D01*
X1072359Y2234153D01*
X1074023Y2235262D01*
X1075595Y2236649D01*
X1076982Y2238128D01*
X1077167Y2238313D01*
X1077536Y2238868D01*
X1077999Y2239793D01*
X1078646Y2240995D01*
X1079201Y2242566D01*
X1079755Y2244323D01*
X1080125Y2246449D01*
X1080218Y2248761D01*
Y2249500D01*
X1080125Y2249963D01*
Y2250610D01*
X1080033Y2251350D01*
X1079755Y2253106D01*
X1079385Y2255048D01*
X1078738Y2257082D01*
X1077814Y2259208D01*
X1076612Y2261150D01*
Y2261242D01*
X1076427Y2261335D01*
X1075965Y2261982D01*
X1075225Y2262814D01*
X1074115Y2263831D01*
X1072729Y2265033D01*
X1071157Y2266143D01*
X1069215Y2267160D01*
X1067089Y2268084D01*
X1066996D01*
X1066811Y2268177D01*
X1066534Y2268269D01*
X1066072Y2268361D01*
X1065517Y2268546D01*
X1064870Y2268731D01*
X1063298Y2269009D01*
X1061449Y2269378D01*
X1059415Y2269748D01*
X1057196Y2269933D01*
X1054792Y2270026D01*
X1054700D01*
X1054422D01*
X1053960D01*
X1053405D01*
X1052758Y2269933D01*
X1051926D01*
X1051001Y2269841D01*
X1049984Y2269748D01*
X1047765Y2269471D01*
X1045362Y2269009D01*
X1042958Y2268454D01*
X1040554Y2267714D01*
X1040461D01*
X1040277Y2267622D01*
X1039999Y2267437D01*
X1039537Y2267252D01*
X1038427Y2266697D01*
X1037133Y2265865D01*
X1035654Y2264848D01*
X1034082Y2263554D01*
X1032695Y2262074D01*
X1031401Y2260318D01*
Y2260225D01*
X1031308Y2260040D01*
X1031123Y2259763D01*
X1030939Y2259393D01*
X1030754Y2258931D01*
X1030476Y2258376D01*
X1029921Y2257082D01*
X1029367Y2255418D01*
X1028904Y2253569D01*
X1028535Y2251534D01*
X1028442Y2249408D01*
Y2248761D01*
X1028535Y2248206D01*
Y2247559D01*
X1028627Y2246912D01*
X1028997Y2245247D01*
X1029459Y2243306D01*
X1030199Y2241364D01*
X1031216Y2239330D01*
X1031771Y2238313D01*
X1032510Y2237389D01*
X1032603Y2237296D01*
X1032695Y2237204D01*
X1032973Y2236926D01*
X1033250Y2236557D01*
X1033712Y2236187D01*
X1034267Y2235725D01*
X1034822Y2235170D01*
X1035561Y2234707D01*
X1036393Y2234153D01*
X1037318Y2233506D01*
X1038243Y2232951D01*
X1039352Y2232396D01*
X1040554Y2231934D01*
X1041848Y2231472D01*
X1043235Y2231009D01*
X1044714Y2230639D01*
X1042588Y2222133D01*
X1042496D01*
X1042126Y2222226D01*
X1041571Y2222411D01*
X1040831Y2222688D01*
X1039999Y2222966D01*
X1038982Y2223335D01*
X1037873Y2223798D01*
X1036671Y2224352D01*
X1034082Y2225647D01*
X1031493Y2227311D01*
X1030199Y2228328D01*
X1028904Y2229345D01*
X1027795Y2230455D01*
X1026686Y2231749D01*
X1026593Y2231841D01*
X1026408Y2232026D01*
X1026223Y2232489D01*
X1025853Y2232951D01*
X1025391Y2233690D01*
X1024929Y2234430D01*
X1024467Y2235447D01*
X1024004Y2236464D01*
X1023450Y2237666D01*
X1022987Y2238960D01*
X1022525Y2240347D01*
X1022063Y2241827D01*
X1021693Y2243398D01*
X1021508Y2245063D01*
X1021323Y2246819D01*
X1021231Y2248668D01*
Y2249685D01*
X1021323Y2250425D01*
Y2251257D01*
X1021416Y2252274D01*
X1021600Y2253384D01*
X1021785Y2254678D01*
X1022248Y2257359D01*
X1022987Y2260133D01*
X1024004Y2262907D01*
X1024651Y2264201D01*
X1025391Y2265495D01*
X1025484Y2265588D01*
X1025576Y2265773D01*
X1025853Y2266143D01*
X1026223Y2266512D01*
X1026593Y2267067D01*
X1027148Y2267714D01*
X1027795Y2268454D01*
X1028535Y2269194D01*
X1029367Y2269933D01*
X1030199Y2270765D01*
X1032325Y2272430D01*
X1034822Y2274001D01*
X1037595Y2275388D01*
X1037688D01*
X1037965Y2275573D01*
X1038427Y2275666D01*
X1038982Y2275943D01*
X1039722Y2276128D01*
X1040646Y2276405D01*
X1041663Y2276775D01*
X1042773Y2277052D01*
X1043975Y2277330D01*
X1045362Y2277700D01*
X1048228Y2278162D01*
X1051464Y2278532D01*
X1054792Y2278717D01*
X1054885D01*
X1055254D01*
X1055809D01*
X1056456Y2278624D01*
D02*
G37*
G36*
X1070510Y2208820D02*
X1070695Y2208635D01*
X1070787Y2208265D01*
X1071064Y2207803D01*
X1071342Y2207248D01*
X1071712Y2206601D01*
X1072636Y2205029D01*
X1073653Y2203180D01*
X1074948Y2201331D01*
X1076427Y2199389D01*
X1077999Y2197448D01*
X1078091Y2197355D01*
X1078184Y2197263D01*
X1078461Y2196985D01*
X1078738Y2196616D01*
X1079663Y2195784D01*
X1080772Y2194674D01*
X1082067Y2193565D01*
X1083546Y2192363D01*
X1085025Y2191346D01*
X1086597Y2190421D01*
Y2185336D01*
X1022340D01*
Y2193195D01*
X1072359D01*
X1072266Y2193287D01*
X1071897Y2193749D01*
X1071342Y2194304D01*
X1070695Y2195229D01*
X1069862Y2196246D01*
X1068938Y2197540D01*
X1067921Y2199019D01*
X1066904Y2200684D01*
Y2200776D01*
X1066811Y2200869D01*
X1066442Y2201423D01*
X1065979Y2202348D01*
X1065425Y2203457D01*
X1064777Y2204752D01*
X1064130Y2206139D01*
X1063483Y2207525D01*
X1062928Y2208912D01*
X1070510D01*
Y2208820D01*
D02*
G37*
G36*
X1040277Y2157229D02*
X1040184D01*
X1039999Y2157137D01*
X1039629Y2157044D01*
X1039167Y2156952D01*
X1038612Y2156860D01*
X1037965Y2156675D01*
X1036578Y2156212D01*
X1034914Y2155565D01*
X1033342Y2154733D01*
X1031863Y2153808D01*
X1030569Y2152699D01*
X1030476Y2152514D01*
X1030106Y2152144D01*
X1029644Y2151405D01*
X1029182Y2150480D01*
X1028627Y2149371D01*
X1028165Y2147984D01*
X1027795Y2146412D01*
X1027703Y2144748D01*
Y2144193D01*
X1027795Y2143823D01*
X1027887Y2142806D01*
X1028165Y2141512D01*
X1028627Y2140033D01*
X1029274Y2138461D01*
X1030199Y2136889D01*
X1031493Y2135410D01*
X1031678Y2135225D01*
X1032233Y2134763D01*
X1033065Y2134208D01*
X1034174Y2133468D01*
X1035561Y2132729D01*
X1037133Y2132174D01*
X1038982Y2131712D01*
X1041016Y2131527D01*
X1041109D01*
X1041294D01*
X1041571D01*
X1041941Y2131619D01*
X1042958Y2131712D01*
X1044160Y2131989D01*
X1045639Y2132359D01*
X1047118Y2133006D01*
X1048598Y2133930D01*
X1049984Y2135132D01*
X1050169Y2135317D01*
X1050539Y2135780D01*
X1051094Y2136519D01*
X1051741Y2137536D01*
X1052388Y2138831D01*
X1052943Y2140402D01*
X1053313Y2142159D01*
X1053498Y2144101D01*
Y2144933D01*
X1053405Y2145580D01*
X1053313Y2146412D01*
X1053128Y2147337D01*
X1052943Y2148446D01*
X1052666Y2149648D01*
X1059600Y2148723D01*
Y2148261D01*
X1059507Y2147891D01*
Y2146689D01*
X1059692Y2145672D01*
X1059877Y2144470D01*
X1060155Y2143084D01*
X1060617Y2141512D01*
X1061264Y2140033D01*
X1062096Y2138461D01*
Y2138368D01*
X1062189Y2138276D01*
X1062558Y2137814D01*
X1063206Y2137166D01*
X1064038Y2136427D01*
X1065240Y2135687D01*
X1066627Y2135040D01*
X1068198Y2134578D01*
X1069123Y2134393D01*
X1070140D01*
X1070232D01*
X1070325D01*
X1070879D01*
X1071619Y2134578D01*
X1072636Y2134763D01*
X1073746Y2135132D01*
X1074948Y2135595D01*
X1076149Y2136334D01*
X1077259Y2137351D01*
X1077351Y2137444D01*
X1077721Y2137906D01*
X1078184Y2138553D01*
X1078738Y2139385D01*
X1079201Y2140495D01*
X1079663Y2141789D01*
X1080033Y2143269D01*
X1080125Y2144933D01*
Y2145672D01*
X1079940Y2146504D01*
X1079755Y2147614D01*
X1079385Y2148816D01*
X1078923Y2150018D01*
X1078184Y2151312D01*
X1077259Y2152514D01*
X1077167Y2152607D01*
X1076704Y2152976D01*
X1076057Y2153531D01*
X1075132Y2154178D01*
X1073931Y2154826D01*
X1072451Y2155473D01*
X1070695Y2156027D01*
X1068661Y2156397D01*
X1070047Y2164256D01*
X1070140D01*
X1070417Y2164164D01*
X1070787Y2164071D01*
X1071342Y2163979D01*
X1071989Y2163794D01*
X1072729Y2163516D01*
X1074485Y2162962D01*
X1076519Y2162037D01*
X1078553Y2160928D01*
X1080495Y2159541D01*
X1082252Y2157784D01*
X1082344Y2157692D01*
X1082436Y2157507D01*
X1082621Y2157229D01*
X1082899Y2156860D01*
X1083269Y2156397D01*
X1083638Y2155750D01*
X1084008Y2155103D01*
X1084471Y2154271D01*
X1085210Y2152422D01*
X1085950Y2150295D01*
X1086412Y2147799D01*
X1086597Y2146504D01*
Y2144193D01*
X1086505Y2143176D01*
X1086320Y2141974D01*
X1086042Y2140495D01*
X1085580Y2138831D01*
X1085025Y2137166D01*
X1084286Y2135502D01*
Y2135410D01*
X1084193Y2135317D01*
X1083916Y2134763D01*
X1083361Y2133930D01*
X1082714Y2133006D01*
X1081789Y2131896D01*
X1080772Y2130787D01*
X1079570Y2129677D01*
X1078184Y2128753D01*
X1077999Y2128660D01*
X1077536Y2128383D01*
X1076704Y2128013D01*
X1075687Y2127551D01*
X1074485Y2127089D01*
X1073098Y2126719D01*
X1071527Y2126442D01*
X1069955Y2126349D01*
X1069770D01*
X1069215D01*
X1068476Y2126442D01*
X1067459Y2126626D01*
X1066257Y2126904D01*
X1064962Y2127366D01*
X1063668Y2127921D01*
X1062374Y2128660D01*
X1062189Y2128753D01*
X1061819Y2129030D01*
X1061172Y2129585D01*
X1060432Y2130325D01*
X1059600Y2131249D01*
X1058675Y2132359D01*
X1057843Y2133653D01*
X1057011Y2135225D01*
Y2135132D01*
X1056919Y2134947D01*
X1056826Y2134670D01*
X1056734Y2134300D01*
X1056364Y2133283D01*
X1055809Y2131989D01*
X1055070Y2130510D01*
X1054145Y2129030D01*
X1052943Y2127643D01*
X1051556Y2126349D01*
X1051371Y2126257D01*
X1050817Y2125887D01*
X1049892Y2125332D01*
X1048690Y2124777D01*
X1047211Y2124223D01*
X1045454Y2123668D01*
X1043420Y2123298D01*
X1041201Y2123206D01*
X1041109D01*
X1040831D01*
X1040369D01*
X1039814Y2123298D01*
X1039075Y2123390D01*
X1038243Y2123575D01*
X1037318Y2123760D01*
X1036301Y2123945D01*
X1034082Y2124685D01*
X1032880Y2125240D01*
X1031771Y2125794D01*
X1030569Y2126534D01*
X1029367Y2127366D01*
X1028165Y2128291D01*
X1027055Y2129400D01*
X1026963Y2129493D01*
X1026778Y2129677D01*
X1026501Y2130047D01*
X1026131Y2130510D01*
X1025669Y2131064D01*
X1025206Y2131804D01*
X1024651Y2132636D01*
X1024189Y2133653D01*
X1023634Y2134670D01*
X1023080Y2135872D01*
X1022617Y2137074D01*
X1022155Y2138461D01*
X1021785Y2139940D01*
X1021508Y2141512D01*
X1021323Y2143084D01*
X1021231Y2144840D01*
Y2145672D01*
X1021323Y2146227D01*
X1021416Y2146967D01*
X1021508Y2147799D01*
X1021693Y2148723D01*
X1021878Y2149740D01*
X1022433Y2151959D01*
X1023357Y2154271D01*
X1023912Y2155473D01*
X1024559Y2156582D01*
X1025391Y2157692D01*
X1026223Y2158801D01*
X1026316Y2158894D01*
X1026501Y2159078D01*
X1026778Y2159356D01*
X1027148Y2159633D01*
X1027610Y2160096D01*
X1028257Y2160558D01*
X1028904Y2161113D01*
X1029737Y2161667D01*
X1030661Y2162222D01*
X1031586Y2162777D01*
X1033805Y2163794D01*
X1036393Y2164626D01*
X1037780Y2164903D01*
X1039260Y2165088D01*
X1040277Y2157229D01*
D02*
G37*
G36*
X1083357Y1899618D02*
X1026959D01*
Y1868090D01*
X1019377D01*
Y1908124D01*
X1083357D01*
Y1899618D01*
D02*
G37*
G36*
X1021134Y1862266D02*
X1021966Y1862173D01*
X1022891Y1861988D01*
X1023815Y1861803D01*
X1024832Y1861434D01*
X1024925D01*
X1025017Y1861341D01*
X1025572Y1861156D01*
X1026404Y1860786D01*
X1027513Y1860232D01*
X1028808Y1859492D01*
X1030287Y1858568D01*
X1031766Y1857551D01*
X1033338Y1856256D01*
X1033430D01*
X1033523Y1856071D01*
X1034078Y1855609D01*
X1034910Y1854777D01*
X1036112Y1853575D01*
X1037499Y1852188D01*
X1039163Y1850431D01*
X1041012Y1848305D01*
X1042953Y1845994D01*
X1043046Y1845901D01*
X1043323Y1845531D01*
X1043786Y1844976D01*
X1044340Y1844329D01*
X1045080Y1843497D01*
X1045912Y1842480D01*
X1046837Y1841463D01*
X1047854Y1840261D01*
X1050073Y1837950D01*
X1052292Y1835638D01*
X1053401Y1834529D01*
X1054510Y1833512D01*
X1055527Y1832587D01*
X1056544Y1831848D01*
X1056637D01*
X1056729Y1831663D01*
X1057007Y1831478D01*
X1057377Y1831293D01*
X1058394Y1830646D01*
X1059596Y1829906D01*
X1061075Y1829259D01*
X1062647Y1828612D01*
X1064403Y1828242D01*
X1066067Y1828057D01*
X1066160D01*
X1066252D01*
X1066807Y1828150D01*
X1067732Y1828242D01*
X1068749Y1828519D01*
X1070043Y1828889D01*
X1071337Y1829536D01*
X1072632Y1830368D01*
X1073926Y1831478D01*
X1074111Y1831663D01*
X1074481Y1832125D01*
X1074943Y1832772D01*
X1075590Y1833789D01*
X1076145Y1835084D01*
X1076700Y1836563D01*
X1077070Y1838320D01*
X1077162Y1840261D01*
Y1840816D01*
X1077070Y1841186D01*
X1076977Y1842295D01*
X1076700Y1843590D01*
X1076330Y1844976D01*
X1075683Y1846548D01*
X1074851Y1848028D01*
X1073741Y1849414D01*
X1073556Y1849599D01*
X1073094Y1849969D01*
X1072354Y1850524D01*
X1071245Y1851079D01*
X1069951Y1851726D01*
X1068286Y1852281D01*
X1066437Y1852650D01*
X1064311Y1852835D01*
X1065143Y1860879D01*
X1065235D01*
X1065513Y1860786D01*
X1065975D01*
X1066622Y1860694D01*
X1067362Y1860509D01*
X1068194Y1860324D01*
X1069211Y1860047D01*
X1070228Y1859769D01*
X1072447Y1859030D01*
X1074666Y1857920D01*
X1075775Y1857273D01*
X1076885Y1856441D01*
X1077902Y1855609D01*
X1078826Y1854684D01*
X1078919Y1854592D01*
X1079011Y1854407D01*
X1079289Y1854130D01*
X1079566Y1853667D01*
X1079936Y1853113D01*
X1080306Y1852465D01*
X1080768Y1851726D01*
X1081230Y1850801D01*
X1081693Y1849784D01*
X1082155Y1848675D01*
X1082525Y1847473D01*
X1082894Y1846178D01*
X1083172Y1844792D01*
X1083449Y1843312D01*
X1083542Y1841741D01*
X1083634Y1840076D01*
Y1839152D01*
X1083542Y1838505D01*
X1083449Y1837765D01*
X1083357Y1836840D01*
X1083172Y1835823D01*
X1082987Y1834806D01*
X1082340Y1832402D01*
X1081415Y1829999D01*
X1080860Y1828797D01*
X1080213Y1827595D01*
X1079381Y1826485D01*
X1078457Y1825468D01*
X1078364Y1825376D01*
X1078272Y1825191D01*
X1077902Y1825006D01*
X1077532Y1824636D01*
X1077070Y1824174D01*
X1076423Y1823712D01*
X1075775Y1823249D01*
X1074943Y1822695D01*
X1073187Y1821770D01*
X1070968Y1820845D01*
X1069858Y1820476D01*
X1068564Y1820291D01*
X1067269Y1820106D01*
X1065883Y1820013D01*
X1065698D01*
X1065235D01*
X1064496Y1820106D01*
X1063479Y1820198D01*
X1062369Y1820383D01*
X1061075Y1820753D01*
X1059688Y1821123D01*
X1058301Y1821678D01*
X1058116Y1821770D01*
X1057654Y1821955D01*
X1056914Y1822325D01*
X1055897Y1822880D01*
X1054788Y1823619D01*
X1053401Y1824544D01*
X1052014Y1825653D01*
X1050442Y1826948D01*
X1050257Y1827132D01*
X1049703Y1827595D01*
X1049240Y1828057D01*
X1048778Y1828519D01*
X1048223Y1829074D01*
X1047484Y1829814D01*
X1046744Y1830553D01*
X1045912Y1831478D01*
X1044987Y1832402D01*
X1043970Y1833512D01*
X1042953Y1834714D01*
X1041752Y1836008D01*
X1040550Y1837488D01*
X1039255Y1838967D01*
X1039163Y1839059D01*
X1038978Y1839244D01*
X1038700Y1839614D01*
X1038331Y1840076D01*
X1037776Y1840631D01*
X1037221Y1841278D01*
X1036019Y1842758D01*
X1034632Y1844329D01*
X1033246Y1845809D01*
X1032044Y1847103D01*
X1031581Y1847658D01*
X1031119Y1848120D01*
X1031027Y1848212D01*
X1030749Y1848490D01*
X1030379Y1848860D01*
X1029825Y1849322D01*
X1029178Y1849784D01*
X1028530Y1850339D01*
X1026959Y1851448D01*
Y1819921D01*
X1019377D01*
Y1862358D01*
X1019470D01*
X1019839D01*
X1020394D01*
X1021134Y1862266D01*
D02*
G37*
G36*
X1292485Y1998066D02*
X1292670Y1997881D01*
X1293040Y1997511D01*
X1293594Y1997141D01*
X1294242Y1996586D01*
X1294981Y1995847D01*
X1295906Y1995107D01*
X1297015Y1994275D01*
X1298125Y1993443D01*
X1299419Y1992426D01*
X1300898Y1991409D01*
X1302378Y1990392D01*
X1304042Y1989282D01*
X1305799Y1988173D01*
X1307740Y1987063D01*
X1309682Y1985954D01*
X1309774Y1985861D01*
X1310144Y1985676D01*
X1310699Y1985399D01*
X1311531Y1984937D01*
X1312548Y1984475D01*
X1313657Y1983920D01*
X1314952Y1983273D01*
X1316431Y1982625D01*
X1318095Y1981886D01*
X1319759Y1981054D01*
X1321608Y1980314D01*
X1323550Y1979574D01*
X1327526Y1978095D01*
X1331779Y1976708D01*
X1331871D01*
X1332148Y1976616D01*
X1332611Y1976523D01*
X1333165Y1976338D01*
X1333905Y1976154D01*
X1334830Y1975969D01*
X1335847Y1975691D01*
X1336956Y1975506D01*
X1338251Y1975229D01*
X1339637Y1974952D01*
X1342596Y1974489D01*
X1345832Y1974027D01*
X1349345Y1973750D01*
Y1965706D01*
X1349253D01*
X1348975D01*
X1348606D01*
X1348051Y1965798D01*
X1347311D01*
X1346387Y1965891D01*
X1345370Y1965983D01*
X1344260Y1966076D01*
X1342966Y1966261D01*
X1341671Y1966446D01*
X1340100Y1966723D01*
X1338528Y1967000D01*
X1336864Y1967278D01*
X1335015Y1967648D01*
X1331224Y1968572D01*
X1331131D01*
X1330762Y1968665D01*
X1330207Y1968850D01*
X1329375Y1969127D01*
X1328450Y1969404D01*
X1327341Y1969774D01*
X1326046Y1970144D01*
X1324660Y1970699D01*
X1323088Y1971253D01*
X1321516Y1971808D01*
X1318003Y1973195D01*
X1314304Y1974859D01*
X1310606Y1976708D01*
X1310514Y1976801D01*
X1310144Y1976986D01*
X1309682Y1977263D01*
X1308942Y1977633D01*
X1308110Y1978095D01*
X1307093Y1978742D01*
X1305983Y1979389D01*
X1304781Y1980129D01*
X1302100Y1981886D01*
X1299327Y1983735D01*
X1296460Y1985861D01*
X1293779Y1988080D01*
Y1956738D01*
X1286198D01*
Y1998158D01*
X1292392D01*
X1292485Y1998066D01*
D02*
G37*
G36*
X1349345Y1928169D02*
X1299327D01*
X1299419Y1928076D01*
X1299789Y1927614D01*
X1300344Y1927059D01*
X1300991Y1926135D01*
X1301823Y1925118D01*
X1302747Y1923823D01*
X1303764Y1922344D01*
X1304781Y1920680D01*
Y1920587D01*
X1304874Y1920495D01*
X1305244Y1919940D01*
X1305706Y1919016D01*
X1306261Y1917906D01*
X1306908Y1916612D01*
X1307555Y1915225D01*
X1308202Y1913838D01*
X1308757Y1912451D01*
X1301176D01*
Y1912544D01*
X1300991Y1912729D01*
X1300898Y1913099D01*
X1300621Y1913561D01*
X1300344Y1914116D01*
X1299974Y1914763D01*
X1299049Y1916334D01*
X1298032Y1918184D01*
X1296738Y1920033D01*
X1295259Y1921974D01*
X1293687Y1923916D01*
X1293594Y1924008D01*
X1293502Y1924101D01*
X1293224Y1924378D01*
X1292947Y1924748D01*
X1292023Y1925580D01*
X1290913Y1926690D01*
X1289619Y1927799D01*
X1288139Y1929001D01*
X1286660Y1930018D01*
X1285088Y1930943D01*
Y1936028D01*
X1349345D01*
Y1928169D01*
D02*
G37*
G36*
X1329560Y1899138D02*
X1330114Y1898953D01*
X1330854Y1898675D01*
X1331686Y1898398D01*
X1332703Y1898028D01*
X1333813Y1897566D01*
X1335015Y1897011D01*
X1337603Y1895717D01*
X1340192Y1894053D01*
X1341487Y1893036D01*
X1342781Y1892019D01*
X1343890Y1890909D01*
X1345000Y1889615D01*
X1345092Y1889522D01*
X1345277Y1889337D01*
X1345462Y1888875D01*
X1345832Y1888413D01*
X1346294Y1887673D01*
X1346757Y1886933D01*
X1347219Y1885916D01*
X1347681Y1884899D01*
X1348236Y1883698D01*
X1348698Y1882403D01*
X1349160Y1881016D01*
X1349623Y1879537D01*
X1349992Y1877965D01*
X1350177Y1876301D01*
X1350362Y1874544D01*
X1350455Y1872695D01*
Y1871678D01*
X1350362Y1870939D01*
Y1870106D01*
X1350270Y1869089D01*
X1350085Y1867980D01*
X1349900Y1866686D01*
X1349438Y1864004D01*
X1348698Y1861231D01*
X1347681Y1858457D01*
X1347034Y1857163D01*
X1346294Y1855868D01*
X1346202Y1855776D01*
X1346109Y1855591D01*
X1345832Y1855221D01*
X1345462Y1854851D01*
X1345092Y1854297D01*
X1344538Y1853649D01*
X1343890Y1852910D01*
X1343151Y1852170D01*
X1342319Y1851430D01*
X1341487Y1850598D01*
X1339360Y1848934D01*
X1336864Y1847362D01*
X1334090Y1845975D01*
X1333998D01*
X1333720Y1845791D01*
X1333258Y1845698D01*
X1332703Y1845421D01*
X1331964Y1845236D01*
X1331039Y1844958D01*
X1330022Y1844589D01*
X1328913Y1844311D01*
X1327711Y1844034D01*
X1326324Y1843664D01*
X1323458Y1843202D01*
X1320222Y1842832D01*
X1316893Y1842647D01*
X1316801D01*
X1316431D01*
X1315876D01*
X1315229Y1842740D01*
X1314304D01*
X1313380Y1842832D01*
X1312178Y1842924D01*
X1310976Y1843109D01*
X1308295Y1843572D01*
X1305336Y1844219D01*
X1302378Y1845143D01*
X1299511Y1846438D01*
X1299419Y1846530D01*
X1299142Y1846623D01*
X1298772Y1846808D01*
X1298310Y1847177D01*
X1297662Y1847547D01*
X1296923Y1848010D01*
X1295259Y1849211D01*
X1293409Y1850783D01*
X1291560Y1852632D01*
X1289711Y1854759D01*
X1288139Y1857255D01*
X1288047Y1857348D01*
X1287954Y1857625D01*
X1287770Y1857995D01*
X1287492Y1858457D01*
X1287215Y1859197D01*
X1286937Y1859936D01*
X1286568Y1860861D01*
X1286198Y1861878D01*
X1285828Y1862987D01*
X1285458Y1864189D01*
X1284903Y1866778D01*
X1284441Y1869737D01*
X1284256Y1872788D01*
Y1873712D01*
X1284349Y1874359D01*
X1284441Y1875192D01*
X1284534Y1876209D01*
X1284626Y1877226D01*
X1284903Y1878428D01*
X1285458Y1880924D01*
X1286290Y1883698D01*
X1286845Y1885084D01*
X1287492Y1886379D01*
X1288324Y1887673D01*
X1289156Y1888968D01*
X1289249Y1889060D01*
X1289341Y1889245D01*
X1289619Y1889615D01*
X1290081Y1890077D01*
X1290543Y1890539D01*
X1291190Y1891186D01*
X1291930Y1891834D01*
X1292670Y1892573D01*
X1293594Y1893313D01*
X1294704Y1894053D01*
X1295813Y1894885D01*
X1297015Y1895624D01*
X1298402Y1896272D01*
X1299789Y1897011D01*
X1301268Y1897566D01*
X1302932Y1898121D01*
X1304874Y1889800D01*
X1304781D01*
X1304597Y1889707D01*
X1304227Y1889522D01*
X1303764Y1889337D01*
X1303210Y1889152D01*
X1302470Y1888875D01*
X1300991Y1888135D01*
X1299327Y1887211D01*
X1297662Y1886101D01*
X1296091Y1884715D01*
X1294704Y1883235D01*
X1294519Y1883050D01*
X1294149Y1882496D01*
X1293687Y1881571D01*
X1293040Y1880369D01*
X1292485Y1878797D01*
X1291930Y1877041D01*
X1291560Y1874914D01*
X1291468Y1872603D01*
Y1871863D01*
X1291560Y1871401D01*
Y1870754D01*
X1291653Y1870014D01*
X1291930Y1868257D01*
X1292300Y1866316D01*
X1292947Y1864282D01*
X1293872Y1862155D01*
X1295074Y1860214D01*
Y1860121D01*
X1295259Y1860029D01*
X1295721Y1859382D01*
X1296460Y1858549D01*
X1297570Y1857532D01*
X1298957Y1856331D01*
X1300529Y1855221D01*
X1302470Y1854204D01*
X1304597Y1853280D01*
X1304689D01*
X1304874Y1853187D01*
X1305151Y1853095D01*
X1305614Y1853002D01*
X1306168Y1852817D01*
X1306816Y1852632D01*
X1308387Y1852355D01*
X1310236Y1851985D01*
X1312270Y1851615D01*
X1314489Y1851430D01*
X1316893Y1851338D01*
X1316986D01*
X1317263D01*
X1317725D01*
X1318280D01*
X1318927Y1851430D01*
X1319759D01*
X1320684Y1851523D01*
X1321701Y1851615D01*
X1323920Y1851893D01*
X1326324Y1852355D01*
X1328728Y1852910D01*
X1331131Y1853649D01*
X1331224D01*
X1331409Y1853742D01*
X1331686Y1853927D01*
X1332148Y1854112D01*
X1333258Y1854666D01*
X1334552Y1855498D01*
X1336032Y1856515D01*
X1337603Y1857810D01*
X1338990Y1859289D01*
X1340285Y1861046D01*
Y1861138D01*
X1340377Y1861323D01*
X1340562Y1861601D01*
X1340747Y1861970D01*
X1340932Y1862433D01*
X1341209Y1862987D01*
X1341764Y1864282D01*
X1342319Y1865946D01*
X1342781Y1867795D01*
X1343151Y1869829D01*
X1343243Y1871956D01*
Y1872603D01*
X1343151Y1873158D01*
Y1873805D01*
X1343058Y1874452D01*
X1342688Y1876116D01*
X1342226Y1878058D01*
X1341487Y1879999D01*
X1340470Y1882033D01*
X1339915Y1883050D01*
X1339175Y1883975D01*
X1339083Y1884067D01*
X1338990Y1884160D01*
X1338713Y1884437D01*
X1338435Y1884807D01*
X1337973Y1885177D01*
X1337418Y1885639D01*
X1336864Y1886194D01*
X1336124Y1886656D01*
X1335292Y1887211D01*
X1334367Y1887858D01*
X1333443Y1888413D01*
X1332333Y1888968D01*
X1331131Y1889430D01*
X1329837Y1889892D01*
X1328450Y1890354D01*
X1326971Y1890724D01*
X1329097Y1899230D01*
X1329190D01*
X1329560Y1899138D01*
D02*
G37*
G36*
X878892Y1652762D02*
X828873D01*
X828966Y1652669D01*
X829335Y1652207D01*
X829890Y1651652D01*
X830537Y1650728D01*
X831369Y1649711D01*
X832294Y1648416D01*
X833311Y1646937D01*
X834328Y1645273D01*
Y1645180D01*
X834420Y1645088D01*
X834790Y1644533D01*
X835253Y1643609D01*
X835807Y1642499D01*
X836455Y1641205D01*
X837102Y1639818D01*
X837749Y1638431D01*
X838304Y1637044D01*
X830722D01*
Y1637137D01*
X830537Y1637322D01*
X830445Y1637691D01*
X830168Y1638154D01*
X829890Y1638708D01*
X829520Y1639356D01*
X828596Y1640927D01*
X827579Y1642776D01*
X826284Y1644626D01*
X824805Y1646567D01*
X823233Y1648509D01*
X823141Y1648601D01*
X823048Y1648694D01*
X822771Y1648971D01*
X822494Y1649341D01*
X821569Y1650173D01*
X820460Y1651282D01*
X819165Y1652392D01*
X817686Y1653594D01*
X816207Y1654611D01*
X814635Y1655535D01*
Y1660621D01*
X878892D01*
Y1652762D01*
D02*
G37*
G36*
Y1603020D02*
X828873D01*
X828966Y1602928D01*
X829335Y1602466D01*
X829890Y1601911D01*
X830537Y1600986D01*
X831369Y1599969D01*
X832294Y1598675D01*
X833311Y1597196D01*
X834328Y1595531D01*
Y1595439D01*
X834420Y1595347D01*
X834790Y1594792D01*
X835253Y1593867D01*
X835807Y1592758D01*
X836455Y1591463D01*
X837102Y1590077D01*
X837749Y1588690D01*
X838304Y1587303D01*
X830722D01*
Y1587395D01*
X830537Y1587580D01*
X830445Y1587950D01*
X830168Y1588412D01*
X829890Y1588967D01*
X829520Y1589614D01*
X828596Y1591186D01*
X827579Y1593035D01*
X826284Y1594884D01*
X824805Y1596826D01*
X823233Y1598767D01*
X823141Y1598860D01*
X823048Y1598952D01*
X822771Y1599230D01*
X822494Y1599600D01*
X821569Y1600432D01*
X820460Y1601541D01*
X819165Y1602651D01*
X817686Y1603853D01*
X816207Y1604870D01*
X814635Y1605794D01*
Y1610879D01*
X878892D01*
Y1603020D01*
D02*
G37*
G36*
X859106Y1573989D02*
X859661Y1573804D01*
X860401Y1573527D01*
X861233Y1573250D01*
X862250Y1572880D01*
X863359Y1572417D01*
X864561Y1571863D01*
X867150Y1570568D01*
X869739Y1568904D01*
X871033Y1567887D01*
X872327Y1566870D01*
X873437Y1565761D01*
X874546Y1564466D01*
X874639Y1564374D01*
X874824Y1564189D01*
X875009Y1563727D01*
X875378Y1563264D01*
X875841Y1562525D01*
X876303Y1561785D01*
X876765Y1560768D01*
X877228Y1559751D01*
X877782Y1558549D01*
X878245Y1557255D01*
X878707Y1555868D01*
X879169Y1554389D01*
X879539Y1552817D01*
X879724Y1551153D01*
X879909Y1549396D01*
X880001Y1547547D01*
Y1546530D01*
X879909Y1545790D01*
Y1544958D01*
X879816Y1543941D01*
X879631Y1542832D01*
X879447Y1541537D01*
X878984Y1538856D01*
X878245Y1536082D01*
X877228Y1533309D01*
X876580Y1532014D01*
X875841Y1530720D01*
X875748Y1530627D01*
X875656Y1530442D01*
X875378Y1530073D01*
X875009Y1529703D01*
X874639Y1529148D01*
X874084Y1528501D01*
X873437Y1527761D01*
X872697Y1527022D01*
X871865Y1526282D01*
X871033Y1525450D01*
X868907Y1523786D01*
X866410Y1522214D01*
X863637Y1520827D01*
X863544D01*
X863267Y1520642D01*
X862804Y1520550D01*
X862250Y1520272D01*
X861510Y1520087D01*
X860586Y1519810D01*
X859569Y1519440D01*
X858459Y1519163D01*
X857257Y1518885D01*
X855870Y1518516D01*
X853004Y1518053D01*
X849768Y1517684D01*
X846440Y1517499D01*
X846347D01*
X845977D01*
X845423D01*
X844776Y1517591D01*
X843851D01*
X842926Y1517684D01*
X841725Y1517776D01*
X840523Y1517961D01*
X837841Y1518423D01*
X834883Y1519070D01*
X831924Y1519995D01*
X829058Y1521289D01*
X828966Y1521382D01*
X828688Y1521474D01*
X828318Y1521659D01*
X827856Y1522029D01*
X827209Y1522399D01*
X826469Y1522861D01*
X824805Y1524063D01*
X822956Y1525635D01*
X821107Y1527484D01*
X819258Y1529610D01*
X817686Y1532107D01*
X817593Y1532199D01*
X817501Y1532476D01*
X817316Y1532846D01*
X817039Y1533309D01*
X816761Y1534048D01*
X816484Y1534788D01*
X816114Y1535712D01*
X815744Y1536729D01*
X815375Y1537839D01*
X815005Y1539041D01*
X814450Y1541630D01*
X813988Y1544588D01*
X813803Y1547639D01*
Y1548564D01*
X813895Y1549211D01*
X813988Y1550043D01*
X814080Y1551060D01*
X814173Y1552077D01*
X814450Y1553279D01*
X815005Y1555775D01*
X815837Y1558549D01*
X816392Y1559936D01*
X817039Y1561230D01*
X817871Y1562525D01*
X818703Y1563819D01*
X818795Y1563912D01*
X818888Y1564096D01*
X819165Y1564466D01*
X819628Y1564929D01*
X820090Y1565391D01*
X820737Y1566038D01*
X821477Y1566685D01*
X822216Y1567425D01*
X823141Y1568165D01*
X824250Y1568904D01*
X825360Y1569736D01*
X826562Y1570476D01*
X827949Y1571123D01*
X829335Y1571863D01*
X830815Y1572417D01*
X832479Y1572972D01*
X834420Y1564651D01*
X834328D01*
X834143Y1564559D01*
X833773Y1564374D01*
X833311Y1564189D01*
X832756Y1564004D01*
X832017Y1563727D01*
X830537Y1562987D01*
X828873Y1562062D01*
X827209Y1560953D01*
X825637Y1559566D01*
X824250Y1558087D01*
X824065Y1557902D01*
X823696Y1557347D01*
X823233Y1556423D01*
X822586Y1555221D01*
X822031Y1553649D01*
X821477Y1551892D01*
X821107Y1549766D01*
X821014Y1547454D01*
Y1546715D01*
X821107Y1546252D01*
Y1545605D01*
X821199Y1544866D01*
X821477Y1543109D01*
X821846Y1541167D01*
X822494Y1539133D01*
X823418Y1537007D01*
X824620Y1535065D01*
Y1534973D01*
X824805Y1534880D01*
X825267Y1534233D01*
X826007Y1533401D01*
X827116Y1532384D01*
X828503Y1531182D01*
X830075Y1530073D01*
X832017Y1529056D01*
X834143Y1528131D01*
X834236D01*
X834420Y1528039D01*
X834698Y1527946D01*
X835160Y1527854D01*
X835715Y1527669D01*
X836362Y1527484D01*
X837934Y1527206D01*
X839783Y1526837D01*
X841817Y1526467D01*
X844036Y1526282D01*
X846440Y1526189D01*
X846532D01*
X846810D01*
X847272D01*
X847827D01*
X848474Y1526282D01*
X849306D01*
X850230Y1526374D01*
X851247Y1526467D01*
X853466Y1526744D01*
X855870Y1527206D01*
X858274Y1527761D01*
X860678Y1528501D01*
X860770D01*
X860955Y1528593D01*
X861233Y1528778D01*
X861695Y1528963D01*
X862804Y1529518D01*
X864099Y1530350D01*
X865578Y1531367D01*
X867150Y1532661D01*
X868537Y1534141D01*
X869831Y1535897D01*
Y1535990D01*
X869924Y1536175D01*
X870108Y1536452D01*
X870293Y1536822D01*
X870478Y1537284D01*
X870756Y1537839D01*
X871310Y1539133D01*
X871865Y1540798D01*
X872327Y1542647D01*
X872697Y1544681D01*
X872790Y1546807D01*
Y1547454D01*
X872697Y1548009D01*
Y1548656D01*
X872605Y1549303D01*
X872235Y1550968D01*
X871773Y1552909D01*
X871033Y1554851D01*
X870016Y1556885D01*
X869461Y1557902D01*
X868722Y1558826D01*
X868629Y1558919D01*
X868537Y1559011D01*
X868259Y1559289D01*
X867982Y1559659D01*
X867520Y1560028D01*
X866965Y1560491D01*
X866410Y1561045D01*
X865671Y1561508D01*
X864839Y1562062D01*
X863914Y1562710D01*
X862989Y1563264D01*
X861880Y1563819D01*
X860678Y1564281D01*
X859384Y1564744D01*
X857997Y1565206D01*
X856517Y1565576D01*
X858644Y1574082D01*
X858736D01*
X859106Y1573989D01*
D02*
G37*
G36*
X619653Y1169881D02*
X635001D01*
Y1162022D01*
X619653D01*
Y1134193D01*
X612442D01*
X571021Y1163501D01*
Y1169881D01*
X612442D01*
Y1178571D01*
X619653D01*
Y1169881D01*
D02*
G37*
G36*
X635001Y1089999D02*
X571021D01*
Y1098505D01*
X627420D01*
Y1130032D01*
X635001D01*
Y1089999D01*
D02*
G37*
G36*
X923917Y1178756D02*
X924657Y1178664D01*
X925489Y1178479D01*
X926414Y1178294D01*
X927431Y1178109D01*
X929650Y1177370D01*
X930852Y1176815D01*
X931961Y1176260D01*
X933163Y1175520D01*
X934365Y1174688D01*
X935567Y1173764D01*
X936676Y1172654D01*
X936769Y1172562D01*
X936954Y1172377D01*
X937231Y1172007D01*
X937601Y1171545D01*
X938063Y1170990D01*
X938525Y1170250D01*
X939080Y1169418D01*
X939542Y1168401D01*
X940097Y1167384D01*
X940652Y1166182D01*
X941114Y1164980D01*
X941576Y1163594D01*
X941946Y1162114D01*
X942224Y1160543D01*
X942409Y1158971D01*
X942501Y1157214D01*
Y1156382D01*
X942409Y1155827D01*
X942316Y1155088D01*
X942224Y1154256D01*
X942039Y1153331D01*
X941854Y1152314D01*
X941299Y1150095D01*
X940375Y1147784D01*
X939820Y1146582D01*
X939173Y1145472D01*
X938341Y1144363D01*
X937508Y1143253D01*
X937416Y1143161D01*
X937231Y1142976D01*
X936954Y1142699D01*
X936584Y1142421D01*
X936122Y1141959D01*
X935474Y1141497D01*
X934827Y1140942D01*
X933995Y1140387D01*
X933071Y1139832D01*
X932146Y1139278D01*
X929927Y1138261D01*
X927338Y1137429D01*
X925951Y1137151D01*
X924472Y1136966D01*
X923455Y1144825D01*
X923548D01*
X923732Y1144917D01*
X924102Y1145010D01*
X924565Y1145102D01*
X925119Y1145195D01*
X925766Y1145380D01*
X927153Y1145842D01*
X928818Y1146489D01*
X930389Y1147321D01*
X931869Y1148246D01*
X933163Y1149355D01*
X933255Y1149540D01*
X933625Y1149910D01*
X934088Y1150650D01*
X934550Y1151574D01*
X935105Y1152684D01*
X935567Y1154071D01*
X935937Y1155642D01*
X936029Y1157307D01*
Y1157861D01*
X935937Y1158231D01*
X935844Y1159248D01*
X935567Y1160543D01*
X935105Y1162022D01*
X934457Y1163594D01*
X933533Y1165165D01*
X932238Y1166645D01*
X932054Y1166830D01*
X931499Y1167292D01*
X930667Y1167847D01*
X929557Y1168586D01*
X928170Y1169326D01*
X926599Y1169881D01*
X924749Y1170343D01*
X922715Y1170528D01*
X922623D01*
X922438D01*
X922161D01*
X921791Y1170435D01*
X920774Y1170343D01*
X919572Y1170065D01*
X918093Y1169696D01*
X916613Y1169048D01*
X915134Y1168124D01*
X913747Y1166922D01*
X913562Y1166737D01*
X913192Y1166275D01*
X912638Y1165535D01*
X911991Y1164518D01*
X911343Y1163224D01*
X910789Y1161652D01*
X910419Y1159895D01*
X910234Y1157954D01*
Y1157122D01*
X910326Y1156474D01*
X910419Y1155642D01*
X910604Y1154718D01*
X910789Y1153608D01*
X911066Y1152406D01*
X904132Y1153331D01*
Y1153793D01*
X904224Y1154163D01*
Y1155365D01*
X904039Y1156382D01*
X903854Y1157584D01*
X903577Y1158971D01*
X903115Y1160543D01*
X902468Y1162022D01*
X901635Y1163594D01*
Y1163686D01*
X901543Y1163778D01*
X901173Y1164241D01*
X900526Y1164888D01*
X899694Y1165628D01*
X898492Y1166367D01*
X897105Y1167014D01*
X895533Y1167477D01*
X894609Y1167662D01*
X893592D01*
X893499D01*
X893407D01*
X892852D01*
X892113Y1167477D01*
X891095Y1167292D01*
X889986Y1166922D01*
X888784Y1166460D01*
X887582Y1165720D01*
X886473Y1164703D01*
X886380Y1164611D01*
X886010Y1164148D01*
X885548Y1163501D01*
X884993Y1162669D01*
X884531Y1161560D01*
X884069Y1160265D01*
X883699Y1158786D01*
X883607Y1157122D01*
Y1156382D01*
X883791Y1155550D01*
X883976Y1154440D01*
X884346Y1153238D01*
X884808Y1152037D01*
X885548Y1150742D01*
X886473Y1149540D01*
X886565Y1149448D01*
X887027Y1149078D01*
X887675Y1148523D01*
X888599Y1147876D01*
X889801Y1147229D01*
X891280Y1146582D01*
X893037Y1146027D01*
X895071Y1145657D01*
X893684Y1137798D01*
X893592D01*
X893314Y1137891D01*
X892945Y1137983D01*
X892390Y1138076D01*
X891743Y1138261D01*
X891003Y1138538D01*
X889246Y1139093D01*
X887212Y1140017D01*
X885178Y1141127D01*
X883237Y1142514D01*
X881480Y1144270D01*
X881388Y1144363D01*
X881295Y1144548D01*
X881110Y1144825D01*
X880833Y1145195D01*
X880463Y1145657D01*
X880093Y1146304D01*
X879723Y1146951D01*
X879261Y1147784D01*
X878521Y1149633D01*
X877782Y1151759D01*
X877320Y1154256D01*
X877135Y1155550D01*
Y1157861D01*
X877227Y1158878D01*
X877412Y1160080D01*
X877689Y1161560D01*
X878152Y1163224D01*
X878706Y1164888D01*
X879446Y1166552D01*
Y1166645D01*
X879538Y1166737D01*
X879816Y1167292D01*
X880371Y1168124D01*
X881018Y1169048D01*
X881942Y1170158D01*
X882959Y1171267D01*
X884161Y1172377D01*
X885548Y1173301D01*
X885733Y1173394D01*
X886195Y1173671D01*
X887027Y1174041D01*
X888044Y1174503D01*
X889246Y1174966D01*
X890633Y1175335D01*
X892205Y1175613D01*
X893777Y1175705D01*
X893962D01*
X894516D01*
X895256Y1175613D01*
X896273Y1175428D01*
X897475Y1175151D01*
X898769Y1174688D01*
X900064Y1174134D01*
X901358Y1173394D01*
X901543Y1173301D01*
X901913Y1173024D01*
X902560Y1172469D01*
X903300Y1171730D01*
X904132Y1170805D01*
X905056Y1169696D01*
X905888Y1168401D01*
X906721Y1166830D01*
Y1166922D01*
X906813Y1167107D01*
X906905Y1167384D01*
X906998Y1167754D01*
X907368Y1168771D01*
X907922Y1170065D01*
X908662Y1171545D01*
X909587Y1173024D01*
X910789Y1174411D01*
X912175Y1175705D01*
X912360Y1175798D01*
X912915Y1176168D01*
X913840Y1176722D01*
X915042Y1177277D01*
X916521Y1177832D01*
X918278Y1178387D01*
X920312Y1178756D01*
X922531Y1178849D01*
X922623D01*
X922900D01*
X923363D01*
X923917Y1178756D01*
D02*
G37*
G36*
X941392Y1089999D02*
X877412D01*
Y1098505D01*
X933810D01*
Y1130032D01*
X941392D01*
Y1089999D01*
D02*
G37*
G36*
X1755225Y1337408D02*
X1756149D01*
X1757074Y1337316D01*
X1758276Y1337223D01*
X1759478Y1337038D01*
X1762159Y1336576D01*
X1765117Y1335929D01*
X1768076Y1335004D01*
X1770942Y1333710D01*
X1771035Y1333618D01*
X1771312Y1333525D01*
X1771682Y1333340D01*
X1772144Y1332970D01*
X1772791Y1332601D01*
X1773531Y1332138D01*
X1775195Y1330936D01*
X1777044Y1329365D01*
X1778893Y1327516D01*
X1780742Y1325389D01*
X1782314Y1322893D01*
X1782407Y1322800D01*
X1782499Y1322523D01*
X1782684Y1322153D01*
X1782961Y1321691D01*
X1783239Y1320951D01*
X1783516Y1320211D01*
X1783886Y1319287D01*
X1784256Y1318270D01*
X1784626Y1317160D01*
X1784995Y1315959D01*
X1785550Y1313370D01*
X1786012Y1310411D01*
X1786197Y1307360D01*
Y1306436D01*
X1786105Y1305788D01*
X1786012Y1304956D01*
X1785920Y1303939D01*
X1785828Y1302922D01*
X1785550Y1301720D01*
X1784995Y1299224D01*
X1784163Y1296450D01*
X1783609Y1295063D01*
X1782961Y1293769D01*
X1782129Y1292475D01*
X1781297Y1291180D01*
X1781205Y1291088D01*
X1781112Y1290903D01*
X1780835Y1290533D01*
X1780373Y1290071D01*
X1779910Y1289609D01*
X1779263Y1288961D01*
X1778523Y1288314D01*
X1777784Y1287575D01*
X1776859Y1286835D01*
X1775750Y1286095D01*
X1774640Y1285263D01*
X1773438Y1284523D01*
X1772052Y1283876D01*
X1770665Y1283137D01*
X1769185Y1282582D01*
X1767521Y1282027D01*
X1765580Y1290348D01*
X1765672D01*
X1765857Y1290441D01*
X1766227Y1290626D01*
X1766689Y1290810D01*
X1767244Y1290995D01*
X1767984Y1291273D01*
X1769463Y1292012D01*
X1771127Y1292937D01*
X1772791Y1294046D01*
X1774363Y1295433D01*
X1775750Y1296913D01*
X1775935Y1297097D01*
X1776305Y1297652D01*
X1776767Y1298577D01*
X1777414Y1299779D01*
X1777969Y1301350D01*
X1778523Y1303107D01*
X1778893Y1305234D01*
X1778986Y1307545D01*
Y1308285D01*
X1778893Y1308747D01*
Y1309394D01*
X1778801Y1310134D01*
X1778523Y1311890D01*
X1778154Y1313832D01*
X1777506Y1315866D01*
X1776582Y1317993D01*
X1775380Y1319934D01*
Y1320027D01*
X1775195Y1320119D01*
X1774733Y1320766D01*
X1773993Y1321598D01*
X1772884Y1322615D01*
X1771497Y1323817D01*
X1769925Y1324927D01*
X1767984Y1325944D01*
X1765857Y1326868D01*
X1765765D01*
X1765580Y1326961D01*
X1765302Y1327053D01*
X1764840Y1327146D01*
X1764285Y1327331D01*
X1763638Y1327516D01*
X1762066Y1327793D01*
X1760217Y1328163D01*
X1758183Y1328533D01*
X1755964Y1328717D01*
X1753560Y1328810D01*
X1753468D01*
X1753191D01*
X1752728D01*
X1752174D01*
X1751526Y1328717D01*
X1750694D01*
X1749770Y1328625D01*
X1748753Y1328533D01*
X1746534Y1328255D01*
X1744130Y1327793D01*
X1741726Y1327238D01*
X1739322Y1326498D01*
X1739230D01*
X1739045Y1326406D01*
X1738767Y1326221D01*
X1738305Y1326036D01*
X1737196Y1325481D01*
X1735901Y1324649D01*
X1734422Y1323632D01*
X1732850Y1322338D01*
X1731463Y1320859D01*
X1730169Y1319102D01*
Y1319010D01*
X1730077Y1318825D01*
X1729892Y1318547D01*
X1729707Y1318177D01*
X1729522Y1317715D01*
X1729244Y1317160D01*
X1728690Y1315866D01*
X1728135Y1314202D01*
X1727673Y1312353D01*
X1727303Y1310319D01*
X1727210Y1308192D01*
Y1307545D01*
X1727303Y1306990D01*
Y1306343D01*
X1727395Y1305696D01*
X1727765Y1304032D01*
X1728227Y1302090D01*
X1728967Y1300149D01*
X1729984Y1298114D01*
X1730539Y1297097D01*
X1731278Y1296173D01*
X1731371Y1296080D01*
X1731463Y1295988D01*
X1731741Y1295711D01*
X1732018Y1295341D01*
X1732480Y1294971D01*
X1733035Y1294509D01*
X1733590Y1293954D01*
X1734330Y1293492D01*
X1735162Y1292937D01*
X1736086Y1292290D01*
X1737011Y1291735D01*
X1738120Y1291180D01*
X1739322Y1290718D01*
X1740617Y1290256D01*
X1742003Y1289793D01*
X1743483Y1289424D01*
X1741356Y1280918D01*
X1741264D01*
X1740894Y1281010D01*
X1740339Y1281195D01*
X1739600Y1281472D01*
X1738767Y1281750D01*
X1737750Y1282120D01*
X1736641Y1282582D01*
X1735439Y1283137D01*
X1732850Y1284431D01*
X1730261Y1286095D01*
X1728967Y1287112D01*
X1727673Y1288129D01*
X1726563Y1289239D01*
X1725454Y1290533D01*
X1725361Y1290626D01*
X1725176Y1290810D01*
X1724991Y1291273D01*
X1724622Y1291735D01*
X1724159Y1292475D01*
X1723697Y1293214D01*
X1723235Y1294231D01*
X1722773Y1295248D01*
X1722218Y1296450D01*
X1721756Y1297745D01*
X1721293Y1299132D01*
X1720831Y1300611D01*
X1720461Y1302183D01*
X1720276Y1303847D01*
X1720091Y1305603D01*
X1719999Y1307453D01*
Y1308470D01*
X1720091Y1309209D01*
Y1310041D01*
X1720184Y1311058D01*
X1720369Y1312168D01*
X1720554Y1313462D01*
X1721016Y1316143D01*
X1721756Y1318917D01*
X1722773Y1321691D01*
X1723420Y1322985D01*
X1724159Y1324280D01*
X1724252Y1324372D01*
X1724344Y1324557D01*
X1724622Y1324927D01*
X1724991Y1325297D01*
X1725361Y1325851D01*
X1725916Y1326498D01*
X1726563Y1327238D01*
X1727303Y1327978D01*
X1728135Y1328717D01*
X1728967Y1329550D01*
X1731094Y1331214D01*
X1733590Y1332785D01*
X1736364Y1334172D01*
X1736456D01*
X1736733Y1334357D01*
X1737196Y1334450D01*
X1737750Y1334727D01*
X1738490Y1334912D01*
X1739415Y1335189D01*
X1740432Y1335559D01*
X1741541Y1335837D01*
X1742743Y1336114D01*
X1744130Y1336484D01*
X1746996Y1336946D01*
X1750232Y1337316D01*
X1753560Y1337501D01*
X1753653D01*
X1754023D01*
X1754577D01*
X1755225Y1337408D01*
D02*
G37*
G36*
X1769278Y1267604D02*
X1769463Y1267419D01*
X1769555Y1267049D01*
X1769833Y1266587D01*
X1770110Y1266032D01*
X1770480Y1265385D01*
X1771404Y1263813D01*
X1772421Y1261964D01*
X1773716Y1260115D01*
X1775195Y1258174D01*
X1776767Y1256232D01*
X1776859Y1256139D01*
X1776952Y1256047D01*
X1777229Y1255770D01*
X1777506Y1255400D01*
X1778431Y1254568D01*
X1779541Y1253458D01*
X1780835Y1252349D01*
X1782314Y1251147D01*
X1783793Y1250130D01*
X1785365Y1249205D01*
Y1244120D01*
X1721108D01*
Y1251979D01*
X1771127D01*
X1771035Y1252071D01*
X1770665Y1252534D01*
X1770110Y1253088D01*
X1769463Y1254013D01*
X1768631Y1255030D01*
X1767706Y1256324D01*
X1766689Y1257804D01*
X1765672Y1259468D01*
Y1259560D01*
X1765580Y1259653D01*
X1765210Y1260208D01*
X1764748Y1261132D01*
X1764193Y1262242D01*
X1763546Y1263536D01*
X1762898Y1264923D01*
X1762251Y1266310D01*
X1761697Y1267696D01*
X1769278D01*
Y1267604D01*
D02*
G37*
G36*
X2050224Y1332409D02*
X2051149D01*
X2052074Y1332316D01*
X2053276Y1332224D01*
X2054477Y1332039D01*
X2057159Y1331577D01*
X2060117Y1330930D01*
X2063076Y1330005D01*
X2065942Y1328711D01*
X2066034Y1328618D01*
X2066312Y1328526D01*
X2066682Y1328341D01*
X2067144Y1327971D01*
X2067791Y1327601D01*
X2068531Y1327139D01*
X2070195Y1325937D01*
X2072044Y1324365D01*
X2073893Y1322516D01*
X2075742Y1320390D01*
X2077314Y1317893D01*
X2077407Y1317801D01*
X2077499Y1317523D01*
X2077684Y1317154D01*
X2077961Y1316691D01*
X2078239Y1315952D01*
X2078516Y1315212D01*
X2078886Y1314287D01*
X2079256Y1313270D01*
X2079626Y1312161D01*
X2079995Y1310959D01*
X2080550Y1308370D01*
X2081012Y1305412D01*
X2081197Y1302361D01*
Y1301436D01*
X2081105Y1300789D01*
X2081012Y1299957D01*
X2080920Y1298940D01*
X2080827Y1297923D01*
X2080550Y1296721D01*
X2079995Y1294224D01*
X2079163Y1291451D01*
X2078608Y1290064D01*
X2077961Y1288770D01*
X2077129Y1287475D01*
X2076297Y1286181D01*
X2076205Y1286088D01*
X2076112Y1285903D01*
X2075835Y1285534D01*
X2075373Y1285071D01*
X2074910Y1284609D01*
X2074263Y1283962D01*
X2073523Y1283315D01*
X2072784Y1282575D01*
X2071859Y1281835D01*
X2070750Y1281096D01*
X2069640Y1280264D01*
X2068438Y1279524D01*
X2067051Y1278877D01*
X2065665Y1278137D01*
X2064185Y1277582D01*
X2062521Y1277028D01*
X2060580Y1285349D01*
X2060672D01*
X2060857Y1285441D01*
X2061227Y1285626D01*
X2061689Y1285811D01*
X2062244Y1285996D01*
X2062983Y1286273D01*
X2064463Y1287013D01*
X2066127Y1287937D01*
X2067791Y1289047D01*
X2069363Y1290434D01*
X2070750Y1291913D01*
X2070935Y1292098D01*
X2071304Y1292653D01*
X2071767Y1293577D01*
X2072414Y1294779D01*
X2072969Y1296351D01*
X2073523Y1298108D01*
X2073893Y1300234D01*
X2073986Y1302546D01*
Y1303285D01*
X2073893Y1303747D01*
Y1304395D01*
X2073801Y1305134D01*
X2073523Y1306891D01*
X2073154Y1308833D01*
X2072506Y1310867D01*
X2071582Y1312993D01*
X2070380Y1314935D01*
Y1315027D01*
X2070195Y1315120D01*
X2069733Y1315767D01*
X2068993Y1316599D01*
X2067884Y1317616D01*
X2066497Y1318818D01*
X2064925Y1319927D01*
X2062983Y1320944D01*
X2060857Y1321869D01*
X2060764D01*
X2060580Y1321961D01*
X2060302Y1322054D01*
X2059840Y1322146D01*
X2059285Y1322331D01*
X2058638Y1322516D01*
X2057066Y1322793D01*
X2055217Y1323163D01*
X2053183Y1323533D01*
X2050964Y1323718D01*
X2048560Y1323810D01*
X2048468D01*
X2048190D01*
X2047728D01*
X2047173D01*
X2046526Y1323718D01*
X2045694D01*
X2044770Y1323625D01*
X2043753Y1323533D01*
X2041534Y1323256D01*
X2039130Y1322793D01*
X2036726Y1322239D01*
X2034322Y1321499D01*
X2034230D01*
X2034045Y1321407D01*
X2033767Y1321222D01*
X2033305Y1321037D01*
X2032196Y1320482D01*
X2030901Y1319650D01*
X2029422Y1318633D01*
X2027850Y1317338D01*
X2026463Y1315859D01*
X2025169Y1314103D01*
Y1314010D01*
X2025076Y1313825D01*
X2024892Y1313548D01*
X2024707Y1313178D01*
X2024522Y1312716D01*
X2024244Y1312161D01*
X2023690Y1310867D01*
X2023135Y1309202D01*
X2022673Y1307353D01*
X2022303Y1305319D01*
X2022210Y1303193D01*
Y1302546D01*
X2022303Y1301991D01*
Y1301344D01*
X2022395Y1300696D01*
X2022765Y1299032D01*
X2023227Y1297091D01*
X2023967Y1295149D01*
X2024984Y1293115D01*
X2025539Y1292098D01*
X2026278Y1291173D01*
X2026371Y1291081D01*
X2026463Y1290989D01*
X2026741Y1290711D01*
X2027018Y1290341D01*
X2027480Y1289972D01*
X2028035Y1289509D01*
X2028590Y1288954D01*
X2029329Y1288492D01*
X2030162Y1287937D01*
X2031086Y1287290D01*
X2032011Y1286736D01*
X2033120Y1286181D01*
X2034322Y1285719D01*
X2035616Y1285256D01*
X2037003Y1284794D01*
X2038483Y1284424D01*
X2036356Y1275918D01*
X2036264D01*
X2035894Y1276011D01*
X2035339Y1276196D01*
X2034599Y1276473D01*
X2033767Y1276750D01*
X2032750Y1277120D01*
X2031641Y1277582D01*
X2030439Y1278137D01*
X2027850Y1279432D01*
X2025261Y1281096D01*
X2023967Y1282113D01*
X2022673Y1283130D01*
X2021563Y1284239D01*
X2020454Y1285534D01*
X2020361Y1285626D01*
X2020176Y1285811D01*
X2019991Y1286273D01*
X2019622Y1286736D01*
X2019159Y1287475D01*
X2018697Y1288215D01*
X2018235Y1289232D01*
X2017772Y1290249D01*
X2017218Y1291451D01*
X2016755Y1292745D01*
X2016293Y1294132D01*
X2015831Y1295611D01*
X2015461Y1297183D01*
X2015276Y1298847D01*
X2015091Y1300604D01*
X2014999Y1302453D01*
Y1303470D01*
X2015091Y1304210D01*
Y1305042D01*
X2015184Y1306059D01*
X2015369Y1307168D01*
X2015554Y1308463D01*
X2016016Y1311144D01*
X2016755Y1313918D01*
X2017772Y1316691D01*
X2018420Y1317986D01*
X2019159Y1319280D01*
X2019252Y1319373D01*
X2019344Y1319557D01*
X2019622Y1319927D01*
X2019991Y1320297D01*
X2020361Y1320852D01*
X2020916Y1321499D01*
X2021563Y1322239D01*
X2022303Y1322978D01*
X2023135Y1323718D01*
X2023967Y1324550D01*
X2026093Y1326214D01*
X2028590Y1327786D01*
X2031363Y1329173D01*
X2031456D01*
X2031733Y1329358D01*
X2032196Y1329450D01*
X2032750Y1329728D01*
X2033490Y1329913D01*
X2034415Y1330190D01*
X2035432Y1330560D01*
X2036541Y1330837D01*
X2037743Y1331114D01*
X2039130Y1331484D01*
X2041996Y1331947D01*
X2045232Y1332316D01*
X2048560Y1332501D01*
X2048653D01*
X2049023D01*
X2049577D01*
X2050224Y1332409D01*
D02*
G37*
G36*
X2017865Y1269724D02*
X2018697Y1269631D01*
X2019622Y1269446D01*
X2020546Y1269261D01*
X2021563Y1268892D01*
X2021656D01*
X2021748Y1268799D01*
X2022303Y1268614D01*
X2023135Y1268244D01*
X2024244Y1267690D01*
X2025539Y1266950D01*
X2027018Y1266025D01*
X2028497Y1265008D01*
X2030069Y1263714D01*
X2030162D01*
X2030254Y1263529D01*
X2030809Y1263067D01*
X2031641Y1262235D01*
X2032843Y1261033D01*
X2034230Y1259646D01*
X2035894Y1257889D01*
X2037743Y1255763D01*
X2039685Y1253451D01*
X2039777Y1253359D01*
X2040054Y1252989D01*
X2040517Y1252434D01*
X2041071Y1251787D01*
X2041811Y1250955D01*
X2042643Y1249938D01*
X2043568Y1248921D01*
X2044585Y1247719D01*
X2046804Y1245408D01*
X2049023Y1243096D01*
X2050132Y1241987D01*
X2051242Y1240970D01*
X2052259Y1240045D01*
X2053276Y1239306D01*
X2053368D01*
X2053460Y1239121D01*
X2053738Y1238936D01*
X2054108Y1238751D01*
X2055125Y1238104D01*
X2056327Y1237364D01*
X2057806Y1236717D01*
X2059378Y1236070D01*
X2061134Y1235700D01*
X2062799Y1235515D01*
X2062891D01*
X2062983D01*
X2063538Y1235607D01*
X2064463Y1235700D01*
X2065480Y1235977D01*
X2066774Y1236347D01*
X2068069Y1236994D01*
X2069363Y1237826D01*
X2070657Y1238936D01*
X2070842Y1239121D01*
X2071212Y1239583D01*
X2071674Y1240230D01*
X2072321Y1241247D01*
X2072876Y1242542D01*
X2073431Y1244021D01*
X2073801Y1245778D01*
X2073893Y1247719D01*
Y1248274D01*
X2073801Y1248644D01*
X2073708Y1249753D01*
X2073431Y1251048D01*
X2073061Y1252434D01*
X2072414Y1254006D01*
X2071582Y1255485D01*
X2070472Y1256872D01*
X2070287Y1257057D01*
X2069825Y1257427D01*
X2069086Y1257982D01*
X2067976Y1258536D01*
X2066682Y1259184D01*
X2065017Y1259738D01*
X2063168Y1260108D01*
X2061042Y1260293D01*
X2061874Y1268337D01*
X2061966D01*
X2062244Y1268244D01*
X2062706D01*
X2063353Y1268152D01*
X2064093Y1267967D01*
X2064925Y1267782D01*
X2065942Y1267505D01*
X2066959Y1267227D01*
X2069178Y1266488D01*
X2071397Y1265378D01*
X2072506Y1264731D01*
X2073616Y1263899D01*
X2074633Y1263067D01*
X2075557Y1262142D01*
X2075650Y1262050D01*
X2075742Y1261865D01*
X2076020Y1261588D01*
X2076297Y1261125D01*
X2076667Y1260571D01*
X2077037Y1259923D01*
X2077499Y1259184D01*
X2077961Y1258259D01*
X2078424Y1257242D01*
X2078886Y1256133D01*
X2079256Y1254931D01*
X2079626Y1253636D01*
X2079903Y1252249D01*
X2080180Y1250770D01*
X2080273Y1249198D01*
X2080365Y1247534D01*
Y1246610D01*
X2080273Y1245962D01*
X2080180Y1245223D01*
X2080088Y1244298D01*
X2079903Y1243281D01*
X2079718Y1242264D01*
X2079071Y1239860D01*
X2078146Y1237457D01*
X2077591Y1236255D01*
X2076944Y1235053D01*
X2076112Y1233943D01*
X2075188Y1232926D01*
X2075095Y1232834D01*
X2075003Y1232649D01*
X2074633Y1232464D01*
X2074263Y1232094D01*
X2073801Y1231632D01*
X2073154Y1231169D01*
X2072506Y1230707D01*
X2071674Y1230152D01*
X2069918Y1229228D01*
X2067699Y1228303D01*
X2066589Y1227934D01*
X2065295Y1227749D01*
X2064000Y1227564D01*
X2062614Y1227471D01*
X2062429D01*
X2061966D01*
X2061227Y1227564D01*
X2060210Y1227656D01*
X2059100Y1227841D01*
X2057806Y1228211D01*
X2056419Y1228581D01*
X2055032Y1229135D01*
X2054847Y1229228D01*
X2054385Y1229413D01*
X2053645Y1229783D01*
X2052628Y1230337D01*
X2051519Y1231077D01*
X2050132Y1232002D01*
X2048745Y1233111D01*
X2047173Y1234405D01*
X2046989Y1234590D01*
X2046434Y1235053D01*
X2045972Y1235515D01*
X2045509Y1235977D01*
X2044955Y1236532D01*
X2044215Y1237272D01*
X2043475Y1238011D01*
X2042643Y1238936D01*
X2041719Y1239860D01*
X2040702Y1240970D01*
X2039685Y1242172D01*
X2038483Y1243466D01*
X2037281Y1244945D01*
X2035986Y1246425D01*
X2035894Y1246517D01*
X2035709Y1246702D01*
X2035432Y1247072D01*
X2035062Y1247534D01*
X2034507Y1248089D01*
X2033952Y1248736D01*
X2032750Y1250215D01*
X2031363Y1251787D01*
X2029977Y1253266D01*
X2028775Y1254561D01*
X2028312Y1255116D01*
X2027850Y1255578D01*
X2027758Y1255670D01*
X2027480Y1255948D01*
X2027110Y1256318D01*
X2026556Y1256780D01*
X2025909Y1257242D01*
X2025261Y1257797D01*
X2023690Y1258906D01*
Y1227379D01*
X2016108D01*
Y1269816D01*
X2016201D01*
X2016571D01*
X2017125D01*
X2017865Y1269724D01*
D02*
G37*
G36*
X2352725Y1334709D02*
X2353649D01*
X2354574Y1334617D01*
X2355776Y1334524D01*
X2356978Y1334339D01*
X2359659Y1333877D01*
X2362618Y1333230D01*
X2365576Y1332305D01*
X2368442Y1331011D01*
X2368535Y1330919D01*
X2368812Y1330826D01*
X2369182Y1330641D01*
X2369644Y1330271D01*
X2370291Y1329902D01*
X2371031Y1329439D01*
X2372695Y1328237D01*
X2374544Y1326666D01*
X2376394Y1324817D01*
X2378243Y1322690D01*
X2379814Y1320194D01*
X2379907Y1320101D01*
X2379999Y1319824D01*
X2380184Y1319454D01*
X2380462Y1318992D01*
X2380739Y1318252D01*
X2381016Y1317512D01*
X2381386Y1316588D01*
X2381756Y1315571D01*
X2382126Y1314461D01*
X2382496Y1313260D01*
X2383050Y1310671D01*
X2383513Y1307712D01*
X2383698Y1304661D01*
Y1303737D01*
X2383605Y1303089D01*
X2383513Y1302257D01*
X2383420Y1301240D01*
X2383328Y1300223D01*
X2383050Y1299021D01*
X2382496Y1296525D01*
X2381664Y1293751D01*
X2381109Y1292364D01*
X2380462Y1291070D01*
X2379629Y1289776D01*
X2378797Y1288481D01*
X2378705Y1288389D01*
X2378612Y1288204D01*
X2378335Y1287834D01*
X2377873Y1287372D01*
X2377411Y1286910D01*
X2376763Y1286262D01*
X2376024Y1285615D01*
X2375284Y1284876D01*
X2374359Y1284136D01*
X2373250Y1283396D01*
X2372141Y1282564D01*
X2370939Y1281824D01*
X2369552Y1281177D01*
X2368165Y1280438D01*
X2366686Y1279883D01*
X2365021Y1279328D01*
X2363080Y1287649D01*
X2363172D01*
X2363357Y1287742D01*
X2363727Y1287927D01*
X2364189Y1288111D01*
X2364744Y1288296D01*
X2365484Y1288574D01*
X2366963Y1289313D01*
X2368627Y1290238D01*
X2370291Y1291347D01*
X2371863Y1292734D01*
X2373250Y1294214D01*
X2373435Y1294398D01*
X2373805Y1294953D01*
X2374267Y1295878D01*
X2374914Y1297080D01*
X2375469Y1298651D01*
X2376024Y1300408D01*
X2376394Y1302535D01*
X2376486Y1304846D01*
Y1305586D01*
X2376394Y1306048D01*
Y1306695D01*
X2376301Y1307435D01*
X2376024Y1309191D01*
X2375654Y1311133D01*
X2375007Y1313167D01*
X2374082Y1315294D01*
X2372880Y1317235D01*
Y1317328D01*
X2372695Y1317420D01*
X2372233Y1318067D01*
X2371493Y1318899D01*
X2370384Y1319916D01*
X2368997Y1321118D01*
X2367425Y1322228D01*
X2365484Y1323245D01*
X2363357Y1324169D01*
X2363265D01*
X2363080Y1324262D01*
X2362802Y1324354D01*
X2362340Y1324447D01*
X2361785Y1324632D01*
X2361138Y1324817D01*
X2359567Y1325094D01*
X2357717Y1325464D01*
X2355683Y1325834D01*
X2353464Y1326018D01*
X2351061Y1326111D01*
X2350968D01*
X2350691D01*
X2350228D01*
X2349674D01*
X2349027Y1326018D01*
X2348194D01*
X2347270Y1325926D01*
X2346253Y1325834D01*
X2344034Y1325556D01*
X2341630Y1325094D01*
X2339226Y1324539D01*
X2336822Y1323799D01*
X2336730D01*
X2336545Y1323707D01*
X2336268Y1323522D01*
X2335805Y1323337D01*
X2334696Y1322782D01*
X2333401Y1321950D01*
X2331922Y1320933D01*
X2330350Y1319639D01*
X2328964Y1318160D01*
X2327669Y1316403D01*
Y1316311D01*
X2327577Y1316126D01*
X2327392Y1315848D01*
X2327207Y1315478D01*
X2327022Y1315016D01*
X2326745Y1314461D01*
X2326190Y1313167D01*
X2325635Y1311503D01*
X2325173Y1309654D01*
X2324803Y1307620D01*
X2324711Y1305493D01*
Y1304846D01*
X2324803Y1304291D01*
Y1303644D01*
X2324896Y1302997D01*
X2325265Y1301333D01*
X2325728Y1299391D01*
X2326467Y1297450D01*
X2327484Y1295415D01*
X2328039Y1294398D01*
X2328779Y1293474D01*
X2328871Y1293381D01*
X2328964Y1293289D01*
X2329241Y1293012D01*
X2329518Y1292642D01*
X2329981Y1292272D01*
X2330535Y1291810D01*
X2331090Y1291255D01*
X2331830Y1290793D01*
X2332662Y1290238D01*
X2333586Y1289591D01*
X2334511Y1289036D01*
X2335620Y1288481D01*
X2336822Y1288019D01*
X2338117Y1287557D01*
X2339504Y1287094D01*
X2340983Y1286725D01*
X2338856Y1278219D01*
X2338764D01*
X2338394Y1278311D01*
X2337839Y1278496D01*
X2337100Y1278773D01*
X2336268Y1279051D01*
X2335251Y1279421D01*
X2334141Y1279883D01*
X2332939Y1280438D01*
X2330350Y1281732D01*
X2327762Y1283396D01*
X2326467Y1284413D01*
X2325173Y1285430D01*
X2324063Y1286540D01*
X2322954Y1287834D01*
X2322861Y1287927D01*
X2322677Y1288111D01*
X2322492Y1288574D01*
X2322122Y1289036D01*
X2321660Y1289776D01*
X2321197Y1290515D01*
X2320735Y1291532D01*
X2320273Y1292549D01*
X2319718Y1293751D01*
X2319256Y1295046D01*
X2318793Y1296433D01*
X2318331Y1297912D01*
X2317961Y1299484D01*
X2317776Y1301148D01*
X2317592Y1302904D01*
X2317499Y1304754D01*
Y1305771D01*
X2317592Y1306510D01*
Y1307342D01*
X2317684Y1308359D01*
X2317869Y1309469D01*
X2318054Y1310763D01*
X2318516Y1313444D01*
X2319256Y1316218D01*
X2320273Y1318992D01*
X2320920Y1320286D01*
X2321660Y1321581D01*
X2321752Y1321673D01*
X2321844Y1321858D01*
X2322122Y1322228D01*
X2322492Y1322598D01*
X2322861Y1323152D01*
X2323416Y1323799D01*
X2324063Y1324539D01*
X2324803Y1325279D01*
X2325635Y1326018D01*
X2326467Y1326851D01*
X2328594Y1328515D01*
X2331090Y1330086D01*
X2333864Y1331473D01*
X2333956D01*
X2334234Y1331658D01*
X2334696Y1331751D01*
X2335251Y1332028D01*
X2335990Y1332213D01*
X2336915Y1332490D01*
X2337932Y1332860D01*
X2339041Y1333138D01*
X2340243Y1333415D01*
X2341630Y1333785D01*
X2344496Y1334247D01*
X2347732Y1334617D01*
X2351061Y1334802D01*
X2351153D01*
X2351523D01*
X2352078D01*
X2352725Y1334709D01*
D02*
G37*
G36*
X2366778Y1264905D02*
X2366963Y1264720D01*
X2367055Y1264350D01*
X2367333Y1263888D01*
X2367610Y1263333D01*
X2367980Y1262686D01*
X2368905Y1261114D01*
X2369922Y1259265D01*
X2371216Y1257416D01*
X2372695Y1255475D01*
X2374267Y1253533D01*
X2374359Y1253440D01*
X2374452Y1253348D01*
X2374729Y1253071D01*
X2375007Y1252701D01*
X2375931Y1251869D01*
X2377041Y1250759D01*
X2378335Y1249650D01*
X2379814Y1248448D01*
X2381294Y1247431D01*
X2382865Y1246506D01*
Y1241421D01*
X2318609D01*
Y1249280D01*
X2368627D01*
X2368535Y1249372D01*
X2368165Y1249835D01*
X2367610Y1250389D01*
X2366963Y1251314D01*
X2366131Y1252331D01*
X2365206Y1253625D01*
X2364189Y1255105D01*
X2363172Y1256769D01*
Y1256861D01*
X2363080Y1256954D01*
X2362710Y1257509D01*
X2362248Y1258433D01*
X2361693Y1259543D01*
X2361046Y1260837D01*
X2360399Y1262224D01*
X2359751Y1263611D01*
X2359197Y1264997D01*
X2366778D01*
Y1264905D01*
D02*
G37*
G36*
X2353002Y1221173D02*
X2354112D01*
X2355314Y1221081D01*
X2356700Y1220988D01*
X2359567Y1220711D01*
X2362618Y1220249D01*
X2365669Y1219694D01*
X2367055Y1219324D01*
X2368442Y1218954D01*
X2368535D01*
X2368720Y1218862D01*
X2369089Y1218677D01*
X2369552Y1218492D01*
X2370199Y1218307D01*
X2370846Y1217937D01*
X2372418Y1217198D01*
X2374082Y1216273D01*
X2375839Y1215071D01*
X2377595Y1213684D01*
X2379075Y1212020D01*
Y1211928D01*
X2379260Y1211835D01*
X2379445Y1211558D01*
X2379629Y1211188D01*
X2379999Y1210726D01*
X2380277Y1210171D01*
X2381016Y1208784D01*
X2381664Y1207120D01*
X2382311Y1205178D01*
X2382681Y1202867D01*
X2382865Y1200371D01*
Y1199539D01*
X2382773Y1198522D01*
X2382588Y1197320D01*
X2382311Y1195933D01*
X2381941Y1194454D01*
X2381479Y1192882D01*
X2380739Y1191402D01*
Y1191310D01*
X2380646Y1191218D01*
X2380369Y1190755D01*
X2379907Y1190016D01*
X2379260Y1189091D01*
X2378335Y1188074D01*
X2377318Y1186965D01*
X2376116Y1185948D01*
X2374729Y1184931D01*
X2374544Y1184838D01*
X2374082Y1184468D01*
X2373250Y1184098D01*
X2372048Y1183451D01*
X2370661Y1182897D01*
X2369089Y1182157D01*
X2367240Y1181510D01*
X2365206Y1180955D01*
X2365114D01*
X2364929Y1180863D01*
X2364652Y1180770D01*
X2364189Y1180678D01*
X2363635Y1180585D01*
X2362987Y1180493D01*
X2362155Y1180308D01*
X2361231Y1180215D01*
X2360214Y1180030D01*
X2359104Y1179938D01*
X2357810Y1179845D01*
X2356515Y1179661D01*
X2355036Y1179568D01*
X2353557D01*
X2351893Y1179476D01*
X2350136D01*
X2350044D01*
X2349674D01*
X2349027D01*
X2348287D01*
X2347270Y1179568D01*
X2346160D01*
X2344958Y1179661D01*
X2343664Y1179753D01*
X2340706Y1180030D01*
X2337654Y1180493D01*
X2334696Y1181047D01*
X2333309Y1181417D01*
X2331922Y1181880D01*
X2331830D01*
X2331645Y1181972D01*
X2331275Y1182157D01*
X2330813Y1182342D01*
X2330166Y1182527D01*
X2329518Y1182897D01*
X2327947Y1183636D01*
X2326282Y1184561D01*
X2324433Y1185763D01*
X2322769Y1187150D01*
X2321197Y1188814D01*
Y1188906D01*
X2321012Y1188999D01*
X2320827Y1189276D01*
X2320643Y1189646D01*
X2320365Y1190108D01*
X2319995Y1190570D01*
X2319348Y1191957D01*
X2318701Y1193621D01*
X2318054Y1195563D01*
X2317684Y1197874D01*
X2317499Y1200371D01*
Y1201295D01*
X2317592Y1201942D01*
X2317684Y1202682D01*
X2317869Y1203607D01*
X2318054Y1204624D01*
X2318331Y1205733D01*
X2318701Y1206843D01*
X2319071Y1208045D01*
X2319626Y1209247D01*
X2320273Y1210448D01*
X2321012Y1211650D01*
X2321937Y1212852D01*
X2322954Y1213962D01*
X2324063Y1214979D01*
X2324156Y1215071D01*
X2324433Y1215256D01*
X2324896Y1215534D01*
X2325635Y1215996D01*
X2326467Y1216458D01*
X2327577Y1216920D01*
X2328871Y1217568D01*
X2330350Y1218122D01*
X2332015Y1218677D01*
X2333956Y1219232D01*
X2336083Y1219786D01*
X2338487Y1220249D01*
X2341075Y1220711D01*
X2343849Y1220988D01*
X2346900Y1221173D01*
X2350136Y1221266D01*
X2350228D01*
X2350598D01*
X2351245D01*
X2351985D01*
X2353002Y1221173D01*
D02*
G37*
G36*
X3348659Y1503269D02*
X3349861D01*
X3351248Y1503176D01*
X3352634Y1502991D01*
X3355778Y1502714D01*
X3359106Y1502252D01*
X3362250Y1501604D01*
X3363822Y1501142D01*
X3365208Y1500680D01*
X3365301D01*
X3365486Y1500587D01*
X3365856Y1500402D01*
X3366410Y1500217D01*
X3366965Y1499940D01*
X3367705Y1499570D01*
X3369276Y1498646D01*
X3371033Y1497536D01*
X3372882Y1496242D01*
X3374639Y1494578D01*
X3376211Y1492729D01*
Y1492636D01*
X3376396Y1492451D01*
X3376580Y1492174D01*
X3376765Y1491804D01*
X3377043Y1491249D01*
X3377413Y1490695D01*
X3377782Y1489955D01*
X3378060Y1489215D01*
X3378799Y1487459D01*
X3379447Y1485332D01*
X3379816Y1483021D01*
X3380001Y1480432D01*
Y1479692D01*
X3379909Y1479230D01*
Y1478583D01*
X3379816Y1477843D01*
X3379447Y1476086D01*
X3378984Y1474145D01*
X3378245Y1472111D01*
X3377228Y1470077D01*
X3376580Y1469060D01*
X3375841Y1468135D01*
X3375748Y1468043D01*
X3375656Y1467950D01*
X3375379Y1467673D01*
X3375101Y1467396D01*
X3374639Y1467026D01*
X3374084Y1466563D01*
X3372790Y1465639D01*
X3371126Y1464714D01*
X3369092Y1463790D01*
X3366780Y1463050D01*
X3364099Y1462495D01*
X3363452Y1470077D01*
X3363544D01*
X3363729Y1470169D01*
X3363914D01*
X3364284Y1470262D01*
X3365301Y1470539D01*
X3366410Y1470909D01*
X3367705Y1471371D01*
X3368999Y1472018D01*
X3370201Y1472758D01*
X3371218Y1473683D01*
X3371311Y1473775D01*
X3371588Y1474145D01*
X3371958Y1474792D01*
X3372328Y1475532D01*
X3372790Y1476549D01*
X3373160Y1477751D01*
X3373437Y1479138D01*
X3373529Y1480617D01*
Y1481264D01*
X3373437Y1481911D01*
X3373345Y1482743D01*
X3373160Y1483760D01*
X3372882Y1484777D01*
X3372512Y1485887D01*
X3371958Y1486904D01*
X3371865Y1486996D01*
X3371680Y1487366D01*
X3371311Y1487921D01*
X3370756Y1488476D01*
X3370109Y1489215D01*
X3369369Y1489955D01*
X3368537Y1490695D01*
X3367520Y1491434D01*
X3367427Y1491527D01*
X3366965Y1491712D01*
X3366318Y1492081D01*
X3365486Y1492451D01*
X3364376Y1492913D01*
X3363082Y1493376D01*
X3361603Y1493838D01*
X3359938Y1494300D01*
X3359846D01*
X3359754Y1494393D01*
X3359476D01*
X3359106Y1494485D01*
X3358182Y1494670D01*
X3356980Y1494947D01*
X3355501Y1495132D01*
X3353929Y1495317D01*
X3352172Y1495410D01*
X3350323Y1495502D01*
X3350231D01*
X3349953D01*
X3349491D01*
X3348751D01*
X3348936Y1495410D01*
X3349398Y1495040D01*
X3350046Y1494485D01*
X3350970Y1493838D01*
X3351895Y1492913D01*
X3352912Y1491804D01*
X3353929Y1490510D01*
X3354853Y1489030D01*
X3354946Y1488845D01*
X3355223Y1488291D01*
X3355593Y1487459D01*
X3355963Y1486442D01*
X3356425Y1485055D01*
X3356795Y1483575D01*
X3357072Y1481911D01*
X3357165Y1480155D01*
Y1479415D01*
X3357072Y1478860D01*
X3356980Y1478120D01*
X3356887Y1477381D01*
X3356702Y1476456D01*
X3356425Y1475532D01*
X3355778Y1473405D01*
X3355316Y1472296D01*
X3354761Y1471186D01*
X3354114Y1469984D01*
X3353282Y1468875D01*
X3352449Y1467765D01*
X3351432Y1466748D01*
X3351340Y1466656D01*
X3351155Y1466471D01*
X3350878Y1466286D01*
X3350415Y1465916D01*
X3349768Y1465454D01*
X3349121Y1464992D01*
X3348289Y1464529D01*
X3347364Y1464067D01*
X3346347Y1463512D01*
X3345238Y1463050D01*
X3343944Y1462588D01*
X3342649Y1462126D01*
X3341170Y1461756D01*
X3339598Y1461571D01*
X3338026Y1461386D01*
X3336270Y1461293D01*
X3336177D01*
X3335807D01*
X3335345D01*
X3334698Y1461386D01*
X3333866Y1461478D01*
X3332849Y1461571D01*
X3331832Y1461756D01*
X3330630Y1462033D01*
X3328226Y1462680D01*
X3326932Y1463143D01*
X3325545Y1463697D01*
X3324250Y1464345D01*
X3323048Y1465177D01*
X3321754Y1466009D01*
X3320645Y1467026D01*
X3320552Y1467118D01*
X3320367Y1467303D01*
X3320090Y1467581D01*
X3319720Y1468043D01*
X3319258Y1468598D01*
X3318703Y1469337D01*
X3318241Y1470077D01*
X3317594Y1471001D01*
X3317039Y1471926D01*
X3316577Y1473035D01*
X3315560Y1475532D01*
X3315190Y1476826D01*
X3314912Y1478305D01*
X3314727Y1479785D01*
X3314635Y1481356D01*
Y1482004D01*
X3314727Y1482466D01*
Y1482928D01*
X3314820Y1483575D01*
X3315097Y1485147D01*
X3315467Y1486904D01*
X3316114Y1488845D01*
X3316946Y1490787D01*
X3318056Y1492729D01*
Y1492821D01*
X3318241Y1492913D01*
X3318426Y1493191D01*
X3318703Y1493561D01*
X3319443Y1494485D01*
X3320460Y1495687D01*
X3321847Y1496889D01*
X3323511Y1498276D01*
X3325452Y1499478D01*
X3327671Y1500587D01*
X3327764D01*
X3327949Y1500680D01*
X3328318Y1500865D01*
X3328781Y1501050D01*
X3329428Y1501234D01*
X3330260Y1501512D01*
X3331185Y1501697D01*
X3332202Y1501974D01*
X3333404Y1502252D01*
X3334790Y1502529D01*
X3336270Y1502714D01*
X3337841Y1502899D01*
X3339598Y1503084D01*
X3341447Y1503269D01*
X3343481Y1503361D01*
X3345608D01*
X3345700D01*
X3346162D01*
X3346810D01*
X3347642D01*
X3348659Y1503269D01*
D02*
G37*
G36*
X3359106Y1453989D02*
X3359661Y1453805D01*
X3360401Y1453527D01*
X3361233Y1453250D01*
X3362250Y1452880D01*
X3363359Y1452418D01*
X3364561Y1451863D01*
X3367150Y1450569D01*
X3369739Y1448904D01*
X3371033Y1447887D01*
X3372328Y1446870D01*
X3373437Y1445761D01*
X3374546Y1444467D01*
X3374639Y1444374D01*
X3374824Y1444189D01*
X3375009Y1443727D01*
X3375379Y1443265D01*
X3375841Y1442525D01*
X3376303Y1441785D01*
X3376765Y1440768D01*
X3377228Y1439751D01*
X3377782Y1438549D01*
X3378245Y1437255D01*
X3378707Y1435868D01*
X3379169Y1434389D01*
X3379539Y1432817D01*
X3379724Y1431153D01*
X3379909Y1429396D01*
X3380001Y1427547D01*
Y1426530D01*
X3379909Y1425790D01*
Y1424958D01*
X3379816Y1423941D01*
X3379632Y1422832D01*
X3379447Y1421537D01*
X3378984Y1418856D01*
X3378245Y1416083D01*
X3377228Y1413309D01*
X3376580Y1412014D01*
X3375841Y1410720D01*
X3375748Y1410628D01*
X3375656Y1410443D01*
X3375379Y1410073D01*
X3375009Y1409703D01*
X3374639Y1409148D01*
X3374084Y1408501D01*
X3373437Y1407761D01*
X3372697Y1407022D01*
X3371865Y1406282D01*
X3371033Y1405450D01*
X3368907Y1403786D01*
X3366410Y1402214D01*
X3363637Y1400827D01*
X3363544D01*
X3363267Y1400642D01*
X3362805Y1400550D01*
X3362250Y1400273D01*
X3361510Y1400088D01*
X3360586Y1399810D01*
X3359569Y1399440D01*
X3358459Y1399163D01*
X3357257Y1398886D01*
X3355870Y1398516D01*
X3353004Y1398054D01*
X3349768Y1397684D01*
X3346440Y1397499D01*
X3346347D01*
X3345978D01*
X3345423D01*
X3344776Y1397591D01*
X3343851D01*
X3342927Y1397684D01*
X3341725Y1397776D01*
X3340523Y1397961D01*
X3337841Y1398423D01*
X3334883Y1399071D01*
X3331924Y1399995D01*
X3329058Y1401290D01*
X3328966Y1401382D01*
X3328688Y1401474D01*
X3328318Y1401659D01*
X3327856Y1402029D01*
X3327209Y1402399D01*
X3326469Y1402861D01*
X3324805Y1404063D01*
X3322956Y1405635D01*
X3321107Y1407484D01*
X3319258Y1409611D01*
X3317686Y1412107D01*
X3317594Y1412199D01*
X3317501Y1412477D01*
X3317316Y1412847D01*
X3317039Y1413309D01*
X3316761Y1414048D01*
X3316484Y1414788D01*
X3316114Y1415713D01*
X3315744Y1416730D01*
X3315375Y1417839D01*
X3315005Y1419041D01*
X3314450Y1421630D01*
X3313988Y1424588D01*
X3313803Y1427640D01*
Y1428564D01*
X3313895Y1429211D01*
X3313988Y1430043D01*
X3314080Y1431060D01*
X3314173Y1432077D01*
X3314450Y1433279D01*
X3315005Y1435776D01*
X3315837Y1438549D01*
X3316392Y1439936D01*
X3317039Y1441231D01*
X3317871Y1442525D01*
X3318703Y1443819D01*
X3318795Y1443912D01*
X3318888Y1444097D01*
X3319165Y1444467D01*
X3319628Y1444929D01*
X3320090Y1445391D01*
X3320737Y1446038D01*
X3321477Y1446685D01*
X3322216Y1447425D01*
X3323141Y1448165D01*
X3324250Y1448904D01*
X3325360Y1449736D01*
X3326562Y1450476D01*
X3327949Y1451123D01*
X3329335Y1451863D01*
X3330815Y1452418D01*
X3332479Y1452972D01*
X3334421Y1444651D01*
X3334328D01*
X3334143Y1444559D01*
X3333773Y1444374D01*
X3333311Y1444189D01*
X3332756Y1444004D01*
X3332017Y1443727D01*
X3330537Y1442987D01*
X3328873Y1442063D01*
X3327209Y1440953D01*
X3325637Y1439566D01*
X3324250Y1438087D01*
X3324065Y1437902D01*
X3323696Y1437347D01*
X3323233Y1436423D01*
X3322586Y1435221D01*
X3322031Y1433649D01*
X3321477Y1431892D01*
X3321107Y1429766D01*
X3321014Y1427455D01*
Y1426715D01*
X3321107Y1426253D01*
Y1425605D01*
X3321199Y1424866D01*
X3321477Y1423109D01*
X3321847Y1421168D01*
X3322494Y1419134D01*
X3323418Y1417007D01*
X3324620Y1415065D01*
Y1414973D01*
X3324805Y1414881D01*
X3325267Y1414233D01*
X3326007Y1413401D01*
X3327117Y1412384D01*
X3328503Y1411182D01*
X3330075Y1410073D01*
X3332017Y1409056D01*
X3334143Y1408131D01*
X3334236D01*
X3334421Y1408039D01*
X3334698Y1407946D01*
X3335160Y1407854D01*
X3335715Y1407669D01*
X3336362Y1407484D01*
X3337934Y1407207D01*
X3339783Y1406837D01*
X3341817Y1406467D01*
X3344036Y1406282D01*
X3346440Y1406190D01*
X3346532D01*
X3346810D01*
X3347272D01*
X3347827D01*
X3348474Y1406282D01*
X3349306D01*
X3350231Y1406375D01*
X3351248Y1406467D01*
X3353466Y1406744D01*
X3355870Y1407207D01*
X3358274Y1407761D01*
X3360678Y1408501D01*
X3360771D01*
X3360955Y1408594D01*
X3361233Y1408778D01*
X3361695Y1408963D01*
X3362805Y1409518D01*
X3364099Y1410350D01*
X3365578Y1411367D01*
X3367150Y1412662D01*
X3368537Y1414141D01*
X3369831Y1415898D01*
Y1415990D01*
X3369924Y1416175D01*
X3370109Y1416452D01*
X3370293Y1416822D01*
X3370478Y1417284D01*
X3370756Y1417839D01*
X3371311Y1419134D01*
X3371865Y1420798D01*
X3372328Y1422647D01*
X3372697Y1424681D01*
X3372790Y1426807D01*
Y1427455D01*
X3372697Y1428009D01*
Y1428657D01*
X3372605Y1429304D01*
X3372235Y1430968D01*
X3371773Y1432910D01*
X3371033Y1434851D01*
X3370016Y1436885D01*
X3369461Y1437902D01*
X3368722Y1438827D01*
X3368629Y1438919D01*
X3368537Y1439012D01*
X3368259Y1439289D01*
X3367982Y1439659D01*
X3367520Y1440029D01*
X3366965Y1440491D01*
X3366410Y1441046D01*
X3365671Y1441508D01*
X3364839Y1442063D01*
X3363914Y1442710D01*
X3362989Y1443265D01*
X3361880Y1443819D01*
X3360678Y1444282D01*
X3359384Y1444744D01*
X3357997Y1445206D01*
X3356518Y1445576D01*
X3358644Y1454082D01*
X3358736D01*
X3359106Y1453989D01*
D02*
G37*
G36*
X2915225Y821547D02*
X2916149D01*
X2917074Y821455D01*
X2918276Y821362D01*
X2919478Y821177D01*
X2922159Y820715D01*
X2925117Y820068D01*
X2928076Y819143D01*
X2930942Y817849D01*
X2931035Y817757D01*
X2931312Y817664D01*
X2931682Y817479D01*
X2932144Y817109D01*
X2932791Y816740D01*
X2933531Y816277D01*
X2935195Y815075D01*
X2937044Y813504D01*
X2938893Y811654D01*
X2940742Y809528D01*
X2942314Y807032D01*
X2942407Y806939D01*
X2942499Y806662D01*
X2942684Y806292D01*
X2942961Y805830D01*
X2943239Y805090D01*
X2943516Y804350D01*
X2943886Y803426D01*
X2944256Y802409D01*
X2944626Y801299D01*
X2944995Y800097D01*
X2945550Y797509D01*
X2946012Y794550D01*
X2946197Y791499D01*
Y790574D01*
X2946105Y789927D01*
X2946012Y789095D01*
X2945920Y788078D01*
X2945827Y787061D01*
X2945550Y785859D01*
X2944995Y783363D01*
X2944163Y780589D01*
X2943609Y779202D01*
X2942961Y777908D01*
X2942129Y776614D01*
X2941297Y775319D01*
X2941205Y775227D01*
X2941112Y775042D01*
X2940835Y774672D01*
X2940373Y774210D01*
X2939910Y773747D01*
X2939263Y773100D01*
X2938523Y772453D01*
X2937784Y771713D01*
X2936859Y770974D01*
X2935750Y770234D01*
X2934640Y769402D01*
X2933438Y768662D01*
X2932052Y768015D01*
X2930665Y767276D01*
X2929185Y766721D01*
X2927521Y766166D01*
X2925580Y774487D01*
X2925672D01*
X2925857Y774580D01*
X2926227Y774765D01*
X2926689Y774949D01*
X2927244Y775134D01*
X2927983Y775412D01*
X2929463Y776151D01*
X2931127Y777076D01*
X2932791Y778185D01*
X2934363Y779572D01*
X2935750Y781052D01*
X2935935Y781236D01*
X2936305Y781791D01*
X2936767Y782716D01*
X2937414Y783918D01*
X2937969Y785489D01*
X2938523Y787246D01*
X2938893Y789373D01*
X2938986Y791684D01*
Y792424D01*
X2938893Y792886D01*
Y793533D01*
X2938801Y794273D01*
X2938523Y796029D01*
X2938154Y797971D01*
X2937506Y800005D01*
X2936582Y802131D01*
X2935380Y804073D01*
Y804166D01*
X2935195Y804258D01*
X2934733Y804905D01*
X2933993Y805737D01*
X2932884Y806754D01*
X2931497Y807956D01*
X2929925Y809066D01*
X2927983Y810083D01*
X2925857Y811007D01*
X2925765D01*
X2925580Y811100D01*
X2925302Y811192D01*
X2924840Y811285D01*
X2924285Y811470D01*
X2923638Y811654D01*
X2922066Y811932D01*
X2920217Y812302D01*
X2918183Y812671D01*
X2915964Y812856D01*
X2913560Y812949D01*
X2913468D01*
X2913191D01*
X2912728D01*
X2912173D01*
X2911526Y812856D01*
X2910694D01*
X2909770Y812764D01*
X2908753Y812671D01*
X2906534Y812394D01*
X2904130Y811932D01*
X2901726Y811377D01*
X2899322Y810637D01*
X2899230D01*
X2899045Y810545D01*
X2898767Y810360D01*
X2898305Y810175D01*
X2897196Y809620D01*
X2895901Y808788D01*
X2894422Y807771D01*
X2892850Y806477D01*
X2891463Y804998D01*
X2890169Y803241D01*
Y803149D01*
X2890077Y802964D01*
X2889892Y802686D01*
X2889707Y802316D01*
X2889522Y801854D01*
X2889244Y801299D01*
X2888690Y800005D01*
X2888135Y798341D01*
X2887673Y796492D01*
X2887303Y794458D01*
X2887210Y792331D01*
Y791684D01*
X2887303Y791129D01*
Y790482D01*
X2887395Y789835D01*
X2887765Y788171D01*
X2888227Y786229D01*
X2888967Y784287D01*
X2889984Y782253D01*
X2890539Y781236D01*
X2891278Y780312D01*
X2891371Y780219D01*
X2891463Y780127D01*
X2891741Y779850D01*
X2892018Y779480D01*
X2892480Y779110D01*
X2893035Y778648D01*
X2893590Y778093D01*
X2894329Y777631D01*
X2895162Y777076D01*
X2896086Y776429D01*
X2897011Y775874D01*
X2898120Y775319D01*
X2899322Y774857D01*
X2900616Y774395D01*
X2902003Y773932D01*
X2903483Y773563D01*
X2901356Y765057D01*
X2901264D01*
X2900894Y765149D01*
X2900339Y765334D01*
X2899599Y765611D01*
X2898767Y765889D01*
X2897750Y766259D01*
X2896641Y766721D01*
X2895439Y767276D01*
X2892850Y768570D01*
X2890261Y770234D01*
X2888967Y771251D01*
X2887673Y772268D01*
X2886563Y773378D01*
X2885454Y774672D01*
X2885361Y774765D01*
X2885176Y774949D01*
X2884991Y775412D01*
X2884622Y775874D01*
X2884159Y776614D01*
X2883697Y777353D01*
X2883235Y778370D01*
X2882772Y779387D01*
X2882218Y780589D01*
X2881755Y781884D01*
X2881293Y783270D01*
X2880831Y784750D01*
X2880461Y786322D01*
X2880276Y787986D01*
X2880091Y789742D01*
X2879999Y791592D01*
Y792609D01*
X2880091Y793348D01*
Y794180D01*
X2880184Y795197D01*
X2880369Y796307D01*
X2880554Y797601D01*
X2881016Y800282D01*
X2881755Y803056D01*
X2882772Y805830D01*
X2883420Y807124D01*
X2884159Y808418D01*
X2884252Y808511D01*
X2884344Y808696D01*
X2884622Y809066D01*
X2884991Y809436D01*
X2885361Y809990D01*
X2885916Y810637D01*
X2886563Y811377D01*
X2887303Y812117D01*
X2888135Y812856D01*
X2888967Y813688D01*
X2891094Y815353D01*
X2893590Y816924D01*
X2896364Y818311D01*
X2896456D01*
X2896733Y818496D01*
X2897196Y818589D01*
X2897750Y818866D01*
X2898490Y819051D01*
X2899415Y819328D01*
X2900432Y819698D01*
X2901541Y819975D01*
X2902743Y820253D01*
X2904130Y820623D01*
X2906996Y821085D01*
X2910232Y821455D01*
X2913560Y821640D01*
X2913653D01*
X2914023D01*
X2914577D01*
X2915225Y821547D01*
D02*
G37*
G36*
X2944256Y715870D02*
X2938061D01*
X2937969Y715963D01*
X2937784Y716147D01*
X2937414Y716517D01*
X2936859Y716887D01*
X2936212Y717442D01*
X2935472Y718181D01*
X2934548Y718921D01*
X2933438Y719753D01*
X2932329Y720585D01*
X2931035Y721602D01*
X2929555Y722619D01*
X2928076Y723636D01*
X2926412Y724746D01*
X2924655Y725855D01*
X2922713Y726965D01*
X2920772Y728074D01*
X2920679Y728167D01*
X2920310Y728352D01*
X2919755Y728629D01*
X2918923Y729091D01*
X2917906Y729554D01*
X2916796Y730108D01*
X2915502Y730755D01*
X2914023Y731403D01*
X2912358Y732142D01*
X2910694Y732974D01*
X2908845Y733714D01*
X2906904Y734454D01*
X2902928Y735933D01*
X2898675Y737320D01*
X2898582D01*
X2898305Y737412D01*
X2897843Y737505D01*
X2897288Y737690D01*
X2896548Y737875D01*
X2895624Y738059D01*
X2894607Y738337D01*
X2893497Y738522D01*
X2892203Y738799D01*
X2890816Y739076D01*
X2887858Y739539D01*
X2884622Y740001D01*
X2881108Y740278D01*
Y748322D01*
X2881201D01*
X2881478D01*
X2881848D01*
X2882403Y748230D01*
X2883142D01*
X2884067Y748137D01*
X2885084Y748045D01*
X2886193Y747952D01*
X2887488Y747767D01*
X2888782Y747582D01*
X2890354Y747305D01*
X2891926Y747028D01*
X2893590Y746750D01*
X2895439Y746381D01*
X2899230Y745456D01*
X2899322D01*
X2899692Y745364D01*
X2900247Y745179D01*
X2901079Y744901D01*
X2902003Y744624D01*
X2903113Y744254D01*
X2904407Y743884D01*
X2905794Y743329D01*
X2907366Y742775D01*
X2908938Y742220D01*
X2912451Y740833D01*
X2916149Y739169D01*
X2919847Y737320D01*
X2919940Y737227D01*
X2920310Y737042D01*
X2920772Y736765D01*
X2921512Y736395D01*
X2922344Y735933D01*
X2923361Y735286D01*
X2924470Y734639D01*
X2925672Y733899D01*
X2928353Y732142D01*
X2931127Y730293D01*
X2933993Y728167D01*
X2936674Y725948D01*
Y757290D01*
X2944256D01*
Y715870D01*
D02*
G37*
G36*
X3040225Y484909D02*
X3041149D01*
X3042074Y484816D01*
X3043276Y484724D01*
X3044478Y484539D01*
X3047159Y484077D01*
X3050117Y483430D01*
X3053076Y482505D01*
X3055942Y481211D01*
X3056035Y481118D01*
X3056312Y481026D01*
X3056682Y480841D01*
X3057144Y480471D01*
X3057791Y480101D01*
X3058531Y479639D01*
X3060195Y478437D01*
X3062044Y476865D01*
X3063893Y475016D01*
X3065742Y472890D01*
X3067314Y470393D01*
X3067407Y470301D01*
X3067499Y470023D01*
X3067684Y469654D01*
X3067961Y469191D01*
X3068239Y468452D01*
X3068516Y467712D01*
X3068886Y466787D01*
X3069256Y465770D01*
X3069626Y464661D01*
X3069995Y463459D01*
X3070550Y460870D01*
X3071012Y457912D01*
X3071197Y454861D01*
Y453936D01*
X3071105Y453289D01*
X3071012Y452457D01*
X3070920Y451440D01*
X3070827Y450423D01*
X3070550Y449221D01*
X3069995Y446725D01*
X3069163Y443951D01*
X3068609Y442564D01*
X3067961Y441270D01*
X3067129Y439975D01*
X3066297Y438681D01*
X3066205Y438588D01*
X3066112Y438403D01*
X3065835Y438034D01*
X3065373Y437571D01*
X3064910Y437109D01*
X3064263Y436462D01*
X3063523Y435815D01*
X3062784Y435075D01*
X3061859Y434335D01*
X3060750Y433596D01*
X3059640Y432764D01*
X3058438Y432024D01*
X3057052Y431377D01*
X3055665Y430637D01*
X3054185Y430082D01*
X3052521Y429528D01*
X3050580Y437849D01*
X3050672D01*
X3050857Y437941D01*
X3051227Y438126D01*
X3051689Y438311D01*
X3052244Y438496D01*
X3052983Y438773D01*
X3054463Y439513D01*
X3056127Y440438D01*
X3057791Y441547D01*
X3059363Y442934D01*
X3060750Y444413D01*
X3060935Y444598D01*
X3061305Y445153D01*
X3061767Y446077D01*
X3062414Y447279D01*
X3062969Y448851D01*
X3063523Y450608D01*
X3063893Y452734D01*
X3063986Y455046D01*
Y455785D01*
X3063893Y456248D01*
Y456895D01*
X3063801Y457634D01*
X3063523Y459391D01*
X3063154Y461333D01*
X3062506Y463367D01*
X3061582Y465493D01*
X3060380Y467435D01*
Y467527D01*
X3060195Y467620D01*
X3059733Y468267D01*
X3058993Y469099D01*
X3057884Y470116D01*
X3056497Y471318D01*
X3054925Y472427D01*
X3052983Y473444D01*
X3050857Y474369D01*
X3050765D01*
X3050580Y474461D01*
X3050302Y474554D01*
X3049840Y474646D01*
X3049285Y474831D01*
X3048638Y475016D01*
X3047066Y475293D01*
X3045217Y475663D01*
X3043183Y476033D01*
X3040964Y476218D01*
X3038560Y476310D01*
X3038468D01*
X3038191D01*
X3037728D01*
X3037174D01*
X3036526Y476218D01*
X3035694D01*
X3034770Y476126D01*
X3033753Y476033D01*
X3031534Y475756D01*
X3029130Y475293D01*
X3026726Y474739D01*
X3024322Y473999D01*
X3024230D01*
X3024045Y473907D01*
X3023767Y473722D01*
X3023305Y473537D01*
X3022196Y472982D01*
X3020901Y472150D01*
X3019422Y471133D01*
X3017850Y469839D01*
X3016463Y468359D01*
X3015169Y466603D01*
Y466510D01*
X3015077Y466325D01*
X3014892Y466048D01*
X3014707Y465678D01*
X3014522Y465216D01*
X3014244Y464661D01*
X3013690Y463367D01*
X3013135Y461702D01*
X3012673Y459853D01*
X3012303Y457819D01*
X3012210Y455693D01*
Y455046D01*
X3012303Y454491D01*
Y453844D01*
X3012395Y453196D01*
X3012765Y451532D01*
X3013227Y449591D01*
X3013967Y447649D01*
X3014984Y445615D01*
X3015539Y444598D01*
X3016278Y443673D01*
X3016371Y443581D01*
X3016463Y443489D01*
X3016741Y443211D01*
X3017018Y442841D01*
X3017480Y442472D01*
X3018035Y442009D01*
X3018590Y441455D01*
X3019329Y440992D01*
X3020162Y440438D01*
X3021086Y439790D01*
X3022011Y439236D01*
X3023120Y438681D01*
X3024322Y438219D01*
X3025617Y437756D01*
X3027003Y437294D01*
X3028483Y436924D01*
X3026356Y428418D01*
X3026264D01*
X3025894Y428511D01*
X3025339Y428696D01*
X3024599Y428973D01*
X3023767Y429250D01*
X3022750Y429620D01*
X3021641Y430082D01*
X3020439Y430637D01*
X3017850Y431932D01*
X3015261Y433596D01*
X3013967Y434613D01*
X3012673Y435630D01*
X3011563Y436739D01*
X3010454Y438034D01*
X3010361Y438126D01*
X3010176Y438311D01*
X3009991Y438773D01*
X3009622Y439236D01*
X3009159Y439975D01*
X3008697Y440715D01*
X3008235Y441732D01*
X3007772Y442749D01*
X3007218Y443951D01*
X3006755Y445245D01*
X3006293Y446632D01*
X3005831Y448111D01*
X3005461Y449683D01*
X3005276Y451347D01*
X3005091Y453104D01*
X3004999Y454953D01*
Y455970D01*
X3005091Y456710D01*
Y457542D01*
X3005184Y458559D01*
X3005369Y459668D01*
X3005554Y460963D01*
X3006016Y463644D01*
X3006755Y466418D01*
X3007772Y469191D01*
X3008420Y470486D01*
X3009159Y471780D01*
X3009252Y471873D01*
X3009344Y472057D01*
X3009622Y472427D01*
X3009991Y472797D01*
X3010361Y473352D01*
X3010916Y473999D01*
X3011563Y474739D01*
X3012303Y475478D01*
X3013135Y476218D01*
X3013967Y477050D01*
X3016094Y478714D01*
X3018590Y480286D01*
X3021364Y481673D01*
X3021456D01*
X3021733Y481858D01*
X3022196Y481950D01*
X3022750Y482228D01*
X3023490Y482413D01*
X3024415Y482690D01*
X3025432Y483060D01*
X3026541Y483337D01*
X3027743Y483614D01*
X3029130Y483984D01*
X3031996Y484447D01*
X3035232Y484816D01*
X3038560Y485001D01*
X3038653D01*
X3039023D01*
X3039577D01*
X3040225Y484909D01*
D02*
G37*
G36*
X3025524Y421207D02*
X3026079D01*
X3026726Y421114D01*
X3028205Y420929D01*
X3029869Y420559D01*
X3031534Y420005D01*
X3033290Y419173D01*
X3034955Y418156D01*
X3035047D01*
X3035139Y417971D01*
X3035602Y417601D01*
X3036341Y416861D01*
X3037266Y415844D01*
X3038191Y414550D01*
X3039208Y412978D01*
X3040040Y411221D01*
X3040687Y409095D01*
Y409187D01*
X3040779Y409280D01*
X3040872Y409557D01*
X3041057Y409927D01*
X3041426Y410759D01*
X3041981Y411869D01*
X3042721Y413071D01*
X3043645Y414272D01*
X3044662Y415382D01*
X3045772Y416399D01*
X3045957Y416491D01*
X3046327Y416769D01*
X3047066Y417139D01*
X3047991Y417508D01*
X3049193Y417971D01*
X3050580Y418341D01*
X3052151Y418618D01*
X3053816Y418710D01*
X3053908D01*
X3054093D01*
X3054463D01*
X3055018Y418618D01*
X3055572Y418525D01*
X3056312Y418433D01*
X3057884Y418063D01*
X3059733Y417508D01*
X3061674Y416584D01*
X3062691Y416029D01*
X3063708Y415382D01*
X3064633Y414550D01*
X3065557Y413718D01*
X3065650Y413625D01*
X3065742Y413440D01*
X3066020Y413163D01*
X3066297Y412793D01*
X3066667Y412331D01*
X3067037Y411684D01*
X3067499Y410944D01*
X3067961Y410204D01*
X3068424Y409280D01*
X3068886Y408263D01*
X3069256Y407153D01*
X3069626Y405951D01*
X3070180Y403363D01*
X3070273Y401883D01*
X3070365Y400404D01*
Y399572D01*
X3070273Y399017D01*
X3070180Y398278D01*
X3070088Y397445D01*
X3069995Y396521D01*
X3069718Y395596D01*
X3069163Y393377D01*
X3068331Y391158D01*
X3067776Y390049D01*
X3067129Y388940D01*
X3066297Y387923D01*
X3065465Y386905D01*
X3065373Y386813D01*
X3065280Y386721D01*
X3065003Y386443D01*
X3064633Y386073D01*
X3064078Y385704D01*
X3063523Y385241D01*
X3062137Y384317D01*
X3060380Y383392D01*
X3058346Y382560D01*
X3056035Y381913D01*
X3054833Y381820D01*
X3053538Y381728D01*
X3053446D01*
X3053353D01*
X3052799D01*
X3051966Y381820D01*
X3050949Y382005D01*
X3049655Y382283D01*
X3048361Y382745D01*
X3047066Y383300D01*
X3045772Y384132D01*
X3045587Y384224D01*
X3045217Y384594D01*
X3044662Y385149D01*
X3043923Y385888D01*
X3043091Y386905D01*
X3042259Y388107D01*
X3041426Y389494D01*
X3040687Y391158D01*
Y391066D01*
X3040594Y390881D01*
X3040502Y390604D01*
X3040317Y390234D01*
X3039855Y389124D01*
X3039208Y387830D01*
X3038283Y386443D01*
X3037266Y384964D01*
X3035972Y383577D01*
X3034492Y382283D01*
X3034400D01*
X3034307Y382190D01*
X3033753Y381820D01*
X3032828Y381266D01*
X3031626Y380711D01*
X3030147Y380156D01*
X3028390Y379601D01*
X3026449Y379232D01*
X3024322Y379139D01*
X3024230D01*
X3023952D01*
X3023490D01*
X3022935Y379232D01*
X3022288Y379324D01*
X3021456Y379417D01*
X3020531Y379601D01*
X3019514Y379879D01*
X3017388Y380526D01*
X3016186Y380988D01*
X3015077Y381636D01*
X3013875Y382283D01*
X3012765Y383022D01*
X3011656Y383947D01*
X3010546Y384964D01*
X3010454Y385056D01*
X3010269Y385241D01*
X3009991Y385519D01*
X3009714Y385981D01*
X3009252Y386628D01*
X3008790Y387275D01*
X3008327Y388107D01*
X3007772Y389032D01*
X3007218Y390049D01*
X3006755Y391251D01*
X3006293Y392545D01*
X3005831Y393840D01*
X3005554Y395319D01*
X3005276Y396891D01*
X3005091Y398462D01*
X3004999Y400219D01*
Y401144D01*
X3005091Y401791D01*
X3005184Y402623D01*
X3005276Y403548D01*
X3005461Y404565D01*
X3005738Y405674D01*
X3006386Y408170D01*
X3006848Y409465D01*
X3007310Y410667D01*
X3007957Y411961D01*
X3008697Y413255D01*
X3009529Y414457D01*
X3010546Y415567D01*
X3010639Y415659D01*
X3010824Y415844D01*
X3011101Y416122D01*
X3011563Y416491D01*
X3012118Y416861D01*
X3012765Y417416D01*
X3013505Y417878D01*
X3014429Y418433D01*
X3015354Y418988D01*
X3016463Y419450D01*
X3018775Y420375D01*
X3020162Y420744D01*
X3021548Y421022D01*
X3023028Y421207D01*
X3024507Y421299D01*
X3024599D01*
X3024784D01*
X3025154D01*
X3025524Y421207D01*
D02*
G37*
G36*
X3275001Y566101D02*
X3224982D01*
X3225075Y566009D01*
X3225445Y565547D01*
X3225999Y564992D01*
X3226647Y564067D01*
X3227479Y563050D01*
X3228403Y561756D01*
X3229420Y560277D01*
X3230437Y558613D01*
Y558520D01*
X3230530Y558428D01*
X3230900Y557873D01*
X3231362Y556948D01*
X3231917Y555839D01*
X3232564Y554544D01*
X3233211Y553158D01*
X3233858Y551771D01*
X3234413Y550384D01*
X3226831D01*
Y550476D01*
X3226647Y550661D01*
X3226554Y551031D01*
X3226277Y551493D01*
X3225999Y552048D01*
X3225630Y552695D01*
X3224705Y554267D01*
X3223688Y556116D01*
X3222394Y557965D01*
X3220914Y559907D01*
X3219343Y561849D01*
X3219250Y561941D01*
X3219158Y562033D01*
X3218880Y562311D01*
X3218603Y562681D01*
X3217678Y563513D01*
X3216569Y564622D01*
X3215274Y565732D01*
X3213795Y566934D01*
X3212316Y567951D01*
X3210744Y568875D01*
Y573960D01*
X3275001D01*
Y566101D01*
D02*
G37*
G36*
Y497499D02*
X3211022D01*
Y506005D01*
X3267420D01*
Y537533D01*
X3275001D01*
Y497499D01*
D02*
G37*
G36*
X2752724Y479909D02*
X2753649D01*
X2754573Y479816D01*
X2755775Y479724D01*
X2756977Y479539D01*
X2759658Y479077D01*
X2762617Y478429D01*
X2765576Y477505D01*
X2768442Y476210D01*
X2768534Y476118D01*
X2768812Y476025D01*
X2769181Y475841D01*
X2769644Y475471D01*
X2770291Y475101D01*
X2771031Y474639D01*
X2772695Y473437D01*
X2774544Y471865D01*
X2776393Y470016D01*
X2778242Y467889D01*
X2779814Y465393D01*
X2779906Y465301D01*
X2779999Y465023D01*
X2780184Y464653D01*
X2780461Y464191D01*
X2780738Y463451D01*
X2781016Y462712D01*
X2781386Y461787D01*
X2781755Y460770D01*
X2782125Y459661D01*
X2782495Y458459D01*
X2783050Y455870D01*
X2783512Y452911D01*
X2783697Y449860D01*
Y448936D01*
X2783605Y448289D01*
X2783512Y447457D01*
X2783420Y446440D01*
X2783327Y445423D01*
X2783050Y444221D01*
X2782495Y441724D01*
X2781663Y438951D01*
X2781108Y437564D01*
X2780461Y436269D01*
X2779629Y434975D01*
X2778797Y433681D01*
X2778704Y433588D01*
X2778612Y433403D01*
X2778335Y433033D01*
X2777872Y432571D01*
X2777410Y432109D01*
X2776763Y431462D01*
X2776023Y430814D01*
X2775284Y430075D01*
X2774359Y429335D01*
X2773249Y428596D01*
X2772140Y427763D01*
X2770938Y427024D01*
X2769551Y426377D01*
X2768164Y425637D01*
X2766685Y425082D01*
X2765021Y424527D01*
X2763079Y432849D01*
X2763172D01*
X2763357Y432941D01*
X2763727Y433126D01*
X2764189Y433311D01*
X2764744Y433496D01*
X2765483Y433773D01*
X2766962Y434513D01*
X2768627Y435437D01*
X2770291Y436547D01*
X2771863Y437934D01*
X2773249Y439413D01*
X2773434Y439598D01*
X2773804Y440153D01*
X2774266Y441077D01*
X2774914Y442279D01*
X2775468Y443851D01*
X2776023Y445607D01*
X2776393Y447734D01*
X2776485Y450045D01*
Y450785D01*
X2776393Y451247D01*
Y451894D01*
X2776301Y452634D01*
X2776023Y454391D01*
X2775653Y456332D01*
X2775006Y458366D01*
X2774082Y460493D01*
X2772880Y462434D01*
Y462527D01*
X2772695Y462619D01*
X2772232Y463267D01*
X2771493Y464099D01*
X2770383Y465116D01*
X2768996Y466318D01*
X2767425Y467427D01*
X2765483Y468444D01*
X2763357Y469369D01*
X2763264D01*
X2763079Y469461D01*
X2762802Y469554D01*
X2762340Y469646D01*
X2761785Y469831D01*
X2761138Y470016D01*
X2759566Y470293D01*
X2757717Y470663D01*
X2755683Y471033D01*
X2753464Y471218D01*
X2751060Y471310D01*
X2750968D01*
X2750690D01*
X2750228D01*
X2749673D01*
X2749026Y471218D01*
X2748194D01*
X2747269Y471125D01*
X2746252Y471033D01*
X2744033Y470755D01*
X2741630Y470293D01*
X2739226Y469738D01*
X2736822Y468999D01*
X2736729D01*
X2736544Y468906D01*
X2736267Y468721D01*
X2735805Y468537D01*
X2734695Y467982D01*
X2733401Y467150D01*
X2731922Y466133D01*
X2730350Y464838D01*
X2728963Y463359D01*
X2727669Y461602D01*
Y461510D01*
X2727576Y461325D01*
X2727391Y461048D01*
X2727206Y460678D01*
X2727021Y460215D01*
X2726744Y459661D01*
X2726189Y458366D01*
X2725635Y456702D01*
X2725172Y454853D01*
X2724803Y452819D01*
X2724710Y450693D01*
Y450045D01*
X2724803Y449491D01*
Y448843D01*
X2724895Y448196D01*
X2725265Y446532D01*
X2725727Y444590D01*
X2726467Y442649D01*
X2727484Y440615D01*
X2728038Y439598D01*
X2728778Y438673D01*
X2728871Y438581D01*
X2728963Y438488D01*
X2729240Y438211D01*
X2729518Y437841D01*
X2729980Y437471D01*
X2730535Y437009D01*
X2731090Y436454D01*
X2731829Y435992D01*
X2732661Y435437D01*
X2733586Y434790D01*
X2734510Y434235D01*
X2735620Y433681D01*
X2736822Y433218D01*
X2738116Y432756D01*
X2739503Y432294D01*
X2740982Y431924D01*
X2738856Y423418D01*
X2738763D01*
X2738394Y423510D01*
X2737839Y423695D01*
X2737099Y423973D01*
X2736267Y424250D01*
X2735250Y424620D01*
X2734141Y425082D01*
X2732939Y425637D01*
X2730350Y426931D01*
X2727761Y428596D01*
X2726467Y429613D01*
X2725172Y430630D01*
X2724063Y431739D01*
X2722953Y433033D01*
X2722861Y433126D01*
X2722676Y433311D01*
X2722491Y433773D01*
X2722121Y434235D01*
X2721659Y434975D01*
X2721197Y435715D01*
X2720734Y436732D01*
X2720272Y437749D01*
X2719717Y438951D01*
X2719255Y440245D01*
X2718793Y441632D01*
X2718331Y443111D01*
X2717961Y444683D01*
X2717776Y446347D01*
X2717591Y448104D01*
X2717499Y449953D01*
Y450970D01*
X2717591Y451710D01*
Y452542D01*
X2717683Y453559D01*
X2717868Y454668D01*
X2718053Y455963D01*
X2718516Y458644D01*
X2719255Y461417D01*
X2720272Y464191D01*
X2720919Y465485D01*
X2721659Y466780D01*
X2721751Y466872D01*
X2721844Y467057D01*
X2722121Y467427D01*
X2722491Y467797D01*
X2722861Y468352D01*
X2723416Y468999D01*
X2724063Y469738D01*
X2724803Y470478D01*
X2725635Y471218D01*
X2726467Y472050D01*
X2728593Y473714D01*
X2731090Y475286D01*
X2733863Y476673D01*
X2733956D01*
X2734233Y476858D01*
X2734695Y476950D01*
X2735250Y477227D01*
X2735990Y477412D01*
X2736914Y477690D01*
X2737931Y478059D01*
X2739041Y478337D01*
X2740243Y478614D01*
X2741630Y478984D01*
X2744496Y479446D01*
X2747732Y479816D01*
X2751060Y480001D01*
X2751152D01*
X2751522D01*
X2752077D01*
X2752724Y479909D01*
D02*
G37*
G36*
X2750228Y416484D02*
X2751522D01*
X2753002Y416391D01*
X2754758Y416206D01*
X2756700Y416022D01*
X2758826Y415744D01*
X2760953Y415374D01*
X2763264Y414912D01*
X2765483Y414357D01*
X2767702Y413710D01*
X2769829Y412878D01*
X2771863Y411953D01*
X2773804Y410936D01*
X2775468Y409735D01*
X2775561Y409642D01*
X2775746Y409457D01*
X2776116Y409087D01*
X2776670Y408625D01*
X2777225Y408070D01*
X2777780Y407331D01*
X2778519Y406406D01*
X2779167Y405482D01*
X2779814Y404372D01*
X2780553Y403170D01*
X2781108Y401783D01*
X2781755Y400396D01*
X2782218Y398825D01*
X2782588Y397160D01*
X2782772Y395404D01*
X2782865Y393555D01*
Y392815D01*
X2782772Y392260D01*
Y391613D01*
X2782680Y390873D01*
X2782310Y389117D01*
X2781848Y387175D01*
X2781108Y385141D01*
X2779999Y383107D01*
X2779352Y382090D01*
X2778612Y381166D01*
X2778519Y381073D01*
X2778427Y380981D01*
X2778150Y380703D01*
X2777872Y380426D01*
X2777410Y379964D01*
X2776855Y379594D01*
X2775561Y378577D01*
X2773897Y377560D01*
X2771863Y376635D01*
X2769551Y375803D01*
X2766962Y375248D01*
X2766315Y383107D01*
X2766408D01*
X2766500Y383200D01*
X2767055Y383292D01*
X2767887Y383569D01*
X2768904Y383939D01*
X2770014Y384309D01*
X2771123Y384864D01*
X2772140Y385511D01*
X2772972Y386158D01*
X2773157Y386343D01*
X2773527Y386713D01*
X2774082Y387360D01*
X2774729Y388285D01*
X2775284Y389487D01*
X2775838Y390781D01*
X2776208Y392353D01*
X2776393Y394017D01*
Y394664D01*
X2776301Y395404D01*
X2776116Y396236D01*
X2775838Y397345D01*
X2775468Y398455D01*
X2775006Y399564D01*
X2774266Y400674D01*
X2774174Y400859D01*
X2773804Y401321D01*
X2773157Y401968D01*
X2772232Y402800D01*
X2771123Y403725D01*
X2769829Y404742D01*
X2768164Y405666D01*
X2766315Y406591D01*
X2766223D01*
X2766038Y406683D01*
X2765761Y406776D01*
X2765391Y406961D01*
X2764836Y407053D01*
X2764189Y407238D01*
X2763449Y407423D01*
X2762525Y407608D01*
X2761508Y407885D01*
X2760398Y408070D01*
X2759196Y408255D01*
X2757902Y408348D01*
X2756422Y408533D01*
X2754943Y408625D01*
X2753279Y408717D01*
X2751615D01*
X2751707Y408625D01*
X2752262Y408255D01*
X2753002Y407608D01*
X2753926Y406776D01*
X2755036Y405851D01*
X2756053Y404649D01*
X2757070Y403355D01*
X2757994Y401876D01*
Y401783D01*
X2758087Y401691D01*
X2758364Y401136D01*
X2758641Y400304D01*
X2759104Y399195D01*
X2759474Y397900D01*
X2759751Y396421D01*
X2760028Y394849D01*
X2760121Y393185D01*
Y392445D01*
X2760028Y391891D01*
X2759936Y391151D01*
X2759843Y390411D01*
X2759658Y389487D01*
X2759381Y388562D01*
X2758734Y386436D01*
X2758272Y385326D01*
X2757624Y384217D01*
X2756977Y383107D01*
X2756238Y381905D01*
X2755313Y380796D01*
X2754296Y379779D01*
X2754204Y379686D01*
X2754019Y379501D01*
X2753741Y379224D01*
X2753279Y378947D01*
X2752632Y378484D01*
X2751985Y378022D01*
X2751152Y377560D01*
X2750228Y377005D01*
X2749211Y376450D01*
X2748101Y375988D01*
X2746807Y375526D01*
X2745513Y375064D01*
X2744126Y374786D01*
X2742554Y374509D01*
X2740982Y374324D01*
X2739318Y374231D01*
X2739226D01*
X2739041D01*
X2738763D01*
X2738301D01*
X2737746Y374324D01*
X2737192D01*
X2735712Y374601D01*
X2733956Y374879D01*
X2732107Y375341D01*
X2730073Y375988D01*
X2728131Y376913D01*
X2728038D01*
X2727946Y377005D01*
X2727669Y377190D01*
X2727299Y377375D01*
X2726374Y377930D01*
X2725172Y378762D01*
X2723878Y379779D01*
X2722584Y380981D01*
X2721289Y382460D01*
X2720180Y384032D01*
Y384124D01*
X2720087Y384217D01*
X2719902Y384494D01*
X2719810Y384864D01*
X2719348Y385788D01*
X2718885Y386990D01*
X2718331Y388562D01*
X2717961Y390319D01*
X2717591Y392260D01*
X2717499Y394387D01*
Y394849D01*
X2717591Y395311D01*
Y396051D01*
X2717683Y396883D01*
X2717868Y397808D01*
X2718146Y398917D01*
X2718423Y400027D01*
X2718793Y401321D01*
X2719255Y402615D01*
X2719810Y403910D01*
X2720550Y405297D01*
X2721382Y406591D01*
X2722306Y407885D01*
X2723416Y409180D01*
X2724710Y410382D01*
X2724803Y410474D01*
X2725080Y410659D01*
X2725450Y410936D01*
X2726097Y411306D01*
X2726929Y411861D01*
X2727854Y412323D01*
X2729056Y412878D01*
X2730350Y413433D01*
X2731922Y414080D01*
X2733678Y414635D01*
X2735620Y415097D01*
X2737746Y415559D01*
X2740150Y416022D01*
X2742739Y416299D01*
X2745513Y416484D01*
X2748471Y416576D01*
X2748564D01*
X2748656D01*
X2748934D01*
X2749303D01*
X2750228Y416484D01*
D02*
G37*
G36*
X2460225Y477409D02*
X2461149D01*
X2462074Y477316D01*
X2463276Y477224D01*
X2464478Y477039D01*
X2467159Y476577D01*
X2470117Y475929D01*
X2473076Y475005D01*
X2475942Y473711D01*
X2476035Y473618D01*
X2476312Y473526D01*
X2476682Y473341D01*
X2477144Y472971D01*
X2477791Y472601D01*
X2478531Y472139D01*
X2480195Y470937D01*
X2482044Y469365D01*
X2483893Y467516D01*
X2485743Y465389D01*
X2487314Y462893D01*
X2487407Y462801D01*
X2487499Y462523D01*
X2487684Y462154D01*
X2487961Y461691D01*
X2488239Y460952D01*
X2488516Y460212D01*
X2488886Y459287D01*
X2489256Y458270D01*
X2489626Y457161D01*
X2489996Y455959D01*
X2490550Y453370D01*
X2491013Y450412D01*
X2491197Y447361D01*
Y446436D01*
X2491105Y445789D01*
X2491013Y444957D01*
X2490920Y443940D01*
X2490828Y442923D01*
X2490550Y441721D01*
X2489996Y439224D01*
X2489163Y436451D01*
X2488609Y435064D01*
X2487961Y433770D01*
X2487129Y432475D01*
X2486297Y431181D01*
X2486205Y431088D01*
X2486112Y430903D01*
X2485835Y430534D01*
X2485373Y430071D01*
X2484910Y429609D01*
X2484263Y428962D01*
X2483524Y428315D01*
X2482784Y427575D01*
X2481859Y426835D01*
X2480750Y426096D01*
X2479640Y425264D01*
X2478439Y424524D01*
X2477052Y423877D01*
X2475665Y423137D01*
X2474186Y422582D01*
X2472521Y422028D01*
X2470580Y430349D01*
X2470672D01*
X2470857Y430441D01*
X2471227Y430626D01*
X2471689Y430811D01*
X2472244Y430996D01*
X2472984Y431273D01*
X2474463Y432013D01*
X2476127Y432937D01*
X2477791Y434047D01*
X2479363Y435434D01*
X2480750Y436913D01*
X2480935Y437098D01*
X2481305Y437653D01*
X2481767Y438577D01*
X2482414Y439779D01*
X2482969Y441351D01*
X2483524Y443108D01*
X2483893Y445234D01*
X2483986Y447545D01*
Y448285D01*
X2483893Y448747D01*
Y449395D01*
X2483801Y450134D01*
X2483524Y451891D01*
X2483154Y453832D01*
X2482507Y455867D01*
X2481582Y457993D01*
X2480380Y459935D01*
Y460027D01*
X2480195Y460119D01*
X2479733Y460767D01*
X2478993Y461599D01*
X2477884Y462616D01*
X2476497Y463818D01*
X2474925Y464927D01*
X2472984Y465944D01*
X2470857Y466869D01*
X2470765D01*
X2470580Y466961D01*
X2470302Y467054D01*
X2469840Y467146D01*
X2469285Y467331D01*
X2468638Y467516D01*
X2467066Y467793D01*
X2465217Y468163D01*
X2463183Y468533D01*
X2460964Y468718D01*
X2458560Y468810D01*
X2458468D01*
X2458191D01*
X2457728D01*
X2457174D01*
X2456526Y468718D01*
X2455694D01*
X2454770Y468625D01*
X2453753Y468533D01*
X2451534Y468256D01*
X2449130Y467793D01*
X2446726Y467239D01*
X2444322Y466499D01*
X2444230D01*
X2444045Y466406D01*
X2443768Y466222D01*
X2443305Y466037D01*
X2442196Y465482D01*
X2440901Y464650D01*
X2439422Y463633D01*
X2437850Y462338D01*
X2436464Y460859D01*
X2435169Y459102D01*
Y459010D01*
X2435077Y458825D01*
X2434892Y458548D01*
X2434707Y458178D01*
X2434522Y457716D01*
X2434245Y457161D01*
X2433690Y455867D01*
X2433135Y454202D01*
X2432673Y452353D01*
X2432303Y450319D01*
X2432211Y448193D01*
Y447545D01*
X2432303Y446991D01*
Y446344D01*
X2432395Y445696D01*
X2432765Y444032D01*
X2433228Y442091D01*
X2433967Y440149D01*
X2434984Y438115D01*
X2435539Y437098D01*
X2436279Y436173D01*
X2436371Y436081D01*
X2436464Y435988D01*
X2436741Y435711D01*
X2437018Y435341D01*
X2437481Y434971D01*
X2438035Y434509D01*
X2438590Y433954D01*
X2439330Y433492D01*
X2440162Y432937D01*
X2441086Y432290D01*
X2442011Y431735D01*
X2443120Y431181D01*
X2444322Y430718D01*
X2445617Y430256D01*
X2447003Y429794D01*
X2448483Y429424D01*
X2446356Y420918D01*
X2446264D01*
X2445894Y421011D01*
X2445339Y421195D01*
X2444600Y421473D01*
X2443768Y421750D01*
X2442751Y422120D01*
X2441641Y422582D01*
X2440439Y423137D01*
X2437850Y424431D01*
X2435262Y426096D01*
X2433967Y427113D01*
X2432673Y428130D01*
X2431563Y429239D01*
X2430454Y430534D01*
X2430361Y430626D01*
X2430176Y430811D01*
X2429992Y431273D01*
X2429622Y431735D01*
X2429159Y432475D01*
X2428697Y433215D01*
X2428235Y434232D01*
X2427773Y435249D01*
X2427218Y436451D01*
X2426756Y437745D01*
X2426293Y439132D01*
X2425831Y440611D01*
X2425461Y442183D01*
X2425276Y443847D01*
X2425091Y445604D01*
X2424999Y447453D01*
Y448470D01*
X2425091Y449210D01*
Y450042D01*
X2425184Y451059D01*
X2425369Y452168D01*
X2425554Y453463D01*
X2426016Y456144D01*
X2426756Y458918D01*
X2427773Y461691D01*
X2428420Y462986D01*
X2429159Y464280D01*
X2429252Y464372D01*
X2429344Y464557D01*
X2429622Y464927D01*
X2429992Y465297D01*
X2430361Y465852D01*
X2430916Y466499D01*
X2431563Y467239D01*
X2432303Y467978D01*
X2433135Y468718D01*
X2433967Y469550D01*
X2436094Y471214D01*
X2438590Y472786D01*
X2441364Y474173D01*
X2441456D01*
X2441733Y474358D01*
X2442196Y474450D01*
X2442751Y474728D01*
X2443490Y474912D01*
X2444415Y475190D01*
X2445432Y475560D01*
X2446541Y475837D01*
X2447743Y476114D01*
X2449130Y476484D01*
X2451996Y476946D01*
X2455232Y477316D01*
X2458560Y477501D01*
X2458653D01*
X2459023D01*
X2459578D01*
X2460225Y477409D01*
D02*
G37*
G36*
X2443490Y405478D02*
X2443398D01*
X2443213D01*
X2442935Y405386D01*
X2442473Y405293D01*
X2441456Y405016D01*
X2440069Y404646D01*
X2438682Y404091D01*
X2437111Y403351D01*
X2435724Y402427D01*
X2434429Y401317D01*
X2434337Y401133D01*
X2433967Y400763D01*
X2433505Y400023D01*
X2432950Y399006D01*
X2432395Y397897D01*
X2431933Y396510D01*
X2431563Y394938D01*
X2431471Y393181D01*
Y392627D01*
X2431563Y392257D01*
X2431656Y391147D01*
X2432026Y389853D01*
X2432488Y388281D01*
X2433228Y386709D01*
X2434337Y385045D01*
X2434984Y384306D01*
X2435724Y383566D01*
X2435816Y383473D01*
X2435909Y383381D01*
X2436186Y383196D01*
X2436464Y382919D01*
X2437481Y382272D01*
X2438775Y381532D01*
X2440347Y380885D01*
X2442288Y380237D01*
X2444600Y379775D01*
X2445802Y379590D01*
X2447096D01*
X2447188D01*
X2447373D01*
X2447743D01*
X2448205Y379683D01*
X2448760D01*
X2449407Y379775D01*
X2450887Y380053D01*
X2452643Y380515D01*
X2454400Y381162D01*
X2456064Y382087D01*
X2457636Y383381D01*
X2457728D01*
X2457821Y383566D01*
X2458283Y384028D01*
X2458930Y384860D01*
X2459670Y385970D01*
X2460317Y387449D01*
X2460964Y389113D01*
X2461427Y391055D01*
X2461612Y392164D01*
Y393921D01*
X2461519Y394661D01*
X2461427Y395585D01*
X2461149Y396695D01*
X2460872Y397804D01*
X2460410Y399006D01*
X2459855Y400208D01*
X2459762Y400300D01*
X2459578Y400670D01*
X2459115Y401225D01*
X2458653Y401965D01*
X2458006Y402704D01*
X2457174Y403444D01*
X2456342Y404276D01*
X2455325Y404923D01*
X2456342Y412320D01*
X2489256Y406125D01*
Y374320D01*
X2481767D01*
Y399931D01*
X2464478Y403351D01*
X2464570Y403259D01*
X2464663Y403074D01*
X2464847Y402797D01*
X2465125Y402334D01*
X2465402Y401780D01*
X2465772Y401133D01*
X2466512Y399653D01*
X2467251Y397804D01*
X2467899Y395770D01*
X2468361Y393551D01*
X2468546Y392442D01*
Y390408D01*
X2468453Y389853D01*
X2468361Y389113D01*
X2468268Y388281D01*
X2468083Y387357D01*
X2467806Y386340D01*
X2467159Y384121D01*
X2466697Y382919D01*
X2466049Y381717D01*
X2465402Y380515D01*
X2464663Y379313D01*
X2463738Y378203D01*
X2462721Y377094D01*
X2462629Y377002D01*
X2462444Y376817D01*
X2462166Y376539D01*
X2461704Y376169D01*
X2461057Y375707D01*
X2460410Y375245D01*
X2459578Y374690D01*
X2458653Y374135D01*
X2457636Y373673D01*
X2456526Y373118D01*
X2455232Y372656D01*
X2453938Y372194D01*
X2452551Y371824D01*
X2450979Y371547D01*
X2449407Y371362D01*
X2447743Y371269D01*
X2447651D01*
X2447373D01*
X2446911D01*
X2446264Y371362D01*
X2445524Y371454D01*
X2444692Y371547D01*
X2443675Y371732D01*
X2442658Y371916D01*
X2440254Y372471D01*
X2437758Y373396D01*
X2436464Y373950D01*
X2435262Y374690D01*
X2433967Y375430D01*
X2432765Y376354D01*
X2432673Y376447D01*
X2432395Y376632D01*
X2432026Y377002D01*
X2431563Y377464D01*
X2431009Y378111D01*
X2430269Y378851D01*
X2429622Y379775D01*
X2428882Y380792D01*
X2428142Y381902D01*
X2427495Y383196D01*
X2426848Y384583D01*
X2426201Y386062D01*
X2425739Y387634D01*
X2425369Y389391D01*
X2425091Y391240D01*
X2424999Y393181D01*
Y394013D01*
X2425091Y394661D01*
X2425184Y395400D01*
X2425276Y396232D01*
X2425369Y397249D01*
X2425646Y398266D01*
X2426201Y400578D01*
X2427033Y402889D01*
X2427588Y404091D01*
X2428235Y405293D01*
X2428975Y406403D01*
X2429807Y407512D01*
X2429899Y407604D01*
X2429992Y407789D01*
X2430361Y407974D01*
X2430731Y408344D01*
X2431194Y408806D01*
X2431748Y409269D01*
X2432488Y409823D01*
X2433320Y410286D01*
X2434152Y410840D01*
X2435169Y411395D01*
X2437388Y412412D01*
X2439977Y413244D01*
X2441364Y413522D01*
X2442843Y413707D01*
X2443490Y405478D01*
D02*
G37*
%LPC*%
G36*
X2841979Y3870355D02*
X2841887D01*
X2841794D01*
X2841240D01*
X2840408Y3870170D01*
X2839391Y3869985D01*
X2838281Y3869615D01*
X2837079Y3869060D01*
X2835877Y3868321D01*
X2834675Y3867304D01*
X2834583Y3867211D01*
X2834213Y3866749D01*
X2833751Y3866102D01*
X2833196Y3865270D01*
X2832641Y3864160D01*
X2832179Y3862958D01*
X2831809Y3861479D01*
X2831717Y3859907D01*
Y3859168D01*
X2831902Y3858335D01*
X2832087Y3857226D01*
X2832456Y3856024D01*
X2832919Y3854730D01*
X2833658Y3853528D01*
X2834675Y3852326D01*
X2834768Y3852233D01*
X2835138Y3851864D01*
X2835785Y3851401D01*
X2836617Y3850939D01*
X2837634Y3850384D01*
X2838836Y3849922D01*
X2840130Y3849552D01*
X2841610Y3849460D01*
X2841702D01*
X2841794D01*
X2842349Y3849552D01*
X2843181Y3849645D01*
X2844198Y3849829D01*
X2845400Y3850199D01*
X2846602Y3850662D01*
X2847897Y3851401D01*
X2849006Y3852326D01*
X2849098Y3852418D01*
X2849468Y3852881D01*
X2849931Y3853528D01*
X2850393Y3854360D01*
X2850948Y3855469D01*
X2851410Y3856764D01*
X2851780Y3858243D01*
X2851872Y3859907D01*
Y3860092D01*
X2851780Y3860647D01*
X2851687Y3861479D01*
X2851502Y3862588D01*
X2851132Y3863790D01*
X2850670Y3864992D01*
X2849931Y3866287D01*
X2849006Y3867396D01*
X2848914Y3867489D01*
X2848451Y3867858D01*
X2847897Y3868321D01*
X2847064Y3868875D01*
X2846047Y3869430D01*
X2844845Y3869892D01*
X2843459Y3870262D01*
X2841979Y3870355D01*
D02*
G37*
G36*
X2871380Y3872943D02*
X2871288D01*
X2871103D01*
X2870826D01*
X2870456Y3872851D01*
X2869439Y3872759D01*
X2868052Y3872481D01*
X2866665Y3872019D01*
X2865093Y3871372D01*
X2863522Y3870447D01*
X2862042Y3869153D01*
X2861857Y3868968D01*
X2861488Y3868506D01*
X2860840Y3867673D01*
X2860101Y3866564D01*
X2859454Y3865177D01*
X2858806Y3863513D01*
X2858436Y3861664D01*
X2858252Y3859630D01*
Y3859075D01*
X2858344Y3858705D01*
X2858436Y3857688D01*
X2858714Y3856394D01*
X2859176Y3854915D01*
X2859823Y3853435D01*
X2860748Y3851864D01*
X2861950Y3850477D01*
X2862135Y3850292D01*
X2862597Y3849922D01*
X2863429Y3849367D01*
X2864446Y3848720D01*
X2865833Y3847980D01*
X2867405Y3847426D01*
X2869161Y3847056D01*
X2871103Y3846871D01*
X2871288D01*
X2871658D01*
X2872305Y3846963D01*
X2873137Y3847056D01*
X2874154Y3847241D01*
X2875263Y3847518D01*
X2876373Y3847888D01*
X2877575Y3848350D01*
X2877667Y3848443D01*
X2878130Y3848628D01*
X2878684Y3848997D01*
X2879332Y3849552D01*
X2880164Y3850199D01*
X2880996Y3851031D01*
X2881735Y3851956D01*
X2882475Y3853065D01*
X2882568Y3853250D01*
X2882752Y3853620D01*
X2883030Y3854267D01*
X2883307Y3855099D01*
X2883585Y3856116D01*
X2883862Y3857318D01*
X2884047Y3858613D01*
X2884139Y3859907D01*
Y3860462D01*
X2884047Y3860832D01*
X2883954Y3861941D01*
X2883677Y3863236D01*
X2883215Y3864715D01*
X2882660Y3866287D01*
X2881735Y3867766D01*
X2880533Y3869245D01*
X2880349Y3869430D01*
X2879886Y3869800D01*
X2879054Y3870447D01*
X2878037Y3871094D01*
X2876743Y3871742D01*
X2875171Y3872389D01*
X2873322Y3872759D01*
X2871380Y3872943D01*
D02*
G37*
G36*
X2524879Y3660185D02*
X2524787D01*
X2524602D01*
X2524232D01*
X2523770Y3660093D01*
X2523215D01*
X2522568Y3660001D01*
X2521089Y3659723D01*
X2519424Y3659353D01*
X2517668Y3658706D01*
X2516004Y3657782D01*
X2514432Y3656580D01*
X2514247Y3656395D01*
X2513785Y3655932D01*
X2513230Y3655193D01*
X2512490Y3654176D01*
X2511751Y3652881D01*
X2511196Y3651402D01*
X2510734Y3649645D01*
X2510549Y3647704D01*
Y3647149D01*
X2510641Y3646779D01*
X2510734Y3645855D01*
X2511011Y3644560D01*
X2511473Y3643174D01*
X2512213Y3641602D01*
X2513137Y3640123D01*
X2514432Y3638643D01*
X2514617Y3638458D01*
X2515079Y3638088D01*
X2515911Y3637441D01*
X2517113Y3636794D01*
X2518500Y3636147D01*
X2520257Y3635500D01*
X2522198Y3635130D01*
X2524417Y3634945D01*
X2524602D01*
X2525064D01*
X2525896Y3635037D01*
X2526913Y3635130D01*
X2528115Y3635315D01*
X2529410Y3635685D01*
X2530797Y3636054D01*
X2532183Y3636609D01*
X2532368Y3636702D01*
X2532831Y3636979D01*
X2533478Y3637349D01*
X2534310Y3637904D01*
X2535142Y3638551D01*
X2536159Y3639383D01*
X2536991Y3640307D01*
X2537823Y3641417D01*
X2537916Y3641602D01*
X2538101Y3641972D01*
X2538470Y3642619D01*
X2538748Y3643451D01*
X2539118Y3644375D01*
X2539487Y3645485D01*
X2539672Y3646687D01*
X2539765Y3647981D01*
Y3648444D01*
X2539672Y3648813D01*
X2539580Y3649738D01*
X2539303Y3650940D01*
X2538748Y3652234D01*
X2538101Y3653714D01*
X2537084Y3655193D01*
X2536529Y3655932D01*
X2535789Y3656580D01*
X2535697D01*
X2535604Y3656765D01*
X2535050Y3657134D01*
X2534125Y3657689D01*
X2532923Y3658429D01*
X2531351Y3659076D01*
X2529502Y3659631D01*
X2527376Y3660001D01*
X2524879Y3660185D01*
D02*
G37*
G36*
X1366818Y2682575D02*
X1366634D01*
X1366171D01*
X1365339Y2682482D01*
X1364322Y2682390D01*
X1363120Y2682205D01*
X1361826Y2681835D01*
X1360439Y2681465D01*
X1359052Y2680910D01*
X1358867Y2680818D01*
X1358405Y2680540D01*
X1357758Y2680171D01*
X1356926Y2679616D01*
X1356094Y2678969D01*
X1355077Y2678137D01*
X1354244Y2677212D01*
X1353412Y2676103D01*
X1353320Y2675918D01*
X1353135Y2675548D01*
X1352765Y2674901D01*
X1352488Y2674069D01*
X1352118Y2673144D01*
X1351748Y2672035D01*
X1351563Y2670833D01*
X1351471Y2669538D01*
Y2669076D01*
X1351563Y2668706D01*
X1351656Y2667782D01*
X1351933Y2666580D01*
X1352488Y2665285D01*
X1353135Y2663806D01*
X1354152Y2662327D01*
X1354707Y2661587D01*
X1355446Y2660940D01*
X1355539D01*
X1355631Y2660755D01*
X1356186Y2660385D01*
X1357111Y2659830D01*
X1358312Y2659091D01*
X1359884Y2658444D01*
X1361733Y2657889D01*
X1363860Y2657519D01*
X1366356Y2657334D01*
X1366449D01*
X1366634D01*
X1367003D01*
X1367466Y2657426D01*
X1368020D01*
X1368668Y2657519D01*
X1370147Y2657796D01*
X1371811Y2658166D01*
X1373568Y2658813D01*
X1375232Y2659738D01*
X1376804Y2660940D01*
X1376989Y2661125D01*
X1377451Y2661587D01*
X1378006Y2662327D01*
X1378745Y2663344D01*
X1379485Y2664638D01*
X1380040Y2666117D01*
X1380502Y2667874D01*
X1380687Y2669816D01*
Y2670370D01*
X1380594Y2670740D01*
X1380502Y2671665D01*
X1380225Y2672959D01*
X1379762Y2674346D01*
X1379023Y2675918D01*
X1378098Y2677397D01*
X1376804Y2678876D01*
X1376619Y2679061D01*
X1376157Y2679431D01*
X1375324Y2680078D01*
X1374122Y2680725D01*
X1372736Y2681373D01*
X1370979Y2682020D01*
X1369037Y2682390D01*
X1366818Y2682575D01*
D02*
G37*
G36*
X1372182Y2159526D02*
Y2139371D01*
X1400844D01*
X1372182Y2159526D01*
D02*
G37*
G36*
X612442Y1162022D02*
X583780D01*
X612442Y1141866D01*
Y1162022D01*
D02*
G37*
G36*
X2350136Y1213222D02*
X2349951D01*
X2349489D01*
X2348657D01*
X2347547Y1213130D01*
X2346345D01*
X2344866Y1213037D01*
X2343294Y1212945D01*
X2341630Y1212760D01*
X2338024Y1212298D01*
X2336268Y1212020D01*
X2334603Y1211650D01*
X2333032Y1211281D01*
X2331552Y1210726D01*
X2330258Y1210171D01*
X2329149Y1209524D01*
X2329056D01*
X2328964Y1209339D01*
X2328316Y1208877D01*
X2327484Y1208045D01*
X2326560Y1207028D01*
X2325635Y1205641D01*
X2324803Y1204069D01*
X2324156Y1202312D01*
X2324063Y1201388D01*
X2323971Y1200371D01*
Y1199816D01*
X2324063Y1199446D01*
X2324248Y1198522D01*
X2324618Y1197227D01*
X2325265Y1195840D01*
X2326190Y1194269D01*
X2326745Y1193529D01*
X2327484Y1192789D01*
X2328224Y1192050D01*
X2329149Y1191310D01*
X2329241D01*
X2329426Y1191125D01*
X2329703Y1190940D01*
X2330166Y1190755D01*
X2330813Y1190385D01*
X2331645Y1190108D01*
X2332569Y1189738D01*
X2333679Y1189368D01*
X2335066Y1189091D01*
X2336545Y1188721D01*
X2338302Y1188351D01*
X2340151Y1188074D01*
X2342370Y1187889D01*
X2344681Y1187704D01*
X2347270Y1187519D01*
X2350136D01*
X2350228D01*
X2350321D01*
X2350783D01*
X2351615D01*
X2352725Y1187612D01*
X2353927D01*
X2355406Y1187704D01*
X2356978Y1187797D01*
X2358734Y1187982D01*
X2362248Y1188444D01*
X2364004Y1188721D01*
X2365669Y1189091D01*
X2367240Y1189461D01*
X2368720Y1190016D01*
X2370014Y1190570D01*
X2371124Y1191218D01*
X2371216D01*
X2371308Y1191402D01*
X2371586Y1191587D01*
X2371956Y1191865D01*
X2372788Y1192697D01*
X2373805Y1193714D01*
X2374729Y1195101D01*
X2375561Y1196672D01*
X2375931Y1197505D01*
X2376209Y1198429D01*
X2376301Y1199446D01*
X2376394Y1200463D01*
Y1201018D01*
X2376301Y1201388D01*
X2376116Y1202405D01*
X2375839Y1203607D01*
X2375284Y1204994D01*
X2374452Y1206473D01*
X2373897Y1207212D01*
X2373342Y1207952D01*
X2372603Y1208599D01*
X2371771Y1209247D01*
X2371678D01*
X2371493Y1209431D01*
X2371124Y1209616D01*
X2370661Y1209894D01*
X2369922Y1210171D01*
X2369089Y1210541D01*
X2368072Y1210818D01*
X2366871Y1211188D01*
X2365484Y1211558D01*
X2363912Y1211928D01*
X2362155Y1212298D01*
X2360214Y1212575D01*
X2357995Y1212852D01*
X2355591Y1213037D01*
X2353002Y1213130D01*
X2350136Y1213222D01*
D02*
G37*
G36*
X3335900Y1494670D02*
X3335807D01*
X3335622D01*
X3335253D01*
X3334790Y1494578D01*
X3334143D01*
X3333496Y1494485D01*
X3332017Y1494208D01*
X3330260Y1493838D01*
X3328411Y1493191D01*
X3326654Y1492266D01*
X3325083Y1491064D01*
X3324990D01*
X3324898Y1490879D01*
X3324435Y1490417D01*
X3323788Y1489677D01*
X3323048Y1488660D01*
X3322401Y1487366D01*
X3321754Y1485887D01*
X3321292Y1484223D01*
X3321107Y1483298D01*
Y1481819D01*
X3321199Y1481449D01*
X3321292Y1480432D01*
X3321662Y1479230D01*
X3322124Y1477751D01*
X3322956Y1476179D01*
X3323973Y1474607D01*
X3324713Y1473868D01*
X3325452Y1473128D01*
X3325545D01*
X3325637Y1472943D01*
X3325915Y1472758D01*
X3326192Y1472573D01*
X3327117Y1471926D01*
X3328411Y1471279D01*
X3329983Y1470539D01*
X3331924Y1469892D01*
X3334143Y1469522D01*
X3336547Y1469337D01*
X3336640D01*
X3336824D01*
X3337102D01*
X3337564Y1469430D01*
X3338119D01*
X3338674Y1469522D01*
X3340060Y1469799D01*
X3341632Y1470262D01*
X3343296Y1470816D01*
X3344961Y1471741D01*
X3346440Y1472943D01*
X3346625Y1473128D01*
X3346995Y1473590D01*
X3347642Y1474422D01*
X3348289Y1475439D01*
X3349029Y1476826D01*
X3349676Y1478398D01*
X3350046Y1480155D01*
X3350231Y1482096D01*
Y1482651D01*
X3350138Y1483021D01*
X3350046Y1484038D01*
X3349768Y1485240D01*
X3349306Y1486719D01*
X3348659Y1488198D01*
X3347734Y1489677D01*
X3346440Y1491064D01*
X3346255Y1491249D01*
X3345700Y1491619D01*
X3344868Y1492174D01*
X3343666Y1492913D01*
X3342187Y1493561D01*
X3340430Y1494115D01*
X3338304Y1494485D01*
X3335900Y1494670D01*
D02*
G37*
G36*
X3054000Y410667D02*
X3053908D01*
X3053816D01*
X3053261Y410574D01*
X3052429Y410482D01*
X3051412Y410297D01*
X3050210Y409927D01*
X3049008Y409465D01*
X3047713Y408725D01*
X3046604Y407801D01*
X3046512Y407708D01*
X3046142Y407246D01*
X3045679Y406599D01*
X3045217Y405767D01*
X3044662Y404657D01*
X3044200Y403363D01*
X3043830Y401883D01*
X3043738Y400219D01*
Y400034D01*
X3043830Y399480D01*
X3043923Y398647D01*
X3044108Y397538D01*
X3044478Y396336D01*
X3044940Y395134D01*
X3045679Y393840D01*
X3046604Y392730D01*
X3046696Y392638D01*
X3047159Y392268D01*
X3047713Y391806D01*
X3048546Y391251D01*
X3049563Y390696D01*
X3050765Y390234D01*
X3052151Y389864D01*
X3053631Y389772D01*
X3053723D01*
X3053816D01*
X3054370D01*
X3055202Y389957D01*
X3056219Y390141D01*
X3057329Y390511D01*
X3058531Y391066D01*
X3059733Y391806D01*
X3060935Y392823D01*
X3061027Y392915D01*
X3061397Y393377D01*
X3061859Y394025D01*
X3062414Y394857D01*
X3062969Y395966D01*
X3063431Y397168D01*
X3063801Y398647D01*
X3063893Y400219D01*
Y400959D01*
X3063708Y401791D01*
X3063523Y402900D01*
X3063154Y404102D01*
X3062691Y405397D01*
X3061952Y406599D01*
X3060935Y407801D01*
X3060842Y407893D01*
X3060472Y408263D01*
X3059825Y408725D01*
X3058993Y409187D01*
X3057976Y409742D01*
X3056774Y410204D01*
X3055480Y410574D01*
X3054000Y410667D01*
D02*
G37*
G36*
X3024507Y413255D02*
X3024322D01*
X3023952D01*
X3023305Y413163D01*
X3022473Y413071D01*
X3021456Y412886D01*
X3020347Y412608D01*
X3019237Y412238D01*
X3018035Y411776D01*
X3017943Y411684D01*
X3017480Y411499D01*
X3016926Y411129D01*
X3016278Y410574D01*
X3015446Y409927D01*
X3014614Y409095D01*
X3013875Y408170D01*
X3013135Y407061D01*
X3013042Y406876D01*
X3012858Y406506D01*
X3012580Y405859D01*
X3012303Y405027D01*
X3012025Y404010D01*
X3011748Y402808D01*
X3011563Y401514D01*
X3011471Y400219D01*
Y399664D01*
X3011563Y399295D01*
X3011656Y398185D01*
X3011933Y396891D01*
X3012395Y395411D01*
X3012950Y393840D01*
X3013875Y392360D01*
X3015077Y390881D01*
X3015261Y390696D01*
X3015724Y390326D01*
X3016556Y389679D01*
X3017573Y389032D01*
X3018867Y388385D01*
X3020439Y387738D01*
X3022288Y387368D01*
X3024230Y387183D01*
X3024322D01*
X3024507D01*
X3024784D01*
X3025154Y387275D01*
X3026171Y387368D01*
X3027558Y387645D01*
X3028945Y388107D01*
X3030517Y388755D01*
X3032088Y389679D01*
X3033568Y390974D01*
X3033753Y391158D01*
X3034122Y391621D01*
X3034770Y392453D01*
X3035509Y393562D01*
X3036156Y394949D01*
X3036804Y396613D01*
X3037174Y398462D01*
X3037358Y400497D01*
Y401051D01*
X3037266Y401421D01*
X3037174Y402438D01*
X3036896Y403732D01*
X3036434Y405212D01*
X3035787Y406691D01*
X3034862Y408263D01*
X3033660Y409650D01*
X3033475Y409835D01*
X3033013Y410204D01*
X3032181Y410759D01*
X3031164Y411406D01*
X3029777Y412146D01*
X3028205Y412701D01*
X3026449Y413071D01*
X3024507Y413255D01*
D02*
G37*
G36*
X2739318Y407516D02*
X2739133D01*
X2738671D01*
X2737839Y407423D01*
X2736822Y407331D01*
X2735620Y407146D01*
X2734325Y406776D01*
X2732939Y406406D01*
X2731552Y405851D01*
X2731367Y405759D01*
X2730905Y405482D01*
X2730257Y405112D01*
X2729425Y404557D01*
X2728593Y403910D01*
X2727576Y403078D01*
X2726744Y402153D01*
X2725912Y401044D01*
X2725820Y400859D01*
X2725635Y400489D01*
X2725265Y399842D01*
X2724987Y399010D01*
X2724618Y398085D01*
X2724248Y396976D01*
X2724063Y395774D01*
X2723970Y394479D01*
Y394017D01*
X2724063Y393647D01*
X2724155Y392723D01*
X2724433Y391521D01*
X2724987Y390226D01*
X2725635Y388747D01*
X2726652Y387268D01*
X2727206Y386528D01*
X2727946Y385881D01*
X2728038D01*
X2728131Y385696D01*
X2728686Y385326D01*
X2729610Y384771D01*
X2730812Y384032D01*
X2732384Y383385D01*
X2734233Y382830D01*
X2736360Y382460D01*
X2738856Y382275D01*
X2738948D01*
X2739133D01*
X2739503D01*
X2739965Y382368D01*
X2740520D01*
X2741167Y382460D01*
X2742647Y382737D01*
X2744311Y383107D01*
X2746067Y383754D01*
X2747732Y384679D01*
X2749303Y385881D01*
X2749488Y386066D01*
X2749951Y386528D01*
X2750505Y387268D01*
X2751245Y388285D01*
X2751985Y389579D01*
X2752539Y391058D01*
X2753002Y392815D01*
X2753187Y394757D01*
Y395311D01*
X2753094Y395681D01*
X2753002Y396606D01*
X2752724Y397900D01*
X2752262Y399287D01*
X2751522Y400859D01*
X2750598Y402338D01*
X2749303Y403817D01*
X2749118Y404002D01*
X2748656Y404372D01*
X2747824Y405019D01*
X2746622Y405666D01*
X2745235Y406314D01*
X2743479Y406961D01*
X2741537Y407331D01*
X2739318Y407516D01*
D02*
G37*
%LPD*%
D34*
X2830611Y3605385D02*
Y3845385D01*
X2950610D01*
Y3605385D02*
Y3845385D01*
X2830611Y3605385D02*
X2950610D01*
X2217960Y3504747D02*
X2307960D01*
Y3644747D01*
X2217960D02*
X2307960D01*
X2217960Y3504747D02*
Y3644747D01*
X2501236Y3509380D02*
Y3649381D01*
X2591236D01*
Y3509380D02*
Y3649381D01*
X2501236Y3509380D02*
X2591236D01*
X1696893Y2914393D02*
X1838107D01*
Y3205606D01*
X1696893D02*
X1838107D01*
X1696893Y2914393D02*
Y3205606D01*
X1274393Y2950407D02*
X1415607D01*
X1274393Y2659194D02*
Y2950407D01*
Y2659194D02*
X1415607D01*
Y2950407D01*
X960142Y2655962D02*
X1101355D01*
Y2947175D01*
X960142D02*
X1101355D01*
X960142Y2655962D02*
Y2947175D01*
X1277909Y2423660D02*
X1419122D01*
X1277909Y2132447D02*
Y2423660D01*
Y2132447D02*
X1419122D01*
Y2423660D01*
X950625Y2424322D02*
X1091839D01*
X950625Y2133109D02*
Y2424322D01*
Y2133109D02*
X1091839D01*
Y2424322D01*
X974378Y1978123D02*
X1064378D01*
X974378Y1838123D02*
Y1978123D01*
Y1838123D02*
X1064378D01*
Y1978123D01*
X1279847Y1697042D02*
X1421060D01*
Y1988255D01*
X1279847D02*
X1421060D01*
X1279847Y1697042D02*
Y1988255D01*
X809393Y1371893D02*
X950607D01*
Y1663106D01*
X809393D02*
X950607D01*
X809393Y1371893D02*
Y1663106D01*
X577500Y977089D02*
X692500D01*
Y1202911D01*
X577500D02*
X692500D01*
X577500Y977089D02*
Y1202911D01*
X885000Y977089D02*
X1000000D01*
Y1202911D01*
X885000D02*
X1000000D01*
X885000Y977089D02*
Y1202911D01*
X1649393Y1483107D02*
X1790607D01*
X1649393Y1191893D02*
Y1483107D01*
Y1191893D02*
X1790607D01*
Y1483107D01*
X1944393Y1478107D02*
X2085607D01*
X1944393Y1186893D02*
Y1478107D01*
Y1186893D02*
X2085607D01*
Y1478107D01*
X2246893Y1480407D02*
X2388107D01*
X2246893Y1189194D02*
Y1480407D01*
Y1189194D02*
X2388107D01*
Y1480407D01*
X3309393Y1251894D02*
X3450607D01*
Y1543107D01*
X3309393D02*
X3450607D01*
X3309393Y1251894D02*
Y1543107D01*
X2809393Y967245D02*
X2950607D01*
X2809393Y676032D02*
Y967245D01*
Y676032D02*
X2950607D01*
Y967245D01*
X3075607Y339394D02*
Y630607D01*
X2934393Y339394D02*
X3075607D01*
X2934393D02*
Y630607D01*
X3075607D01*
X3217500Y384589D02*
X3332500D01*
Y610411D01*
X3217500D02*
X3332500D01*
X3217500Y384589D02*
Y610411D01*
X2788107Y334394D02*
Y625607D01*
X2646893Y334394D02*
X2788107D01*
X2646893D02*
Y625607D01*
X2788107D01*
X2495607Y331893D02*
Y623106D01*
X2354394Y331893D02*
X2495607D01*
X2354394D02*
Y623106D01*
X2495607D01*
%TF.MD5,b3dfc6b17d483773744232b24c2536c4*%
M02*
