M48
;Layer_Color=9474304
;FILE_FORMAT=4:4
METRIC,LZ
;TYPE=PLATED
T1F00S00C0.1500
T2F00S00C0.2000
%
T01
X00271902Y00133991
Y00137991
X00275902Y00133991
X00279902
Y00141991
Y00145991
X00275902
X00271902
T02
X00241Y00142
X0036533Y00130742
X00371651Y00125522
X00327651Y00066522
X00315684Y00074184
X003205Y0016675
X0030925Y00167
X00301Y0016675
X00297705Y00178045
X0030925Y001815
X00275Y00180017
X0026269Y00179844
X002545Y001795
Y00167
X00282931Y0016495
X0028875Y0016025
X0026935Y00189
X00232915Y00192863
X0022025Y0016525
X0020525Y0023725
X002205Y00269
X00227Y00272252
X0019025Y00273
X0014725Y0023475
X00304608Y0023769
X00303997Y00230453
X0032625Y0021975
X003405Y0021725
X00321021Y0020682
X0033325Y002405
X0029825Y0026
X00297955Y00275316
X0027275Y002855
X00275627Y00292877
X00266003Y00281497
X00363Y00147
M30
