%TF.GenerationSoftware,Altium Limited,Altium Designer,21.2.0 (30)*%
G04 Layer_Physical_Order=2*
G04 Layer_Color=36540*
%FSLAX45Y45*%
%MOMM*%
%TF.SameCoordinates,6E67B6D2-48A1-4C3A-8D5B-8FB38F647B41*%
%TF.FilePolarity,Positive*%
%TF.FileFunction,Copper,L2,Inr,Signal*%
%TF.Part,Single*%
G01*
G75*
%TA.AperFunction,Conductor*%
%ADD10C,0.20000*%
%ADD33C,0.10000*%
%ADD35C,0.50000*%
%TA.AperFunction,ComponentPad*%
%ADD43R,1.50000X1.50000*%
%ADD44C,1.30000*%
%ADD46C,1.85000*%
%ADD47R,1.85000X1.85000*%
%TA.AperFunction,ViaPad*%
%ADD48C,0.20000*%
%ADD49C,0.46000*%
%ADD50C,0.30000*%
G36*
X3818305Y3917300D02*
X3813986Y3912981D01*
X3804770Y3897019D01*
X3800000Y3879216D01*
Y3860784D01*
X3804770Y3842981D01*
X3811119Y3831985D01*
X3804791Y3819285D01*
X3417602D01*
X3409798Y3817733D01*
X3403182Y3813313D01*
X3398762Y3806697D01*
X3397210Y3798893D01*
Y3738893D01*
X3385640D01*
X3372776Y3733565D01*
X3362930Y3723720D01*
X3357602Y3710855D01*
Y3696932D01*
X3362930Y3684068D01*
X3372776Y3674222D01*
X3385640Y3668894D01*
X3397210D01*
Y2805068D01*
X3385477Y2800208D01*
X3157340Y3028344D01*
X3147417Y3034974D01*
X3135712Y3037303D01*
X3135710Y3037303D01*
X3022344D01*
X3019002Y3045215D01*
X3018450Y3050003D01*
X3031032Y3062584D01*
X3037127Y3077300D01*
X2942873D01*
X2948969Y3062584D01*
X2961550Y3050003D01*
X2960998Y3045215D01*
X2957656Y3037303D01*
X2906074D01*
X2900814Y3050003D01*
X2906454Y3055642D01*
X2913000Y3071447D01*
Y3088553D01*
X2906454Y3104358D01*
X2900588Y3110223D01*
Y3239632D01*
X2900588Y3239634D01*
X2898259Y3251339D01*
X2891629Y3261262D01*
X2891628Y3261263D01*
X2877935Y3274957D01*
X2882795Y3286690D01*
X3126351D01*
X3136106Y3288630D01*
X3144375Y3294156D01*
X3149901Y3302425D01*
X3151841Y3312180D01*
Y3413780D01*
X3149901Y3423534D01*
X3144375Y3431803D01*
X3136106Y3437329D01*
X3126351Y3439269D01*
X2846951D01*
X2837197Y3437329D01*
X2828928Y3431803D01*
X2823402Y3423534D01*
X2821462Y3413780D01*
Y3348023D01*
X2809728Y3343163D01*
X2750588Y3402304D01*
Y3519412D01*
X3044869D01*
X3054234Y3515533D01*
X3071341D01*
X3087145Y3522080D01*
X3099241Y3534176D01*
X3105788Y3549980D01*
Y3567086D01*
X3099241Y3582891D01*
X3087145Y3594987D01*
X3071341Y3601533D01*
X3054234D01*
X3038430Y3594987D01*
X3026334Y3582891D01*
X3025380Y3580588D01*
X2750223D01*
X2744357Y3586454D01*
X2728553Y3593000D01*
X2720257D01*
X2511629Y3801629D01*
X2501705Y3808259D01*
X2490000Y3810588D01*
X2489999Y3810588D01*
X2440223D01*
X2434358Y3816454D01*
X2418553Y3823000D01*
X2401447D01*
X2385642Y3816454D01*
X2373546Y3804358D01*
X2367000Y3788553D01*
Y3771447D01*
X2373546Y3755642D01*
X2379412Y3749777D01*
Y3551806D01*
X2366712Y3546545D01*
X2083000Y3830258D01*
Y3838553D01*
X2076454Y3854358D01*
X2064358Y3866454D01*
X2048553Y3873000D01*
X2031447D01*
X2015642Y3866454D01*
X2003546Y3854358D01*
X1997000Y3838553D01*
Y3821447D01*
X2003546Y3805642D01*
X2015642Y3793546D01*
X2031447Y3787000D01*
X2039742D01*
X2319412Y3507330D01*
Y3470223D01*
X2313547Y3464358D01*
X2307000Y3448553D01*
Y3431447D01*
X2308367Y3428148D01*
X2301311Y3417588D01*
X1973000D01*
Y3418553D01*
X1966454Y3434358D01*
X1954358Y3446454D01*
X1938553Y3453000D01*
X1921447D01*
X1905642Y3446454D01*
X1893546Y3434358D01*
X1887000Y3418553D01*
Y3401447D01*
X1893546Y3385642D01*
X1905642Y3373546D01*
X1921447Y3367000D01*
X1931458D01*
X1933086Y3365372D01*
X1933087Y3365371D01*
X1943010Y3358741D01*
X1954716Y3356412D01*
X2371952D01*
X2371953Y3356412D01*
X2383659Y3358741D01*
X2393582Y3365371D01*
X2430356Y3402145D01*
X2435641Y3401396D01*
X2443056Y3397661D01*
Y3391918D01*
X2448446Y3378907D01*
X2458404Y3368949D01*
X2465756Y3365903D01*
Y3398959D01*
Y3432015D01*
X2458404Y3428970D01*
X2452871Y3423437D01*
X2451186Y3423658D01*
X2440588Y3429114D01*
Y3749412D01*
X2477330D01*
X2677000Y3549742D01*
Y3541447D01*
X2683546Y3525642D01*
X2689412Y3519777D01*
Y3389635D01*
X2689412Y3389634D01*
X2691741Y3377928D01*
X2698371Y3368005D01*
X2839412Y3226964D01*
Y3110223D01*
X2833547Y3104358D01*
X2827000Y3088553D01*
Y3071447D01*
X2833547Y3055642D01*
X2839186Y3050003D01*
X2833926Y3037303D01*
X2748328D01*
X2745802Y3050003D01*
X2754357Y3053546D01*
X2766453Y3065642D01*
X2773000Y3081447D01*
Y3098553D01*
X2766453Y3114357D01*
X2754357Y3126453D01*
X2738553Y3133000D01*
X2721447D01*
X2705642Y3126453D01*
X2699776Y3120588D01*
X1060170D01*
X1000891Y3179867D01*
X1004924Y3193794D01*
X1017416Y3198969D01*
X1031031Y3212584D01*
X1037127Y3227300D01*
X990000D01*
Y3240000D01*
X977300D01*
Y3287127D01*
X962584Y3281032D01*
X948969Y3267416D01*
X943794Y3254924D01*
X929867Y3250891D01*
X625500Y3555258D01*
Y3563553D01*
X618954Y3579358D01*
X606858Y3591454D01*
X591053Y3598000D01*
X573947D01*
X558142Y3591454D01*
X546046Y3579358D01*
X539500Y3563553D01*
Y3546447D01*
X546046Y3530642D01*
X558142Y3518546D01*
X573947Y3512000D01*
X582242D01*
X1025871Y3068372D01*
X1025871Y3068371D01*
X1035794Y3061741D01*
X1047500Y3059412D01*
X2699776D01*
X2705642Y3053546D01*
X2714198Y3050003D01*
X2711671Y3037303D01*
X1996716D01*
X1996715Y3037303D01*
X1985009Y3034974D01*
X1975086Y3028344D01*
X1975085Y3028343D01*
X1450871Y2504129D01*
X1444241Y2494205D01*
X1441912Y2482500D01*
X1441912Y2482499D01*
Y2377723D01*
X1436046Y2371858D01*
X1429500Y2356053D01*
Y2338947D01*
X1436046Y2323142D01*
X1448142Y2311046D01*
X1463947Y2304500D01*
X1481053D01*
X1496858Y2311046D01*
X1508954Y2323142D01*
X1515500Y2338947D01*
Y2356053D01*
X1508954Y2371858D01*
X1503088Y2377723D01*
Y2469830D01*
X2009385Y2976127D01*
X2716287D01*
X2722167Y2963427D01*
X2718716Y2959361D01*
X2698883D01*
X2687178Y2957032D01*
X2677254Y2950402D01*
X2677254Y2950401D01*
X2599385Y2872533D01*
X2599030Y2872002D01*
X2598515Y2871625D01*
X2521108Y2787576D01*
X2508583Y2792723D01*
X2502829Y2806615D01*
X2490733Y2818711D01*
X2474928Y2825257D01*
X2457822D01*
X2442017Y2818711D01*
X2429921Y2806615D01*
X2423375Y2790811D01*
Y2773704D01*
X2429921Y2757900D01*
X2442017Y2745804D01*
X2457822Y2739257D01*
X2459343D01*
X2464912Y2726557D01*
X2445001Y2704937D01*
X2442215Y2700372D01*
X2439241Y2695922D01*
X2439117Y2695295D01*
X2438784Y2694750D01*
X2437957Y2689464D01*
X2436913Y2684217D01*
X2436912Y2675933D01*
Y2292670D01*
X2307519Y2163277D01*
X2300888Y2153353D01*
X2298560Y2141648D01*
X2298560Y2141646D01*
Y1969581D01*
X2296426Y1968155D01*
X2283726Y1974943D01*
Y2419755D01*
X2313024Y2449054D01*
X2318549Y2457323D01*
X2320490Y2467077D01*
Y2693782D01*
X2318762Y2702466D01*
X2319334Y2703199D01*
X2333081Y2706108D01*
X2335643Y2703547D01*
X2351447Y2697000D01*
X2368553D01*
X2384358Y2703547D01*
X2396454Y2715643D01*
X2403000Y2731447D01*
Y2748553D01*
X2396454Y2764358D01*
X2384358Y2776454D01*
X2368553Y2783000D01*
X2351447D01*
X2335643Y2776454D01*
X2323547Y2764358D01*
X2318253Y2751579D01*
X2312887Y2749441D01*
X2309143Y2748765D01*
X2304440Y2748892D01*
X2294358Y2758975D01*
X2278553Y2765521D01*
X2261447D01*
X2245642Y2758975D01*
X2233546Y2746879D01*
X2230215Y2738836D01*
X2224969Y2736539D01*
X2209982Y2742869D01*
X2208957Y2745700D01*
X2330257Y2867000D01*
X2338553D01*
X2354357Y2873546D01*
X2366453Y2885642D01*
X2373000Y2901447D01*
Y2918553D01*
X2366453Y2934358D01*
X2354357Y2946454D01*
X2338553Y2953000D01*
X2321447D01*
X2305642Y2946454D01*
X2293546Y2934358D01*
X2287000Y2918553D01*
Y2910258D01*
X2098371Y2721629D01*
X2091741Y2711706D01*
X2089412Y2700000D01*
X2089412Y2699999D01*
Y2414359D01*
X2076857Y2408954D01*
X2061053Y2415500D01*
X2052757D01*
X1933088Y2535170D01*
Y2699776D01*
X1938953Y2705642D01*
X1945500Y2721447D01*
Y2738553D01*
X1938953Y2754357D01*
X1926857Y2766453D01*
X1911053Y2773000D01*
X1893947D01*
X1878142Y2766453D01*
X1866046Y2754357D01*
X1859500Y2738553D01*
Y2721447D01*
X1866046Y2705642D01*
X1871912Y2699776D01*
Y2522501D01*
X1871912Y2522500D01*
X1874241Y2510795D01*
X1880871Y2500871D01*
X2009500Y2372242D01*
Y2363947D01*
X2016046Y2348142D01*
X2028142Y2336046D01*
X2043947Y2329500D01*
X2061053D01*
X2076857Y2336046D01*
X2089412Y2330641D01*
Y2280224D01*
X2083547Y2274358D01*
X2077000Y2258553D01*
Y2241447D01*
X2083547Y2225642D01*
X2095642Y2213546D01*
X2111447Y2207000D01*
X2128553D01*
X2144358Y2213546D01*
X2156454Y2225642D01*
X2163000Y2241447D01*
Y2258553D01*
X2156454Y2274358D01*
X2150588Y2280224D01*
Y2675812D01*
X2163288Y2678338D01*
X2168546Y2665642D01*
X2174978Y2659211D01*
X2182283Y2264987D01*
X2181949Y2264980D01*
X2181956Y2264196D01*
X2182284Y2264190D01*
X2172429Y1683240D01*
X2166046Y1676858D01*
X2159500Y1661053D01*
Y1643947D01*
X2166046Y1628143D01*
X2178142Y1616047D01*
X2193947Y1609500D01*
X2211053D01*
X2226858Y1616047D01*
X2238954Y1628143D01*
X2245500Y1643947D01*
Y1661053D01*
X2238954Y1676858D01*
X2233596Y1682215D01*
X2235351Y1785641D01*
X2248140Y1790812D01*
X2444476Y1594476D01*
X2452745Y1588951D01*
X2462500Y1587010D01*
X2675873D01*
X2739998Y1522885D01*
X2741786Y1521691D01*
Y1490240D01*
X2739763Y1488091D01*
X2729086Y1482800D01*
X2723995Y1484909D01*
X2714049D01*
X2704861Y1481103D01*
X2699903Y1476145D01*
X2611273D01*
X2589527Y1497891D01*
X2589947Y1500000D01*
X2588007Y1509754D01*
X2582481Y1518024D01*
X2574212Y1523549D01*
X2564457Y1525490D01*
X2266486D01*
X2256732Y1523549D01*
X2248462Y1518024D01*
X2011976Y1281538D01*
X2006451Y1273268D01*
X2004510Y1263514D01*
Y1171898D01*
X1991810Y1166637D01*
X1987416Y1171031D01*
X1972700Y1177127D01*
Y1130000D01*
Y1082873D01*
X1987416Y1088969D01*
X1991810Y1093363D01*
X2004510Y1088102D01*
Y1010000D01*
X2006451Y1000245D01*
X2011976Y991976D01*
X2121976Y881976D01*
X2130245Y876451D01*
X2140000Y874510D01*
X2260000D01*
X2269755Y876451D01*
X2278024Y881976D01*
X2420558Y1024510D01*
X2494679D01*
X2505642Y1013546D01*
X2521447Y1007000D01*
X2538553D01*
X2554358Y1013546D01*
X2566454Y1025642D01*
X2573000Y1041447D01*
Y1058553D01*
X2566454Y1074358D01*
X2554358Y1086454D01*
X2538553Y1093000D01*
X2521447D01*
X2505642Y1086454D01*
X2494678Y1075489D01*
X2410000D01*
X2400245Y1073549D01*
X2391976Y1068024D01*
X2249442Y925490D01*
X2150558D01*
X2068347Y1007701D01*
X2075541Y1018467D01*
X2080755Y1016308D01*
X2097861D01*
X2113665Y1022854D01*
X2124629Y1033818D01*
X2139308D01*
X2149062Y1035758D01*
X2157331Y1041284D01*
X2279867Y1163819D01*
X2282999Y1162700D01*
X2387127D01*
X2381031Y1177416D01*
X2373739Y1184709D01*
X2503449Y1314420D01*
X2687378D01*
X2696138Y1305660D01*
X2706322Y1301441D01*
Y1339909D01*
X2731722D01*
Y1293462D01*
X2735056Y1289139D01*
X2735462Y1285923D01*
X2678769Y1229230D01*
X2669668Y1233000D01*
X2652562D01*
X2636757Y1226453D01*
X2624661Y1214357D01*
X2618115Y1198553D01*
Y1181447D01*
X2624661Y1165642D01*
X2636757Y1153546D01*
X2652562Y1147000D01*
X2669668D01*
X2685472Y1153546D01*
X2697568Y1165642D01*
X2704115Y1181447D01*
Y1198553D01*
X2701156Y1205695D01*
X2770503Y1275042D01*
X2775258Y1286522D01*
Y1310358D01*
X2778506Y1313184D01*
X2787958Y1317432D01*
X2794049Y1314909D01*
X2803995D01*
X2813183Y1318715D01*
X2818141Y1323673D01*
X2933366D01*
X2949930Y1307109D01*
X2949510Y1305000D01*
X2951451Y1295246D01*
X2956976Y1286976D01*
X2977000Y1266952D01*
Y1251447D01*
X2983546Y1235642D01*
X2995642Y1223546D01*
X3011447Y1217000D01*
X3028553D01*
X3044358Y1223546D01*
X3056454Y1235642D01*
X3063000Y1251447D01*
Y1268553D01*
X3056454Y1284358D01*
X3044358Y1296454D01*
X3028553Y1303000D01*
X3013048D01*
X2993024Y1323024D01*
X2984755Y1328550D01*
X2975000Y1330490D01*
X2972891Y1330070D01*
X2961242Y1341719D01*
X2966502Y1354419D01*
X3121668D01*
X3131422Y1356360D01*
X3133811Y1357956D01*
X3140947Y1355000D01*
X3158053D01*
X3173858Y1361546D01*
X3185954Y1373642D01*
X3192500Y1389447D01*
Y1406553D01*
X3185954Y1422357D01*
X3185625Y1422686D01*
X3190485Y1434419D01*
X3267033D01*
X3314511Y1386942D01*
Y1309538D01*
X3316451Y1299784D01*
X3321976Y1291514D01*
X3446506Y1166985D01*
X3454775Y1161459D01*
X3464530Y1159519D01*
X3574511D01*
X3584265Y1161459D01*
X3592535Y1166985D01*
X3663410Y1237861D01*
X3678391Y1234881D01*
X3680054Y1230866D01*
X3692150Y1218770D01*
X3707954Y1212224D01*
X3725061D01*
X3740865Y1218770D01*
X3752961Y1230866D01*
X3759507Y1246671D01*
Y1263777D01*
X3752961Y1279582D01*
X3747095Y1285448D01*
Y1333493D01*
X3744767Y1345198D01*
X3738136Y1355121D01*
X3681629Y1411629D01*
X3671705Y1418259D01*
X3660000Y1420588D01*
X3659276Y1421872D01*
X3654358Y1433547D01*
X3666454Y1445643D01*
X3673000Y1461447D01*
Y1474964D01*
X3683732Y1480966D01*
X3684733Y1481191D01*
X3800662Y1365262D01*
Y1232637D01*
X3276249Y708224D01*
X3267954D01*
X3252150Y701678D01*
X3240054Y689582D01*
X3233507Y673777D01*
Y656671D01*
X3240054Y640867D01*
X3252150Y628771D01*
X3267954Y622224D01*
X3285060D01*
X3300865Y628771D01*
X3312961Y640867D01*
X3319507Y656671D01*
Y664966D01*
X3435153Y780612D01*
X3447000Y774499D01*
Y761447D01*
X3453546Y745642D01*
X3465642Y733546D01*
X3481447Y727000D01*
X3498553D01*
X3514357Y733546D01*
X3526453Y745642D01*
X3533000Y761447D01*
Y778553D01*
X3526453Y794358D01*
X3514357Y806454D01*
X3498553Y813000D01*
X3485501D01*
X3479388Y824847D01*
X3852878Y1198337D01*
X3852879Y1198338D01*
X3859509Y1208261D01*
X3861838Y1219967D01*
Y1377932D01*
X3859509Y1389637D01*
X3852879Y1399561D01*
X3852878Y1399561D01*
X3703566Y1548873D01*
X3708426Y1560607D01*
X3860606D01*
Y1750606D01*
X3670607D01*
Y1598426D01*
X3658874Y1593566D01*
X3620588Y1631852D01*
Y1810000D01*
X3618259Y1821705D01*
X3611629Y1831629D01*
X3611628Y1831629D01*
X3530378Y1912879D01*
X3520455Y1919510D01*
X3508749Y1921838D01*
X3508748Y1921838D01*
X3290169D01*
X3198537Y2013471D01*
X3199228Y2016074D01*
X3204764Y2025204D01*
X3218758D01*
X3234562Y2031751D01*
X3246658Y2043847D01*
X3253205Y2059651D01*
Y2076758D01*
X3246658Y2092562D01*
X3240088Y2099132D01*
Y2148811D01*
X3250648Y2155866D01*
X3253947Y2154500D01*
X3271053D01*
X3286858Y2161046D01*
X3298954Y2173142D01*
X3305500Y2188947D01*
Y2206053D01*
X3302156Y2214125D01*
X3312923Y2221319D01*
X3362000Y2172243D01*
Y2163947D01*
X3368546Y2148143D01*
X3380642Y2136047D01*
X3383716Y2134773D01*
X3382839Y2121390D01*
X3374691Y2119207D01*
X3355309Y2108017D01*
X3339483Y2092191D01*
X3328293Y2072808D01*
X3322500Y2051190D01*
Y2028809D01*
X3328293Y2007191D01*
X3339483Y1987809D01*
X3355309Y1971983D01*
X3374691Y1960792D01*
X3396309Y1955000D01*
X3418690D01*
X3440309Y1960792D01*
X3459691Y1971983D01*
X3475517Y1987809D01*
X3486707Y2007191D01*
X3492500Y2028809D01*
Y2051190D01*
X3486707Y2072808D01*
X3475517Y2092191D01*
X3459691Y2108017D01*
X3440309Y2119207D01*
X3429125Y2122204D01*
X3428248Y2135587D01*
X3429358Y2136047D01*
X3441454Y2148143D01*
X3448000Y2163947D01*
Y2181053D01*
X3441454Y2196858D01*
X3429358Y2208954D01*
X3413553Y2215500D01*
X3405258D01*
X3363088Y2257670D01*
Y2374776D01*
X3368953Y2380642D01*
X3375500Y2396447D01*
Y2413553D01*
X3368953Y2429357D01*
X3356857Y2441453D01*
X3341053Y2448000D01*
X3336718D01*
X3331457Y2460700D01*
X3385477Y2514719D01*
X3397210Y2509859D01*
Y2278893D01*
X3398762Y2271090D01*
X3403182Y2264474D01*
X3409798Y2260054D01*
X3417602Y2258501D01*
X3937601D01*
X3940000Y2256533D01*
Y1502717D01*
X3927300Y1500191D01*
X3924307Y1507416D01*
X3910692Y1521032D01*
X3895975Y1527127D01*
Y1480000D01*
Y1432873D01*
X3910692Y1438969D01*
X3924307Y1452584D01*
X3927300Y1459810D01*
X3940000Y1457283D01*
Y993708D01*
X3927300Y985222D01*
X3922700Y987127D01*
Y940000D01*
Y892873D01*
X3927300Y894778D01*
X3940000Y886292D01*
Y376408D01*
X3927300Y371148D01*
X3917416Y381031D01*
X3902700Y387127D01*
Y340000D01*
Y292873D01*
X3917416Y298969D01*
X3927300Y308852D01*
X3940000Y303592D01*
Y174156D01*
X3927300Y170753D01*
X3926014Y172981D01*
X3912981Y186014D01*
X3897019Y195229D01*
X3879216Y200000D01*
X3860784D01*
X3842981Y195229D01*
X3827019Y186014D01*
X3813986Y172981D01*
X3804770Y157019D01*
X3800000Y139216D01*
Y120784D01*
X3804770Y102981D01*
X3813986Y87019D01*
X3818305Y82700D01*
X3813044Y70000D01*
X186955D01*
X181695Y82700D01*
X186014Y87019D01*
X195229Y102981D01*
X200000Y120784D01*
Y139216D01*
X195229Y157019D01*
X186014Y172981D01*
X172981Y186014D01*
X157019Y195229D01*
X139216Y200000D01*
X120784D01*
X102981Y195229D01*
X87019Y186014D01*
X73986Y172981D01*
X72700Y170753D01*
X60000Y174156D01*
Y3825844D01*
X72700Y3829247D01*
X73986Y3827019D01*
X87019Y3813986D01*
X102981Y3804770D01*
X120784Y3800000D01*
X139216D01*
X157019Y3804770D01*
X172981Y3813986D01*
X186014Y3827019D01*
X195229Y3842981D01*
X200000Y3860784D01*
Y3879216D01*
X195229Y3897019D01*
X186014Y3912981D01*
X181695Y3917300D01*
X186955Y3930000D01*
X3813045D01*
X3818305Y3917300D01*
D02*
G37*
G36*
X3292436Y2806733D02*
X3287575Y2795000D01*
X3155000D01*
Y2783494D01*
X3142300Y2782243D01*
X3140759Y2789990D01*
X3134129Y2799913D01*
X3134128Y2799914D01*
X3059913Y2874129D01*
X3049990Y2880759D01*
X3038284Y2883088D01*
X3038283Y2883088D01*
X2789004D01*
X2784099Y2895788D01*
X2792726Y2904415D01*
X2799273Y2920220D01*
Y2937326D01*
X2792726Y2953130D01*
X2782430Y2963427D01*
X2784135Y2971937D01*
X2786323Y2976127D01*
X3123042D01*
X3292436Y2806733D01*
D02*
G37*
G36*
X3081912Y2765614D02*
Y2617501D01*
X3081912Y2617500D01*
X3084241Y2605795D01*
X3090871Y2595871D01*
X3178913Y2507830D01*
Y2377926D01*
X3166213Y2374074D01*
X3163833Y2377635D01*
X3142935Y2398533D01*
X3133012Y2405163D01*
X3121306Y2407492D01*
X3121305Y2407492D01*
X3076669D01*
Y2536417D01*
X3076669Y2536419D01*
X3074341Y2548124D01*
X3067710Y2558047D01*
X3025500Y2600258D01*
Y2608553D01*
X3018954Y2624357D01*
X3006858Y2636453D01*
X2991053Y2643000D01*
X2973947D01*
X2958142Y2636453D01*
X2946046Y2624357D01*
X2939500Y2608553D01*
Y2591447D01*
X2946046Y2575642D01*
X2958142Y2563546D01*
X2973947Y2557000D01*
X2982242D01*
X3015494Y2523749D01*
Y2407128D01*
X3009628Y2401262D01*
X3003081Y2385457D01*
Y2368351D01*
X3009628Y2352546D01*
X3016481Y2345693D01*
X3008626Y2335588D01*
X2602501D01*
X2602500Y2335588D01*
X2590795Y2333259D01*
X2580871Y2326629D01*
X2580871Y2326628D01*
X2486108Y2231866D01*
X2479478Y2221942D01*
X2477149Y2210237D01*
X2477149Y2210236D01*
Y2199888D01*
X2408890Y2131629D01*
X2400594D01*
X2384790Y2125082D01*
X2372694Y2112986D01*
X2372435Y2112362D01*
X2359735Y2114889D01*
Y2128978D01*
X2489128Y2258371D01*
X2489129Y2258371D01*
X2495759Y2268295D01*
X2498088Y2280000D01*
X2498088Y2280001D01*
Y2367011D01*
X2510788Y2375497D01*
X2511853Y2375055D01*
X2523788D01*
X2534814Y2379623D01*
X2543253Y2388062D01*
X2547820Y2399088D01*
Y2411023D01*
X2543253Y2422049D01*
X2534814Y2430488D01*
X2523788Y2435055D01*
X2511853D01*
X2510788Y2434614D01*
X2498088Y2443100D01*
Y2672277D01*
X2610466Y2794299D01*
X2621235Y2792386D01*
X2623972Y2790217D01*
X2635674Y2778515D01*
X2651478Y2771968D01*
X2659774D01*
X2700214Y2731528D01*
X2710138Y2724897D01*
X2721843Y2722569D01*
X2949328D01*
X2955193Y2716703D01*
X2970998Y2710157D01*
X2988104D01*
X3003909Y2716703D01*
X3016005Y2728799D01*
X3022551Y2744603D01*
Y2761710D01*
X3016005Y2777514D01*
X3003909Y2789610D01*
X2988104Y2796156D01*
X2970998D01*
X2955193Y2789610D01*
X2949328Y2783744D01*
X2734513D01*
X2718957Y2799300D01*
X2724218Y2812000D01*
X2736053D01*
X2751858Y2818546D01*
X2755224Y2821912D01*
X3025614D01*
X3081912Y2765614D01*
D02*
G37*
G36*
X3111617Y2343336D02*
Y2026547D01*
X3111616Y2026546D01*
X3113945Y2014841D01*
X3120575Y2004917D01*
X3255870Y1869622D01*
X3255871Y1869622D01*
X3265794Y1862991D01*
X3277500Y1860663D01*
X3277501Y1860663D01*
X3496079D01*
X3559412Y1797330D01*
Y1619183D01*
X3559412Y1619182D01*
X3561741Y1607477D01*
X3568371Y1597553D01*
X3641191Y1524733D01*
X3640966Y1523732D01*
X3634964Y1513000D01*
X3621447D01*
X3605643Y1506454D01*
X3599777Y1500588D01*
X3545820D01*
X3418414Y1627994D01*
X3411969Y1632301D01*
X3415821Y1645001D01*
X3418690D01*
X3440309Y1650793D01*
X3459691Y1661983D01*
X3475517Y1677809D01*
X3486707Y1697192D01*
X3492500Y1718810D01*
Y1741191D01*
X3486707Y1762809D01*
X3475517Y1782192D01*
X3459691Y1798017D01*
X3440309Y1809208D01*
X3418690Y1815000D01*
X3396309D01*
X3374691Y1809208D01*
X3355309Y1798017D01*
X3339483Y1782192D01*
X3328293Y1762809D01*
X3322500Y1741191D01*
Y1718810D01*
X3328293Y1697192D01*
X3339483Y1677809D01*
X3355309Y1661983D01*
X3374691Y1650793D01*
X3378948Y1649653D01*
X3377275Y1636953D01*
X3251857D01*
X3244150Y1649653D01*
X3248000Y1658947D01*
Y1676053D01*
X3241454Y1691858D01*
X3235588Y1697724D01*
Y1834020D01*
X3235588Y1834021D01*
X3233259Y1845727D01*
X3226629Y1855650D01*
X3152651Y1929629D01*
X3142727Y1936259D01*
X3131022Y1938588D01*
X3131020Y1938587D01*
X2924778D01*
X2924777Y1938588D01*
X2913071Y1936259D01*
X2903148Y1929629D01*
X2894107Y1920588D01*
X2723720D01*
X2717854Y1926454D01*
X2702050Y1933000D01*
X2684944D01*
X2669139Y1926454D01*
X2657043Y1914358D01*
X2650497Y1898553D01*
Y1881447D01*
X2657043Y1865643D01*
X2669139Y1853547D01*
X2684944Y1847000D01*
X2702050D01*
X2717854Y1853547D01*
X2723720Y1859413D01*
X2906776D01*
X2906777Y1859412D01*
X2918483Y1861741D01*
X2928406Y1868371D01*
X2928976Y1868942D01*
X2929310Y1868875D01*
X2933490Y1855095D01*
X2899520Y1821124D01*
X2897237D01*
X2886794Y1831568D01*
X2872077Y1837664D01*
Y1790536D01*
X2846677D01*
Y1837664D01*
X2831961Y1831568D01*
X2818346Y1817953D01*
X2812713Y1804355D01*
X2801059Y1800341D01*
X2798371Y1800389D01*
X2793000Y1804529D01*
Y1808719D01*
X2786454Y1824524D01*
X2774358Y1836620D01*
X2758553Y1843166D01*
X2741447D01*
X2725643Y1836620D01*
X2713547Y1824524D01*
X2707000Y1808719D01*
Y1791613D01*
X2713547Y1775808D01*
X2725643Y1763713D01*
X2741447Y1757166D01*
X2749742D01*
X2798724Y1708185D01*
Y1679724D01*
X2792858Y1673858D01*
X2786312Y1658053D01*
Y1640947D01*
X2792858Y1625143D01*
X2804954Y1613047D01*
X2820758Y1606500D01*
X2837865D01*
X2844500Y1602067D01*
Y1593947D01*
X2851046Y1578143D01*
X2863142Y1566047D01*
X2878947Y1559500D01*
X2896053D01*
X2898959Y1560704D01*
X2905036Y1557227D01*
X2916352Y1553435D01*
X2928258Y1554262D01*
X2929590Y1554925D01*
X2945382Y1545889D01*
X2945486Y1544405D01*
X2950806Y1533722D01*
X2959810Y1525888D01*
X2999026Y1503451D01*
X3000883Y1502828D01*
X3002511Y1501741D01*
X3006492Y1500949D01*
X3010342Y1499659D01*
X3012295Y1499794D01*
X3014216Y1499412D01*
X3309152D01*
X3309153Y1499412D01*
X3310362Y1499653D01*
X3320197D01*
X3451477Y1368372D01*
X3451478Y1368371D01*
X3461401Y1361741D01*
X3473107Y1359412D01*
X3633279D01*
X3635805Y1346712D01*
X3628944Y1343871D01*
X3616848Y1331775D01*
X3610302Y1315970D01*
Y1298864D01*
X3616848Y1283059D01*
X3626681Y1273227D01*
X3563953Y1210498D01*
X3475088D01*
X3365490Y1320096D01*
Y1397500D01*
X3363550Y1407255D01*
X3358024Y1415524D01*
X3295615Y1477933D01*
X3287346Y1483458D01*
X3277591Y1485399D01*
X2815258D01*
Y1541124D01*
X2817046Y1542318D01*
X2822571Y1550588D01*
X2824511Y1560342D01*
X2822571Y1570097D01*
X2817046Y1578366D01*
X2652354Y1743058D01*
Y1763084D01*
X2663351Y1774081D01*
X2669897Y1789885D01*
Y1806992D01*
X2663351Y1822796D01*
X2651255Y1834892D01*
X2635451Y1841438D01*
X2618344D01*
X2602540Y1834892D01*
X2592526Y1824878D01*
X2588607Y1822924D01*
X2577083Y1823728D01*
X2569358Y1831454D01*
X2553553Y1838000D01*
X2536447D01*
X2520642Y1831454D01*
X2508546Y1819358D01*
X2502000Y1803553D01*
Y1786447D01*
X2508546Y1770642D01*
X2514412Y1764777D01*
Y1700223D01*
X2508546Y1694358D01*
X2502000Y1678553D01*
Y1661447D01*
X2506456Y1650690D01*
X2499606Y1637990D01*
X2473058D01*
X2283726Y1827322D01*
Y1895279D01*
X2296426Y1900540D01*
X2304790Y1892175D01*
X2320595Y1885629D01*
X2337701D01*
X2353505Y1892175D01*
X2365601Y1904271D01*
X2372148Y1920076D01*
Y1937182D01*
X2365601Y1952986D01*
X2359735Y1958852D01*
Y2062369D01*
X2372435Y2064895D01*
X2372694Y2064271D01*
X2384790Y2052175D01*
X2400594Y2045629D01*
X2417701D01*
X2433505Y2052175D01*
X2445601Y2064271D01*
X2452147Y2080076D01*
Y2088371D01*
X2529366Y2165590D01*
X2535996Y2175513D01*
X2538325Y2187218D01*
Y2197567D01*
X2615170Y2274412D01*
X2628401D01*
X2635457Y2263852D01*
X2635321Y2263523D01*
Y2251588D01*
X2639888Y2240562D01*
X2648327Y2232123D01*
X2659353Y2227555D01*
X2671288D01*
X2682314Y2232123D01*
X2690753Y2240562D01*
X2695320Y2251588D01*
Y2263523D01*
X2695184Y2263852D01*
X2702240Y2274412D01*
X3009278D01*
X3015613Y2268077D01*
X3031418Y2261531D01*
X3048524D01*
X3064328Y2268077D01*
X3076424Y2280173D01*
X3082971Y2295977D01*
Y2313084D01*
X3076424Y2328888D01*
X3069514Y2335799D01*
X3070093Y2338709D01*
X3076957Y2346316D01*
X3108636D01*
X3111617Y2343336D01*
D02*
G37*
G36*
X2398575Y1461810D02*
X2385642Y1456454D01*
X2373546Y1444358D01*
X2367000Y1428553D01*
Y1411447D01*
X2373546Y1395642D01*
X2385642Y1383546D01*
X2401447Y1377000D01*
X2402991D01*
X2408252Y1364300D01*
X2134816Y1090864D01*
X2118562D01*
X2113665Y1095761D01*
X2097861Y1102308D01*
X2080755D01*
X2068190Y1097103D01*
X2055490Y1102894D01*
Y1252956D01*
X2277044Y1474510D01*
X2396049D01*
X2398575Y1461810D01*
D02*
G37*
%LPC*%
G36*
X1672700Y3887127D02*
Y3852700D01*
X1707127D01*
X1701031Y3867416D01*
X1687416Y3881031D01*
X1672700Y3887127D01*
D02*
G37*
G36*
X1647300D02*
X1632584Y3881031D01*
X1618969Y3867416D01*
X1612873Y3852700D01*
X1647300D01*
Y3887127D01*
D02*
G37*
G36*
X1229479Y3878168D02*
Y3843741D01*
X1263907D01*
X1257811Y3858457D01*
X1244196Y3872073D01*
X1229479Y3878168D01*
D02*
G37*
G36*
X1204079D02*
X1189363Y3872073D01*
X1175748Y3858457D01*
X1169652Y3843741D01*
X1204079D01*
Y3878168D01*
D02*
G37*
G36*
X662700Y3877127D02*
Y3842700D01*
X697127D01*
X691031Y3857416D01*
X677416Y3871031D01*
X662700Y3877127D01*
D02*
G37*
G36*
X637300D02*
X622584Y3871031D01*
X608969Y3857416D01*
X602873Y3842700D01*
X637300D01*
Y3877127D01*
D02*
G37*
G36*
X1707127Y3827300D02*
X1672700D01*
Y3792873D01*
X1687416Y3798969D01*
X1701031Y3812584D01*
X1707127Y3827300D01*
D02*
G37*
G36*
X1647300D02*
X1612873D01*
X1618969Y3812584D01*
X1632584Y3798969D01*
X1647300Y3792873D01*
Y3827300D01*
D02*
G37*
G36*
X1263907Y3818341D02*
X1229479D01*
Y3783914D01*
X1244196Y3790010D01*
X1257811Y3803625D01*
X1263907Y3818341D01*
D02*
G37*
G36*
X1204079D02*
X1169652D01*
X1175748Y3803625D01*
X1189363Y3790010D01*
X1204079Y3783914D01*
Y3818341D01*
D02*
G37*
G36*
X697127Y3817300D02*
X662700D01*
Y3782873D01*
X677416Y3788969D01*
X691031Y3802584D01*
X697127Y3817300D01*
D02*
G37*
G36*
X637300D02*
X602873D01*
X608969Y3802584D01*
X622584Y3788969D01*
X637300Y3782873D01*
Y3817300D01*
D02*
G37*
G36*
X409216Y3840000D02*
X390784D01*
X372981Y3835230D01*
X357019Y3826014D01*
X343986Y3812981D01*
X334770Y3797019D01*
X330000Y3779216D01*
Y3760784D01*
X334770Y3742981D01*
X343986Y3727019D01*
X357019Y3713986D01*
X372981Y3704771D01*
X390784Y3700000D01*
X409216D01*
X427019Y3704771D01*
X442981Y3713986D01*
X456014Y3727019D01*
X465229Y3742981D01*
X470000Y3760784D01*
Y3779216D01*
X465229Y3797019D01*
X456014Y3812981D01*
X442981Y3826014D01*
X427019Y3835230D01*
X409216Y3840000D01*
D02*
G37*
G36*
X212700Y3587127D02*
Y3552700D01*
X247127D01*
X241032Y3567416D01*
X227416Y3581031D01*
X212700Y3587127D01*
D02*
G37*
G36*
X187300D02*
X172584Y3581031D01*
X158969Y3567416D01*
X152873Y3552700D01*
X187300D01*
Y3587127D01*
D02*
G37*
G36*
X247127Y3527300D02*
X212700D01*
Y3492873D01*
X227416Y3498969D01*
X241032Y3512584D01*
X247127Y3527300D01*
D02*
G37*
G36*
X187300D02*
X152873D01*
X158969Y3512584D01*
X172584Y3498969D01*
X187300Y3492873D01*
Y3527300D01*
D02*
G37*
G36*
X1162700Y3457127D02*
Y3422700D01*
X1197127D01*
X1191031Y3437416D01*
X1177416Y3451031D01*
X1162700Y3457127D01*
D02*
G37*
G36*
X1137300D02*
X1122584Y3451031D01*
X1108969Y3437416D01*
X1102873Y3422700D01*
X1137300D01*
Y3457127D01*
D02*
G37*
G36*
X2596156Y3432015D02*
Y3411659D01*
X2616512D01*
X2613467Y3419012D01*
X2603509Y3428970D01*
X2596156Y3432015D01*
D02*
G37*
G36*
X2570756D02*
X2563404Y3428970D01*
X2553445Y3419012D01*
X2550400Y3411659D01*
X2570756D01*
Y3432015D01*
D02*
G37*
G36*
X2491156D02*
Y3411659D01*
X2511512D01*
X2508467Y3419012D01*
X2498509Y3428970D01*
X2491156Y3432015D01*
D02*
G37*
G36*
X1711305Y3427716D02*
Y3393289D01*
X1745732D01*
X1739636Y3408005D01*
X1726021Y3421620D01*
X1711305Y3427716D01*
D02*
G37*
G36*
X1685905D02*
X1671188Y3421620D01*
X1657573Y3408005D01*
X1651478Y3393289D01*
X1685905D01*
Y3427716D01*
D02*
G37*
G36*
X2616512Y3386259D02*
X2596156D01*
Y3365903D01*
X2603509Y3368949D01*
X2613467Y3378907D01*
X2616512Y3386259D01*
D02*
G37*
G36*
X2570756D02*
X2550400D01*
X2553445Y3378907D01*
X2563404Y3368949D01*
X2570756Y3365903D01*
Y3386259D01*
D02*
G37*
G36*
X2511512D02*
X2491156D01*
Y3365903D01*
X2498509Y3368949D01*
X2508467Y3378907D01*
X2511512Y3386259D01*
D02*
G37*
G36*
X1197127Y3397300D02*
X1162700D01*
Y3362873D01*
X1177416Y3368969D01*
X1191031Y3382584D01*
X1197127Y3397300D01*
D02*
G37*
G36*
X1137300D02*
X1102873D01*
X1108969Y3382584D01*
X1122584Y3368969D01*
X1137300Y3362873D01*
Y3397300D01*
D02*
G37*
G36*
X1745732Y3367889D02*
X1711305D01*
Y3333462D01*
X1726021Y3339557D01*
X1739636Y3353173D01*
X1745732Y3367889D01*
D02*
G37*
G36*
X1685905D02*
X1651478D01*
X1657573Y3353173D01*
X1671188Y3339557D01*
X1685905Y3333462D01*
Y3367889D01*
D02*
G37*
G36*
X844321Y3871561D02*
X826762Y3868068D01*
X811877Y3858123D01*
X801932Y3843238D01*
X798439Y3825679D01*
X801932Y3808121D01*
X811877Y3793236D01*
X929079Y3676034D01*
Y3373859D01*
X932572Y3356301D01*
X942518Y3341416D01*
X957403Y3331470D01*
X974961Y3327978D01*
X992519Y3331470D01*
X1007404Y3341416D01*
X1017350Y3356301D01*
X1020843Y3373859D01*
Y3695039D01*
X1017350Y3712597D01*
X1007404Y3727482D01*
X876764Y3858123D01*
X861879Y3868068D01*
X844321Y3871561D01*
D02*
G37*
G36*
X1002700Y3287127D02*
Y3252700D01*
X1037127D01*
X1031031Y3267416D01*
X1017416Y3281032D01*
X1002700Y3287127D01*
D02*
G37*
G36*
X3002700Y3137127D02*
Y3102700D01*
X3037127D01*
X3031032Y3117416D01*
X3017416Y3131031D01*
X3002700Y3137127D01*
D02*
G37*
G36*
X2977300D02*
X2962584Y3131031D01*
X2948969Y3117416D01*
X2942873Y3102700D01*
X2977300D01*
Y3137127D01*
D02*
G37*
G36*
X2212700Y2957127D02*
Y2922700D01*
X2247127D01*
X2241031Y2937416D01*
X2227416Y2951031D01*
X2212700Y2957127D01*
D02*
G37*
G36*
X2187300D02*
X2172584Y2951031D01*
X2158969Y2937416D01*
X2152873Y2922700D01*
X2187300D01*
Y2957127D01*
D02*
G37*
G36*
X2247127Y2897300D02*
X2212700D01*
Y2862873D01*
X2227416Y2868969D01*
X2241031Y2882584D01*
X2247127Y2897300D01*
D02*
G37*
G36*
X2187300D02*
X2152873D01*
X2158969Y2882584D01*
X2172584Y2868969D01*
X2187300Y2862873D01*
Y2897300D01*
D02*
G37*
G36*
X1052059Y3026376D02*
X1034953D01*
X1019148Y3019830D01*
X1007052Y3007734D01*
X1000506Y2991930D01*
Y2983634D01*
X807614Y2790742D01*
X673686D01*
X667820Y2796608D01*
X652016Y2803154D01*
X634909D01*
X619105Y2796608D01*
X607009Y2784512D01*
X600463Y2768707D01*
Y2751601D01*
X607009Y2735797D01*
X612875Y2729931D01*
Y2676539D01*
X612875Y2676538D01*
X615203Y2664833D01*
X621834Y2654909D01*
X767000Y2509743D01*
Y2501447D01*
X773547Y2485643D01*
X785643Y2473547D01*
X801447Y2467000D01*
X818553D01*
X834358Y2473547D01*
X846454Y2485643D01*
X853000Y2501447D01*
Y2518554D01*
X846454Y2534358D01*
X834358Y2546454D01*
X818553Y2553000D01*
X810258D01*
X674050Y2689208D01*
Y2729567D01*
X820282D01*
X820284Y2729566D01*
X831989Y2731895D01*
X841912Y2738525D01*
X1043763Y2940377D01*
X1052059D01*
X1067863Y2946923D01*
X1073729Y2952789D01*
X1368639D01*
X1458677Y2862751D01*
Y2854456D01*
X1465223Y2838651D01*
X1477319Y2826555D01*
X1493123Y2820009D01*
X1510230D01*
X1526034Y2826555D01*
X1535395Y2835917D01*
X1703272D01*
X1705643Y2833547D01*
X1721447Y2827000D01*
X1738553D01*
X1754358Y2833547D01*
X1766454Y2845643D01*
X1773000Y2861447D01*
Y2878553D01*
X1766454Y2894358D01*
X1754358Y2906454D01*
X1738553Y2913000D01*
X1721447D01*
X1705643Y2906454D01*
X1696281Y2897092D01*
X1528404D01*
X1526034Y2899462D01*
X1510230Y2906009D01*
X1501934D01*
X1402938Y3005005D01*
X1393014Y3011636D01*
X1381309Y3013965D01*
X1381307Y3013964D01*
X1073729D01*
X1067863Y3019830D01*
X1052059Y3026376D01*
D02*
G37*
G36*
X3568553Y2123000D02*
X3551447D01*
X3535642Y2116453D01*
X3523546Y2104357D01*
X3517000Y2088553D01*
Y2071447D01*
X3523546Y2055642D01*
X3535642Y2043546D01*
X3551447Y2037000D01*
X3568553D01*
X3584358Y2043546D01*
X3596454Y2055642D01*
X3603000Y2071447D01*
Y2088553D01*
X3596454Y2104357D01*
X3584358Y2116453D01*
X3568553Y2123000D01*
D02*
G37*
G36*
X3855804Y2186631D02*
X3665804D01*
Y1996631D01*
X3855804D01*
Y2186631D01*
D02*
G37*
G36*
X3842700Y1907127D02*
Y1872700D01*
X3877127D01*
X3871031Y1887416D01*
X3857416Y1901032D01*
X3842700Y1907127D01*
D02*
G37*
G36*
X3817300D02*
X3802584Y1901032D01*
X3788969Y1887416D01*
X3782873Y1872700D01*
X3817300D01*
Y1907127D01*
D02*
G37*
G36*
X1478695Y2234662D02*
X1461588D01*
X1445784Y2228115D01*
X1433688Y2216019D01*
X1427142Y2200215D01*
Y2183109D01*
X1433688Y2167304D01*
X1438939Y2162054D01*
Y1940584D01*
X1432458Y1934103D01*
X1425911Y1918298D01*
Y1901192D01*
X1432458Y1885387D01*
X1444554Y1873291D01*
X1460358Y1866745D01*
X1477464D01*
X1493269Y1873291D01*
X1505365Y1885387D01*
X1511911Y1901192D01*
Y1918298D01*
X1505365Y1934103D01*
X1500114Y1939353D01*
Y2160823D01*
X1506595Y2167304D01*
X1513141Y2183109D01*
Y2200215D01*
X1506595Y2216019D01*
X1494499Y2228115D01*
X1478695Y2234662D01*
D02*
G37*
G36*
X3877127Y1847300D02*
X3842700D01*
Y1812873D01*
X3857416Y1818969D01*
X3871031Y1832584D01*
X3877127Y1847300D01*
D02*
G37*
G36*
X3817300D02*
X3782873D01*
X3788969Y1832584D01*
X3802584Y1818969D01*
X3817300Y1812873D01*
Y1847300D01*
D02*
G37*
G36*
X1988553Y1723000D02*
X1971447D01*
X1955643Y1716454D01*
X1943547Y1704358D01*
X1937000Y1688553D01*
Y1671447D01*
X1943547Y1655642D01*
X1955643Y1643546D01*
X1971447Y1637000D01*
X1988553D01*
X2004358Y1643546D01*
X2016454Y1655642D01*
X2023000Y1671447D01*
Y1688553D01*
X2016454Y1704358D01*
X2004358Y1716454D01*
X1988553Y1723000D01*
D02*
G37*
G36*
X1972700Y1607127D02*
Y1572700D01*
X2007127D01*
X2001031Y1587416D01*
X1987416Y1601031D01*
X1972700Y1607127D01*
D02*
G37*
G36*
X1947300D02*
X1932584Y1601031D01*
X1918968Y1587416D01*
X1912873Y1572700D01*
X1947300D01*
Y1607127D01*
D02*
G37*
G36*
X2007127Y1547300D02*
X1972700D01*
Y1512873D01*
X1987416Y1518969D01*
X2001031Y1532584D01*
X2007127Y1547300D01*
D02*
G37*
G36*
X1947300D02*
X1912873D01*
X1918968Y1532584D01*
X1932584Y1518969D01*
X1947300Y1512873D01*
Y1547300D01*
D02*
G37*
G36*
X3870575Y1527127D02*
X3855859Y1521032D01*
X3842244Y1507416D01*
X3836148Y1492700D01*
X3870575D01*
Y1527127D01*
D02*
G37*
G36*
Y1467300D02*
X3836148D01*
X3842244Y1452584D01*
X3855859Y1438969D01*
X3870575Y1432873D01*
Y1467300D01*
D02*
G37*
G36*
X788553Y2183000D02*
X771447D01*
X755642Y2176454D01*
X743546Y2164358D01*
X737000Y2148553D01*
Y2131447D01*
X743546Y2115642D01*
X749412Y2109777D01*
Y1522670D01*
X709742Y1483000D01*
X701447D01*
X685643Y1476453D01*
X673547Y1464357D01*
X667000Y1448553D01*
Y1431447D01*
X673547Y1415642D01*
X685643Y1403546D01*
X701447Y1397000D01*
X718553D01*
X734358Y1403546D01*
X746454Y1415642D01*
X753000Y1431447D01*
Y1439742D01*
X801629Y1488371D01*
X808259Y1498294D01*
X810588Y1510000D01*
Y2109777D01*
X816454Y2115642D01*
X823000Y2131447D01*
Y2148553D01*
X816454Y2164358D01*
X804358Y2176454D01*
X788553Y2183000D01*
D02*
G37*
G36*
X2540553Y1298241D02*
X2523447D01*
X2507642Y1291695D01*
X2495546Y1279599D01*
X2489000Y1263795D01*
Y1246688D01*
X2495546Y1230884D01*
X2507642Y1218788D01*
X2523447Y1212242D01*
X2540553D01*
X2556358Y1218788D01*
X2568454Y1230884D01*
X2575000Y1246688D01*
Y1263795D01*
X2568454Y1279599D01*
X2556358Y1291695D01*
X2540553Y1298241D01*
D02*
G37*
G36*
X3211053Y1235500D02*
X3193947D01*
X3178142Y1228954D01*
X3166046Y1216858D01*
X3159500Y1201053D01*
Y1183947D01*
X3166046Y1168142D01*
X3178142Y1156046D01*
X3193947Y1149500D01*
X3211053D01*
X3226858Y1156046D01*
X3238954Y1168142D01*
X3245500Y1183947D01*
Y1201053D01*
X3238954Y1216858D01*
X3226858Y1228954D01*
X3211053Y1235500D01*
D02*
G37*
G36*
X1947300Y1177127D02*
X1932584Y1171031D01*
X1918968Y1157416D01*
X1912873Y1142700D01*
X1947300D01*
Y1177127D01*
D02*
G37*
G36*
X1198553Y2323000D02*
X1181447D01*
X1165643Y2316454D01*
X1153547Y2304358D01*
X1147000Y2288553D01*
Y2271447D01*
X1153547Y2255643D01*
X1159412Y2249777D01*
Y1499149D01*
X1159412Y1499148D01*
X1161741Y1487443D01*
X1168371Y1477519D01*
X1473929Y1171961D01*
Y1163665D01*
X1480476Y1147861D01*
X1492572Y1135765D01*
X1508376Y1129219D01*
X1525483D01*
X1541287Y1135765D01*
X1553383Y1147861D01*
X1559929Y1163665D01*
Y1180772D01*
X1553383Y1196576D01*
X1541287Y1208672D01*
X1525483Y1215219D01*
X1517187D01*
X1220588Y1511818D01*
Y2249777D01*
X1226454Y2255643D01*
X1233000Y2271447D01*
Y2288553D01*
X1226454Y2304358D01*
X1214358Y2316454D01*
X1198553Y2323000D01*
D02*
G37*
G36*
X2387127Y1137300D02*
X2352700D01*
Y1102873D01*
X2367416Y1108969D01*
X2381031Y1122584D01*
X2387127Y1137300D01*
D02*
G37*
G36*
X2327300D02*
X2292873D01*
X2298968Y1122584D01*
X2312584Y1108969D01*
X2327300Y1102873D01*
Y1137300D01*
D02*
G37*
G36*
X3048553Y1173000D02*
X3031447D01*
X3015642Y1166454D01*
X3003546Y1154358D01*
X2997000Y1138553D01*
Y1121447D01*
X3003546Y1105642D01*
X3015642Y1093546D01*
X3031447Y1087000D01*
X3048553D01*
X3064358Y1093546D01*
X3076454Y1105642D01*
X3083000Y1121447D01*
Y1138553D01*
X3076454Y1154358D01*
X3064358Y1166454D01*
X3048553Y1173000D01*
D02*
G37*
G36*
X2948553D02*
X2931447D01*
X2915643Y1166454D01*
X2903547Y1154358D01*
X2897000Y1138553D01*
Y1121447D01*
X2903547Y1105642D01*
X2915643Y1093546D01*
X2931447Y1087000D01*
X2948553D01*
X2964358Y1093546D01*
X2976454Y1105642D01*
X2983000Y1121447D01*
Y1138553D01*
X2976454Y1154358D01*
X2964358Y1166454D01*
X2948553Y1173000D01*
D02*
G37*
G36*
X1947300Y1117300D02*
X1912873D01*
X1918968Y1102584D01*
X1932584Y1088969D01*
X1947300Y1082873D01*
Y1117300D01*
D02*
G37*
G36*
X260662Y1220085D02*
X231040D01*
X202428Y1212418D01*
X176774Y1197608D01*
X155828Y1176662D01*
X141018Y1151009D01*
X133351Y1122396D01*
Y1092774D01*
X141018Y1064162D01*
X155828Y1038509D01*
X176774Y1017563D01*
X202428Y1002752D01*
X231040Y995085D01*
X260662D01*
X289274Y1002752D01*
X314927Y1017563D01*
X335873Y1038509D01*
X350684Y1064162D01*
X358351Y1092774D01*
Y1122396D01*
X350684Y1151009D01*
X335873Y1176662D01*
X314927Y1197608D01*
X289274Y1212418D01*
X260662Y1220085D01*
D02*
G37*
G36*
X1626175Y1041140D02*
X1609068D01*
X1593264Y1034594D01*
X1581168Y1022498D01*
X1574622Y1006694D01*
Y989587D01*
X1581168Y973783D01*
X1593264Y961687D01*
X1609068Y955141D01*
X1626175D01*
X1641979Y961687D01*
X1654075Y973783D01*
X1660622Y989587D01*
Y1006694D01*
X1654075Y1022498D01*
X1641979Y1034594D01*
X1626175Y1041140D01*
D02*
G37*
G36*
X3897300Y987127D02*
X3882584Y981031D01*
X3868969Y967416D01*
X3862873Y952700D01*
X3897300D01*
Y987127D01*
D02*
G37*
G36*
X2538553Y993000D02*
X2521447D01*
X2505642Y986453D01*
X2493546Y974357D01*
X2487000Y958553D01*
Y941447D01*
X2493546Y925642D01*
X2505642Y913546D01*
X2521447Y907000D01*
X2538553D01*
X2554358Y913546D01*
X2566454Y925642D01*
X2573000Y941447D01*
Y958553D01*
X2566454Y974357D01*
X2554358Y986453D01*
X2538553Y993000D01*
D02*
G37*
G36*
X3897300Y927300D02*
X3862873D01*
X3868969Y912584D01*
X3882584Y898968D01*
X3897300Y892873D01*
Y927300D01*
D02*
G37*
G36*
X1748954Y925915D02*
Y891488D01*
X1783381D01*
X1777285Y906204D01*
X1763670Y919819D01*
X1748954Y925915D01*
D02*
G37*
G36*
X1723554D02*
X1708838Y919819D01*
X1695223Y906204D01*
X1689127Y891488D01*
X1723554D01*
Y925915D01*
D02*
G37*
G36*
X752700Y917127D02*
Y882700D01*
X787127D01*
X781031Y897416D01*
X767416Y911031D01*
X752700Y917127D01*
D02*
G37*
G36*
X727300D02*
X712584Y911031D01*
X698969Y897416D01*
X692873Y882700D01*
X727300D01*
Y917127D01*
D02*
G37*
G36*
X482700D02*
Y882700D01*
X517127D01*
X511031Y897416D01*
X497416Y911031D01*
X482700Y917127D01*
D02*
G37*
G36*
X457300D02*
X442584Y911031D01*
X428969Y897416D01*
X422873Y882700D01*
X457300D01*
Y917127D01*
D02*
G37*
G36*
X212700D02*
Y882700D01*
X247127D01*
X241032Y897416D01*
X227416Y911031D01*
X212700Y917127D01*
D02*
G37*
G36*
X187300D02*
X172584Y911031D01*
X158969Y897416D01*
X152873Y882700D01*
X187300D01*
Y917127D01*
D02*
G37*
G36*
X2592700Y897127D02*
Y862700D01*
X2627127D01*
X2621031Y877416D01*
X2607416Y891031D01*
X2592700Y897127D01*
D02*
G37*
G36*
X2567300D02*
X2552584Y891031D01*
X2538969Y877416D01*
X2532873Y862700D01*
X2567300D01*
Y897127D01*
D02*
G37*
G36*
X1783381Y866088D02*
X1748954D01*
Y831661D01*
X1763670Y837756D01*
X1777285Y851371D01*
X1783381Y866088D01*
D02*
G37*
G36*
X1723554D02*
X1689127D01*
X1695223Y851371D01*
X1708838Y837756D01*
X1723554Y831661D01*
Y866088D01*
D02*
G37*
G36*
X787127Y857300D02*
X752700D01*
Y822873D01*
X767416Y828969D01*
X781031Y842584D01*
X787127Y857300D01*
D02*
G37*
G36*
X727300D02*
X692873D01*
X698969Y842584D01*
X712584Y828969D01*
X727300Y822873D01*
Y857300D01*
D02*
G37*
G36*
X517127D02*
X482700D01*
Y822873D01*
X497416Y828969D01*
X511031Y842584D01*
X517127Y857300D01*
D02*
G37*
G36*
X457300D02*
X422873D01*
X428969Y842584D01*
X442584Y828969D01*
X457300Y822873D01*
Y857300D01*
D02*
G37*
G36*
X247127D02*
X212700D01*
Y822873D01*
X227416Y828969D01*
X241032Y842584D01*
X247127Y857300D01*
D02*
G37*
G36*
X187300D02*
X152873D01*
X158969Y842584D01*
X172584Y828969D01*
X187300Y822873D01*
Y857300D01*
D02*
G37*
G36*
X2627127Y837300D02*
X2592700D01*
Y802873D01*
X2607416Y808969D01*
X2621031Y822584D01*
X2627127Y837300D01*
D02*
G37*
G36*
X2567300D02*
X2532873D01*
X2538969Y822584D01*
X2552584Y808969D01*
X2567300Y802873D01*
Y837300D01*
D02*
G37*
G36*
X2242700Y717127D02*
Y682700D01*
X2277127D01*
X2271032Y697416D01*
X2257416Y711031D01*
X2242700Y717127D01*
D02*
G37*
G36*
X2217300D02*
X2202584Y711031D01*
X2188969Y697416D01*
X2182873Y682700D01*
X2217300D01*
Y717127D01*
D02*
G37*
G36*
X2277127Y657300D02*
X2242700D01*
Y622873D01*
X2257416Y628969D01*
X2271032Y642584D01*
X2277127Y657300D01*
D02*
G37*
G36*
X2217300D02*
X2182873D01*
X2188969Y642584D01*
X2202584Y628969D01*
X2217300Y622873D01*
Y657300D01*
D02*
G37*
G36*
X742700Y567127D02*
Y532700D01*
X777127D01*
X771031Y547416D01*
X757416Y561031D01*
X742700Y567127D01*
D02*
G37*
G36*
X717300D02*
X702584Y561031D01*
X688969Y547416D01*
X682873Y532700D01*
X717300D01*
Y567127D01*
D02*
G37*
G36*
X952700Y557127D02*
Y522700D01*
X987127D01*
X981032Y537416D01*
X967416Y551031D01*
X952700Y557127D01*
D02*
G37*
G36*
X927300D02*
X912584Y551031D01*
X898969Y537416D01*
X892873Y522700D01*
X927300D01*
Y557127D01*
D02*
G37*
G36*
X1478553Y593000D02*
X1461447D01*
X1445643Y586453D01*
X1433547Y574357D01*
X1427000Y558553D01*
Y541447D01*
X1433547Y525642D01*
X1445643Y513546D01*
X1461447Y507000D01*
X1478553D01*
X1494358Y513546D01*
X1506454Y525642D01*
X1513000Y541447D01*
Y558553D01*
X1506454Y574357D01*
X1494358Y586453D01*
X1478553Y593000D01*
D02*
G37*
G36*
X358351Y712085D02*
X133351D01*
Y487085D01*
X358351D01*
Y712085D01*
D02*
G37*
G36*
X478553Y563000D02*
X461447D01*
X445642Y556454D01*
X433547Y544358D01*
X427000Y528553D01*
Y511447D01*
X433547Y495642D01*
X445642Y483546D01*
X461447Y477000D01*
X478553D01*
X494358Y483546D01*
X506454Y495642D01*
X513000Y511447D01*
Y528553D01*
X506454Y544358D01*
X494358Y556454D01*
X478553Y563000D01*
D02*
G37*
G36*
X777127Y507300D02*
X742700D01*
Y472873D01*
X757416Y478969D01*
X771031Y492584D01*
X777127Y507300D01*
D02*
G37*
G36*
X717300D02*
X682873D01*
X688969Y492584D01*
X702584Y478969D01*
X717300Y472873D01*
Y507300D01*
D02*
G37*
G36*
X987127Y497300D02*
X952700D01*
Y462873D01*
X967416Y468969D01*
X981032Y482584D01*
X987127Y497300D01*
D02*
G37*
G36*
X927300D02*
X892873D01*
X898969Y482584D01*
X912584Y468969D01*
X927300Y462873D01*
Y497300D01*
D02*
G37*
G36*
X3877300Y387127D02*
X3862584Y381031D01*
X3848969Y367416D01*
X3842873Y352700D01*
X3877300D01*
Y387127D01*
D02*
G37*
G36*
X172700Y347127D02*
Y312700D01*
X207127D01*
X201031Y327416D01*
X187416Y341031D01*
X172700Y347127D01*
D02*
G37*
G36*
X147300D02*
X132584Y341031D01*
X118969Y327416D01*
X112873Y312700D01*
X147300D01*
Y347127D01*
D02*
G37*
G36*
X3022700Y337127D02*
Y302700D01*
X3057127D01*
X3051031Y317416D01*
X3037416Y331031D01*
X3022700Y337127D01*
D02*
G37*
G36*
X2997300D02*
X2982584Y331031D01*
X2968969Y317416D01*
X2963810Y304962D01*
X2957561Y299337D01*
X2948900Y298714D01*
X2938553Y303000D01*
X2921447D01*
X2905642Y296453D01*
X2893546Y284357D01*
X2887000Y268553D01*
Y251447D01*
X2893546Y235642D01*
X2905642Y223546D01*
X2921447Y217000D01*
X2938553D01*
X2954358Y223546D01*
X2966454Y235642D01*
X2969821Y243771D01*
X2978338Y247239D01*
X2984733Y248078D01*
X2997300Y242873D01*
Y290000D01*
Y337127D01*
D02*
G37*
G36*
X3877300Y327300D02*
X3842873D01*
X3848969Y312584D01*
X3862584Y298969D01*
X3877300Y292873D01*
Y327300D01*
D02*
G37*
G36*
X207127Y287300D02*
X172700D01*
Y252873D01*
X187416Y258968D01*
X201031Y272584D01*
X207127Y287300D01*
D02*
G37*
G36*
X147300D02*
X112873D01*
X118969Y272584D01*
X132584Y258968D01*
X147300Y252873D01*
Y287300D01*
D02*
G37*
G36*
X2127557Y284127D02*
Y249700D01*
X2161984D01*
X2155889Y264416D01*
X2142274Y278031D01*
X2127557Y284127D01*
D02*
G37*
G36*
X2102157D02*
X2087441Y278031D01*
X2073826Y264416D01*
X2067730Y249700D01*
X2102157D01*
Y284127D01*
D02*
G37*
G36*
X3057127Y277300D02*
X3022700D01*
Y242873D01*
X3037416Y248969D01*
X3051031Y262584D01*
X3057127Y277300D01*
D02*
G37*
G36*
X1104206Y274801D02*
Y240374D01*
X1138633D01*
X1132537Y255090D01*
X1118922Y268705D01*
X1104206Y274801D01*
D02*
G37*
G36*
X1078806D02*
X1064090Y268705D01*
X1050474Y255090D01*
X1044379Y240374D01*
X1078806D01*
Y274801D01*
D02*
G37*
G36*
X618553Y293000D02*
X601447D01*
X585642Y286454D01*
X573546Y274358D01*
X567000Y258553D01*
Y241447D01*
X573546Y225642D01*
X585642Y213546D01*
X601447Y207000D01*
X618553D01*
X634358Y213546D01*
X646454Y225642D01*
X653000Y241447D01*
Y258553D01*
X646454Y274358D01*
X634358Y286454D01*
X618553Y293000D01*
D02*
G37*
G36*
X1138633Y214974D02*
X1104206D01*
Y180547D01*
X1118922Y186643D01*
X1132537Y200258D01*
X1138633Y214974D01*
D02*
G37*
G36*
X1078806D02*
X1044379D01*
X1050474Y200258D01*
X1064090Y186643D01*
X1078806Y180547D01*
Y214974D01*
D02*
G37*
G36*
X3609216Y300000D02*
X3590784D01*
X3572981Y295230D01*
X3557019Y286014D01*
X3543986Y272981D01*
X3534770Y257019D01*
X3530000Y239216D01*
Y220784D01*
X3534770Y202981D01*
X3543986Y187019D01*
X3557019Y173986D01*
X3572981Y164771D01*
X3590784Y160000D01*
X3609216D01*
X3627019Y164771D01*
X3642981Y173986D01*
X3656014Y187019D01*
X3665229Y202981D01*
X3670000Y220784D01*
Y239216D01*
X3665229Y257019D01*
X3656014Y272981D01*
X3642981Y286014D01*
X3627019Y295230D01*
X3609216Y300000D01*
D02*
G37*
G36*
X409216D02*
X390784D01*
X372981Y295230D01*
X357019Y286014D01*
X343986Y272981D01*
X334770Y257019D01*
X330000Y239216D01*
Y220784D01*
X334770Y202981D01*
X343986Y187019D01*
X357019Y173986D01*
X372981Y164771D01*
X390784Y160000D01*
X409216D01*
X427019Y164771D01*
X442981Y173986D01*
X456014Y187019D01*
X465229Y202981D01*
X470000Y220784D01*
Y239216D01*
X465229Y257019D01*
X456014Y272981D01*
X442981Y286014D01*
X427019Y295230D01*
X409216Y300000D01*
D02*
G37*
G36*
X956175Y911140D02*
X939068D01*
X923264Y904594D01*
X911168Y892498D01*
X904622Y876694D01*
Y859587D01*
X911168Y843783D01*
X923264Y831687D01*
X939068Y825141D01*
X947364D01*
X1629740Y142765D01*
X1639663Y136134D01*
X1651369Y133806D01*
X2783678D01*
X2783680Y133805D01*
X2795385Y136134D01*
X2805309Y142765D01*
X2820258Y157714D01*
X2828553D01*
X2844358Y164260D01*
X2856454Y176356D01*
X2863000Y192160D01*
Y209267D01*
X2856454Y225071D01*
X2850588Y230937D01*
Y392329D01*
X3157097Y698839D01*
X3165393D01*
X3181197Y705385D01*
X3193293Y717481D01*
X3199840Y733285D01*
Y750392D01*
X3193293Y766196D01*
X3181197Y778292D01*
X3165393Y784838D01*
X3148287D01*
X3132482Y778292D01*
X3120386Y766196D01*
X3113840Y750392D01*
Y742096D01*
X2798371Y426628D01*
X2791741Y416704D01*
X2789412Y404999D01*
X2789412Y404997D01*
Y230937D01*
X2783546Y225071D01*
X2777000Y209267D01*
Y200971D01*
X2771010Y194981D01*
X2159247D01*
X2153986Y207681D01*
X2155889Y209584D01*
X2161984Y224300D01*
X2067730D01*
X2073826Y209584D01*
X2075729Y207681D01*
X2070468Y194981D01*
X1664039D01*
X990622Y868398D01*
Y876694D01*
X984075Y892498D01*
X971979Y904594D01*
X956175Y911140D01*
D02*
G37*
G36*
X2671288Y2582555D02*
X2659353D01*
X2648327Y2577988D01*
X2639888Y2569549D01*
X2635321Y2558523D01*
Y2546588D01*
X2639888Y2535562D01*
X2648327Y2527123D01*
X2659353Y2522556D01*
X2671288D01*
X2682314Y2527123D01*
X2690753Y2535562D01*
X2695320Y2546588D01*
Y2558523D01*
X2690753Y2569549D01*
X2682314Y2577988D01*
X2671288Y2582555D01*
D02*
G37*
G36*
X2818788Y2435055D02*
X2806853D01*
X2795827Y2430488D01*
X2787388Y2422049D01*
X2782821Y2411023D01*
Y2399088D01*
X2787388Y2388062D01*
X2795827Y2379623D01*
X2806853Y2375055D01*
X2818788D01*
X2829814Y2379623D01*
X2838253Y2388062D01*
X2842821Y2399088D01*
Y2411023D01*
X2838253Y2422049D01*
X2829814Y2430488D01*
X2818788Y2435055D01*
D02*
G37*
G36*
X2671288D02*
X2659353D01*
X2648327Y2430488D01*
X2639888Y2422049D01*
X2635321Y2411023D01*
Y2399088D01*
X2639888Y2388062D01*
X2648327Y2379623D01*
X2659353Y2375055D01*
X2671288D01*
X2682314Y2379623D01*
X2690753Y2388062D01*
X2695320Y2399088D01*
Y2411023D01*
X2690753Y2422049D01*
X2682314Y2430488D01*
X2671288Y2435055D01*
D02*
G37*
G36*
X2881053Y2118000D02*
X2863947D01*
X2848142Y2111453D01*
X2836046Y2099357D01*
X2829500Y2083553D01*
Y2066447D01*
X2836046Y2050642D01*
X2848142Y2038546D01*
X2863947Y2032000D01*
X2881053D01*
X2896858Y2038546D01*
X2908954Y2050642D01*
X2915500Y2066447D01*
Y2083553D01*
X2908954Y2099357D01*
X2896858Y2111453D01*
X2881053Y2118000D01*
D02*
G37*
G36*
X3550315Y1334760D02*
X3533209D01*
X3517404Y1328213D01*
X3505308Y1316117D01*
X3498762Y1300313D01*
Y1283206D01*
X3505308Y1267402D01*
X3517404Y1255306D01*
X3533209Y1248760D01*
X3550315D01*
X3566120Y1255306D01*
X3578216Y1267402D01*
X3584762Y1283206D01*
Y1300313D01*
X3578216Y1316117D01*
X3566120Y1328213D01*
X3550315Y1334760D01*
D02*
G37*
G36*
X2208553Y1353000D02*
X2191447D01*
X2175642Y1346453D01*
X2163546Y1334358D01*
X2157000Y1318553D01*
Y1301447D01*
X2163546Y1285642D01*
X2175642Y1273546D01*
X2191447Y1267000D01*
X2208553D01*
X2224358Y1273546D01*
X2236453Y1285642D01*
X2243000Y1301447D01*
Y1318553D01*
X2236453Y1334358D01*
X2224358Y1346453D01*
X2208553Y1353000D01*
D02*
G37*
%LPD*%
D10*
X2892879Y1655226D02*
G03*
X2875026Y1654011I-5379J-52726D01*
G01*
X2212867Y2263672D02*
G03*
X2212866Y2265553I-52992J899D01*
G01*
X2951543Y1649241D02*
X2957401Y1643383D01*
X2863587Y1651241D02*
X2875026Y1654011D01*
X2975000Y1552437D02*
X3014216Y1530000D01*
X2887500Y1602500D02*
X2920226Y1583776D01*
X2975000Y1552437D01*
X2957401Y1643383D02*
X2994419Y1606365D01*
X2847018Y1651241D02*
X2863587Y1651241D01*
X2829312Y1651241D02*
X2847018D01*
X2892879Y1655226D02*
X2951543Y1649241D01*
X3014216Y1530000D02*
X3309153D01*
X3508749Y1891250D02*
X3590000Y1810000D01*
Y1619182D02*
Y1810000D01*
X3277500Y1891250D02*
X3508749D01*
X3590000Y1619182D02*
X3831250Y1377932D01*
X3142204Y2026546D02*
X3277500Y1891250D01*
X1381309Y2983377D02*
X1501676Y2863009D01*
X1043506Y2983377D02*
X1381309D01*
X820284Y2760154D02*
X1043506Y2983377D01*
X643463Y2760154D02*
X820284D01*
X1145025Y3405025D02*
X1150000Y3410000D01*
X2662500Y1190000D02*
X2670000Y1197500D01*
X2661115Y1190000D02*
X2662500D01*
X3010000Y1667500D02*
Y1674536D01*
X2977053Y1707482D02*
Y1780447D01*
X2859377Y1790536D02*
X2912190D01*
X2989653Y1868000D01*
X3114453D01*
X2977053Y1707482D02*
X3010000Y1674536D01*
X3205000Y1667500D02*
Y1834021D01*
X3150000Y1720000D02*
Y1832453D01*
X3114453Y1868000D02*
X3150000Y1832453D01*
X3131022Y1908000D02*
X3205000Y1834021D01*
X2924777Y1908000D02*
X3131022D01*
X2906777Y1890000D02*
X2924777Y1908000D01*
X2693497Y1890000D02*
X2906777D01*
X2829312Y1649500D02*
Y1651241D01*
X2545000Y1670000D02*
Y1795000D01*
X3205000Y1667500D02*
X3205000Y1667500D01*
X2994419Y1606365D02*
X3396785D01*
X3309153Y1530000D02*
X3309393Y1530240D01*
X3396785Y1606365D02*
X3533150Y1470000D01*
X2750000Y1800166D02*
X2829312Y1720855D01*
Y1651241D02*
Y1720855D01*
X1693630Y3385564D02*
X1698605Y3380589D01*
X2870000Y3080000D02*
Y3239634D01*
X2698883Y2928773D02*
X2756273D01*
X2621014Y2850904D02*
X2698883Y2928773D01*
X1472500Y2482500D02*
X1996715Y3006715D01*
X3135712D02*
X3387602Y2754825D01*
X1996715Y3006715D02*
X3135712D01*
X1954716Y3387000D02*
X2371953D01*
X1931716Y3410000D02*
X1954716Y3387000D01*
X1930000Y3410000D02*
X1931716D01*
X2410000Y3425047D02*
Y3780000D01*
X2371953Y3387000D02*
X2410000Y3425047D01*
X1651369Y164393D02*
X2783680D01*
X947622Y868141D02*
X1651369Y164393D01*
X2783680D02*
X2820000Y200714D01*
X2490000Y3780000D02*
X2720000Y3550000D01*
X2410000Y3780000D02*
X2490000D01*
X2720000Y3389634D02*
X2870000Y3239634D01*
X2720000Y3389634D02*
Y3550000D01*
Y3550000D02*
X3047219D01*
X3055752Y3558533D01*
X3062788D01*
X2730000Y2852500D02*
X3038284D01*
X2727500Y2855000D02*
X2730000Y2852500D01*
X2467500Y2684216D02*
X2621014Y2850904D01*
X1047500Y3090000D02*
X2730000D01*
X582500Y3555000D02*
X1047500Y3090000D01*
X1505172Y2866504D02*
X1726504D01*
X1501676Y2863009D02*
X1505172Y2866504D01*
X1726504D02*
X1730000Y2870000D01*
X1472500Y2347500D02*
Y2482500D01*
X643463Y2676538D02*
X810000Y2510000D01*
X643463Y2676538D02*
Y2760154D01*
X1469526Y1910360D02*
Y2191047D01*
X3039501Y2305000D02*
X3039971Y2304531D01*
X2602500Y2305000D02*
X3039501D01*
X3121306Y2376904D02*
X3142204Y2356006D01*
X3046081Y2376904D02*
X3121306D01*
X3142204Y2026546D02*
Y2356006D01*
X2507737Y2210237D02*
X2602500Y2305000D01*
X2982500Y2600000D02*
X3046081Y2536419D01*
Y2376904D02*
Y2536419D01*
X1190000Y1499148D02*
Y2280000D01*
Y1499148D02*
X1516929Y1172219D01*
X780000Y1510000D02*
Y2140000D01*
X710000Y1440000D02*
X780000Y1510000D01*
X2820000Y200714D02*
Y404999D01*
X2040000Y3830000D02*
X2350000Y3520000D01*
Y3440000D02*
Y3520000D01*
X3831250Y1219967D02*
Y1377932D01*
X3276507Y665224D02*
X3831250Y1219967D01*
X3533150Y1470000D02*
X3630000D01*
X3473107Y1390000D02*
X3660000D01*
X3716507Y1255224D02*
Y1333493D01*
X3660000Y1390000D02*
X3716507Y1333493D01*
X3332867Y1530240D02*
X3473107Y1390000D01*
X3309393Y1530240D02*
X3332867D01*
X2660032Y2814968D02*
X2721843Y2753157D01*
X2979551D01*
X2660035Y2814971D02*
Y2814972D01*
X2660032Y2814968D02*
X2660035Y2814971D01*
X2467500Y2280000D02*
Y2675932D01*
X2467500Y2684216D01*
X2120000Y2250000D02*
Y2700000D01*
X2330000Y2910000D01*
X2820000Y404999D02*
X3156840Y741838D01*
X2202500Y1652500D02*
X2212867Y2263672D01*
X2205000Y2690000D02*
X2212866Y2265553D01*
X3209500Y2068909D02*
Y2520500D01*
X3112500Y2617500D02*
X3209500Y2520500D01*
Y2068909D02*
X3210205Y2068204D01*
X2329148Y2141648D02*
X2467500Y2280000D01*
X2329148Y1928629D02*
Y2141648D01*
X2409148Y2088629D02*
X2507737Y2187218D01*
Y2210237D01*
X3092500Y1670000D02*
Y1815000D01*
X3262500Y2197500D02*
Y2435000D01*
Y2197500D02*
X3262500Y2197500D01*
X3262500Y2435000D02*
X3387602Y2560102D01*
Y2754825D01*
X3112500Y2617500D02*
Y2778284D01*
X3038284Y2852500D02*
X3112500Y2778284D01*
X3332500Y2245000D02*
X3405000Y2172500D01*
X3332500Y2245000D02*
Y2405000D01*
X1902500Y2522500D02*
Y2730000D01*
Y2522500D02*
X2052500Y2372500D01*
D33*
X2030000Y1263514D02*
X2266486Y1500000D01*
X2564457D01*
X2030000Y1010000D02*
Y1263514D01*
X2626864Y1798405D02*
X2626897Y1798438D01*
X2626864Y1732500D02*
Y1798405D01*
Y1732500D02*
X2799022Y1560342D01*
Y1459909D02*
Y1560342D01*
X2686432Y1612500D02*
X2758022Y1540909D01*
X2462500Y1612500D02*
X2686432D01*
X2758022Y1460000D02*
Y1540909D01*
X2459909Y1379909D02*
X2719022D01*
X2139308Y1059308D02*
X2459909Y1379909D01*
X2340000Y1187018D02*
X2492891Y1339909D01*
X2719022D01*
X2410000Y1420000D02*
X2410091Y1419909D01*
X2799022D01*
X2564457Y1500000D02*
X2604548Y1459909D01*
X2719022D01*
X2340000Y1150000D02*
Y1187018D01*
X2089308Y1059308D02*
X2139308D01*
X2719022Y1379909D02*
X3121668D01*
X2670000Y1197500D02*
X2759022Y1286522D01*
Y1339909D01*
X3277591Y1459909D02*
X3340000Y1397500D01*
X2799022Y1459909D02*
X3277591D01*
X2030000Y1010000D02*
X2140000Y900000D01*
X2410000Y1050000D02*
X2530000D01*
X2260000Y900000D02*
X2410000Y1050000D01*
X1469526Y2191047D02*
X1470142Y2191662D01*
X1468911Y1909745D02*
X1469526Y1910360D01*
X3121668Y1379909D02*
X3139759Y1398000D01*
X3149500D01*
X3340000Y1309538D02*
Y1397500D01*
Y1309538D02*
X3464530Y1185009D01*
X3574511D01*
X3653302Y1263800D01*
Y1307417D01*
X2258236Y1816764D02*
X2462500Y1612500D01*
X2270000Y2718781D02*
Y2722521D01*
X2258236Y1816764D02*
Y2430313D01*
X2295000Y2467077D02*
Y2693782D01*
X2270000Y2718781D02*
X2295000Y2693782D01*
X2258236Y2430313D02*
X2295000Y2467077D01*
X2530000Y1050000D02*
X2530000Y1050000D01*
X2140000Y900000D02*
X2260000D01*
X2940091Y1339909D02*
X2975000Y1305000D01*
X3020000Y1260000D01*
X2799022Y1339909D02*
X2940091D01*
D35*
X844321Y3825679D02*
X974961Y3695039D01*
Y3373859D02*
Y3695039D01*
D43*
X3250000Y2700000D02*
D03*
X3760804Y2091631D02*
D03*
X3765607Y1655607D02*
D03*
D44*
X3407500Y2040000D02*
D03*
Y1730000D02*
D03*
D46*
X245851Y1107585D02*
D03*
D47*
Y599585D02*
D03*
D48*
X2665321Y2552555D02*
D03*
X2812821Y2405055D02*
D03*
X2517820D02*
D03*
X2665321Y2257555D02*
D03*
Y2405055D02*
D03*
X2583456Y3398959D02*
D03*
X2478456D02*
D03*
D49*
X2409148Y2088629D02*
D03*
X2466375Y2782257D02*
D03*
X2120000Y2250000D02*
D03*
X2205000Y2690000D02*
D03*
X2660032Y2814968D02*
D03*
X2052500Y2372500D02*
D03*
X2360000Y2740000D02*
D03*
X2693497Y1890000D02*
D03*
X2870000Y3080000D02*
D03*
X2727500Y2855000D02*
D03*
X3092500Y1815000D02*
D03*
X3046081Y2376904D02*
D03*
X2329148Y1928629D02*
D03*
X2872500Y2075000D02*
D03*
X2270000Y2722521D02*
D03*
X2626897Y1798438D02*
D03*
X3039971Y2304531D02*
D03*
X2982500Y2600000D02*
D03*
X2750000Y1800166D02*
D03*
X2545000Y1795000D02*
D03*
X2887500Y1602500D02*
D03*
X2114857Y237000D02*
D03*
X2200000Y1310000D02*
D03*
X3890000Y340000D02*
D03*
X3490000Y770000D02*
D03*
X1470000Y550000D02*
D03*
X940000Y510000D02*
D03*
X610000Y250000D02*
D03*
X470000Y520000D02*
D03*
X3560000Y2080000D02*
D03*
X3830000Y1860000D02*
D03*
X3010000Y290000D02*
D03*
X2580000Y850000D02*
D03*
X1960000Y1560000D02*
D03*
Y1130000D02*
D03*
X1736254Y878788D02*
D03*
X2230000Y670000D02*
D03*
X730000Y520000D02*
D03*
X1091506Y227674D02*
D03*
X740000Y870000D02*
D03*
X160000Y300000D02*
D03*
X470000Y870000D02*
D03*
X200000D02*
D03*
X1660000Y3840000D02*
D03*
X200000Y3540000D02*
D03*
X650000Y3830000D02*
D03*
X2410000Y1420000D02*
D03*
X2532000Y1255242D02*
D03*
X2340000Y1150000D02*
D03*
X2977053Y1780447D02*
D03*
X3150000Y1720000D02*
D03*
X2829312Y1649500D02*
D03*
X2859377Y1790536D02*
D03*
X3205000Y1667500D02*
D03*
X1698605Y3380589D02*
D03*
X1216779Y3831041D02*
D03*
X1150000Y3410000D02*
D03*
X990000Y3240000D02*
D03*
X3910000Y940000D02*
D03*
X3883275Y1480000D02*
D03*
X2756273Y2928773D02*
D03*
X2990000Y3090000D02*
D03*
X2200000Y2910000D02*
D03*
X1930000Y3410000D02*
D03*
X2410000Y3780000D02*
D03*
X2720000Y3550000D02*
D03*
X3062788Y3558533D02*
D03*
X2730000Y3090000D02*
D03*
X1043506Y2983377D02*
D03*
X1730000Y2870000D02*
D03*
X1501676Y2863009D02*
D03*
X643463Y2760154D02*
D03*
X810000Y2510000D02*
D03*
X1470142Y2191662D02*
D03*
X1468911Y1909745D02*
D03*
X844321Y3825679D02*
D03*
X974961Y3373859D02*
D03*
X1980000Y1680000D02*
D03*
X1516929Y1172219D02*
D03*
X1190000Y2280000D02*
D03*
X780000Y2140000D02*
D03*
X710000Y1440000D02*
D03*
X2820000Y200714D02*
D03*
X947622Y868141D02*
D03*
X582500Y3555000D02*
D03*
X3149500Y1398000D02*
D03*
X2089308Y1059308D02*
D03*
X3276507Y665224D02*
D03*
X3630000Y1470000D02*
D03*
X3653302Y1307417D02*
D03*
X3541762Y1291760D02*
D03*
X3716507Y1255224D02*
D03*
X2330000Y2910000D02*
D03*
X3156840Y741838D02*
D03*
X2930000Y260000D02*
D03*
X1617622Y998140D02*
D03*
X2350000Y3440000D02*
D03*
X2040000Y3830000D02*
D03*
X2530000Y1050000D02*
D03*
Y950000D02*
D03*
X3040000Y1130000D02*
D03*
X2940000D02*
D03*
X3020000Y1260000D02*
D03*
X3202500Y1192500D02*
D03*
X2661115Y1190000D02*
D03*
X3210205Y2068204D02*
D03*
X3092500Y1670000D02*
D03*
X3010000Y1667500D02*
D03*
X2545000Y1670000D02*
D03*
X2202500Y1652500D02*
D03*
X1472500Y2347500D02*
D03*
X3262500Y2197500D02*
D03*
X3332500Y2405000D02*
D03*
X3405000Y2172500D02*
D03*
X1902500Y2730000D02*
D03*
X2979551Y2753157D02*
D03*
D50*
X3392602Y3703894D02*
D03*
X2719022Y1379909D02*
D03*
X2759022Y1339909D02*
D03*
X2719022Y1459909D02*
D03*
X2799022D02*
D03*
X2759022D02*
D03*
X2799022Y1419909D02*
D03*
Y1339909D02*
D03*
X2719022D02*
D03*
%TF.MD5,cdd619f3cf3a1f2e56d56006764f35c2*%
M02*
