%TF.GenerationSoftware,Altium Limited,Altium Designer,21.2.0 (30)*%
G04 Layer_Color=255*
%FSLAX45Y45*%
%MOMM*%
%TF.SameCoordinates,6E67B6D2-48A1-4C3A-8D5B-8FB38F647B41*%
%TF.FilePolarity,Positive*%
%TF.FileFunction,Pads,Top*%
%TF.Part,Single*%
G01*
G75*
%TA.AperFunction,SMDPad,CuDef*%
%ADD11O,0.60000X0.25000*%
%ADD12O,0.25000X0.60000*%
%ADD13R,3.45000X3.45000*%
%ADD14R,0.90000X0.75000*%
%ADD15R,0.72000X0.76000*%
%ADD16R,0.65000X0.35000*%
%ADD17R,0.55000X0.60000*%
%ADD18R,0.70000X0.60000*%
%ADD19R,0.35600X0.50800*%
%ADD20R,0.91213X0.95814*%
%ADD21R,1.20000X1.80000*%
%TA.AperFunction,BGAPad,CuDef*%
%ADD22C,0.23000*%
%TA.AperFunction,SMDPad,CuDef*%
%ADD23R,0.85822X0.90606*%
%TA.AperFunction,ConnectorPad*%
%ADD24R,0.92500X0.30000*%
%ADD25R,0.30000X0.80000*%
%TA.AperFunction,SMDPad,CuDef*%
%ADD26R,1.60000X2.60000*%
%ADD27R,0.50000X0.50000*%
%TA.AperFunction,ConnectorPad*%
%ADD28R,0.50000X0.90000*%
%TA.AperFunction,SMDPad,CuDef*%
%ADD29R,0.70000X0.50000*%
%ADD30R,1.50000X1.50000*%
%TA.AperFunction,ConnectorPad*%
%ADD31R,1.60000X0.81000*%
%ADD32R,3.00000X2.10000*%
%TA.AperFunction,ComponentPad*%
%ADD43R,1.50000X1.50000*%
%ADD44C,1.30000*%
%TA.AperFunction,ViaPad*%
%ADD45C,3.00000*%
%TA.AperFunction,ComponentPad*%
%ADD46C,1.85000*%
%ADD47R,1.85000X1.85000*%
D11*
X2905320Y2580055D02*
D03*
Y2530055D02*
D03*
Y2480055D02*
D03*
Y2430055D02*
D03*
Y2380055D02*
D03*
Y2330056D02*
D03*
Y2280056D02*
D03*
Y2230056D02*
D03*
X2425321D02*
D03*
Y2280056D02*
D03*
Y2330056D02*
D03*
Y2380055D02*
D03*
Y2430055D02*
D03*
Y2480055D02*
D03*
Y2530055D02*
D03*
Y2580055D02*
D03*
D12*
X2840320Y2165056D02*
D03*
X2790320D02*
D03*
X2740320D02*
D03*
X2690321D02*
D03*
X2640321D02*
D03*
X2590321D02*
D03*
X2540321D02*
D03*
X2490321D02*
D03*
Y2645055D02*
D03*
X2540321D02*
D03*
X2590321D02*
D03*
X2640321D02*
D03*
X2690321D02*
D03*
X2740320D02*
D03*
X2790320D02*
D03*
X2840320D02*
D03*
D13*
X2665321Y2405055D02*
D03*
D14*
X2890610Y3665385D02*
D03*
Y3785385D02*
D03*
D15*
X2762500Y3384000D02*
D03*
Y3286000D02*
D03*
X3605000Y533500D02*
D03*
Y631500D02*
D03*
X3777500Y536000D02*
D03*
Y634000D02*
D03*
X3200000Y3399000D02*
D03*
Y3301000D02*
D03*
D16*
X2262960Y3617247D02*
D03*
Y3532247D02*
D03*
X2546236Y3536880D02*
D03*
Y3621880D02*
D03*
X1019378Y1865623D02*
D03*
Y1950623D02*
D03*
D17*
X2014862Y3320927D02*
D03*
Y3235927D02*
D03*
X2635000Y2987500D02*
D03*
Y2902500D02*
D03*
X2490000D02*
D03*
Y2987500D02*
D03*
X1524221Y3321769D02*
D03*
Y3236769D02*
D03*
X1277083Y1368803D02*
D03*
Y1453803D02*
D03*
X2840000Y1960923D02*
D03*
Y1875923D02*
D03*
X3010000Y1963423D02*
D03*
Y1878423D02*
D03*
D18*
X1967500Y2842500D02*
D03*
Y2982500D02*
D03*
X2067500Y2842500D02*
D03*
Y2982500D02*
D03*
D19*
X1826022Y3502559D02*
D03*
X1776022Y3632059D02*
D03*
X1876022D02*
D03*
D20*
X1767500Y3132699D02*
D03*
Y2987301D02*
D03*
X1345000Y2732101D02*
D03*
Y2877500D02*
D03*
X1030748Y2874268D02*
D03*
Y2728869D02*
D03*
X1348515Y2205354D02*
D03*
Y2350753D02*
D03*
X1021232Y2206016D02*
D03*
Y2351415D02*
D03*
X1350454Y1915347D02*
D03*
Y1769949D02*
D03*
X880000Y1590199D02*
D03*
Y1444801D02*
D03*
X1720000Y1264801D02*
D03*
Y1410199D02*
D03*
X2015000Y1259801D02*
D03*
Y1405199D02*
D03*
X2317500Y1262101D02*
D03*
Y1407500D02*
D03*
X3380000Y1470199D02*
D03*
Y1324801D02*
D03*
X2880000Y748939D02*
D03*
Y894338D02*
D03*
X3005000Y557699D02*
D03*
Y412301D02*
D03*
X2717500Y552699D02*
D03*
Y407301D02*
D03*
X2425000Y550199D02*
D03*
Y404801D02*
D03*
D21*
X1870000Y1877500D02*
D03*
Y2277500D02*
D03*
X1630000D02*
D03*
Y1877500D02*
D03*
D22*
X2839022Y1339909D02*
D03*
Y1379909D02*
D03*
Y1419909D02*
D03*
X2799022Y1299909D02*
D03*
Y1339909D02*
D03*
Y1379909D02*
D03*
Y1419909D02*
D03*
X2759022Y1299909D02*
D03*
Y1339909D02*
D03*
Y1379909D02*
D03*
Y1419909D02*
D03*
X2719022Y1299909D02*
D03*
Y1339909D02*
D03*
Y1379909D02*
D03*
Y1419909D02*
D03*
X2679022Y1299909D02*
D03*
Y1339909D02*
D03*
Y1379909D02*
D03*
Y1419909D02*
D03*
X2839022Y1459909D02*
D03*
X2799022D02*
D03*
X2759022D02*
D03*
X2719022D02*
D03*
X2679022D02*
D03*
X2839022Y1499909D02*
D03*
X2799022D02*
D03*
X2759022D02*
D03*
X2719022D02*
D03*
X2679022D02*
D03*
X2839022Y1299909D02*
D03*
D23*
X635000Y1147608D02*
D03*
Y1032392D02*
D03*
X942500Y1147608D02*
D03*
Y1032392D02*
D03*
X3275000Y555108D02*
D03*
Y439892D02*
D03*
D24*
X3495711Y890542D02*
D03*
Y1090542D02*
D03*
Y1040542D02*
D03*
Y940542D02*
D03*
Y990542D02*
D03*
X3753261Y890542D02*
D03*
Y1090542D02*
D03*
Y1040542D02*
D03*
Y940542D02*
D03*
Y990542D02*
D03*
D25*
X3574511Y1118042D02*
D03*
X3624511D02*
D03*
X3674511D02*
D03*
X3574511Y863042D02*
D03*
X3624511D02*
D03*
X3674511D02*
D03*
D26*
X1336506Y355734D02*
D03*
Y715733D02*
D03*
X1936652Y718787D02*
D03*
Y358788D02*
D03*
D27*
X3392602Y3493893D02*
D03*
D28*
Y3703894D02*
D03*
D29*
X1182500Y3600000D02*
D03*
X832500Y3100000D02*
D03*
Y3600000D02*
D03*
D30*
X415237Y3386105D02*
D03*
Y3136105D02*
D03*
D31*
X594291Y2013938D02*
D03*
Y2138938D02*
D03*
Y2388938D02*
D03*
Y2513938D02*
D03*
Y2263938D02*
D03*
D32*
X304291Y2768938D02*
D03*
Y1758938D02*
D03*
D43*
X3250000Y2700000D02*
D03*
X3760804Y2091631D02*
D03*
X3765607Y1655607D02*
D03*
D44*
X3407500Y2040000D02*
D03*
Y1730000D02*
D03*
D45*
X3600000Y230000D02*
D03*
X400000Y3770000D02*
D03*
Y230000D02*
D03*
D46*
X245851Y1107585D02*
D03*
D47*
Y599585D02*
D03*
%TF.MD5,9d5da38a9401ee8b775bcbcf42b8bf2c*%
M02*
