M48
;Layer_Color=9474304
;FILE_FORMAT=4:4
METRIC,LZ
;TYPE=PLATED
T2F00S00C0.2000
T3F00S00C0.3000
T4F00S00C0.7000
T5F00S00C0.9000
T6F00S00C1.0000
T7F00S00C1.1000
%
T02
X00016Y0003
X00061Y00025
X00073Y00052
X00094Y00051
X00094762Y00086814
X00074Y00087
X00047
X0002
X00047Y00052
X00109151Y00022767
X00147Y00055
X00173625Y00087879
X00161762Y00099814
X00151693Y00117222
X00196Y00113
X00208931Y00105931
X00234Y00115
X00253Y00105
Y00095
X00258Y00085
X00266112Y00119
X002532Y00125524
X0022Y00131
X00223Y00067
X00211486Y000237
X00282Y00020071
X00293Y00026
X00301Y00029
X00304Y00113
X00294
X00302Y00126
X0032025Y0011925
X0031495Y001398
X00354176Y00129176
X00349Y00077
X00391Y00094
X00389Y00034
X00388327Y00148
X00383Y00186
X00356Y00208
X0028725Y002075
X00285938Y00179054
X00315Y00172
X00281282Y00240506
X00266532
Y00255256
X00251782Y00240506
X00266532Y00225756
X00240915Y00208863
X00212Y00225
X00147014Y00219166
X00146891Y00190975
X00198Y00168
X00196Y00156
X00173Y00287
X00150168Y00286301
X0016986Y00338059
X00193Y00341
X00235Y00344
X00247846Y00339896
X00258346
X00272Y00355
X00306279Y00355853
X00299Y00309
X00287Y00308
X00273Y00309
X00246637Y00278226
X00236Y00274
X00233Y00291
X0022
X00204Y00383
X00166Y00384
X00241Y00378
X00121678Y00383104
X00084432Y00382568
X00065Y00383
X0005825Y003555
X0002Y00354
X00097496Y00337386
X00099Y00324
X00104351Y00298338
X00115Y00341
X00064346Y00276015
X00081Y00251
X00078Y00214
X00119Y00228
X00071Y00144
T03
X0033926Y00370389
T04
X0034075Y00173
Y00204
T05
X00376561Y00165561
X0037608Y00209163
X00325Y0027
T06
X00013Y00013
X0004Y00023
X0036
X00387Y00013
Y00387
X0004Y00377
X00013Y00387
T07
X00024585Y00059959
Y00110758
M30
