%TF.GenerationSoftware,Altium Limited,Altium Designer,21.2.0 (30)*%
G04 Layer_Color=0*
%FSLAX45Y45*%
%MOMM*%
%TF.SameCoordinates,6E67B6D2-48A1-4C3A-8D5B-8FB38F647B41*%
%TF.FilePolarity,Positive*%
%TF.FileFunction,Other,Top_Component_Center*%
%TF.Part,Single*%
G01*
G75*
%TA.AperFunction,NonConductor*%
%ADD65C,0.10000*%
D65*
X2890610Y3675385D02*
Y3775385D01*
X2840611Y3725385D02*
X2940610D01*
X2212960Y3574747D02*
X2312960D01*
X2262960Y3524747D02*
Y3624747D01*
X2546236Y3529381D02*
Y3629380D01*
X2496236Y3579380D02*
X2596236D01*
X1717500Y3060000D02*
X1817500D01*
X1767500Y3010000D02*
Y3110000D01*
X1295000Y2804801D02*
X1395000D01*
X1345000Y2754801D02*
Y2854800D01*
X980748Y2801569D02*
X1080748D01*
X1030748Y2751569D02*
Y2851569D01*
X1298515Y2278054D02*
X1398515D01*
X1348515Y2228054D02*
Y2328054D01*
X971232Y2278716D02*
X1071232D01*
X1021232Y2228716D02*
Y2328716D01*
X969378Y1908123D02*
X1069378D01*
X1019378Y1858123D02*
Y1958123D01*
X1300454Y1842648D02*
X1400454D01*
X1350454Y1792648D02*
Y1892648D01*
X830000Y1517500D02*
X930000D01*
X880000Y1467500D02*
Y1567500D01*
X585000Y1090000D02*
X685000D01*
X635000Y1040000D02*
Y1140000D01*
X892500Y1090000D02*
X992500D01*
X942500Y1040000D02*
Y1140000D01*
X1670000Y1337500D02*
X1770000D01*
X1720000Y1287500D02*
Y1387500D01*
X1965000Y1332500D02*
X2065000D01*
X2015000Y1282500D02*
Y1382500D01*
X2267500Y1334801D02*
X2367500D01*
X2317500Y1284801D02*
Y1384801D01*
X3330000Y1397500D02*
X3430000D01*
X3380000Y1347500D02*
Y1447500D01*
X2830000Y821638D02*
X2930000D01*
X2880000Y771639D02*
Y871638D01*
X3005000Y435000D02*
Y535000D01*
X2955000Y485000D02*
X3055000D01*
X3225000Y497500D02*
X3325000D01*
X3275000Y447500D02*
Y547500D01*
X2717500Y430000D02*
Y530000D01*
X2667500Y480000D02*
X2767500D01*
X2425000Y427500D02*
Y527500D01*
X2375000Y477500D02*
X2475000D01*
%TF.MD5,2f7d4f73ac15bdecca9215ca8c0d3fec*%
M02*
