%TF.GenerationSoftware,Altium Limited,Altium Designer,21.2.0 (30)*%
G04 Layer_Color=16711935*
%FSLAX45Y45*%
%MOMM*%
%TF.SameCoordinates,6E67B6D2-48A1-4C3A-8D5B-8FB38F647B41*%
%TF.FilePolarity,Positive*%
%TF.FileFunction,Other,Top_3D_Body*%
%TF.Part,Single*%
G01*
G75*
%TA.AperFunction,NonConductor*%
%ADD34C,0.20000*%
%ADD65C,0.10000*%
D34*
X2843110Y3637885D02*
Y3812885D01*
X2938110D01*
Y3637885D02*
Y3812885D01*
X2843110Y3637885D02*
X2938110D01*
X2227960Y3519747D02*
X2297960D01*
Y3629747D01*
X2227960D02*
X2297960D01*
X2227960Y3519747D02*
Y3629747D01*
X2511236Y3524381D02*
Y3634380D01*
X2581236D01*
Y3524381D02*
Y3634380D01*
X2511236Y3524381D02*
X2581236D01*
X1727500Y2980000D02*
X1807500D01*
Y3140000D01*
X1727500D02*
X1807500D01*
X1727500Y2980000D02*
Y3140000D01*
X1305000Y2884801D02*
X1385000D01*
X1305000Y2724800D02*
Y2884801D01*
Y2724800D02*
X1385000D01*
Y2884801D01*
X990748Y2721569D02*
X1070748D01*
Y2881569D01*
X990748D02*
X1070748D01*
X990748Y2721569D02*
Y2881569D01*
X1308515Y2358054D02*
X1388515D01*
X1308515Y2198054D02*
Y2358054D01*
Y2198054D02*
X1388515D01*
Y2358054D01*
X981232Y2358716D02*
X1061232D01*
X981232Y2198716D02*
Y2358716D01*
Y2198716D02*
X1061232D01*
Y2358716D01*
X984378Y1963123D02*
X1054378D01*
X984378Y1853123D02*
Y1963123D01*
Y1853123D02*
X1054378D01*
Y1963123D01*
X1310454Y1762648D02*
X1390454D01*
Y1922648D01*
X1310454D02*
X1390454D01*
X1310454Y1762648D02*
Y1922648D01*
X840000Y1437500D02*
X920000D01*
Y1597500D01*
X840000D02*
X920000D01*
X840000Y1437500D02*
Y1597500D01*
X595000Y1010000D02*
X675000D01*
Y1170000D01*
X595000D02*
X675000D01*
X595000Y1010000D02*
Y1170000D01*
X902500Y1010000D02*
X982500D01*
Y1170000D01*
X902500D02*
X982500D01*
X902500Y1010000D02*
Y1170000D01*
X1680000Y1417500D02*
X1760000D01*
X1680000Y1257500D02*
Y1417500D01*
Y1257500D02*
X1760000D01*
Y1417500D01*
X1975000Y1412500D02*
X2055000D01*
X1975000Y1252500D02*
Y1412500D01*
Y1252500D02*
X2055000D01*
Y1412500D01*
X2277500Y1414801D02*
X2357500D01*
X2277500Y1254801D02*
Y1414801D01*
Y1254801D02*
X2357500D01*
Y1414801D01*
X3340000Y1317500D02*
X3420000D01*
Y1477500D01*
X3340000D02*
X3420000D01*
X3340000Y1317500D02*
Y1477500D01*
X2840000Y901639D02*
X2920000D01*
X2840000Y741638D02*
Y901639D01*
Y741638D02*
X2920000D01*
Y901639D01*
X3045000Y405000D02*
Y565000D01*
X2965000Y405000D02*
X3045000D01*
X2965000D02*
Y565000D01*
X3045000D01*
X3235000Y417500D02*
X3315000D01*
Y577500D01*
X3235000D02*
X3315000D01*
X3235000Y417500D02*
Y577500D01*
X2757500Y400000D02*
Y560000D01*
X2677500Y400000D02*
X2757500D01*
X2677500D02*
Y560000D01*
X2757500D01*
X2465000Y397500D02*
Y557500D01*
X2385000Y397500D02*
X2465000D01*
X2385000D02*
Y557500D01*
X2465000D01*
D65*
X1536506Y535733D02*
G03*
X1536506Y535733I-200000J0D01*
G01*
X2136652Y538788D02*
G03*
X2136652Y538788I-200000J0D01*
G01*
X2790000Y3282500D02*
Y3387500D01*
X2735000Y3282500D02*
Y3387500D01*
X2790000D01*
X2735000Y3282500D02*
X2790000D01*
X2042362Y3225927D02*
Y3330927D01*
X1987362Y3225927D02*
Y3330927D01*
X2042362D01*
X1987362Y3225927D02*
X2042362D01*
X2662500Y2892500D02*
Y2997500D01*
X2607500Y2892500D02*
Y2997500D01*
X2662500D01*
X2607500Y2892500D02*
X2662500D01*
X2462500D02*
X2517500D01*
X2462500Y2997500D02*
X2517500D01*
X2462500Y2892500D02*
Y2997500D01*
X2517500Y2892500D02*
Y2997500D01*
X1746022Y3527309D02*
Y3607309D01*
X1906022Y3527309D02*
Y3607309D01*
X1746022Y3527309D02*
X1906022D01*
X1746022Y3607309D02*
X1906022D01*
X1551721Y3226769D02*
Y3331769D01*
X1496721Y3226769D02*
Y3331769D01*
X1551721D01*
X1496721Y3226769D02*
X1551721D01*
X1910000Y1827500D02*
Y2327500D01*
X1590000Y1827500D02*
Y2327500D01*
X1910000D01*
X1590000Y1827500D02*
X1910000D01*
X1249583Y1358803D02*
Y1463803D01*
X1304583Y1358803D02*
Y1463803D01*
X1249583Y1358803D02*
X1304583D01*
X1249583Y1463803D02*
X1304583D01*
X2867500Y1865923D02*
Y1970923D01*
X2812500Y1865923D02*
Y1970923D01*
X2867500D01*
X2812500Y1865923D02*
X2867500D01*
X3037500Y1868423D02*
Y1973423D01*
X2982500Y1868423D02*
Y1973423D01*
X3037500D01*
X2982500Y1868423D02*
X3037500D01*
X3577500Y530000D02*
X3632500D01*
X3577500Y635000D02*
X3632500D01*
X3577500Y530000D02*
Y635000D01*
X3632500Y530000D02*
Y635000D01*
X3750000Y532500D02*
X3805000D01*
X3750000Y637500D02*
X3805000D01*
X3750000Y532500D02*
Y637500D01*
X3805000Y532500D02*
Y637500D01*
X3172500Y3402500D02*
X3227500D01*
X3172500Y3297500D02*
X3227500D01*
Y3402500D01*
X3172500Y3297500D02*
Y3402500D01*
X422291Y1863938D02*
X524291D01*
X104291Y1863938D02*
X134291D01*
Y1715938D02*
Y1863938D01*
X422291Y1713938D02*
Y1863938D01*
X136290Y1713938D02*
X422291D01*
X136290Y2813938D02*
X422291D01*
Y2663938D02*
Y2813938D01*
X134291Y2663938D02*
Y2811938D01*
X104291Y2663938D02*
X134291D01*
X104291Y1863938D02*
Y2663938D01*
X524291Y1863938D02*
Y2663938D01*
X422291D02*
X524291D01*
%TF.MD5,5c133e462798fb1612ccbf7b6aa9e1fb*%
M02*
