%TF.GenerationSoftware,Altium Limited,Altium Designer,21.2.0 (30)*%
G04 Layer_Color=65535*
%FSLAX45Y45*%
%MOMM*%
%TF.SameCoordinates,6E67B6D2-48A1-4C3A-8D5B-8FB38F647B41*%
%TF.FilePolarity,Positive*%
%TF.FileFunction,Legend,Top*%
%TF.Part,Single*%
G01*
G75*
%TA.AperFunction,NonConductor*%
%ADD34C,0.20000*%
%ADD62C,0.25000*%
%ADD65C,0.10000*%
%ADD66C,0.15000*%
%ADD67C,0.25400*%
G36*
X707352Y834639D02*
X755422D01*
Y825025D01*
X803491D01*
Y815411D01*
X851560D01*
Y805797D01*
X899629D01*
Y796184D01*
X957312D01*
Y786570D01*
X995767D01*
Y776956D01*
X1005381D01*
Y719273D01*
X976540D01*
Y728887D01*
X928471D01*
Y738501D01*
X870788D01*
Y748114D01*
X822718D01*
Y757728D01*
X765036D01*
Y767342D01*
X707352D01*
Y776956D01*
X688125D01*
Y844253D01*
X707352D01*
Y834639D01*
D02*
G37*
G36*
X649670Y748114D02*
X659283D01*
Y738501D01*
X649670D01*
Y709659D01*
X659283D01*
Y690431D01*
X649670D01*
Y671204D01*
X659283D01*
Y661590D01*
X649670D01*
Y642362D01*
X659283D01*
Y632748D01*
X649670D01*
Y594293D01*
X659283D01*
Y584679D01*
X649670D01*
Y498155D01*
X659283D01*
Y478927D01*
X668897D01*
Y469313D01*
X678511D01*
Y459699D01*
X697739D01*
Y450086D01*
X736194D01*
Y459699D01*
X755422D01*
Y469313D01*
X765036D01*
Y478927D01*
X774649D01*
Y498155D01*
X784263D01*
Y526996D01*
X793877D01*
Y536610D01*
X803491D01*
Y546224D01*
X813105D01*
Y565451D01*
X832332D01*
Y575065D01*
X841946D01*
Y584679D01*
X918857D01*
Y575065D01*
X938084D01*
Y565451D01*
X957312D01*
Y555838D01*
X966926D01*
Y546224D01*
X976540D01*
Y526996D01*
X986154D01*
Y507769D01*
X995767D01*
Y402016D01*
X986154D01*
Y382789D01*
X995767D01*
Y363561D01*
X986154D01*
Y334720D01*
X995767D01*
Y267423D01*
X986154D01*
Y248195D01*
X995767D01*
Y238581D01*
X986154D01*
Y152057D01*
X995767D01*
Y142443D01*
X947698D01*
Y152057D01*
X899629D01*
Y161671D01*
X841946D01*
Y171284D01*
X793877D01*
Y180898D01*
X755422D01*
Y190512D01*
X697739D01*
Y200126D01*
X649670D01*
Y209740D01*
X582373D01*
Y219354D01*
X591987D01*
Y248195D01*
X582373D01*
Y267423D01*
X640056D01*
Y257809D01*
X688125D01*
Y248195D01*
X726580D01*
Y238581D01*
X784263D01*
Y228968D01*
X841946D01*
Y219354D01*
X870788D01*
Y209740D01*
X928471D01*
Y498155D01*
X918857D01*
Y507769D01*
X909243D01*
Y517383D01*
X851560D01*
Y507769D01*
X841946D01*
Y498155D01*
X832332D01*
Y469313D01*
X822718D01*
Y450086D01*
X813105D01*
Y440472D01*
X803491D01*
Y421244D01*
X793877D01*
Y411630D01*
X784263D01*
Y402016D01*
X765036D01*
Y392403D01*
X688125D01*
Y402016D01*
X668897D01*
Y411630D01*
X649670D01*
Y421244D01*
X640056D01*
Y430858D01*
X630442D01*
Y440472D01*
X620828D01*
Y450086D01*
X611214D01*
Y469313D01*
X601601D01*
Y853866D01*
X649670D01*
Y748114D01*
D02*
G37*
D34*
X2899258Y1232909D02*
G03*
X2899258Y1232909I-2236J0D01*
G01*
X3306913Y2002932D02*
G03*
X3305287Y1768478I100587J-117930D01*
G01*
X3509713Y1769476D02*
G03*
X3508087Y2003929I-102213J116524D01*
G01*
X2905320Y2165055D02*
Y2550055D01*
X2810320Y2645055D02*
X2905320Y2550055D01*
X2420320Y2645055D02*
X2810320D01*
X2420320Y2165055D02*
X2905320D01*
X2420320D02*
Y2645055D01*
X2805610Y3637885D02*
Y3812885D01*
X2975910Y3638418D02*
Y3813418D01*
X2332960Y3519747D02*
Y3629747D01*
X2192960Y3519747D02*
Y3629747D01*
X2476236Y3524381D02*
Y3634380D01*
X2616236Y3524381D02*
Y3634380D01*
X1746022Y3527309D02*
X1768222D01*
X1883822D02*
X1906022D01*
X1746022Y3527309D02*
Y3568569D01*
X1906022Y3527309D02*
Y3568569D01*
X1681893Y2939393D02*
Y3180607D01*
X1853107Y2939393D02*
Y3180607D01*
X1430607Y2684194D02*
Y2925407D01*
X1259393Y2684194D02*
Y2925407D01*
X945142Y2680962D02*
Y2922175D01*
X1116355Y2680962D02*
Y2922175D01*
X1730000Y1827500D02*
X1770000D01*
X1730000Y2327500D02*
X1770000D01*
X1434122Y2157447D02*
Y2398660D01*
X1262909Y2157447D02*
Y2398660D01*
X1106839Y2158109D02*
Y2399322D01*
X935625Y2158109D02*
Y2399322D01*
X949378Y1853123D02*
Y1963123D01*
X1089378Y1853123D02*
Y1963123D01*
X1264847Y1722042D02*
Y1963255D01*
X1436060Y1722042D02*
Y1963255D01*
X2642022Y1257909D02*
Y1540909D01*
X2874022Y1257909D02*
Y1540909D01*
X2642022Y1257909D02*
X2874022D01*
X2642022Y1540909D02*
X2874022D01*
X794393Y1396893D02*
Y1638106D01*
X965607Y1396893D02*
Y1638106D01*
X547500Y987089D02*
Y1192911D01*
X722500Y987089D02*
Y1192911D01*
X855000Y987089D02*
Y1192911D01*
X1030000Y987089D02*
Y1192911D01*
X1805607Y1216893D02*
Y1458107D01*
X1634393Y1216893D02*
Y1458107D01*
X2100607Y1211893D02*
Y1453107D01*
X1929393Y1211893D02*
Y1453107D01*
X2403107Y1214194D02*
Y1455407D01*
X2231893Y1214194D02*
Y1455407D01*
X3294393Y1276894D02*
Y1518107D01*
X3465607Y1276894D02*
Y1518107D01*
X2965607Y701032D02*
Y942245D01*
X2794393Y701032D02*
Y942245D01*
X2919393Y364393D02*
Y605607D01*
X3090607Y364393D02*
Y605607D01*
X3187500Y394589D02*
Y600411D01*
X3362500Y394589D02*
Y600411D01*
X2631893Y359393D02*
Y600607D01*
X2803107Y359393D02*
Y600607D01*
X2339394Y356893D02*
Y598106D01*
X2510607Y356893D02*
Y598106D01*
X1456506Y310733D02*
X1561506D01*
X1111506D02*
X1216506D01*
X1561506D02*
Y690733D01*
X1491506Y760734D02*
X1561506Y690733D01*
X1456506Y760734D02*
X1491506D01*
X1111506Y310733D02*
Y690733D01*
X1181506Y760734D01*
X1216506D01*
X1781652Y763788D02*
X1816652D01*
X1711652Y693788D02*
X1781652Y763788D01*
X1711652Y313788D02*
Y693788D01*
X2056652Y763788D02*
X2091652D01*
X2161652Y693788D01*
Y313788D02*
Y693788D01*
X1711652Y313788D02*
X1816652D01*
X2056652D02*
X2161652D01*
X300937Y3019805D02*
X529537D01*
Y3502405D01*
X300937Y3019805D02*
Y3502405D01*
X529537D01*
X531791Y2583938D02*
Y2678938D01*
X481791D02*
X531791D01*
X96791Y1848938D02*
Y2678938D01*
X126791D01*
Y2828938D01*
X481791Y1848938D02*
X531791D01*
Y1943938D01*
X126791Y1698938D02*
Y1848938D01*
X96791D02*
X126791D01*
X118851Y425585D02*
X372851D01*
Y1281585D01*
X118851D02*
X372851D01*
X118851Y425585D02*
Y1281585D01*
D62*
X1882500Y1732500D02*
G03*
X1882500Y1732500I-12500J0D01*
G01*
X596790Y2611438D02*
G03*
X596790Y2611438I-12500J0D01*
G01*
X258451Y377485D02*
G03*
X258451Y377485I-12500J0D01*
G01*
D65*
X1938822Y3632009D02*
G03*
X1938822Y3632009I-5000J0D01*
G01*
X1055300Y3346000D02*
G03*
X1055300Y3346000I-45000J0D01*
G01*
X1937500Y2832500D02*
Y2992500D01*
X2097500D01*
Y2832500D02*
Y2992500D01*
X1937500Y2832500D02*
X2097500D01*
X3782011Y845542D02*
Y1135542D01*
X3467011D02*
X3782011D01*
X3467011Y845542D02*
Y1135542D01*
Y845542D02*
X3782011D01*
X3417602Y3748893D02*
Y3798093D01*
Y3798893D02*
X3937502D01*
X3937602Y2278893D02*
Y3798893D01*
X3417602Y2278893D02*
X3937602D01*
X3417602Y2281194D02*
X3419102Y2279693D01*
X3417602Y2278893D02*
Y3748893D01*
X769000Y3092000D02*
Y3612700D01*
X1238900D01*
Y3142800D02*
Y3612700D01*
X1188100Y3092000D02*
X1238900Y3142800D01*
X769000Y3092000D02*
X1188100D01*
D66*
X2853348Y3546658D02*
X2840019Y3559987D01*
X2813361D01*
X2800032Y3546658D01*
Y3493342D01*
X2813361Y3480013D01*
X2840019D01*
X2853348Y3493342D01*
X2880006Y3480013D02*
X2906664D01*
X2893336D01*
Y3559987D01*
X2880006Y3546658D01*
X2946652D02*
X2959981Y3559987D01*
X2986639D01*
X2999968Y3546658D01*
Y3533329D01*
X2986639Y3520000D01*
X2999968Y3506671D01*
Y3493342D01*
X2986639Y3480013D01*
X2959981D01*
X2946652Y3493342D01*
Y3506671D01*
X2959981Y3520000D01*
X2946652Y3533329D01*
Y3546658D01*
X2959981Y3520000D02*
X2986639D01*
X2867674Y3227274D02*
X2854345Y3240603D01*
X2827687D01*
X2814358Y3227274D01*
Y3173958D01*
X2827687Y3160629D01*
X2854345D01*
X2867674Y3173958D01*
X2894332Y3160629D02*
X2920990D01*
X2907661D01*
Y3240603D01*
X2894332Y3227274D01*
X2960977Y3173958D02*
X2974306Y3160629D01*
X3000964D01*
X3014293Y3173958D01*
Y3227274D01*
X3000964Y3240603D01*
X2974306D01*
X2960977Y3227274D01*
Y3213945D01*
X2974306Y3200616D01*
X3014293D01*
X2133355Y3479987D02*
Y3400013D01*
X2186671D01*
X2266645Y3479987D02*
X2213329D01*
Y3440000D01*
X2239987Y3453329D01*
X2253316D01*
X2266645Y3440000D01*
Y3413342D01*
X2253316Y3400013D01*
X2226658D01*
X2213329Y3413342D01*
X2524311Y3488947D02*
Y3408972D01*
X2577627D01*
X2657601Y3488947D02*
X2630943Y3475618D01*
X2604285Y3448960D01*
Y3422302D01*
X2617615Y3408972D01*
X2644273D01*
X2657601Y3422302D01*
Y3435630D01*
X2644273Y3448960D01*
X2604285D01*
X2103355Y3260013D02*
Y3339987D01*
X2143342D01*
X2156671Y3326658D01*
Y3300000D01*
X2143342Y3286671D01*
X2103355D01*
X2130013D02*
X2156671Y3260013D01*
X2183329Y3326658D02*
X2196658Y3339987D01*
X2223316D01*
X2236645Y3326658D01*
Y3313329D01*
X2223316Y3300000D01*
X2236645Y3286671D01*
Y3273342D01*
X2223316Y3260013D01*
X2196658D01*
X2183329Y3273342D01*
Y3286671D01*
X2196658Y3300000D01*
X2183329Y3313329D01*
Y3326658D01*
X2196658Y3300000D02*
X2223316D01*
X2715524Y2937843D02*
Y3017817D01*
X2755512D01*
X2768841Y3004488D01*
Y2977830D01*
X2755512Y2964501D01*
X2715524D01*
X2742182D02*
X2768841Y2937843D01*
X2795499Y2951172D02*
X2808828Y2937843D01*
X2835486D01*
X2848815Y2951172D01*
Y3004488D01*
X2835486Y3017817D01*
X2808828D01*
X2795499Y3004488D01*
Y2991159D01*
X2808828Y2977830D01*
X2848815D01*
X2220032Y2780013D02*
Y2859987D01*
X2260019D01*
X2273348Y2846658D01*
Y2820000D01*
X2260019Y2806671D01*
X2220032D01*
X2246690D02*
X2273348Y2780013D01*
X2300006D02*
X2326664D01*
X2313335D01*
Y2859987D01*
X2300006Y2846658D01*
X2366652D02*
X2379981Y2859987D01*
X2406639D01*
X2419968Y2846658D01*
Y2793342D01*
X2406639Y2780013D01*
X2379981D01*
X2366652Y2793342D01*
Y2846658D01*
X1920152Y3148316D02*
Y3068342D01*
X1973468D01*
X2053442Y3148316D02*
X2000126D01*
Y3068342D01*
X2053442D01*
X2000126Y3108329D02*
X2026784D01*
X2080100Y3148316D02*
Y3068342D01*
X2120087D01*
X2133416Y3081671D01*
Y3134987D01*
X2120087Y3148316D01*
X2080100D01*
X2160074Y3068342D02*
X2186732D01*
X2173403D01*
Y3148316D01*
X2160074Y3134987D01*
X2240049Y3055013D02*
X2253378Y3068342D01*
Y3081671D01*
X2240049D01*
Y3068342D01*
X2253378D01*
X2240049Y3055013D01*
X2226719Y3041684D01*
X2360010Y3068342D02*
X2306694D01*
X2360010Y3121658D01*
Y3134987D01*
X2346681Y3148316D01*
X2320023D01*
X2306694Y3134987D01*
X1385988Y3050013D02*
Y3129987D01*
X1425975D01*
X1439304Y3116658D01*
Y3090000D01*
X1425975Y3076671D01*
X1385988D01*
X1412646D02*
X1439304Y3050013D01*
X1465962D02*
X1492620D01*
X1479291D01*
Y3129987D01*
X1465962Y3116658D01*
X1532608Y3050013D02*
X1559266D01*
X1545937D01*
Y3129987D01*
X1532608Y3116658D01*
X1693348Y2826658D02*
X1680019Y2839987D01*
X1653361D01*
X1640032Y2826658D01*
Y2773342D01*
X1653361Y2760013D01*
X1680019D01*
X1693348Y2773342D01*
X1720006Y2760013D02*
X1746665D01*
X1733336D01*
Y2839987D01*
X1720006Y2826658D01*
X1839968Y2839987D02*
X1786652D01*
Y2800000D01*
X1813310Y2813329D01*
X1826639D01*
X1839968Y2800000D01*
Y2773342D01*
X1826639Y2760013D01*
X1799981D01*
X1786652Y2773342D01*
X1353348Y1676658D02*
X1340019Y1689987D01*
X1313361D01*
X1300032Y1676658D01*
Y1623342D01*
X1313361Y1610013D01*
X1340019D01*
X1353348Y1623342D01*
X1380006Y1610013D02*
X1406664D01*
X1393336D01*
Y1689987D01*
X1380006Y1676658D01*
X1446652Y1689987D02*
X1499968D01*
Y1676658D01*
X1446652Y1623342D01*
Y1610013D01*
X1304618Y2596659D02*
X1291289Y2609987D01*
X1264631D01*
X1251302Y2596659D01*
Y2543342D01*
X1264631Y2530013D01*
X1291289D01*
X1304618Y2543342D01*
X1331276Y2530013D02*
X1357934D01*
X1344605D01*
Y2609987D01*
X1331276Y2596659D01*
X1451238Y2609987D02*
X1424580Y2596659D01*
X1397922Y2570000D01*
Y2543342D01*
X1411251Y2530013D01*
X1437909D01*
X1451238Y2543342D01*
Y2556671D01*
X1437909Y2570000D01*
X1397922D01*
X974580Y2598879D02*
X961251Y2612208D01*
X934593D01*
X921264Y2598879D01*
Y2545563D01*
X934593Y2532233D01*
X961251D01*
X974580Y2545563D01*
X1001238Y2532233D02*
X1027896D01*
X1014567D01*
Y2612208D01*
X1001238Y2598879D01*
X1121200Y2532233D02*
X1067884D01*
X1121200Y2585550D01*
Y2598879D01*
X1107871Y2612208D01*
X1081213D01*
X1067884Y2598879D01*
X1321608Y2112695D02*
X1308279Y2126023D01*
X1281621D01*
X1268292Y2112695D01*
Y2059378D01*
X1281621Y2046049D01*
X1308279D01*
X1321608Y2059378D01*
X1348266Y2046049D02*
X1374924D01*
X1361595D01*
Y2126023D01*
X1348266Y2112695D01*
X1454898Y2046049D02*
Y2126023D01*
X1414911Y2086036D01*
X1468227D01*
X969835Y2101480D02*
X956506Y2114809D01*
X929848D01*
X916519Y2101480D01*
Y2048164D01*
X929848Y2034834D01*
X956506D01*
X969835Y2048164D01*
X996493Y2034834D02*
X1023151D01*
X1009822D01*
Y2114809D01*
X996493Y2101480D01*
X1063139D02*
X1076468Y2114809D01*
X1103126D01*
X1116455Y2101480D01*
Y2088151D01*
X1103126Y2074822D01*
X1089797D01*
X1103126D01*
X1116455Y2061492D01*
Y2048164D01*
X1103126Y2034834D01*
X1076468D01*
X1063139Y2048164D01*
X954128Y1778110D02*
Y1698136D01*
X1007444D01*
X1087418D02*
X1034102D01*
X1087418Y1751452D01*
Y1764781D01*
X1074089Y1778110D01*
X1047431D01*
X1034102Y1764781D01*
X914299Y1329495D02*
X900970Y1342824D01*
X874312D01*
X860983Y1329495D01*
Y1276179D01*
X874312Y1262850D01*
X900970D01*
X914299Y1276179D01*
X940957Y1262850D02*
X967615D01*
X954286D01*
Y1342824D01*
X940957Y1329495D01*
X1007603Y1262850D02*
X1034261D01*
X1020932D01*
Y1342824D01*
X1007603Y1329495D01*
X523355Y959987D02*
Y880013D01*
X576671D01*
X643316D02*
Y959987D01*
X603329Y920000D01*
X656645D01*
X963355Y959987D02*
Y880013D01*
X1016671D01*
X1043329Y946658D02*
X1056658Y959987D01*
X1083316D01*
X1096645Y946658D01*
Y933329D01*
X1083316Y920000D01*
X1069987D01*
X1083316D01*
X1096645Y906671D01*
Y893342D01*
X1083316Y880013D01*
X1056658D01*
X1043329Y893342D01*
X1730000Y1166658D02*
X1716671Y1179987D01*
X1690013D01*
X1676684Y1166658D01*
Y1113342D01*
X1690013Y1100013D01*
X1716671D01*
X1730000Y1113342D01*
X1756658Y1100013D02*
X1783316D01*
X1769987D01*
Y1179987D01*
X1756658Y1166658D01*
X2066671Y1156658D02*
X2053342Y1169987D01*
X2026684D01*
X2013355Y1156658D01*
Y1103342D01*
X2026684Y1090013D01*
X2053342D01*
X2066671Y1103342D01*
X2146645Y1090013D02*
X2093329D01*
X2146645Y1143329D01*
Y1156658D01*
X2133316Y1169987D01*
X2106658D01*
X2093329Y1156658D01*
X1233355Y1220013D02*
Y1299987D01*
X1273342D01*
X1286671Y1286658D01*
Y1260000D01*
X1273342Y1246671D01*
X1233355D01*
X1260013D02*
X1286671Y1220013D01*
X1313329Y1286658D02*
X1326658Y1299987D01*
X1353316D01*
X1366645Y1286658D01*
Y1273329D01*
X1353316Y1260000D01*
X1339987D01*
X1353316D01*
X1366645Y1246671D01*
Y1233342D01*
X1353316Y1220013D01*
X1326658D01*
X1313329Y1233342D01*
X2374871Y1147454D02*
X2361542Y1160783D01*
X2334884D01*
X2321555Y1147454D01*
Y1094138D01*
X2334884Y1080808D01*
X2361542D01*
X2374871Y1094138D01*
X2401529Y1080808D02*
X2428187D01*
X2414858D01*
Y1160783D01*
X2401529Y1147454D01*
X2468174D02*
X2481504Y1160783D01*
X2508162D01*
X2521491Y1147454D01*
Y1094138D01*
X2508162Y1080808D01*
X2481504D01*
X2468174Y1094138D01*
Y1147454D01*
X2683954Y2013112D02*
Y2093086D01*
X2723941D01*
X2737270Y2079757D01*
Y2053099D01*
X2723941Y2039770D01*
X2683954D01*
X2710612D02*
X2737270Y2013112D01*
X2817244D02*
X2763928D01*
X2817244Y2066428D01*
Y2079757D01*
X2803915Y2093086D01*
X2777257D01*
X2763928Y2079757D01*
X3018473Y2013096D02*
Y2093070D01*
X3058460D01*
X3071789Y2079741D01*
Y2053083D01*
X3058460Y2039754D01*
X3018473D01*
X3045131D02*
X3071789Y2013096D01*
X3098447D02*
X3125105D01*
X3111776D01*
Y2093070D01*
X3098447Y2079741D01*
X3345606Y1630298D02*
X3332277Y1643627D01*
X3305619D01*
X3292290Y1630298D01*
Y1576982D01*
X3305619Y1563653D01*
X3332277D01*
X3345606Y1576982D01*
X3372264D02*
X3385593Y1563653D01*
X3412251D01*
X3425580Y1576982D01*
Y1630298D01*
X3412251Y1643627D01*
X3385593D01*
X3372264Y1630298D01*
Y1616969D01*
X3385593Y1603640D01*
X3425580D01*
X2819277Y1074053D02*
X2805948Y1087382D01*
X2779290D01*
X2765960Y1074053D01*
Y1020737D01*
X2779290Y1007408D01*
X2805948D01*
X2819277Y1020737D01*
X2845935Y1087382D02*
X2899251D01*
Y1074053D01*
X2845935Y1020737D01*
Y1007408D01*
X3506684Y456658D02*
X3493355Y469987D01*
X3466697D01*
X3453368Y456658D01*
Y403342D01*
X3466697Y390013D01*
X3493355D01*
X3506684Y403342D01*
X3586658Y390013D02*
X3533342D01*
X3586658Y443329D01*
Y456658D01*
X3573329Y469987D01*
X3546671D01*
X3533342Y456658D01*
X3613316D02*
X3626645Y469987D01*
X3653303D01*
X3666632Y456658D01*
Y443329D01*
X3653303Y430000D01*
X3666632Y416671D01*
Y403342D01*
X3653303Y390013D01*
X3626645D01*
X3613316Y403342D01*
Y416671D01*
X3626645Y430000D01*
X3613316Y443329D01*
Y456658D01*
X3626645Y430000D02*
X3653303D01*
X3756684Y456658D02*
X3743355Y469987D01*
X3716697D01*
X3703368Y456658D01*
Y403342D01*
X3716697Y390013D01*
X3743355D01*
X3756684Y403342D01*
X3836658Y390013D02*
X3783342D01*
X3836658Y443329D01*
Y456658D01*
X3823329Y469987D01*
X3796671D01*
X3783342Y456658D01*
X3863316Y403342D02*
X3876645Y390013D01*
X3903303D01*
X3916632Y403342D01*
Y456658D01*
X3903303Y469987D01*
X3876645D01*
X3863316Y456658D01*
Y443329D01*
X3876645Y430000D01*
X3916632D01*
X3059136Y284412D02*
X3045807Y297741D01*
X3019149D01*
X3005820Y284412D01*
Y231096D01*
X3019149Y217767D01*
X3045807D01*
X3059136Y231096D01*
X3085794Y284412D02*
X3099124Y297741D01*
X3125782D01*
X3139111Y284412D01*
Y271083D01*
X3125782Y257754D01*
X3139111Y244425D01*
Y231096D01*
X3125782Y217767D01*
X3099124D01*
X3085794Y231096D01*
Y244425D01*
X3099124Y257754D01*
X3085794Y271083D01*
Y284412D01*
X3099124Y257754D02*
X3125782D01*
X3246684Y299987D02*
Y220013D01*
X3300000D01*
X3326658D02*
X3353316D01*
X3339987D01*
Y299987D01*
X3326658Y286658D01*
X2700786Y286658D02*
X2687457Y299987D01*
X2660799D01*
X2647470Y286658D01*
Y233342D01*
X2660799Y220013D01*
X2687457D01*
X2700786Y233342D01*
X2780760Y299987D02*
X2754102Y286658D01*
X2727444Y260000D01*
Y233342D01*
X2740773Y220013D01*
X2767431D01*
X2780760Y233342D01*
Y246671D01*
X2767431Y260000D01*
X2727444D01*
X2415686Y286658D02*
X2402357Y299987D01*
X2375699D01*
X2362370Y286658D01*
Y233342D01*
X2375699Y220013D01*
X2402357D01*
X2415686Y233342D01*
X2495660Y299987D02*
X2442344D01*
Y260000D01*
X2469002Y273329D01*
X2482331D01*
X2495660Y260000D01*
Y233342D01*
X2482331Y220013D01*
X2455673D01*
X2442344Y233342D01*
X3338980Y2211862D02*
Y2198534D01*
X3365638Y2171876D01*
X3392296Y2198534D01*
Y2211862D01*
X3365638Y2171876D02*
Y2131888D01*
X3472270D02*
X3418954D01*
X3472270Y2185204D01*
Y2198534D01*
X3458942Y2211862D01*
X3432283D01*
X3418954Y2198534D01*
X141077Y3234793D02*
Y3314768D01*
X167735Y3288110D01*
X194393Y3314768D01*
Y3234793D01*
X221051D02*
X247709D01*
X234381D01*
Y3314768D01*
X221051Y3301439D01*
D67*
X1910000Y2010200D02*
Y2144800D01*
X1590000Y2010200D02*
Y2144800D01*
X807100Y3485700D02*
X908700D01*
X857900Y3434900D02*
Y3536500D01*
X2563979Y2860238D02*
Y2733279D01*
X2589370Y2707887D01*
X2640154D01*
X2665546Y2733279D01*
Y2860238D01*
X2716329Y2834846D02*
X2741721Y2860238D01*
X2792505D01*
X2817897Y2834846D01*
Y2809454D01*
X2792505Y2784063D01*
X2767113D01*
X2792505D01*
X2817897Y2758671D01*
Y2733279D01*
X2792505Y2707887D01*
X2741721D01*
X2716329Y2733279D01*
X1844175Y3731591D02*
Y3833158D01*
X1818783Y3858550D01*
X1768000D01*
X1742608Y3833158D01*
Y3731591D01*
X1768000Y3706200D01*
X1818783D01*
X1793391Y3756983D02*
X1844175Y3706200D01*
X1818783D02*
X1844175Y3731591D01*
X1894958Y3706200D02*
X1945742D01*
X1920350D01*
Y3858550D01*
X1894958Y3833158D01*
X1698433Y2566175D02*
Y2540784D01*
X1749216Y2490000D01*
X1800000Y2540784D01*
Y2566175D01*
X1749216Y2490000D02*
Y2413825D01*
X1850784D02*
X1901567D01*
X1876176D01*
Y2566175D01*
X1850784Y2540784D01*
X2671207Y1773675D02*
Y1646717D01*
X2696599Y1621325D01*
X2747382D01*
X2772774Y1646717D01*
Y1773675D01*
X2823558Y1621325D02*
X2874341D01*
X2848950D01*
Y1773675D01*
X2823558Y1748284D01*
X3589549Y1340408D02*
Y1213449D01*
X3614940Y1188057D01*
X3665724D01*
X3691116Y1213449D01*
Y1340408D01*
X3843467D02*
X3792683Y1315016D01*
X3741899Y1264232D01*
Y1213449D01*
X3767291Y1188057D01*
X3818075D01*
X3843467Y1213449D01*
Y1238840D01*
X3818075Y1264232D01*
X3741899D01*
X1311114Y988231D02*
X1285722Y1013623D01*
X1234939D01*
X1209547Y988231D01*
Y886664D01*
X1234939Y861273D01*
X1285722D01*
X1311114Y886664D01*
X1438073Y861273D02*
Y1013623D01*
X1361898Y937448D01*
X1463465D01*
X1903429Y977265D02*
X1878037Y1002657D01*
X1827254D01*
X1801862Y977265D01*
Y875698D01*
X1827254Y850306D01*
X1878037D01*
X1903429Y875698D01*
X1954212Y977265D02*
X1979604Y1002657D01*
X2030388D01*
X2055780Y977265D01*
Y951873D01*
X2030388Y926482D01*
X2004996D01*
X2030388D01*
X2055780Y901090D01*
Y875698D01*
X2030388Y850306D01*
X1979604D01*
X1954212Y875698D01*
X3250000Y3876175D02*
X3148433D01*
Y3800000D01*
X3199217D01*
X3148433D01*
Y3723825D01*
X3300784D02*
X3351567D01*
X3326176D01*
Y3876175D01*
X3300784Y3850784D01*
X682407Y3825447D02*
Y3673096D01*
X758582D01*
X783974Y3698488D01*
Y3723879D01*
X758582Y3749271D01*
X682407D01*
X758582D01*
X783974Y3774663D01*
Y3800055D01*
X758582Y3825447D01*
X682407D01*
X834758Y3774663D02*
Y3698488D01*
X860149Y3673096D01*
X936325D01*
Y3774663D01*
X987108D02*
X1088675D01*
X987108Y3673096D01*
X1088675D01*
X1139459Y3774663D02*
X1241026D01*
X1139459Y3673096D01*
X1241026D01*
X1291810D02*
X1342593D01*
X1317202D01*
Y3825447D01*
X1291810Y3800055D01*
X236187Y1493479D02*
X210795Y1518871D01*
X160012D01*
X134620Y1493479D01*
Y1468087D01*
X160012Y1442695D01*
X210795D01*
X236187Y1417303D01*
Y1391912D01*
X210795Y1366520D01*
X160012D01*
X134620Y1391912D01*
X286971Y1366520D02*
X337754D01*
X312363D01*
Y1518871D01*
X286971Y1493479D01*
X720000Y1916175D02*
X669217D01*
X694608D01*
Y1789216D01*
X669217Y1763825D01*
X643825D01*
X618433Y1789216D01*
X770784Y1763825D02*
X821567D01*
X796176D01*
Y1916175D01*
X770784Y1890783D01*
%TF.MD5,058b0f2d455c90feee1cf28702047205*%
M02*
