%TF.GenerationSoftware,Altium Limited,Altium Designer,21.2.0 (30)*%
G04 Layer_Color=32896*
%FSLAX45Y45*%
%MOMM*%
%TF.SameCoordinates,6E67B6D2-48A1-4C3A-8D5B-8FB38F647B41*%
%TF.FilePolarity,Positive*%
%TF.FileFunction,Legend,Bot*%
%TF.Part,Single*%
G01*
G75*
%TA.AperFunction,NonConductor*%
%ADD34C,0.20000*%
%ADD62C,0.25000*%
%ADD63C,0.01000*%
%ADD64C,0.05000*%
%ADD65C,0.10000*%
%ADD66C,0.15000*%
%ADD67C,0.25400*%
%ADD68C,0.31000*%
D34*
X3073317Y1985390D02*
G03*
X3073317Y1985390I-1500000J0D01*
G01*
X3365607Y3129394D02*
Y3370607D01*
X3194393Y3129394D02*
Y3370607D01*
X2357930Y3655068D02*
Y3896281D01*
X2186717Y3655068D02*
Y3896281D01*
X990000Y3622500D02*
Y3797500D01*
X1150000Y3622500D02*
Y3797500D01*
X776200Y3585700D02*
Y3794300D01*
X643800Y3585700D02*
Y3794300D01*
X776200D01*
X643800Y3585700D02*
X776200D01*
X3390000Y2560000D02*
Y2840000D01*
X3110000Y2560000D02*
X3390000D01*
X3110000D02*
Y2840000D01*
X3110000Y2840000D02*
X3390000D01*
X3900804Y1951631D02*
Y2231631D01*
X3620805Y1951631D02*
X3900804D01*
X3620805D02*
Y2231631D01*
X3620804Y2231631D02*
X3900804D01*
X3625607Y1795607D02*
X3905607D01*
X3625607Y1515607D02*
Y1795606D01*
Y1515607D02*
X3905606D01*
X3905607Y1515607D02*
Y1795607D01*
X3394394Y1392427D02*
Y1593640D01*
X3224393Y1392427D02*
Y1593640D01*
X2305607Y189393D02*
Y430606D01*
X2134393Y189393D02*
Y430606D01*
X845607Y159393D02*
Y400607D01*
X674393Y159393D02*
Y400607D01*
X194393Y3179393D02*
Y3420607D01*
X365607Y3179393D02*
Y3420607D01*
X1872855Y189393D02*
Y430606D01*
X2044068Y189393D02*
Y430606D01*
X2444850Y3647524D02*
Y3888737D01*
X2616063Y3647524D02*
Y3888737D01*
X2736571Y3647524D02*
Y3888737D01*
X2907784Y3647524D02*
Y3888737D01*
D62*
X3262500Y2905000D02*
G03*
X3262500Y2905000I-12500J0D01*
G01*
X3773304Y2296631D02*
G03*
X3773304Y2296631I-12500J0D01*
G01*
X3778107Y1860607D02*
G03*
X3778107Y1860607I-12500J0D01*
G01*
X2468115Y267483D02*
G03*
X2468115Y267483I-1000J0D01*
G01*
D63*
X2629956Y3346909D02*
Y3518959D01*
Y3278959D02*
Y3379409D01*
X2434956Y3278959D02*
X2629956D01*
X2434956D02*
Y3518959D01*
X2629956D01*
D64*
X3094430Y374282D02*
Y673289D01*
X3437334Y374282D02*
Y673289D01*
X3094430D02*
X3437334D01*
X3094430Y374282D02*
X3437334D01*
X3094430Y712481D02*
Y876490D01*
X3437335Y712481D02*
Y876490D01*
X3094430D02*
X3437335D01*
X3094430Y712481D02*
X3437335D01*
X3072465Y151478D02*
Y897487D01*
X3458474Y151478D02*
Y897487D01*
X3072465D02*
X3458474D01*
X3072465Y151478D02*
X3458474D01*
X3094431Y172586D02*
Y336593D01*
X3437336Y172586D02*
Y336593D01*
X3094431D02*
X3437336D01*
X3094431Y172586D02*
X3437336D01*
D65*
X2759215Y165883D02*
Y496083D01*
X2429015Y165883D02*
Y496083D01*
Y165883D02*
X2759215D01*
X2429015Y496083D02*
X2759215D01*
X814300Y3788900D02*
Y3795565D01*
X807636D01*
Y3788900D01*
X814300D01*
D66*
X323316Y3096658D02*
X336645Y3109987D01*
X363303D01*
X376632Y3096658D01*
Y3043342D01*
X363303Y3030013D01*
X336645D01*
X323316Y3043342D01*
X243342Y3030013D02*
X296658D01*
X243342Y3083329D01*
Y3096658D01*
X256671Y3109987D01*
X283329D01*
X296658Y3096658D01*
X216684D02*
X203355Y3109987D01*
X176697D01*
X163368Y3096658D01*
Y3083329D01*
X176697Y3070000D01*
X190026D01*
X176697D01*
X163368Y3056671D01*
Y3043342D01*
X176697Y3030013D01*
X203355D01*
X216684Y3043342D01*
X3069345Y3142687D02*
Y3062713D01*
X3016029D01*
X2989371Y3129358D02*
X2976042Y3142687D01*
X2949384D01*
X2936055Y3129358D01*
Y3116029D01*
X2949384Y3102700D01*
X2936055Y3089371D01*
Y3076042D01*
X2949384Y3062713D01*
X2976042D01*
X2989371Y3076042D01*
Y3089371D01*
X2976042Y3102700D01*
X2989371Y3116029D01*
Y3129358D01*
X2976042Y3102700D02*
X2949384D01*
X3318450Y3492792D02*
X3331779Y3506121D01*
X3358437D01*
X3371766Y3492792D01*
Y3439476D01*
X3358437Y3426147D01*
X3331779D01*
X3318450Y3439476D01*
X3238476Y3426147D02*
X3291792D01*
X3238476Y3479463D01*
Y3492792D01*
X3251805Y3506121D01*
X3278463D01*
X3291792Y3492792D01*
X3171831Y3426147D02*
Y3506121D01*
X3211818Y3466134D01*
X3158502D01*
X2696645Y3249987D02*
Y3183342D01*
X2683316Y3170013D01*
X2656658D01*
X2643329Y3183342D01*
Y3249987D01*
X2563355D02*
X2616671D01*
Y3210000D01*
X2590013Y3223329D01*
X2576684D01*
X2563355Y3210000D01*
Y3183342D01*
X2576684Y3170013D01*
X2603342D01*
X2616671Y3183342D01*
X2296032Y3602706D02*
X2307695Y3614369D01*
X2331021D01*
X2342684Y3602706D01*
Y3556055D01*
X2331021Y3544392D01*
X2307695D01*
X2296032Y3556055D01*
X2226055Y3544392D02*
X2272706D01*
X2226055Y3591043D01*
Y3602706D01*
X2237718Y3614369D01*
X2261043D01*
X2272706Y3602706D01*
X2156077Y3614369D02*
X2179403Y3602706D01*
X2202729Y3579380D01*
Y3556055D01*
X2191066Y3544392D01*
X2167740D01*
X2156077Y3556055D01*
Y3567718D01*
X2167740Y3579380D01*
X2202729D01*
X1926253Y3637472D02*
Y3717446D01*
X1886266D01*
X1872937Y3704117D01*
Y3677459D01*
X1886266Y3664130D01*
X1926253D01*
X1899595D02*
X1872937Y3637472D01*
X1846279Y3717446D02*
X1792963D01*
Y3704117D01*
X1846279Y3650801D01*
Y3637472D01*
X2034447Y3492692D02*
Y3572666D01*
X1994460D01*
X1981131Y3559337D01*
Y3532679D01*
X1994460Y3519350D01*
X2034447D01*
X2007789D02*
X1981131Y3492692D01*
X1901156Y3572666D02*
X1927815Y3559337D01*
X1954473Y3532679D01*
Y3506021D01*
X1941143Y3492692D01*
X1914485D01*
X1901156Y3506021D01*
Y3519350D01*
X1914485Y3532679D01*
X1954473D01*
X1126645Y3579987D02*
Y3500013D01*
X1073329D01*
X1046671Y3579987D02*
X993355D01*
Y3566658D01*
X1046671Y3513342D01*
Y3500013D01*
X2003316Y126658D02*
X2016645Y139987D01*
X2043303D01*
X2056632Y126658D01*
Y73342D01*
X2043303Y60013D01*
X2016645D01*
X2003316Y73342D01*
X1976658Y126658D02*
X1963329Y139987D01*
X1936671D01*
X1923342Y126658D01*
Y113329D01*
X1936671Y100000D01*
X1950000D01*
X1936671D01*
X1923342Y86671D01*
Y73342D01*
X1936671Y60013D01*
X1963329D01*
X1976658Y73342D01*
X1896684Y126658D02*
X1883355Y139987D01*
X1856697D01*
X1843368Y126658D01*
Y73342D01*
X1856697Y60013D01*
X1883355D01*
X1896684Y73342D01*
Y126658D01*
X2998696Y2802064D02*
Y2882038D01*
X2958709D01*
X2945380Y2868709D01*
Y2842051D01*
X2958709Y2828722D01*
X2998696D01*
X2972038D02*
X2945380Y2802064D01*
X2878735D02*
Y2882038D01*
X2918722Y2842051D01*
X2865406D01*
X3358274Y2998384D02*
Y3078359D01*
X3318287D01*
X3304958Y3065030D01*
Y3038372D01*
X3318287Y3025042D01*
X3358274D01*
X3331616D02*
X3304958Y2998384D01*
X3224984Y3078359D02*
X3278300D01*
Y3038372D01*
X3251642Y3051701D01*
X3238313D01*
X3224984Y3038372D01*
Y3011714D01*
X3238313Y2998384D01*
X3264971D01*
X3278300Y3011714D01*
X3369767Y1326442D02*
X3383096Y1339771D01*
X3409754D01*
X3423083Y1326442D01*
Y1273126D01*
X3409754Y1259797D01*
X3383096D01*
X3369767Y1273126D01*
X3289793Y1259797D02*
X3343109D01*
X3289793Y1313113D01*
Y1326442D01*
X3303122Y1339771D01*
X3329780D01*
X3343109Y1326442D01*
X3209819Y1259797D02*
X3263135D01*
X3209819Y1313113D01*
Y1326442D01*
X3223147Y1339771D01*
X3249806D01*
X3263135Y1326442D01*
X2259987Y136658D02*
X2273316Y149987D01*
X2299974D01*
X2313303Y136658D01*
Y83342D01*
X2299974Y70013D01*
X2273316D01*
X2259987Y83342D01*
X2233329Y136658D02*
X2220000Y149987D01*
X2193342D01*
X2180013Y136658D01*
Y123329D01*
X2193342Y110000D01*
X2206671D01*
X2193342D01*
X2180013Y96671D01*
Y83342D01*
X2193342Y70013D01*
X2220000D01*
X2233329Y83342D01*
X2153355Y70013D02*
X2126697D01*
X2140025D01*
Y149987D01*
X2153355Y136658D01*
X929987Y516658D02*
X943316Y529987D01*
X969974D01*
X983303Y516658D01*
Y463342D01*
X969974Y450013D01*
X943316D01*
X929987Y463342D01*
X850013Y450013D02*
X903329D01*
X850013Y503329D01*
Y516658D01*
X863342Y529987D01*
X890000D01*
X903329Y516658D01*
X823355Y450013D02*
X796697D01*
X810026D01*
Y529987D01*
X823355Y516658D01*
X2577608Y3602706D02*
X2589271Y3614369D01*
X2612597D01*
X2624259Y3602706D01*
Y3556055D01*
X2612597Y3544392D01*
X2589271D01*
X2577608Y3556055D01*
X2507630Y3544392D02*
X2554282D01*
X2507630Y3591043D01*
Y3602706D01*
X2519293Y3614369D01*
X2542619D01*
X2554282Y3602706D01*
X2484304Y3614369D02*
X2437653D01*
Y3602706D01*
X2484304Y3556055D01*
Y3544392D01*
X2937262Y3593936D02*
X2948925Y3605599D01*
X2972251D01*
X2983914Y3593936D01*
Y3547284D01*
X2972251Y3535622D01*
X2948925D01*
X2937262Y3547284D01*
X2867285Y3535622D02*
X2913936D01*
X2867285Y3582273D01*
Y3593936D01*
X2878948Y3605599D01*
X2902273D01*
X2913936Y3593936D01*
X2797307Y3605599D02*
X2843959D01*
Y3570610D01*
X2820633Y3582273D01*
X2808970D01*
X2797307Y3570610D01*
Y3547284D01*
X2808970Y3535622D01*
X2832296D01*
X2843959Y3547284D01*
D67*
X856959Y3546175D02*
Y3419216D01*
X831567Y3393825D01*
X780784D01*
X755392Y3419216D01*
Y3546175D01*
X628433Y3393825D02*
Y3546175D01*
X704608Y3470000D01*
X603041D01*
X3580773Y1967426D02*
X3479206D01*
X3529989D01*
Y1815075D01*
X3428422D02*
Y1967426D01*
X3352247D01*
X3326855Y1942034D01*
Y1891250D01*
X3352247Y1865859D01*
X3428422D01*
X3174504Y1815075D02*
X3276071D01*
X3174504Y1916642D01*
Y1942034D01*
X3199896Y1967426D01*
X3250680D01*
X3276071Y1942034D01*
X3493134Y2486175D02*
X3391567D01*
X3442351D01*
Y2333825D01*
X3340784D02*
Y2486175D01*
X3264608D01*
X3239216Y2460783D01*
Y2410000D01*
X3264608Y2384608D01*
X3340784D01*
X3188433Y2460783D02*
X3163041Y2486175D01*
X3112257D01*
X3086866Y2460783D01*
Y2435392D01*
X3112257Y2410000D01*
X3137649D01*
X3112257D01*
X3086866Y2384608D01*
Y2359217D01*
X3112257Y2333825D01*
X3163041D01*
X3188433Y2359217D01*
X3924837Y1409668D02*
X3823270D01*
X3874054D01*
Y1257317D01*
X3772487D02*
Y1409668D01*
X3696311D01*
X3670920Y1384276D01*
Y1333493D01*
X3696311Y1308101D01*
X3772487D01*
X3620136Y1257317D02*
X3569353D01*
X3594744D01*
Y1409668D01*
X3620136Y1384276D01*
X3376150Y1088336D02*
Y961378D01*
X3350758Y935986D01*
X3299975D01*
X3274583Y961378D01*
Y1088336D01*
X3122232Y935986D02*
X3223799D01*
X3122232Y1037553D01*
Y1062945D01*
X3147624Y1088336D01*
X3198407D01*
X3223799Y1062945D01*
X2696959Y686175D02*
Y559217D01*
X2671567Y533825D01*
X2620783D01*
X2595392Y559217D01*
Y686175D01*
X2544608D02*
X2443041D01*
Y660784D01*
X2544608Y559217D01*
Y533825D01*
D68*
X1683290Y1729968D02*
Y1530032D01*
X1583322D01*
X1550000Y1563355D01*
Y1596677D01*
X1583322Y1630000D01*
X1683290D01*
X1583322D01*
X1550000Y1663323D01*
Y1696645D01*
X1583322Y1729968D01*
X1683290D01*
X1483355Y1530032D02*
X1416710D01*
X1450032D01*
Y1729968D01*
X1483355Y1696645D01*
%TF.MD5,657eabffa18867853d11fba8b3e430ff*%
M02*
