%TF.GenerationSoftware,Altium Limited,Altium Designer,21.2.0 (30)*%
G04 Layer_Color=16711935*
%FSLAX45Y45*%
%MOMM*%
%TF.SameCoordinates,6E67B6D2-48A1-4C3A-8D5B-8FB38F647B41*%
%TF.FilePolarity,Negative*%
%TF.FileFunction,Soldermask,Bot*%
%TF.Part,Single*%
G01*
G75*
%TA.AperFunction,SMDPad,CuDef*%
%ADD20R,0.91213X0.95814*%
%TA.AperFunction,ViaPad*%
%ADD50C,0.30000*%
%TA.AperFunction,ConnectorPad*%
%ADD54R,0.91213X0.95814*%
%TA.AperFunction,SMDPad,CuDef*%
%ADD56R,0.80000X0.60000*%
%ADD59R,0.81213X0.75814*%
%ADD69R,2.40000X0.95000*%
G04:AMPARAMS|DCode=70|XSize=1.14mm|YSize=1.74mm|CornerRadius=0.32mm|HoleSize=0mm|Usage=FLASHONLY|Rotation=90.000|XOffset=0mm|YOffset=0mm|HoleType=Round|Shape=RoundedRectangle|*
%AMROUNDEDRECTD70*
21,1,1.14000,1.10000,0,0,90.0*
21,1,0.50000,1.74000,0,0,90.0*
1,1,0.64000,0.55000,0.25000*
1,1,0.64000,0.55000,-0.25000*
1,1,0.64000,-0.55000,-0.25000*
1,1,0.64000,-0.55000,0.25000*
%
%ADD70ROUNDEDRECTD70*%
G04:AMPARAMS|DCode=71|XSize=0.59mm|YSize=0.44mm|CornerRadius=0.145mm|HoleSize=0mm|Usage=FLASHONLY|Rotation=90.000|XOffset=0mm|YOffset=0mm|HoleType=Round|Shape=RoundedRectangle|*
%AMROUNDEDRECTD71*
21,1,0.59000,0.15000,0,0,90.0*
21,1,0.30000,0.44000,0,0,90.0*
1,1,0.29000,0.07500,0.15000*
1,1,0.29000,0.07500,-0.15000*
1,1,0.29000,-0.07500,-0.15000*
1,1,0.29000,-0.07500,0.15000*
%
%ADD71ROUNDEDRECTD71*%
%TA.AperFunction,ConnectorPad*%
%ADD72R,0.65000X0.70000*%
%TA.AperFunction,SMDPad,CuDef*%
%ADD73R,0.65000X0.70000*%
%TA.AperFunction,BGAPad,CuDef*%
%ADD74C,0.25000*%
%TA.AperFunction,SMDPad,CuDef*%
%ADD75R,1.10000X1.00000*%
%TA.AperFunction,BGAPad,CuDef*%
%ADD76R,0.50000X0.50000*%
%TA.AperFunction,SMDPad,CuDef*%
%ADD77R,3.10000X3.10000*%
%TA.AperFunction,ComponentPad*%
%ADD78R,1.60000X1.60000*%
%ADD79C,1.40000*%
%TA.AperFunction,ViaPad*%
%ADD80C,0.20400*%
%TA.AperFunction,ComponentPad*%
%ADD81C,1.95000*%
%ADD82R,1.95000X1.95000*%
%TA.AperFunction,ViaPad*%
%ADD83C,0.56000*%
D20*
X3280000Y3322699D02*
D03*
Y3177301D02*
D03*
X760000Y352699D02*
D03*
Y207301D02*
D03*
X280000Y3227301D02*
D03*
Y3372699D02*
D03*
D50*
X2665321Y2552555D02*
D03*
X2812821Y2405055D02*
D03*
X2517820D02*
D03*
X2665321Y2257555D02*
D03*
Y2405055D02*
D03*
X2583456Y3398959D02*
D03*
X2478456D02*
D03*
X3392602Y3703894D02*
D03*
D54*
X2272324Y3848374D02*
D03*
Y3702975D02*
D03*
X2220000Y382699D02*
D03*
Y237301D02*
D03*
X1958461D02*
D03*
Y382699D02*
D03*
X2530457Y3695431D02*
D03*
Y3840830D02*
D03*
X2822177Y3695431D02*
D03*
Y3840830D02*
D03*
D56*
X1070000Y3780000D02*
D03*
Y3640000D02*
D03*
D59*
X3309393Y1555733D02*
D03*
Y1430334D02*
D03*
D69*
X2986651Y3265479D02*
D03*
Y3460479D02*
D03*
D70*
X2530956Y3398959D02*
D03*
D71*
X2465956Y3496459D02*
D03*
X2530956D02*
D03*
X2595956D02*
D03*
X2465956Y3301459D02*
D03*
X2530956D02*
D03*
X2595956D02*
D03*
D72*
X1889175Y3790540D02*
D03*
Y3875540D02*
D03*
D73*
X2038097Y3640172D02*
D03*
Y3725172D02*
D03*
X2932051Y2925657D02*
D03*
Y3010657D02*
D03*
X3147118Y3011521D02*
D03*
Y2926521D02*
D03*
D74*
X690000Y3630000D02*
D03*
X730000D02*
D03*
X690000Y3670000D02*
D03*
X730000D02*
D03*
X690000Y3710000D02*
D03*
X730000D02*
D03*
X690000Y3750000D02*
D03*
X730000D02*
D03*
D75*
X3390899Y464366D02*
D03*
Y224366D02*
D03*
Y344366D02*
D03*
Y584366D02*
D03*
Y704366D02*
D03*
Y824366D02*
D03*
X3143300D02*
D03*
Y704366D02*
D03*
Y584366D02*
D03*
Y464366D02*
D03*
Y344366D02*
D03*
Y224366D02*
D03*
D76*
X2554115Y210983D02*
D03*
X2714115Y450983D02*
D03*
X2634115Y210983D02*
D03*
Y450983D02*
D03*
X2474115D02*
D03*
X2554115D02*
D03*
X2714115Y210983D02*
D03*
X2474115D02*
D03*
D77*
X1573317Y3661790D02*
D03*
Y308990D02*
D03*
D78*
X3250000Y2700000D02*
D03*
X3760804Y2091631D02*
D03*
X3765607Y1655607D02*
D03*
D79*
X3407500Y2040000D02*
D03*
Y1730000D02*
D03*
D80*
X3870000Y3870000D02*
D03*
X130000D02*
D03*
X3870000Y130000D02*
D03*
X130000D02*
D03*
D81*
X245851Y1107585D02*
D03*
D82*
Y599585D02*
D03*
D83*
X2409148Y2088629D02*
D03*
X2466375Y2782257D02*
D03*
X2120000Y2250000D02*
D03*
X2360000Y2740000D02*
D03*
X2870000Y3080000D02*
D03*
X2872500Y2075000D02*
D03*
X2114857Y237000D02*
D03*
X2200000Y1310000D02*
D03*
X3890000Y340000D02*
D03*
X3490000Y770000D02*
D03*
X1470000Y550000D02*
D03*
X940000Y510000D02*
D03*
X610000Y250000D02*
D03*
X470000Y520000D02*
D03*
X3560000Y2080000D02*
D03*
X3830000Y1860000D02*
D03*
X3010000Y290000D02*
D03*
X2580000Y850000D02*
D03*
X1960000Y1560000D02*
D03*
Y1130000D02*
D03*
X1736254Y878788D02*
D03*
X2230000Y670000D02*
D03*
X730000Y520000D02*
D03*
X1091506Y227674D02*
D03*
X740000Y870000D02*
D03*
X160000Y300000D02*
D03*
X470000Y870000D02*
D03*
X200000D02*
D03*
X1660000Y3840000D02*
D03*
X200000Y3540000D02*
D03*
X650000Y3830000D02*
D03*
X2532000Y1255242D02*
D03*
X2340000Y1150000D02*
D03*
X3150000Y1720000D02*
D03*
X2859377Y1790536D02*
D03*
X1698605Y3380589D02*
D03*
X1216779Y3831041D02*
D03*
X1150000Y3410000D02*
D03*
X990000Y3240000D02*
D03*
X3910000Y940000D02*
D03*
X3883275Y1480000D02*
D03*
X2990000Y3090000D02*
D03*
X2200000Y2910000D02*
D03*
X1930000Y3410000D02*
D03*
X2410000Y3780000D02*
D03*
X2720000Y3550000D02*
D03*
X3062788Y3558533D02*
D03*
X2730000Y3090000D02*
D03*
X1043506Y2983377D02*
D03*
X1730000Y2870000D02*
D03*
X1501676Y2863009D02*
D03*
X643463Y2760154D02*
D03*
X810000Y2510000D02*
D03*
X1470142Y2191662D02*
D03*
X1468911Y1909745D02*
D03*
X844321Y3825679D02*
D03*
X974961Y3373859D02*
D03*
X1980000Y1680000D02*
D03*
X1516929Y1172219D02*
D03*
X1190000Y2280000D02*
D03*
X780000Y2140000D02*
D03*
X710000Y1440000D02*
D03*
X2820000Y200714D02*
D03*
X947622Y868141D02*
D03*
X582500Y3555000D02*
D03*
X3149500Y1398000D02*
D03*
X2089308Y1059308D02*
D03*
X3541762Y1291760D02*
D03*
X2330000Y2910000D02*
D03*
X2930000Y260000D02*
D03*
X1617622Y998140D02*
D03*
X2350000Y3440000D02*
D03*
X2040000Y3830000D02*
D03*
X2530000Y1050000D02*
D03*
Y950000D02*
D03*
X3040000Y1130000D02*
D03*
X2940000D02*
D03*
X3020000Y1260000D02*
D03*
X3202500Y1192500D02*
D03*
X2661115Y1190000D02*
D03*
%TF.MD5,ed96cf1e5021df470b648c33a1df8e86*%
M02*
